<svg xmlns="http://www.w3.org/2000/svg" width="260.165" height="72.921" viewBox="0 0 260.165 72.921"><g transform="translate(-20.5 -237.6)"><path d="M108.768,239h-3.295v22.2h3.295Zm-6.46,0H99.013v16.995c0,2.6-1.214,3.121-2.211,3.121H95.675V248.191H92.38v13.136c0,1.864,0,2.861-.564,3.945a2.54,2.54,0,0,1-1.517,1.214v1.04c3.772-.087,5.376-1.994,5.376-6.33h1.951a4.194,4.194,0,0,0,3.555-1.647,5.7,5.7,0,0,0,1.127-3.642V239Zm-13.136,0H85.877v22.2h3.295Zm50.507,1.864h-3.295v2.861h3.295Zm3.6,5.029h-5.116c-4.465,0-6.546,1.691-6.546,5.072,0,3.252,2.254,5.376,6.113,5.376h2.341v.3c0,1.6-.78,2.428-2.211,2.428h-9.971c-4.119,0-5.636-1.127-5.636-4.465v-6.46h-3.295v6.98c0,4.682,2.168,6.07,8.411,6.07h11.272a4.057,4.057,0,0,0,3.512-1.647,5.623,5.623,0,0,0,1.127-3.555Zm-4.682,8.541c-1.04,0-3.772-.3-3.772-3.295,0-2.038,1.171-3.121,3.6-3.121h1.517v6.416H138.6Zm-94.424-8.541H41.18c-8.02,0-8.281,4.119-8.281,8.931v4.292c0,2.384-.867,2.818-2.124,2.818H28.217c-1.647,0-4.379-.26-4.379-6.2,0-4.986,2.168-7.2,6.46-7.2h.13v-1.951c-3.382,0-5.506.65-7.5,2.515a8.807,8.807,0,0,0-2.428,6.676c0,6.156,2.731,8.237,6.416,8.237h4.639c2.948,0,4.6-1.864,4.6-5.246v-4.422c0-4.162.65-6.416,4.682-6.416v13.223H82.322a17.421,17.421,0,0,0,.39-3.121c-.13-6.373-4.509-10.882-10.8-10.882a12.589,12.589,0,0,0-5.549,1.214v5.593h3.295v-4.205a5.408,5.408,0,0,1,2.428-.477c3.382,0,6.937,3.165,6.937,8.974a3.878,3.878,0,0,1-.087.824H63.724l.043-.78c0-6.546-4.422-11.142-10.8-11.142a12.589,12.589,0,0,0-5.549,1.214v5.593h3.295v-4.205a5.408,5.408,0,0,1,2.428-.477c3.382,0,6.937,3.165,6.937,8.974v.824H44.171Zm137,2.254a23.133,23.133,0,0,0-4.465.477v10.448h-3.121c.043-.3.13-1,.13-1,.434-5.549-2.818-8.671-7.37-8.671-3.512,0-6.72,2.254-9.018,5.376l-.477.737v-5.506h-3.295v6.026c0,2.081-.694,3.035-2.211,3.035h-1.561V248.148h-3.338v13.136c0,1.864,0,2.861-.564,3.945a2.672,2.672,0,0,1-1.517,1.214v1.04c3.728-.087,5.376-1.994,5.376-6.33h32.038c4.379,0,7.457-2.558,7.457-6.5a5.966,5.966,0,0,0-1.777-4.726c-1.647-1.387-4.075-1.777-6.286-1.777M180,259.073v-8.541a4.083,4.083,0,0,1,1.171-.13c3.035,0,4.726,1.6,4.726,4.379,0,2.688-1.994,4.292-4.726,4.292Zm-22.457,0,.217-.39c2.341-4.552,5.2-6.763,8.411-6.763h.347c2.9.13,4.249,2.6,3.989,5.939l-.13,1.214Zm-82.2,4.6H72.048v2.861h3.295Zm-42.183,1.994H29.864v2.9h3.295Zm-5.723,0H24.142v2.9h3.295Z" transform="translate(0 -0.793)" fill="#273979"/><path d="M530.362,237.6H461.3v72.921h69.062Zm-64.337,4.986h59.568v62.863H466.026Z" transform="translate(-249.697)" fill="#273979"/><path d="M511.927,267.5l-11.836,7.153v11.922L489.6,292.992v14.35l11.619,7.153h0l10.665-6.33,10.275,6.33,11.922-7.283V292.949l-10.492-6.373V274.653Zm0,34.813-7.067-4.249v-20.55l7.067-4.292,6.98,4.292v20.55c-.043.043-6.937,4.205-6.98,4.249m10.4,6.46-5.766-3.512,7.023-4.292h0v-8.584l5.766,3.468v8.627Zm-20.983,0-6.98-4.292v-8.627l5.723-3.468v8.584l7.023,4.292Z" transform="translate(-265.728 -16.937)" fill="#273979"/><rect width="3.295" height="22.067" transform="translate(42.133 282.124)" fill="#273979"/><path d="M31.915,342.8H28.75L20.6,363.783h3.078l2.124-5.9h7.89l1.908,5.9h3.815Zm-5.289,13.006,3.338-9.321,3.078,9.321Z" transform="translate(-0.057 -59.592)" fill="#273979"/><path d="M272.05,342.8H265.2v20.983h6.2c4.552,0,7.544-2.428,7.544-6.113a5.167,5.167,0,0,0-5.159-5.029v-.52a5.169,5.169,0,0,0,3.858-5.029c0-2.775-2.124-4.292-5.593-4.292m-3.555,8.974v-6.937h2.384c2.124,0,3.425,1.127,3.425,3.035a3.951,3.951,0,0,1-4.249,3.9Zm0,9.928v-7.847h2.861c2.688,0,4.335,1.474,4.335,3.9,0,2.384-1.691,3.945-4.292,3.945Z" transform="translate(-138.614 -59.592)" fill="#273979"/><path d="M382.395,340.3H379.1v22.067h3.295v-8.714l6.156,8.974,3.208-1.171-5.679-7.674,4.379-5.419-2.948-1.474-5.116,6.676Z" transform="translate(-203.134 -58.176)" fill="#273979"/><path d="M348.141,356.1a6.243,6.243,0,0,0-4.812,2.124l-.477.52V356.49H339.6v14.87h3.295V362.43c0-2.514,1.431-4.119,3.642-4.119,2.038,0,3.295,1.387,3.295,3.858v9.191h3.295v-9.668c0-3.728-1.691-5.593-4.986-5.593" transform="translate(-180.758 -67.126)" fill="#273979"/><rect width="3.295" height="14.87" transform="translate(112.496 289.364)" fill="#273979"/><rect width="3.295" height="2.861" transform="translate(112.496 283.988)" fill="#273979"/><rect width="3.295" height="2.861" transform="translate(88.435 283.988)" fill="#273979"/><path d="M196.452,340.3H193.2v22.067h3.252v-8.931c0-2.515,1.431-4.119,3.685-4.119,2.081,0,3.295,1.387,3.295,3.858v9.191h3.295v-9.625c0-3.685-1.691-5.549-4.986-5.549a6.243,6.243,0,0,0-4.812,2.124l-.477.52Z" transform="translate(-97.828 -58.176)" fill="#273979"/><path d="M109.446,342.8H102.9v20.983h3.295V354.9h2.775s4.119,8.844,4.292,9.234c.347-.087,3.208-.607,3.772-.737-.347-.607-4.812-9.1-4.812-9.1l.217-.13a6.613,6.613,0,0,0,3.338-6.026c-.043-3.338-2.384-5.332-6.33-5.332m-3.252,10.015v-7.977h2.731a3.347,3.347,0,0,1,3.555,3.642,4.04,4.04,0,0,1-4.032,4.292h-2.254Z" transform="translate(-46.677 -59.592)" fill="#273979"/><path d="M177.776,357h-3.295v15a11.6,11.6,0,0,1-.564,3.9,2.27,2.27,0,0,1-1.517,1.214v1.04c3.772-.087,5.376-1.951,5.376-6.286Z" transform="translate(-86.046 -67.636)" fill="#273979"/><path d="M309.56,356.1a7.937,7.937,0,0,0-5.246,1.864c.173.3.737,1.171.954,1.474a5.515,5.515,0,0,1,3.815-1.431,2.813,2.813,0,0,1,2.731,2.6l.043.26-3.512,1.084c-3.555,1.04-5.246,2.775-5.246,5.333s1.647,4.379,3.945,4.379c3.121,0,4.9-2.948,4.9-2.948v2.558h3.338v-9.755c.043-3.6-1.908-5.419-5.723-5.419m-1.084,13.44a2.33,2.33,0,0,1-2.038-2.558c0-1.864,1.04-3.165,3.078-3.815l2.168-.737.347-.13.043.347c.217,3.382-.824,5.072-1.474,5.809a2.993,2.993,0,0,1-2.124,1.084" transform="translate(-160.083 -67.126)" fill="#273979"/><path d="M147.373,356.1a7.857,7.857,0,0,0-5.246,1.864c.173.3.737,1.171.954,1.474a5.589,5.589,0,0,1,3.815-1.431,2.854,2.854,0,0,1,2.775,2.6l.043.26-3.512,1.084c-3.555,1.04-5.2,2.775-5.2,5.333s1.647,4.379,3.9,4.379c3.121,0,4.9-2.948,4.9-2.948v2.558h3.338v-9.755c-.043-3.6-1.951-5.419-5.766-5.419m-1.127,13.44a2.33,2.33,0,0,1-2.038-2.558c0-1.864,1.04-3.165,3.078-3.815l2.168-.737.347-.13.043.347c.217,3.382-.824,5.072-1.474,5.809a2.993,2.993,0,0,1-2.124,1.084" transform="translate(-68.259 -67.126)" fill="#273979"/></g></svg>