<?xml version="1.0" encoding="UTF-8"?>
<svg id="Layer_1" xmlns="http://www.w3.org/2000/svg" viewBox="0 0 334.19 78.7"><path d="M285.08,13.44l19.21-6.06v56.89l-19.21,6.5V13.44h0Zm49.1,64.82V0h-78.36V78.26h78.36Z" style="fill:#400500;"/><path d="M13.46,73.5c-.91,.8-2.33,1.24-3.44,1.24-2.11,0-3.42-1.11-3.42-3.16,0-2.67,3.09-3.28,6.86-3.4v5.33h0Zm-2.5-18.09c-2.45,0-5.93,.68-8.48,1.3l1.24,4.39c2.27-.55,4.43-.98,5.81-.98,2.8,0,3.88,.93,3.93,4.09v.12c-7.39,.31-12.09,2.24-12.09,7.56,0,3.84,3.12,6.68,6.82,6.68,2.19,0,4.26-.12,6.19-1.3,.09,.38,.16,.57,.3,.99l4.36-.06c0-1.35,.04-3.14,.04-4.69v-10.22c0-6.94-4.25-7.87-8.13-7.87h0Z" style="fill:#400500;"/><path d="M124.44,73.5c-.94,.8-2.35,1.24-3.46,1.24-2.09,0-3.42-1.11-3.42-3.16,0-2.67,3.08-3.28,6.88-3.4v5.33h0Zm-2.52-18.09c-2.46,0-5.94,.68-8.45,1.3l1.23,4.39c2.26-.55,4.42-.98,5.8-.98,2.82,0,3.87,.93,3.94,4.09v.12c-7.4,.31-12.12,2.24-12.12,7.56,0,3.84,3.11,6.68,6.82,6.68,2.23,0,4.27-.12,6.2-1.3,.1,.38,.17,.57,.32,.99l4.35-.06c0-1.35,.07-3.14,.07-4.69v-10.22c0-6.94-4.27-7.87-8.15-7.87h0Z" style="fill:#400500;"/><path d="M181.12,73.5c-.92,.8-2.33,1.24-3.42,1.24-2.13,0-3.44-1.11-3.44-3.16,0-2.67,3.07-3.28,6.86-3.4v5.33h0Zm-2.5-18.09c-2.45,0-5.92,.68-8.47,1.3l1.24,4.39c2.28-.55,4.42-.98,5.79-.98,2.83,0,3.9,.93,3.94,4.09v.12c-7.39,.31-12.08,2.24-12.08,7.56,0,3.84,3.12,6.68,6.81,6.68,2.2,0,4.26-.12,6.21-1.3,.09,.38,.16,.57,.29,.99l4.36-.06c0-1.35,.05-3.14,.05-4.69v-10.22c0-6.94-4.25-7.87-8.13-7.87h0Z" style="fill:#400500;"/><path d="M154.57,74c-1,0-1.98-.07-3.07-.31v-12.88c1.04-.24,2.15-.43,3.3-.43,2.32,0,5.02,.19,5.02,6.75,0,4.4-2.47,6.88-5.25,6.88h0Zm.48-18.58c-1.27,0-2.51,.19-3.56,.38l.05-9.23h-5.73l-.05,30.84c3.21,.93,5.36,1.3,8.84,1.3,6.17,0,11.04-4.22,11.04-11.58,0-9.41-4.41-11.71-10.6-11.71h0Z" style="fill:#400500;"/><polygon points="229.46 65.26 237.34 56.22 231.04 56.22 222.95 65.89 222.95 46.63 217.26 46.56 217.26 78.26 222.95 78.26 222.95 67.98 224.75 67.98 230.86 78.26 237.5 78.26 229.46 65.26 229.46 65.26" style="fill:#400500;"/><polygon points="38.16 78.26 43.89 78.26 43.89 56.22 38.16 56.22 38.16 78.26 38.16 78.26" style="fill:#400500;"/><path d="M40.98,47.07c-1.69,0-3.05,1.36-3.05,3.03s1.36,3.1,3.05,3.1,3.05-1.37,3.05-3.1-1.37-3.03-3.05-3.03h0Z" style="fill:#400500;"/><path d="M59.91,55.42c-3.76,0-8.1,.68-10.58,1.37v21.47h5.74v-17.15c1.36-.25,2.81-.37,4.12-.37,3.84,0,4.46,2.42,4.46,6.32v11.2h5.72v-13.37c0-6.02-2.95-9.48-9.45-9.48h0Z" style="fill:#400500;"/><path d="M202.57,55.42c-3.74,0-8.09,.68-10.56,1.37v21.47h5.72v-17.15c1.34-.25,2.81-.37,4.14-.37,3.82,0,4.42,2.42,4.42,6.32v11.2h5.74v-13.37c0-6.02-2.96-9.48-9.46-9.48h0Z" style="fill:#400500;"/><path d="M99.06,55.42c-2.53,0-5.54,.55-7.86,1.74-1.12-.86-3.3-1.74-6.22-1.74-3.55,0-7.94,.68-10.35,1.37v21.47h5.72v-17.15c1.31-.25,2.73-.37,4-.37,3.74,0,4.33,2.42,4.33,6.32v11.2h5.72v-13.37c0-.81-.1-1.42-.19-2.11l-.06-.25c-.04-.24-.06-.43-.1-.68,1.31-.74,3.06-1.11,4.35-1.11,3.72,0,4.31,2.35,4.31,6.32v11.2h5.7v-13.37c0-6.07-2.95-9.48-9.36-9.48h0Z" style="fill:#400500;"/><path d="M32.78,73.87c-1.41,0-2.54-.69-2.54-3.16v-24.14h-5.7v24.33c0,6.63,3.6,7.36,6.28,7.36,.99,0,2.03,0,3.63-.06l-.11-4.33c-.3,.06-1.2,0-1.55,0h0Z" style="fill:#400500;"/><path d="M46.99,22.92c0,2.72-.62,3.89-2.29,3.89-1.48,0-3.14-1.42-4.63-3.59-.26-.36-.41-.68-.41-.68v-.43c0-3.97,.45-6.32,4.17-6.32,1.01,0,2.09,.11,3.16,.23v6.89h0Zm13.64,.18c0,2.72-1.52,3.47-3.33,3.47-2.23,0-4.1-1.18-4.1-5.14V11.4c-2.45-.68-6.74-1.36-10.41-1.36-6.37,0-9.27,3.34-9.33,9.16v3.9c0,2.72-1.18,3.47-2.71,3.47h-2.02c-1.52,0-2.7-.75-2.7-3.47V0h-6.2V23.28c0,5.39,2.09,7.87,6.7,7.87h6.34c3.03,0,4.83-.93,5.9-2.98,0,0,.34,.39,.57,.57,1.65,1.67,3.74,2.72,5.9,2.72,2.43,0,4.42-.8,5.78-2.29,2.82,1.98,4.6,1.98,7.75,1.98,4.09,0,8.09-.68,8.09-7.87V11.4h-6.2v11.7h0Zm-51.83,1.17c0-1.54,1.71-2.29,3.65-2.29,.43,0,.77,0,1.1,.06l1.44-4.82c-1.33-.32-2.51-.37-3.56-.37-3.96,0-8.78,2.05-8.78,6.43,0,1.3,.36,2.3,.82,3.29H1.37l-1.37,4.58H14.25l1.36-4.58h-3.59c-1.96,0-3.22-.86-3.22-2.29h0ZM63.73,0c-1.82,0-3.32,1.5-3.32,3.3s1.5,3.33,3.32,3.33,3.3-1.48,3.3-3.33-1.49-3.3-3.3-3.3h0Zm85.58,23.1c0,2.22-.97,3.41-3.07,3.41-1.1,0-4.2-3.53-4.2-6.5,0-2.3,1.04-4.2,4.1-4.2,1.02,0,2.12,.11,3.16,.23v7.07h0Zm6.22-11.77c-2.45-.61-6.75-1.3-10.41-1.3-6.42,0-9.33,3.4-9.33,9.35,0,2.36,1.29,5.02,2.93,7.13-4.42,0-10.76,.06-10.76,.06-2.3,0-4.01-1.25-4.01-3.47v-7.3l-6.21,1.98v6.13c0,4.21,3.39,7.25,7.4,7.25h21.15c5.26-.06,9.23-2.16,9.23-7.87V11.34h0Zm-78.69,24.27c0-.48,.5-.74,1.09-.74,.13,0,.24,0,.32,.07l.44-1.44c-.41-.12-.75-.12-1.08-.12-1.19,0-2.62,.56-2.62,1.92,0,.38,.09,.68,.24,1h-.64l-.39,1.36h4.26l.41-1.36h-1.09c-.58,0-.94-.31-.94-.69h0Zm8.32-12.5c0,2.72-1.19,3.47-2.72,3.47h-3.48V0h-4.64V26.57h-2.39l-1.36,4.58h14c4.68,0,6.79-2.3,6.79-7.87V0h-6.19V23.1h0ZM97.45,0V31.15h6.18V0h-6.18Zm48.69,6.63c1.83,0,3.31-1.48,3.31-3.33s-1.48-3.3-3.31-3.3-3.31,1.5-3.31,3.3,1.47,3.33,3.31,3.33h0Zm84.34,16.3c0,2.72-.64,3.89-2.28,3.89-1.51,0-3.16-1.42-4.65-3.59-.25-.36-.4-.68-.4-.68v-.43c0-3.97,.45-6.32,4.15-6.32,1.03,0,2.12,.11,3.18,.23v6.89h0Zm-47.67,3.65v-5.38c6.98-1.85,11.19-2.48,14.28-2.48,3.74,0,6.53,2.29,6.98,7.86h-21.26Zm43.45-16.53c-6.37,0-9.28,3.34-9.32,9.16v3.9c0,2.72-1.19,3.47-2.73,3.47h-3.87c-.82-8.36-4.11-13.61-12.21-13.61-3.87,0-9.5,1.1-15.33,2.85v-2.85l-6.19,1.91v11.71h-7.48V11.4h-6.18v15.92c0,5.89-4.58,7.86-7.53,7.86l1.34,4.7c4.88,0,10.23-2.48,11.87-8.72h47.71c3.02,0,4.82-.93,5.89-2.98,0,0,.34,.39,.57,.57,1.64,1.67,3.75,2.72,5.88,2.72,4.9,0,7.98-3.22,7.98-8.92V11.4c-2.43-.68-6.74-1.36-10.41-1.36h0Z" style="fill:#400500;"/></svg>