<?xml version="1.0" encoding="UTF-8"?>
<svg id="Layer_1" xmlns="http://www.w3.org/2000/svg" xmlns:xlink="http://www.w3.org/1999/xlink" viewBox="0 0 182.89 60.61"><defs><linearGradient id="linear-gradient" x1="65.32" y1="352.44" x2="10.45" y2="294" gradientTransform="translate(0 358.43) scale(1 -1)" gradientUnits="userSpaceOnUse"><stop offset="0" stop-color="#a6ce39"/><stop offset=".5" stop-color="#03b585"/><stop offset="1" stop-color="#273470"/></linearGradient><linearGradient id="linear-gradient-2" x1="49.53" y1="366.99" x2="-5.34" y2="308.57" xlink:href="#linear-gradient"/><linearGradient id="linear-gradient-3" x1="58.28" y1="358.5" x2="3.78" y2="300.47" xlink:href="#linear-gradient"/><linearGradient id="linear-gradient-4" x1="55.73" y1="360.9" x2="1.23" y2="302.86" xlink:href="#linear-gradient"/><linearGradient id="linear-gradient-5" x1="35.54" y1="373.56" x2="-8.36" y2="326.82" xlink:href="#linear-gradient"/><linearGradient id="linear-gradient-6" x1="46.46" y1="362.87" x2="2.56" y2="316.13" xlink:href="#linear-gradient"/><linearGradient id="linear-gradient-7" x1="57.82" y1="354.02" x2="13.92" y2="307.28" xlink:href="#linear-gradient"/><linearGradient id="linear-gradient-8" x1="61.38" y1="348.9" x2="17.48" y2="302.16" xlink:href="#linear-gradient"/><linearGradient id="linear-gradient-9" x1="67.51" y1="343.16" x2="23.61" y2="296.42" xlink:href="#linear-gradient"/><linearGradient id="linear-gradient-10" x1="64.93" y1="340.26" x2="21.03" y2="293.52" xlink:href="#linear-gradient"/><linearGradient id="linear-gradient-11" x1="51.96" y1="346.85" x2="8.06" y2="300.11" xlink:href="#linear-gradient"/><linearGradient id="linear-gradient-12" x1="40.3" y1="359.11" x2="-3.6" y2="312.36" xlink:href="#linear-gradient"/><linearGradient id="linear-gradient-13" x1="52.38" y1="337.66" x2="6.25" y2="337.66" xlink:href="#linear-gradient"/><linearGradient id="linear-gradient-14" x1="52.99" y1="333.21" x2="6.85" y2="333.21" xlink:href="#linear-gradient"/><linearGradient id="linear-gradient-15" x1="52.99" y1="328.74" x2="6.86" y2="328.74" xlink:href="#linear-gradient"/><linearGradient id="linear-gradient-16" x1="52.99" y1="324.29" x2="6.85" y2="324.29" xlink:href="#linear-gradient"/><linearGradient id="linear-gradient-17" x1="52.38" y1="319.83" x2="6.25" y2="319.83" xlink:href="#linear-gradient"/><linearGradient id="linear-gradient-18" x1="51.45" y1="319.41" x2="5.31" y2="319.41" xlink:href="#linear-gradient"/><linearGradient id="linear-gradient-19" x1="49.91" y1="314.96" x2="3.76" y2="314.96" xlink:href="#linear-gradient"/><linearGradient id="linear-gradient-20" x1="49.9" y1="319.41" x2="3.77" y2="319.41" xlink:href="#linear-gradient"/><linearGradient id="linear-gradient-21" x1="48.98" y1="319.83" x2="2.83" y2="319.83" xlink:href="#linear-gradient"/><linearGradient id="linear-gradient-22" x1="48.36" y1="324.29" x2="2.22" y2="324.29" xlink:href="#linear-gradient"/><linearGradient id="linear-gradient-23" x1="48.36" y1="328.74" x2="2.22" y2="328.74" xlink:href="#linear-gradient"/><linearGradient id="linear-gradient-24" x1="48.36" y1="333.21" x2="2.22" y2="333.21" xlink:href="#linear-gradient"/><linearGradient id="linear-gradient-25" x1="48.98" y1="337.66" x2="2.83" y2="337.66" xlink:href="#linear-gradient"/><linearGradient id="linear-gradient-26" x1="49.91" y1="342.56" x2="3.76" y2="342.56" xlink:href="#linear-gradient"/><linearGradient id="linear-gradient-27" x1="51.45" y1="342.56" x2="5.31" y2="342.56" xlink:href="#linear-gradient"/><linearGradient id="linear-gradient-28" x1="51.45" y1="338.11" x2="5.31" y2="338.11" xlink:href="#linear-gradient"/><linearGradient id="linear-gradient-29" x1="56.17" y1="324.32" x2="-1.12" y2="324.32" xlink:href="#linear-gradient"/><linearGradient id="linear-gradient-30" x1="56.17" y1="328.75" x2="-1.12" y2="328.75" xlink:href="#linear-gradient"/><linearGradient id="linear-gradient-31" x1="56.16" y1="328.75" x2="-1.11" y2="328.75" xlink:href="#linear-gradient"/><linearGradient id="linear-gradient-32" x1="56.18" y1="333.18" x2="-1.12" y2="333.18" xlink:href="#linear-gradient"/><linearGradient id="linear-gradient-33" x1="49.96" y1="347.21" x2="3.82" y2="347.21" xlink:href="#linear-gradient"/><linearGradient id="linear-gradient-34" x1="49.59" y1="355.75" x2="3.45" y2="355.75" xlink:href="#linear-gradient"/><linearGradient id="linear-gradient-35" x1="51.56" y1="354.92" x2="5.42" y2="354.92" xlink:href="#linear-gradient"/><linearGradient id="linear-gradient-36" x1="56.06" y1="351.79" x2="9.93" y2="351.79" xlink:href="#linear-gradient"/><linearGradient id="linear-gradient-37" x1="52.71" y1="343.7" x2="6.58" y2="343.7" xlink:href="#linear-gradient"/><linearGradient id="linear-gradient-38" x1="55.24" y1="338.01" x2="9.11" y2="338.01" xlink:href="#linear-gradient"/><linearGradient id="linear-gradient-39" x1="54.6" y1="324.01" x2="8.47" y2="324.01" xlink:href="#linear-gradient"/><linearGradient id="linear-gradient-40" x1="54.67" y1="319.83" x2="8.53" y2="319.83" xlink:href="#linear-gradient"/><linearGradient id="linear-gradient-41" x1="57.51" y1="310.08" x2="11.37" y2="310.08" xlink:href="#linear-gradient"/><linearGradient id="linear-gradient-42" x1="53.19" y1="308.43" x2="7.04" y2="308.43" xlink:href="#linear-gradient"/><linearGradient id="linear-gradient-43" x1="51.45" y1="310.24" x2="5.31" y2="310.24" xlink:href="#linear-gradient"/><linearGradient id="linear-gradient-44" x1="49.38" y1="300.49" x2="3.24" y2="300.49" xlink:href="#linear-gradient"/><linearGradient id="linear-gradient-45" x1="50" y1="309.9" x2="3.87" y2="309.9" xlink:href="#linear-gradient"/><linearGradient id="linear-gradient-46" x1="48.36" y1="314.54" x2="2.22" y2="314.54" xlink:href="#linear-gradient"/><linearGradient id="linear-gradient-47" x1="42.53" y1="310.75" x2="-3.61" y2="310.75" xlink:href="#linear-gradient"/><linearGradient id="linear-gradient-48" x1="43.79" y1="329.49" x2="-2.35" y2="329.49" xlink:href="#linear-gradient"/><linearGradient id="linear-gradient-49" x1="46.75" y1="333.21" x2=".6" y2="333.21" xlink:href="#linear-gradient"/><linearGradient id="linear-gradient-50" x1="45.54" y1="337.66" x2="-.59" y2="337.66" xlink:href="#linear-gradient"/><linearGradient id="linear-gradient-51" x1="46.3" y1="343.64" x2=".16" y2="343.64" xlink:href="#linear-gradient"/><linearGradient id="linear-gradient-52" x1="48.36" y1="344.27" x2="2.22" y2="344.27" xlink:href="#linear-gradient"/><linearGradient id="linear-gradient-53" x1="38.78" y1="318.28" x2="-7.36" y2="318.28" xlink:href="#linear-gradient"/><linearGradient id="linear-gradient-54" x1="51.45" y1="302.72" x2="5.31" y2="302.72" xlink:href="#linear-gradient"/></defs><g id="Layer_2"><g id="Layer_1-2"><polygon points="27.94 20.82 20.27 25.25 20.27 34.11 27.94 38.53 35.61 34.11 35.61 25.25 27.94 20.82" style="fill:#03b585;"/><polygon points="28.72 39.9 34.89 43.47 28.72 47.03 28.72 39.9" style="fill:url(#linear-gradient);"/><polygon points="20.99 16.75 27.17 20.32 20.99 23.88 20.99 16.75" style="fill:url(#linear-gradient-2);"/><polygon points="20.27 34.11 27.94 29.68 27.94 38.53 20.27 34.11" style="fill:url(#linear-gradient-3);"/><polygon points="27.94 20.82 35.61 25.25 27.94 29.68 27.94 20.82" style="fill:url(#linear-gradient-4);"/><polygon points="13.08 4.98 17.71 2.3 17.71 7.65 13.08 4.98" style="fill:url(#linear-gradient-5);"/><polygon points="29.48 9.83 34.12 7.15 34.12 12.5 29.48 9.83" style="fill:url(#linear-gradient-6);"/><polygon points="45.58 13.64 50.21 16.31 45.58 18.98 45.58 13.64" style="fill:url(#linear-gradient-7);"/><polygon points="45.58 22.55 50.21 25.22 45.58 27.9 45.58 22.55" style="fill:url(#linear-gradient-8);"/><polygon points="50.41 29.68 55.04 27.01 55.04 32.35 50.41 29.68" style="fill:url(#linear-gradient-9);"/><polygon points="37.21 43.88 41.83 41.21 41.83 46.56 37.21 43.88" style="fill:url(#linear-gradient-10);"/><polygon points="13.08 49.17 17.71 46.49 17.71 51.84 13.08 49.17" style="fill:url(#linear-gradient-11);"/><polygon points="4.03 34.14 8.66 31.46 8.66 36.81 4.03 34.14" style="fill:url(#linear-gradient-12);"/><polygon points="35.82 17.2 42 20.77 35.82 24.33 35.82 17.2" style="fill:url(#linear-gradient-13);"/><polygon points="36.43 25.22 42.61 21.66 42.61 28.79 36.43 25.22" style="fill:url(#linear-gradient-14);"/><polygon points="36.43 26.12 42.61 29.68 36.43 33.25 36.43 26.12" style="fill:url(#linear-gradient-15);"/><polygon points="36.43 34.14 42.61 30.57 42.61 37.7 36.43 34.14" style="fill:url(#linear-gradient-16);"/><polygon points="35.82 35.03 42 38.59 35.82 42.16 35.82 35.03" style="fill:url(#linear-gradient-17);"/><polygon points="28.72 39.01 34.89 35.44 34.89 42.58 28.72 39.01" style="fill:url(#linear-gradient-18);"/><polygon points="20.99 43.47 27.17 39.9 27.17 47.03 20.99 43.47" style="fill:url(#linear-gradient-19);"/><polygon points="20.99 35.44 27.17 39.01 20.99 42.58 20.99 35.44" style="fill:url(#linear-gradient-20);"/><polygon points="13.89 38.6 20.06 35.03 20.06 42.16 13.89 38.6" style="fill:url(#linear-gradient-21);"/><polygon points="19.45 34.14 13.28 37.7 13.28 30.57 19.45 34.14" style="fill:url(#linear-gradient-22);"/><polygon points="13.28 29.68 19.45 26.12 19.45 33.25 13.28 29.68" style="fill:url(#linear-gradient-23);"/><polygon points="13.28 21.66 19.45 25.22 13.28 28.79 13.28 21.66" style="fill:url(#linear-gradient-24);"/><polygon points="13.89 20.77 20.06 17.2 20.06 24.33 13.89 20.77" style="fill:url(#linear-gradient-25);"/><polygon points="20.99 15.86 27.17 12.29 27.17 19.43 20.99 15.86" style="fill:url(#linear-gradient-26);"/><polygon points="28.72 12.29 34.89 15.86 28.72 19.43 28.72 12.29" style="fill:url(#linear-gradient-27);"/><polygon points="28.72 20.32 34.89 16.75 34.89 23.88 28.72 20.32" style="fill:url(#linear-gradient-28);"/><polygon points="27.94 29.68 35.61 34.11 27.94 38.53 27.94 29.68" style="fill:url(#linear-gradient-29);"/><polygon points="27.94 29.68 35.61 25.25 35.61 34.11 27.94 29.68" style="fill:url(#linear-gradient-30);"/><polygon points="20.27 25.25 27.94 29.68 20.27 34.11 20.27 25.25" style="fill:url(#linear-gradient-31);"/><polygon points="20.27 25.25 27.94 20.82 27.94 29.68 20.27 25.25" style="fill:url(#linear-gradient-32);"/><polygon points="26.67 11.22 22.04 13.89 22.04 8.54 26.67 11.22" style="fill:url(#linear-gradient-33);"/><polygon points="20.18 2.68 24.81 0 24.81 5.34 20.18 2.68" style="fill:url(#linear-gradient-34);"/><polygon points="30.04 .83 34.67 3.5 30.04 6.18 30.04 .83" style="fill:url(#linear-gradient-35);"/><polygon points="40.27 3.96 44.91 6.64 40.27 9.31 40.27 3.96" style="fill:url(#linear-gradient-36);"/><polygon points="35.83 14.72 40.46 12.05 40.46 17.4 35.83 14.72" style="fill:url(#linear-gradient-37);"/><polygon points="48.48 20.42 53.11 17.74 53.11 23.09 48.48 20.42" style="fill:url(#linear-gradient-38);"/><polygon points="45.28 37.08 45.28 31.74 49.91 34.41 45.28 37.08" style="fill:url(#linear-gradient-39);"/><polygon points="45.58 38.59 50.21 35.92 50.21 41.26 45.58 38.59" style="fill:url(#linear-gradient-40);"/><polygon points="49.97 45.67 54.6 48.34 49.97 51.02 49.97 45.67" style="fill:url(#linear-gradient-41);"/><polygon points="38.17 52.67 38.17 47.32 42.8 50 38.17 52.67" style="fill:url(#linear-gradient-42);"/><polygon points="29.48 48.18 34.12 45.52 34.12 50.86 29.48 48.18" style="fill:url(#linear-gradient-43);"/><polygon points="19.14 57.94 23.78 55.26 23.78 60.61 19.14 57.94" style="fill:url(#linear-gradient-44);"/><polygon points="22.25 45.85 26.88 48.53 22.25 51.2 22.25 45.85" style="fill:url(#linear-gradient-45);"/><polygon points="14.04 41.21 18.68 43.88 14.04 46.56 14.04 41.21" style="fill:url(#linear-gradient-46);"/><polygon points="2.04 47.67 6.67 45 6.67 50.35 2.04 47.67" style="fill:url(#linear-gradient-47);"/><polygon points="2.77 26.26 7.4 28.94 2.77 31.61 2.77 26.26" style="fill:url(#linear-gradient-48);"/><polygon points="5.97 25.22 10.6 22.55 10.6 27.9 5.97 25.22" style="fill:url(#linear-gradient-49);"/><polygon points="0 18.09 4.63 20.77 0 23.44 0 18.09" style="fill:url(#linear-gradient-50);"/><polygon points="3.73 14.79 8.37 12.11 8.37 17.46 3.73 14.79" style="fill:url(#linear-gradient-51);"/><polygon points="14.04 11.49 18.68 14.16 14.04 16.84 14.04 11.49" style="fill:url(#linear-gradient-52);"/><polygon points="1.15 37.82 5.17 40.14 1.15 42.47 1.15 37.82" style="fill:url(#linear-gradient-53);"/><polygon points="29.48 58.38 29.48 53.03 34.12 55.71 34.12 55.71 29.48 58.38 29.48 58.38" style="fill:url(#linear-gradient-54);"/><path d="M89.98,8.46V26.17h6.5V4.71l-6.5,3.75Z"/><path d="M111.6,21.39c-3.14,0-5.36-2.43-5.36-5.96s2.19-5.95,5.39-5.95c2.28,0,4.25,1.57,4.75,3.79l5.38-3.11c-1.55-3.71-5.52-6.19-10.34-6.19-6.76,0-11.67,4.82-11.67,11.47s4.93,11.47,11.7,11.47c5.93,0,10.54-3.62,11.02-8.59l-6.05-.69c-.54,2.22-2.54,3.78-4.82,3.77Z"/><polygon points="79.74 8.21 79.74 18.27 72.38 4.71 65.64 8.6 65.64 26.15 71.69 26.15 71.69 12.52 79.06 26.15 85.79 26.15 85.79 4.71 79.74 8.21"/><polygon points="70.94 49.08 70.92 49.08 67.34 43.57 66.38 43.57 66.38 50.37 67.24 50.37 67.24 44.92 67.26 44.92 70.81 50.37 71.79 50.37 71.79 43.57 70.94 43.57 70.94 49.08"/><path d="M77.02,49.63c-.03-.14-.04-.28-.03-.42v-2.53c.01-.24-.04-.48-.16-.69-.1-.18-.25-.32-.43-.42-.18-.1-.38-.16-.58-.19-.22-.03-.45-.03-.67-.02-.26,0-.52,.03-.78,.08-.24,.05-.46,.15-.66,.28-.19,.13-.35,.3-.45,.51-.12,.24-.19,.5-.19,.77h.8c-.02-.29,.13-.58,.37-.74,.26-.14,.56-.21,.85-.2,.13,0,.26,0,.39,0,.12,.02,.24,.06,.35,.12,.11,.06,.2,.14,.26,.25,.07,.13,.11,.28,.1,.42,0,.13-.04,.26-.13,.35-.11,.09-.23,.15-.37,.18-.17,.05-.35,.08-.52,.09-.2,0-.41,.06-.63,.1-.21,.04-.41,.09-.62,.15-.19,.05-.37,.14-.53,.25-.16,.11-.29,.26-.38,.43-.18,.42-.18,.9,0,1.31,.08,.17,.2,.32,.35,.43,.15,.11,.33,.2,.52,.24,.21,.05,.42,.08,.63,.08,.33,0,.65-.06,.96-.18,.3-.13,.57-.33,.77-.58-.02,.21,.05,.42,.19,.58,.13,.13,.32,.19,.5,.18,.2,0,.4-.04,.58-.13v-.62c-.08,.03-.16,.04-.25,.05-.14,0-.22-.04-.23-.13Zm-.84-.98c0,.13-.03,.25-.09,.37-.06,.14-.15,.26-.27,.36-.13,.12-.29,.21-.47,.27-.22,.08-.45,.12-.69,.11-.12,0-.24-.01-.36-.03-.11-.02-.21-.07-.3-.13-.09-.05-.16-.13-.21-.22-.06-.1-.09-.22-.08-.34,0-.13,.02-.26,.08-.38,.05-.1,.12-.18,.21-.25,.1-.07,.2-.12,.31-.16,.13-.04,.25-.07,.38-.09,.13,0,.27-.05,.41-.06l.41-.06c.12-.02,.24-.05,.36-.08,.1-.03,.2-.07,.28-.13v.83Z"/><path d="M79.36,43.97h-.81v1.47h-.84v.72h.84v3.13c0,.19,.02,.37,.06,.55,.04,.12,.11,.24,.2,.33,.11,.08,.23,.14,.37,.16,.18,.03,.36,.04,.53,.04h.62v-.71h-.37c-.1,0-.21,0-.31,0-.06,0-.13-.03-.18-.06-.05-.03-.08-.08-.09-.13-.01-.08-.01-.16,0-.23v-3.07h.98v-.72h-.98l-.02-1.47Z"/><rect x="81.28" y="45.45" width=".81" height="4.92"/><path d="M87.23,46.08c-.21-.23-.46-.42-.75-.55-.66-.26-1.4-.26-2.06,0-.29,.13-.54,.31-.75,.55-.21,.24-.36,.52-.45,.82-.2,.66-.2,1.36,0,2.02,.09,.3,.25,.57,.45,.81,.2,.25,.46,.45,.75,.58,.66,.26,1.4,.26,2.06,0,.29-.14,.55-.33,.75-.58,.21-.24,.36-.51,.46-.81,.2-.66,.2-1.36,0-2.02-.1-.3-.25-.58-.46-.82Zm-.37,2.63c-.07,.21-.18,.41-.33,.58-.14,.15-.3,.27-.49,.35-.18,.08-.38,.12-.58,.12-.41,0-.81-.17-1.08-.48-.15-.17-.26-.37-.33-.58-.08-.26-.12-.53-.12-.8,0-.27,.04-.54,.12-.79,.07-.21,.18-.41,.33-.58,.13-.15,.3-.28,.49-.36,.18-.08,.38-.13,.58-.13,.2,0,.4,.05,.58,.13,.19,.08,.35,.21,.49,.36,.15,.17,.26,.37,.33,.58,.09,.25,.13,.52,.12,.79,.01,.27-.02,.54-.09,.8h-.02Z"/><path d="M92.52,45.84c-.14-.16-.32-.29-.52-.37-.26-.1-.53-.14-.81-.13-.33,0-.65,.07-.94,.22-.28,.16-.51,.39-.66,.68h0v-.79h-.76v4.92h.81v-2.77c0-.21,.03-.42,.09-.62,.06-.18,.15-.35,.27-.49,.12-.14,.28-.25,.45-.33,.2-.08,.42-.12,.64-.12,.27-.01,.54,.08,.73,.27,.19,.2,.28,.46,.27,.73v3.33h.81v-3.23c0-.24-.03-.49-.08-.73-.05-.21-.15-.41-.3-.57Z"/><path d="M97.99,49.63c-.03-.14-.04-.28-.03-.42v-2.53c.01-.24-.04-.48-.16-.69-.1-.18-.25-.32-.42-.42-.18-.1-.38-.16-.58-.19-.22-.03-.44-.05-.66-.05-.26,0-.53,.03-.79,.08-.23,.05-.45,.15-.65,.28-.19,.13-.35,.3-.46,.51-.12,.24-.19,.5-.19,.77h.81c-.01-.29,.13-.57,.37-.74,.26-.14,.56-.21,.85-.2,.13,0,.26,0,.39,0,.12,.02,.24,.06,.35,.12,.11,.06,.2,.14,.26,.25,.08,.13,.11,.28,.1,.42,0,.13-.04,.26-.13,.35-.1,.09-.23,.15-.36,.18-.17,.05-.35,.08-.53,.09-.2,0-.41,.06-.63,.1-.21,.04-.41,.09-.62,.15-.19,.05-.37,.14-.53,.25-.16,.11-.29,.26-.38,.43-.1,.21-.15,.45-.14,.69,0,.22,.04,.43,.13,.63,.08,.17,.2,.32,.34,.43,.16,.12,.33,.2,.52,.24,.21,.05,.42,.08,.63,.08,.33,0,.65-.06,.96-.18,.3-.13,.57-.33,.77-.58-.02,.21,.05,.42,.19,.58,.13,.13,.32,.19,.5,.18,.2,0,.4-.04,.58-.13v-.6c-.08,.03-.16,.04-.25,.05-.15,0-.22-.04-.24-.13Zm-.84-.98c0,.13-.03,.25-.09,.37-.06,.14-.15,.26-.27,.36-.13,.12-.29,.21-.47,.27-.34,.11-.7,.14-1.05,.08-.11-.02-.21-.07-.3-.13-.09-.05-.16-.13-.21-.22-.06-.1-.09-.22-.08-.34,0-.13,.02-.26,.08-.38,.05-.1,.12-.19,.22-.25,.1-.07,.2-.12,.31-.16,.12-.04,.25-.07,.38-.09,.13,0,.27-.05,.41-.06l.41-.06c.12-.02,.24-.05,.36-.08,.1-.02,.2-.07,.28-.13v.83Z"/><rect x="99.25" y="43.57" width=".81" height="6.79"/><rect x="104.14" y="43.57" width=".9" height="6.79"/><path d="M110.14,45.84c-.14-.16-.32-.29-.52-.37-.26-.1-.53-.14-.81-.13-.33,0-.65,.07-.94,.22-.28,.16-.51,.39-.66,.68h0v-.79h-.79v4.92h.81v-2.77c0-.21,.03-.42,.09-.62,.05-.18,.14-.35,.27-.49,.12-.14,.28-.25,.45-.33,.2-.08,.42-.12,.64-.12,.27-.01,.54,.08,.73,.27,.19,.2,.28,.46,.27,.73v3.33h.81v-3.23c0-.24-.02-.49-.08-.73-.04-.21-.14-.4-.27-.57Z"/><path d="M113.4,43.5c-.36-.03-.72,.08-1.01,.31-.24,.24-.37,.57-.35,.91v.73h-.83v.72h.83v4.2h.81v-4.2h.95v-.72h-.95v-.67c-.02-.17,.04-.33,.16-.44,.14-.08,.29-.12,.45-.11,.08,0,.16,0,.23,0,.08,.01,.15,.03,.23,.05v-.7c-.09-.03-.17-.05-.26-.06l-.26-.02Z"/><path d="M118.44,46.08c-.21-.23-.46-.42-.75-.55-.33-.14-.68-.2-1.03-.2-.36,0-.71,.06-1.04,.2-.28,.13-.54,.31-.74,.55-.21,.24-.36,.52-.46,.82-.2,.66-.2,1.36,0,2.02,.1,.3,.25,.57,.46,.81,.2,.25,.46,.44,.74,.58,.33,.14,.68,.2,1.04,.2,.35,0,.7-.06,1.03-.2,.29-.14,.55-.33,.75-.58,.21-.23,.36-.51,.45-.81,.21-.66,.21-1.37,0-2.02-.09-.3-.25-.58-.45-.82Zm-.39,2.63c-.07,.21-.18,.41-.33,.58-.43,.46-1.1,.61-1.67,.35-.19-.08-.36-.2-.49-.35-.15-.17-.26-.37-.33-.58-.09-.26-.13-.53-.12-.8,0-.27,.04-.54,.12-.79,.07-.21,.18-.41,.33-.58,.14-.16,.3-.28,.49-.36,.37-.16,.79-.16,1.16,0,.19,.08,.35,.21,.49,.36,.15,.17,.26,.37,.33,.58,.08,.26,.12,.52,.12,.79,.01,.27-.02,.54-.09,.8Z"/><path d="M120.75,46.49h0v-1.04h-.78v4.92h.81v-2.19c0-.28,.03-.56,.1-.84,.05-.23,.16-.44,.3-.63,.16-.18,.36-.31,.58-.39,.26-.09,.54-.14,.83-.13v-.83c-.38-.03-.76,.07-1.08,.27-.32,.21-.59,.51-.76,.86Z"/><path d="M129.62,45.67c-.15-.12-.33-.21-.52-.25-.22-.06-.44-.09-.67-.08-.31,0-.61,.07-.88,.22-.27,.14-.5,.36-.66,.62-.08-.28-.27-.51-.52-.65-.26-.13-.54-.19-.83-.19-.64-.03-1.25,.29-1.59,.84h0v-.73h-.78v4.92h.81v-3.06c0-.12,.03-.24,.07-.35,.06-.15,.13-.29,.23-.41,.11-.14,.25-.26,.4-.34,.18-.1,.38-.15,.58-.15,.15,0,.31,.03,.45,.08,.11,.05,.21,.13,.28,.23,.07,.1,.12,.22,.15,.34,.03,.15,.05,.29,.05,.44v3.22h.81v-3.06c-.01-.34,.11-.67,.34-.91,.25-.24,.59-.36,.94-.34,.16,0,.33,.02,.48,.09,.12,.05,.22,.13,.29,.23,.07,.11,.12,.22,.15,.35,.02,.14,.04,.29,.03,.43v3.22h.81v-3.61c0-.22-.04-.44-.12-.65-.07-.17-.17-.32-.3-.44Z"/><path d="M135.17,49.63c-.03-.14-.04-.28-.03-.42v-2.53c.01-.24-.04-.48-.16-.69-.1-.17-.25-.32-.43-.42-.18-.1-.38-.16-.58-.19-.22-.03-.44-.05-.66-.05-.26,0-.52,.03-.78,.08-.24,.05-.46,.15-.66,.28-.19,.13-.35,.3-.46,.51-.12,.24-.18,.5-.19,.77h.79c-.02-.3,.12-.58,.37-.74,.26-.14,.56-.21,.85-.2,.13,0,.26,0,.38,0,.12,.02,.24,.06,.35,.12,.11,.06,.19,.15,.26,.25,.07,.13,.1,.28,.1,.42,0,.13-.04,.26-.13,.35-.1,.09-.23,.15-.36,.18-.17,.05-.35,.08-.53,.09-.2,0-.41,.06-.63,.1-.2,.04-.39,.09-.58,.15-.19,.05-.37,.14-.53,.25-.16,.11-.29,.26-.38,.43-.1,.21-.15,.45-.14,.69,0,.22,.04,.43,.13,.63,.08,.17,.2,.32,.35,.43,.15,.11,.33,.2,.52,.24,.53,.13,1.08,.09,1.59-.1,.3-.13,.57-.33,.77-.58-.02,.21,.05,.42,.19,.58,.14,.12,.32,.19,.5,.18,.2,0,.4-.04,.58-.13v-.6c-.08,.03-.16,.04-.24,.05-.15,0-.22-.04-.24-.13Zm-.84-.98c0,.13-.03,.25-.08,.37-.06,.14-.16,.26-.27,.36-.14,.12-.29,.21-.47,.27-.22,.08-.45,.12-.69,.11-.12,0-.24-.01-.36-.03-.11-.02-.21-.07-.3-.13-.09-.05-.16-.13-.21-.22-.06-.1-.08-.22-.08-.34,0-.13,.02-.26,.08-.38,.05-.1,.13-.18,.22-.25,.1-.07,.2-.12,.31-.16,.12-.04,.25-.07,.38-.09,.13,0,.27-.05,.42-.06l.4-.06c.12-.02,.24-.05,.36-.08,.1-.02,.2-.07,.28-.13v.83Z"/><path d="M137.51,43.97h-.81v1.47h-.84v.72h.84v3.13c0,.19,.02,.37,.07,.55,.03,.13,.1,.24,.2,.33,.11,.08,.23,.13,.36,.16,.18,.03,.36,.04,.54,.04h.62v-.71h-.37c-.1,0-.21,0-.31,0-.07,0-.13-.03-.19-.06-.05-.03-.08-.08-.09-.13-.02-.08-.03-.15-.03-.23v-3.07h.98v-.72h-.98v-1.47Z"/><rect x="139.44" y="45.45" width=".81" height="4.92"/><path d="M145.38,46.08c-.21-.23-.46-.42-.75-.55-.32-.12-.65-.18-.99-.17-.36,0-.71,.06-1.04,.2-.28,.13-.54,.31-.74,.55-.21,.24-.36,.52-.46,.82-.2,.66-.2,1.36,0,2.02,.1,.3,.25,.57,.46,.81,.2,.25,.46,.44,.74,.58,.33,.14,.68,.2,1.04,.2,.35,0,.7-.06,1.03-.2,.29-.14,.55-.33,.75-.58,.21-.23,.36-.51,.45-.81,.21-.66,.21-1.37,0-2.02-.1-.31-.27-.6-.49-.84Zm-.37,2.63c-.07,.21-.18,.41-.33,.58-.43,.46-1.1,.61-1.67,.35-.19-.08-.36-.2-.49-.35-.15-.17-.26-.37-.33-.58-.09-.26-.13-.53-.12-.8,0-.27,.04-.54,.12-.79,.07-.21,.18-.41,.33-.58,.14-.16,.3-.28,.49-.36,.37-.16,.79-.16,1.16,0,.19,.08,.35,.21,.49,.36,.15,.17,.26,.37,.33,.58,.08,.26,.12,.52,.12,.79,.02,.27,0,.54-.07,.8h-.02Z"/><path d="M150.67,45.84c-.14-.16-.32-.29-.52-.37-.26-.1-.53-.14-.81-.13-.33,0-.65,.07-.94,.22-.28,.16-.51,.4-.66,.68h0v-.79h-.76v4.92h.81v-2.77c0-.21,.03-.42,.09-.62,.06-.18,.15-.34,.27-.49,.12-.14,.28-.25,.45-.33,.21-.08,.42-.12,.65-.12,.27-.01,.53,.08,.73,.27,.18,.2,.28,.46,.26,.73v3.33h.81v-3.23c0-.24-.02-.49-.08-.73-.06-.21-.16-.4-.3-.57Z"/><path d="M159.7,48.59c-.09,.23-.22,.44-.4,.62-.16,.18-.36,.32-.58,.41-.25,.1-.52,.15-.8,.15-.36,0-.72-.07-1.05-.23-.28-.14-.53-.36-.72-.62-.19-.27-.33-.58-.41-.9-.09-.36-.14-.73-.13-1.1,0-.35,.04-.69,.13-1.03,.08-.32,.22-.61,.41-.88,.19-.26,.43-.47,.72-.62,.32-.16,.68-.24,1.04-.23,.22,0,.45,.03,.66,.09,.21,.06,.4,.15,.58,.27,.17,.12,.31,.28,.42,.45,.12,.2,.2,.41,.24,.63h.91c-.05-.34-.16-.66-.33-.96-.16-.27-.37-.5-.62-.69-.26-.19-.54-.33-.85-.42-.33-.1-.67-.15-1.01-.15-.48-.01-.95,.09-1.38,.28-.39,.18-.73,.44-1.01,.77-.28,.34-.49,.74-.62,1.16-.15,.44-.24,.9-.25,1.37,0,.47,.06,.94,.2,1.39,.11,.41,.31,.79,.58,1.12,.26,.32,.6,.58,.98,.76,.43,.19,.9,.28,1.38,.27,.77,.05,1.53-.21,2.1-.72,.53-.54,.85-1.25,.89-2h-.9c-.03,.27-.1,.53-.2,.78Z"/><path d="M165.6,46.29c-.18-.28-.41-.52-.7-.69-.33-.18-.71-.27-1.09-.24-.32,0-.64,.06-.93,.19-.28,.13-.53,.31-.73,.53-.21,.24-.37,.51-.48,.81-.12,.33-.18,.67-.17,1.02,0,.35,.07,.7,.17,1.04,.09,.3,.24,.58,.44,.82,.2,.23,.45,.41,.73,.53,.32,.14,.67,.21,1.02,.2,.5,.02,.99-.13,1.39-.43,.38-.31,.64-.76,.72-1.24h-.81c-.05,.29-.2,.55-.44,.72-.25,.17-.54,.25-.84,.24-.24,0-.47-.04-.69-.13-.37-.16-.65-.48-.76-.87-.06-.2-.09-.41-.08-.62h3.68c0-.32-.02-.63-.08-.94-.06-.33-.18-.65-.35-.94Zm-3.24,1.16c.01-.18,.05-.36,.12-.53,.07-.16,.16-.31,.28-.44,.12-.13,.27-.23,.43-.3,.18-.08,.38-.11,.58-.11,.19,0,.38,.04,.55,.11,.16,.07,.31,.17,.44,.3,.12,.13,.22,.28,.29,.44,.07,.17,.12,.35,.13,.54h-2.84Z"/><path d="M170.59,45.84c-.14-.16-.32-.29-.52-.37-.26-.1-.53-.14-.81-.13-.33,0-.65,.07-.94,.22-.28,.16-.51,.39-.66,.68h0v-.79h-.76v4.92h.81v-2.77c0-.21,.03-.42,.09-.62,.06-.18,.15-.35,.27-.49,.12-.14,.28-.25,.45-.33,.2-.08,.42-.12,.64-.12,.27-.01,.54,.08,.73,.27,.19,.2,.28,.46,.27,.73v3.33h.81v-3.23c0-.24-.03-.49-.08-.73-.05-.21-.15-.41-.3-.57Z"/><path d="M173.29,43.97h-.81v1.47h-.84v.72h.84v3.13c0,.19,.01,.37,.06,.55,.04,.13,.11,.24,.2,.33,.11,.08,.23,.13,.36,.16,.18,.03,.36,.04,.54,.04h.62v-.71h-.4c-.1,0-.21,0-.31,0-.07,0-.13-.03-.19-.06-.05-.04-.08-.1-.09-.16-.01-.08-.01-.16,0-.23v-3.04h.98v-.72h-.98v-1.47Z"/><path d="M179,46.29c-.18-.28-.42-.52-.7-.69-.33-.19-.71-.28-1.09-.27-.32,0-.64,.06-.93,.19-.28,.13-.53,.31-.73,.53-.21,.24-.37,.51-.48,.81-.12,.33-.18,.67-.17,1.02,0,.35,.07,.7,.17,1.04,.09,.3,.24,.58,.44,.82,.2,.23,.45,.41,.73,.53,.32,.14,.67,.21,1.02,.2,.5,.02,.99-.13,1.39-.43,.38-.31,.64-.76,.71-1.24h-.8c-.05,.29-.2,.55-.44,.72-.25,.17-.54,.25-.84,.24-.24,0-.48-.04-.7-.13-.19-.08-.35-.2-.48-.35-.13-.15-.22-.32-.28-.51-.05-.2-.08-.41-.08-.62h3.69c0-.32-.02-.63-.08-.94-.07-.32-.19-.63-.36-.91Zm-3.24,1.16c.02-.18,.06-.36,.13-.53,.07-.16,.16-.31,.28-.44,.12-.13,.27-.23,.43-.3,.18-.08,.38-.11,.58-.11,.19,0,.37,.04,.55,.11,.17,.07,.32,.17,.45,.3,.12,.13,.22,.28,.29,.44,.07,.17,.12,.35,.13,.54h-2.84Z"/><path d="M181.03,46.49h0v-1.04h-.76v4.92h.81v-2.19c0-.28,.03-.56,.09-.84,.05-.23,.16-.44,.3-.63,.16-.18,.36-.31,.58-.39,.27-.09,.55-.14,.83-.13v-.83c-.38-.03-.76,.07-1.09,.27-.33,.21-.6,.51-.77,.86Z"/><polygon points="82.09 43.57 81.28 43.57 81.28 44.56 82.09 44.1 82.09 43.57"/><polygon points="140.25 43.57 139.44 43.57 139.44 44.56 140.25 44.1 140.25 43.57"/><path d="M74.43,38.49c.26-.08,.48-.27,.58-.53,.05,.18,.16,.35,.31,.46,.18,.13,.4,.2,.62,.19h8.19v-1.67c.04-.6-.16-1.19-.53-1.66-.39-.4-.94-.62-1.5-.58-.56-.01-1.11,.15-1.58,.45-.48,.33-.87,.76-1.16,1.27v-4.87h-.86v6.25h-2.58c-.15,0-.29-.02-.42-.08-.11-.05-.2-.12-.27-.22-.07-.1-.11-.22-.13-.34-.02-.15-.04-.3-.03-.45v-1.91h-.81v2.27c0,.13-.01,.26-.05,.39-.03,.09-.09,.16-.17,.22-.09,.05-.18,.09-.28,.09-.14,.01-.27,.01-.41,0h-1.65c-.81-.01-1.62-.17-2.38-.47v.8c.2,.06,.42,.13,.68,.2,.25,.07,.49,.15,.73,.24,.21,.08,.4,.18,.58,.31,.14,.09,.22,.24,.23,.41,0,.14-.08,.28-.2,.36-.16,.12-.35,.21-.54,.26-.26,.08-.53,.13-.8,.16-.32,.04-.64,.05-.95,.05-.68,.05-1.36-.09-1.97-.41-.4-.3-.62-.78-.58-1.29v-1.35h-.81v1.52c0,.32,.05,.63,.15,.94,.1,.29,.29,.55,.53,.74,.3,.24,.65,.41,1.02,.5,.54,.14,1.1,.2,1.65,.19,.51,0,1.02-.04,1.52-.13,.35-.07,.69-.19,1-.36,.24-.11,.44-.29,.58-.51,.11-.17,.17-.38,.17-.58,0-.14-.03-.28-.08-.41-.04-.12-.11-.23-.19-.33h1.49c.3,0,.6-.04,.9-.12Zm5.28-1.49c.16-.27,.36-.52,.58-.74,.21-.22,.46-.4,.73-.55,.26-.15,.55-.23,.85-.24,.23,0,.46,.04,.67,.13,.17,.08,.32,.2,.44,.35,.11,.15,.2,.33,.24,.52,.05,.21,.07,.42,.07,.64v.69h-3.98c.11-.28,.24-.55,.39-.8h.02Z"/><path d="M91.94,38.61v-7.06h-.81v6.25h-2.23v-.47c0-.36-.03-.71-.1-1.06-.06-.29-.16-.56-.32-.81-.15-.22-.35-.4-.58-.52-.27-.13-.57-.19-.87-.18-.29,0-.57,.05-.83,.18-.24,.12-.45,.28-.62,.48-.17,.2-.3,.43-.38,.68-.09,.25-.13,.52-.13,.79,0,.28,.04,.56,.15,.81,.09,.2,.22,.38,.4,.52,.17,.14,.37,.24,.58,.3,.24,.06,.49,.09,.74,.09h1.12c0,.23-.06,.45-.17,.65-.11,.16-.27,.3-.45,.38-.21,.09-.44,.15-.67,.18-.28,.03-.57,.04-.85,.04h-.31v.82h.45c.38,0,.76-.03,1.13-.1,.31-.05,.61-.16,.88-.33,.24-.16,.44-.38,.58-.63,.16-.31,.24-.65,.26-1h3.04Zm-3.88-.82h-1.06c-.3,.02-.6-.06-.85-.24-.21-.19-.31-.46-.29-.74,0-.15,.02-.31,.07-.45,.05-.15,.11-.28,.2-.41,.19-.27,.51-.42,.84-.41,.34-.03,.67,.14,.85,.44,.18,.36,.26,.76,.24,1.16v.66Z"/><rect x="93.33" y="31.55" width=".81" height="7.06"/><path d="M104.76,37.8h-5.56c-.17-.01-.33-.06-.48-.13-.12-.06-.21-.15-.26-.27-.05-.16-.08-.32-.07-.49v-1.28h-.81v1.54c0,.22,.03,.45,.1,.66,.07,.18,.18,.33,.33,.45,.18,.13,.4,.21,.62,.25,.31,.06,.63,.09,.95,.08h5.99v-3.81h-.81v3Z"/><path d="M111.69,38.04c.3,.23,.63,.41,.98,.53,.3,.1,.62,.16,.94,.16,.48,.04,.94-.15,1.26-.5,.29-.39,.43-.87,.41-1.35,0-.28-.04-.56-.14-.83-.08-.23-.21-.44-.37-.62-.15-.17-.34-.31-.55-.41-.22-.1-.45-.15-.69-.15-.18,0-.36,.02-.54,.07-.2,.05-.38,.15-.53,.28-.2,.17-.37,.36-.51,.58-.2,.32-.36,.67-.48,1.02-.06,.17-.14,.32-.23,.47-.07,.1-.16,.2-.26,.27-.07,.06-.16,.11-.26,.13-.08,.04-.16,.07-.24,.09h-2.01c-.29,0-.49-.06-.58-.17-.1-.18-.14-.38-.13-.58v-5.5h-.81v5.67c0,.22,.03,.45,.1,.66,.06,.16,.16,.31,.29,.42,.13,.11,.28,.18,.44,.22,.19,.04,.39,.07,.58,.06h2.12c.11,0,.22,0,.34,0,.1,0,.21-.03,.3-.06,.1-.04,.2-.1,.28-.17,.11-.09,.2-.19,.28-.31Zm1.05-1.96c.19-.22,.47-.36,.76-.37,.15,0,.29,.03,.42,.1,.12,.06,.22,.15,.3,.25,.09,.11,.15,.23,.19,.37,.04,.14,.06,.28,.06,.42,.03,.29-.06,.58-.26,.8-.18,.16-.42,.25-.66,.24-.25,0-.5-.05-.74-.15-.25-.1-.5-.23-.73-.38,.13-.47,.35-.9,.65-1.29h0Z"/><path d="M136.74,31.55v6.25h-1.55c-.21,.01-.41-.05-.58-.17-.14-.13-.24-.29-.29-.48,0-.04,0-.09,0-.13v-.13c0-.27-.04-.55-.13-.81-.09-.22-.22-.43-.38-.61-.15-.17-.34-.31-.55-.41-.21-.1-.44-.16-.67-.17-.18,0-.36,.02-.54,.07-.2,.05-.38,.15-.53,.28-.2,.17-.38,.36-.52,.58-.2,.32-.36,.67-.48,1.02-.06,.17-.14,.32-.23,.47-.07,.1-.16,.2-.26,.27-.07,.06-.16,.11-.26,.13-.08,.01-.16,.01-.24,0h-1.74c-.17,0-.33-.01-.49-.04,.33-.22,.61-.51,.84-.84,.2-.3,.31-.66,.31-1.02,0-.16-.04-.31-.1-.45-.07-.15-.18-.29-.31-.4-.16-.13-.34-.22-.53-.28-.24-.07-.5-.11-.76-.1-.33,0-.66,.06-.97,.19-.29,.12-.55,.29-.77,.51-.05,.05-.09,.1-.12,.16-.03,.06-.07,.13-.11,.2s-.06,.16-.1,.23-.05,.16-.07,.23l1.23,1.41c-.47,.14-.95,.21-1.44,.2h-.52c-.24,0-.47-.1-.62-.29-.15-.24-.22-.52-.2-.8v-5.08h-.81v5.52c0,.13-.01,.26-.05,.39-.03,.08-.08,.16-.15,.22-.07,.05-.15,.09-.23,.09-.1,0-.21,0-.31,0h-1.48v-.47c0-.36-.03-.71-.1-1.06-.06-.29-.17-.57-.33-.81-.14-.22-.35-.4-.58-.52-.27-.13-.57-.19-.87-.18-.29,0-.57,.06-.83,.18-.22,.12-.42,.29-.58,.48-.17,.2-.3,.43-.38,.68-.09,.25-.14,.52-.13,.79,0,.28,.04,.55,.14,.81,.09,.2,.22,.38,.4,.52,.17,.14,.37,.24,.58,.3,.25,.06,.5,.09,.75,.09h1.12c0,.23-.06,.45-.17,.65-.11,.16-.26,.29-.44,.38-.21,.09-.44,.15-.67,.18-.28,.03-.57,.04-.85,.04h-.31v.82h.41c.39,0,.78-.03,1.16-.1,.31-.05,.61-.16,.87-.33,.24-.16,.44-.38,.58-.63,.15-.31,.24-.65,.25-1h1.41c.34,0,.68-.03,1.01-.12,.26-.08,.48-.27,.58-.53,.05,.18,.16,.34,.31,.46,.17,.12,.37,.19,.58,.19h.58c.35,0,.69-.03,1.03-.1,.33-.07,.65-.17,.97-.29,.17,.15,.37,.26,.58,.32,.18,.05,.36,.07,.55,.08h2.05c.11,0,.22,0,.34,0,.11,0,.21-.03,.31-.06,.1-.04,.2-.1,.28-.17,.1-.09,.19-.2,.26-.31,.3,.23,.63,.41,.98,.53,.3,.1,.62,.16,.94,.16,.32,.01,.63-.06,.91-.21,.23-.14,.42-.34,.54-.58h0c.09,.21,.25,.39,.45,.5,.2,.1,.42,.16,.65,.15h2.36v-7.04h-.94Zm-17.58,6.25h-1.06c-.3,.02-.61-.06-.85-.24-.21-.19-.32-.46-.29-.74,0-.15,.02-.31,.07-.45,.04-.15,.11-.28,.2-.41,.09-.12,.21-.22,.34-.3,.15-.08,.32-.12,.49-.12,.34-.03,.67,.14,.85,.44,.18,.36,.27,.76,.25,1.16v.66Zm7.37-.51l-1.21-1.28c.16-.18,.36-.32,.58-.41,.24-.1,.49-.16,.75-.16,.26-.02,.51,.04,.73,.18,.14,.09,.22,.25,.23,.41,0,.26-.11,.51-.29,.69-.23,.23-.5,.42-.79,.55h0Zm6.72,.39c-.18,.16-.42,.25-.67,.24-.25,0-.5-.05-.74-.15-.25-.1-.5-.23-.73-.38,.13-.47,.35-.9,.65-1.29,.19-.22,.47-.36,.76-.37,.15,0,.29,.03,.42,.1,.12,.06,.22,.15,.3,.25,.08,.11,.15,.23,.19,.37,.04,.14,.06,.28,.06,.42,.03,.29-.06,.57-.25,.79h0Z"/><rect x="138.93" y="31.55" width=".81" height="7.06"/><path d="M148.36,33.98c-.05,.06-.09,.12-.12,.19-.05,.07-.08,.15-.11,.23-.03,.08-.05,.16-.06,.24,.37,.17,.72,.37,1.06,.58,.31,.21,.61,.44,.9,.69,.24,.2,.45,.42,.64,.67,.14,.16,.22,.37,.24,.58,.02,.2-.07,.39-.24,.49-.18,.09-.38,.13-.58,.13h-3.83c-.26,.03-.52-.08-.67-.29-.13-.24-.2-.52-.19-.8v-1.4h-.8v3.53c0,.2-.06,.4-.16,.58-.09,.15-.23,.27-.4,.33-.25,.08-.5,.11-.76,.1v.82c.37,.01,.73-.03,1.08-.13,.25-.07,.48-.22,.65-.43,.17-.23,.28-.51,.32-.79,.07-.4,.1-.8,.09-1.2,.08,.14,.19,.26,.33,.34,.16,.1,.35,.16,.54,.15h3.81c.29,0,.57-.04,.84-.14,.19-.08,.36-.19,.5-.34,.12-.13,.2-.29,.24-.46,.04-.15,.06-.3,.06-.45,0-.22-.05-.43-.13-.63-.11-.25-.25-.48-.44-.69-.24-.27-.51-.52-.8-.74-.37-.29-.76-.55-1.16-.79l2.91-1.29v-.79l-3.62,1.59c-.05,.03-.1,.07-.15,.11Z"/><path d="M160.34,38.24c.29-.39,.44-.87,.41-1.35,0-.28-.04-.56-.13-.83-.09-.23-.21-.44-.37-.62-.15-.17-.34-.31-.55-.41-.22-.1-.45-.15-.69-.15-.18,0-.36,.02-.54,.07-.2,.05-.38,.15-.54,.28-.2,.17-.38,.36-.52,.58-.19,.32-.35,.67-.48,1.02-.06,.17-.13,.33-.23,.47-.07,.1-.15,.19-.25,.27-.07,.06-.17,.11-.26,.13-.08,.01-.16,.01-.24,0h-.43c-.25,.02-.49-.09-.65-.29-.13-.24-.2-.52-.18-.8v-1.33h-.8v3.53c-.01,.2-.06,.4-.16,.58-.09,.15-.24,.27-.41,.33-.24,.08-.5,.11-.76,.1v.82c.36,.01,.73-.03,1.08-.13,.24-.07,.46-.21,.63-.4,.17-.24,.28-.51,.32-.79,.06-.4,.09-.8,.09-1.2,.08,.14,.19,.26,.33,.34,.15,.09,.31,.15,.49,.15h.47c.11,0,.22,0,.34,0,.11,0,.21-.03,.31-.06,.1-.04,.2-.1,.28-.17,.1-.09,.19-.2,.26-.31,.3,.23,.63,.41,.98,.53,.3,.1,.62,.16,.94,.16,.48,.03,.95-.17,1.26-.53Zm-.65-.58c-.18,.16-.42,.25-.67,.24-.25,0-.5-.05-.74-.15-.25-.1-.5-.23-.73-.38,.13-.47,.35-.9,.66-1.29,.19-.23,.47-.36,.76-.37,.14,0,.29,.03,.41,.1,.12,.06,.22,.15,.3,.25,.08,.11,.15,.23,.19,.37,.04,.14,.07,.28,.06,.42,.03,.29-.06,.59-.25,.81h0Z"/><polygon points="145.39 32.92 144.58 32.92 144.58 33.91 145.39 33.44 145.39 32.92"/><polygon points="75.08 32.61 74.27 32.61 74.27 33.61 75.08 33.14 75.08 32.61"/><polygon points="102.66 33.2 101.85 33.2 101.85 34.19 102.66 33.72 102.66 33.2"/><polygon points="101.42 33.2 100.61 33.2 100.61 34.19 101.42 33.72 101.42 33.2"/><polygon points="69.9 41.54 69.1 41.54 69.1 42.53 69.9 42.06 69.9 41.54"/><polygon points="68.67 41.54 67.86 41.54 67.86 42.53 68.67 42.06 68.67 41.54"/></g></g></svg>