<?xml version="1.0" encoding="UTF-8"?>
<svg id="Layer_1" xmlns="http://www.w3.org/2000/svg" viewBox="0 0 365 135.71"><path d="M299.82,0c.18,.36,.36,.71,.54,1.07,.89,1.43,1.96,2.86,3.21,3.75,1.43,1.07,3.21,1.61,5,1.79,1.25,.18,2.5,.18,3.93,.36,5,.54,9.82,1.79,14.28,4.46,3.93,2.32,6.96,5.36,9.11,9.29,.18,.36,.54,.54,.89,.71,3.04,.71,6.07,1.43,9.11,2.68,3.39,1.25,6.61,3.04,9.46,5.54,3.75,3.04,6.25,6.96,8.04,11.43,.54,1.43,1.07,3.04,1.43,4.46,0,.18,.18,.54,.18,.71v89.1c0,.36-.18,.36-.36,.36H235.72c-.71,0-.54,0-.54-.54V47.32c0-2.5,.54-4.82,1.61-6.96,1.43-3.21,3.57-5.89,6.07-8.21,4.29-4.11,9.46-7.14,15-8.93,1.61-.54,3.39-1.07,5.18-1.43,.36,0,.71-.18,.89-.54,3.04-5.36,7.5-9.11,13.04-11.25,2.68-1.07,5.36-1.79,8.04-2.14,1.96-.36,4.11-.54,6.07-.71,1.07-.18,1.96-.54,3.04-1.07,1.96-1.07,3.57-2.5,4.82-4.46,.36-.54,.71-1.07,.89-1.61" style="fill:#067d5b;"/><path d="M362.68,100.71v17.14q0,.18-.18,.18h-11.61c-.18,0-.36,0-.36-.36v-5.71q0-.36-.36-.36h-16.96c-.36,0-.54,0-.54-.54v-5.54q0-.18-.18-.18h-64.64c-.18,0-.36,.18-.36,.36v5.71q0,.36-.36,.36c-4.29,0-8.39,0-12.68-.18h-4.29q-.54,0-.54,.54v5.89q0,.18-.18,.18h-11.07q-.36,0-.36-.36V48.75c0-3.39,.89-6.43,2.5-9.29,1.79-3.04,4.11-5.71,6.96-7.86,5-4.11,10.71-6.61,16.96-8.04,.54-.18,.89-.36,1.25-.89,2.86-5,7.14-8.57,12.5-10.54,2.68-1.07,5.54-1.79,8.21-2.14,1.79-.36,3.57-.54,5.36-.71,1.07-.18,1.96-.54,2.86-1.07,1.96-1.07,3.39-2.5,4.64-4.29,.18-.18,.18-.36,.36-.54,.18-.18,.18-.36,.36-.54,.18,.18,.18,.36,.36,.54,.54,1.07,1.25,2.14,2.32,3.04,1.43,1.43,3.21,2.14,5.18,2.5,.89,.18,1.96,.18,2.86,.36,5,.36,10,1.43,14.46,3.93,4.11,2.14,7.32,5.36,9.64,9.46,.18,.36,.36,.54,.71,.54,3.75,.71,7.5,1.79,11.07,3.39,3.75,1.79,7.14,4.11,10,7.32,2.5,2.86,4.29,6.25,5.54,9.82,0,.18,.18,.36,.18,.54,.54,1.25,.71,2.68,.71,4.11v50.35h-.18c-.36-.71-.54-1.43-.71-2.14-1.61-6.25-3.21-12.32-4.82-18.57-1.43-5.71-3.04-11.43-4.46-17.14-.54-1.96-1.07-3.75-1.43-5.71q-.18-.71-.89-.71c-1.79,0-1.43,0-1.79-1.43q-.18-.71-.89-.89h-1.25c-.36,0-.71-.18-.71-.71v-.18q-.18-1.07-1.25-1.07h-.54c-.54,0-.71-.18-.89-.71q0-.18-.18-.36c0-.54-.36-.71-.89-.71-4.11-.54-8.04-1.61-11.61-3.39-1.61-.89-3.21-1.79-4.82-2.86-.36-.36-.71-.54-1.25-.89-.71-.54-1.25-1.25-1.96-1.61-1.61-.89-3.57-1.25-5.36-1.43-1.79-.18-3.75,0-5.54,.36-3.04,.71-5.71,2.14-8.21,3.93-.54,.36-1.25,.89-1.79,1.43-.36,.36-.54,.36-.89,0-2.32-2.14-5.18-3.57-8.04-4.82-1.96-.71-4.11-1.07-6.43-1.07-1.96,0-3.93,.36-5.71,1.07-1.07,.54-2.14,1.07-2.86,2.14l-.18,.18c-2.5,1.79-5.18,3.04-8.04,4.11-3.04,1.07-6.07,1.61-9.11,1.96-.54,0-.71,.18-.71,.71-.18,1.25,0,1.43-1.61,1.61-.71,0-1.07,.36-1.25,1.07-.18,.71-.36,.71-.89,.89-.36,0-.71,.18-1.07,.18s-.54,.18-.54,.54c-.18,.36-.18,.89-.36,1.25-.18,.36-.36,.54-.71,.54h-.89c-.54,0-.71,.18-.89,.71-1.43,5.36-3.04,10.89-4.46,16.25-1.25,4.82-2.68,9.46-3.93,14.29-1.25,4.29-2.32,8.57-3.57,12.86-.18,.36-.18,.89-.18,1.25,0,1.07,.89,1.79,1.79,1.96h.54c5.18,0,10.36,.18,15.71,0,5.89-.18,11.78,0,17.86-.18,5.89-.18,11.61,0,17.5-.18,1.07,0,2.32-.18,3.39-.18,.54,0,.89,.18,1.25,.54,.71,.89,1.43,1.43,2.5,1.79,1.79,.54,3.93,0,5-1.43,.36-.54,.89-.71,1.43-.71,3.21,0,6.43,.18,9.64,.18h6.07c2.14,.18,4.11,0,6.25,.18,1.96,.18,4.11,0,6.07,.18,2.14,.18,4.29,0,6.43,.18,1.96,.18,3.93,0,5.89,.18,2.14,.18,4.29,0,6.43,.18,1.96,.18,3.93,0,5.89,0,.54,0,1.07,.18,1.79,.18,.89,0,1.61-.36,1.96-1.07-.36-.36-.36-.54,0-.71-.18,0,0,0,0,0" style="fill:#fff;"/><path d="M279.65,116.6c.36,.18,.36,.36,.54,.54,1.43,2.14,2.32,4.46,2.5,6.96,.18,1.07,.18,2.14,.36,3.21,.18,1.25,.89,1.96,2.14,1.96,.36,0,.71,0,1.07-.18,1.61-.36,2.86-.89,4.29-1.79-.71-1.07-1.61-1.25-3.04-.89,0-.71,.36-1.43,.89-1.79,.54-.36,1.25-.54,1.79-.54,1.79-.18,3.39,0,5.18,.54,.71,.18,.71,.54,.54,1.07-.18,.36-.36,.54-.71,.71-.54,.18-1.07,.54-1.79,.89q-.36,.18-.18,.54c.18,.36,.54,.54,.89,.54,1.07,.36,1.96,.18,3.04-.18,.71-.36,.89-.89,.89-1.61-.54-3.57-.89-7.32-1.43-10.89-.18-1.61-.36-3.39-.71-5,0-.71,0-1.07,.54-1.79,.54,1.25,1.07,2.32,1.79,3.57h-.71c-.18,0-.36,0-.36,.36,.18,.71,.18,1.61,.36,2.32,.18,1.61,.36,3.21,.54,4.82,.18,1.43,.36,2.68,.54,4.11,.18,1.25,.18,2.5-.18,3.75-.36,1.25-1.07,2.14-2.5,2.5-.89,.18-1.79,0-2.68-.36-.54-.36-1.07-.71-1.43-1.25-.18-.18-.36-.18-.54-.18-1.07,.71-2.14,1.25-3.39,1.61-.89,.36-1.79,.54-2.68,.54-.54,0-.89-.18-1.43-.36-.54-.18-.71-.54-.89-1.07-.18-.54-.36-1.07-.36-1.61,0-.36,0-.71-.18-1.07h-.18c-1.25,2.32-3.21,3.75-5.36,5-.18,.18-.54,.18-.71,.36-.71,.36-1.61,.36-2.32,.18-.89-.18-1.25-.71-1.43-1.43-.18-.54-.18-1.07,0-1.61v-.71c-.18,.18-.54,.36-.71,.54-1.25,.89-2.5,1.61-3.93,2.14-1.25,.54-2.68,.71-3.93,.71-3.04-.18-4.29-2.32-4.29-4.46,0-1.43,.36-2.68,1.07-3.75,.18-.18,.36-.54,.54-.71,0,.36-.18,.54-.18,.71-.36,.89-.71,1.96-.71,3.04,0,1.61,.71,2.68,2.32,3.21,1.61,.54,3.04,.36,4.64,0,1.07-.36,2.14-.89,3.21-1.43,1.43-.89,2.5-1.79,3.75-2.86,.18-.18,.36-.36,.36-.71,0-1.43-.18-3.04-.36-4.46-.18-1.43-.18-2.68-.36-4.11-.18-1.61-.36-3.21-.54-4.64-.18-.89-.18-1.96-.36-2.86v-.54c.18-.18,.36-.36,.54-.36s.18,.18,.36,.36c.36,1.07,.71,1.96,1.07,3.04v.18c-.18,0-.36-.36-.71-.36v.36c.18,2.86,.54,5.71,.71,8.39,0,1.07,.18,2.14,.18,3.21,0,.71-.18,1.61-.36,2.32-.36,.89-.71,1.79-1.61,2.32-.18,.18-.36,.36-.36,.54,0,.36,0,.89,.18,1.25,.18,.54,.54,.89,1.25,.89s1.43,0,2.14-.36c1.61-.71,3.04-1.79,4.46-3.04,.54-.54,.89-1.07,1.25-1.61,.18-.18,.18-.54,.18-.71-.36-2.32-1.07-4.46-1.96-6.61-.18-.18-.18-.36-.18-.71-.36,.54-.36,0-.36-.71" style="fill:#fff;"/><path d="M315,131.96c1.96-.89,3.93-1.79,5.89-2.68,2.5-1.25,5-2.68,7.5-4.11,.54-.36,1.07-.71,1.61-1.07,.54-.36,.89-.89,.89-1.61,0-.36,0-.54-.18-.89-.71-1.07-1.43-2.14-1.96-3.39-.18-.54-.36-.89-.18-1.43,0-.18,0-.36,.18-.54,.54,.36,.89,.89,1.43,1.25,.18,.18,0,.36,0,.54-.18,.18-.18,.36,0,.54,.36,.54,.71,1.07,1.07,1.43,.36,.54,.54,1.25,.54,1.96,0,.54-.18,1.07-.18,1.61-.18,.71-.54,1.43-1.25,1.79-.36,.18-.71,.54-1.07,.71q-.18,.18-.36,.36c-.18,.71-.18,1.43,0,2.14,.18,1.07,.89,1.61,1.96,1.79,.89,0,1.61,0,2.32-.36,2.14-1.07,4.11-2.5,5.71-4.29,.18-.18,.18-.36,.36-.54,.18-.18,.18-.54,0-.71-.18-.18-.36-.18-.54-.18-.71,.18-1.43,.18-2.14,.18-1.07-.18-1.79-.89-1.25-2.14,0-.18,.18-.36,.18-.54,.71-1.43,2.14-1.61,3.21-.54,.71,.71,1.07,1.61,1.25,2.5,0,.18,0,.36,.18,.54,.18,.71,0,1.43-.54,2.14-1.43,1.79-3.04,3.39-5.18,4.46-1.07,.54-1.96,.89-3.21,.89-1.79,0-2.68-.89-2.86-2.68v-2.5c-.18,0-.36,.18-.54,.18-1.61,1.07-3.39,2.14-5.18,3.04-.89,.54-1.79,.89-2.86,1.07-1.79,.71-3.39,.89-4.82,1.07q0,.18,0,0" style="fill:#fff;"/><path d="M306.79,124.99c0,.54-.18,1.07-.18,1.61,0,.71,0,1.43,.18,2.14,.36,1.07,1.07,1.61,2.32,1.79,1.07,0,1.96-.18,2.86-.71,1.43-.71,2.68-1.61,3.93-2.68,.36-.36,.71-.54,.89-.89,.18-.18,.36-.36,.54-.54,.36-.54,.54-1.07,.18-1.79-.36-.71-.71-1.61-1.07-2.32-.18-.54-.36-.89-.36-1.43v-.71c.36,.18,.54,.54,.89,.71,.36,.18,.54,.54,.89,.71v.18c-.18,.18-.36,.18-.36,.36s.18,.36,.36,.54c.89,1.61,.71,3.39,0,5,0,.18-.18,.18-.18,.18-1.25,1.25-2.68,2.5-4.29,3.57-.89,.54-1.79,1.07-2.86,1.25-.54,.18-1.07,.18-1.61,0-.89-.18-1.43-.71-1.96-1.43-.54-.89-.54-1.79-.54-2.68-.36-.89-.18-1.96,.36-2.86" style="fill:#fff;"/><path d="M301.97,128.92c0-1.43-.18-2.68-.18-4.11-.18-1.96-.36-4.11-.54-6.07-.18-2.14-.36-4.11-.71-6.25,0-.71-.18-1.43-.36-1.96,0-.36,0-.89,.18-1.25,0-.18,.18-.36,.36-.36s.18,.18,.36,.36c.54,1.07,1.07,1.96,1.25,3.21v.36c-.36-.18-.54-.36-.89-.36,0,.36,0,.89,.18,1.25,.18,2.14,.54,4.46,.71,6.61,.18,1.43,.36,2.86,.36,4.29,.18,1.43,0,2.68-.54,3.93,0,0,0,.18-.18,.36" style="fill:#fff;"/><path d="M323.57,111.6c-.36-.18-.54-.36-.89-.54v.36c.18,2.14,.54,4.29,.71,6.43,.18,1.79,.36,3.39,.54,5.18,.18,1.25,0,2.68-.54,3.75,0,.18-.18,.18-.18,.36h-.18c0-.71-.18-1.25-.18-1.96-.18-2.14-.36-4.29-.54-6.25-.36-2.86-.54-5.89-1.07-8.75,0-.54-.18-1.07,0-1.61,0-.18,0-.36,.18-.36,.18-.18,.54-.18,.54,0,.71,.89,1.25,1.96,1.61,3.39" style="fill:#fff;"/><path d="M311.97,117.32c0,.36-.18,.54-.18,.89-.18,.54-.36,1.07-.71,1.61-.36,.36-.71,.89-.89,1.25,0,0,0,.18,.18,.18,.89,.54,1.25,1.43,1.25,2.5,0,.36,0,.71-.18,1.07-.18,.54-.36,1.07-.89,1.43-.36,.36-.89,.54-1.43,.71-.71,.18-1.25,0-1.43-.71v-.36c0-1.43,.18-2.68,1.07-3.93,.18-.18,.18-.36,0-.54-.54-.54-.89-1.07-1.43-1.79-.18-.36-.36-.54-.36-.89v-.89c.71,.36,1.25,.71,1.96,1.07q-.36,.54,.18,1.07,.18,.18,.54,.36c.71-1.07,1.61-2.14,2.32-3.21v.18Z" style="fill:#fff;"/><path d="M284.65,120.35c0-.54,.36-1.07,.89-1.25,1.25-.71,2.32-1.43,3.57-2.14,1.79-1.07,3.39-1.96,5.18-3.04,0,0,.18,0,.18-.18,.18,0,.36-.18,.36,0,.18,.18,.18,.36,0,.54-.18,.18-.36,.18-.36,.36-2.86,1.61-5.89,3.21-8.75,5-.18,0-.36,.18-.36,.18-.18,.18-.18,.36-.18,.54s.18,.18,.36,.18,.36,.18,.54,.36c0,.18,.18,.18,0,.36,0,.18-.18,.18-.36,.18-.89,.18-1.07-.36-1.07-1.07" style="fill:#fff;"/><path d="M278.58,113.21c.71-.54,1.61-1.07,2.32-1.79-.89-.18-1.79,0-2.5,.18-.18,0-.36,.18-.54,0-.18-.18,0-.36,0-.54,0-.36,.36-.71,.54-.89,.89-.71,1.96-.89,3.04-.54q.36,.18,.36,.54c-.18,1.79-1.07,2.68-2.86,2.86-.36,.18-.36,.36-.36,.18" style="fill:#fff;"/><path d="M303.57,114.46c1.43-.89,2.86-1.79,4.11-2.86,.36-.36,.71-.54,.89-.89,0-.18-.18-.18-.36-.36-.36-.36-.54-.54-.36-.89v-.36c-.18-.18-.18-.36,0-.54,0-.36,.18-.36,.54-.36,.89,.18,1.61,.71,1.96,1.61,.18,.36,.18,.71-.18,.89-.18,.36-.54,.36-.89,.18-.36-.18-.36,0-.54,.18-1.43,1.61-3.21,2.68-5.18,3.39q0,.18,0,0" style="fill:#fff;"/><path d="M287.68,111.6c0-.71,0-1.25,.18-1.96,0-.18,0-.54,.18-.71,.18-.36,.36-.54,.71-.54s.54,.18,.71,.54q0,.18-.18,.36h-.54c-.18,0-.36,0-.36,.36-.18,.36-.18,.71-.18,1.07,0,.71,.18,1.25,0,1.96,0,.18,0,.36-.18,.36s-.36-.18-.36-.36c-.18-.18-.36-.54-.36-.71-.18-.18-.18-.54-.36-.71-.18-.18-.36-.36-.54-.36-.36,0-.54-.18-.89-.36-.36-.18-.54-.71-.54-.89,.18-.18,.54-.36,.89-.18,.36,0,.54,.18,.54,.54,.36,.54,.54,.89,.89,1.43,.18,0,.18,.18,.36,.18" style="fill:#fff;"/><path d="M316.79,112.14c-.36,0-.54-.18-.54-.54-.18-.36-.36-.71-.54-1.07q-.18-.36-.54-.36c-.36,0-.54,0-.89-.18-.36-.18-.54-.36-.36-.71,0-.18,.36-.54,.71-.54s.54,.18,.71,.36c.36,.36,.71,.89,.89,1.25,0,.18,.18,.18,.36,.36,0-.71,.18-1.25,.18-1.96,0-.36,0-.54,.18-.71,.18-.36,.71-.36,1.07-.18,.18,.18,.18,.36,0,.54q-.18,0-.36,.18-.36,0-.54,.54c-.18,.89-.18,1.96-.36,3.04" style="fill:#fff;"/><path d="M333.57,117.67c-.18,0-.36,0-.36-.18s0-.18,.18-.18,.18-.18,.36-.18c1.79-1.07,3.57-1.96,5.18-3.04,.18,0,.18-.18,.36-.18s.36,0,.36,.18v.36s-.18,.18-.36,.18c-1.79,.89-3.39,1.79-5.18,2.86-.18,.18-.36,.18-.54,.18" style="fill:#fff;"/><path d="M319.47,115.35c0,.18-.18,.18-.36,.36-.71,.36-1.25,.71-1.96,1.25-1.07,.71-2.14,1.25-3.39,1.96-.18,.18-.36,.18-.54,.18s-.18,0-.36-.18q0-.18,.18-.18l.18-.18c1.79-1.07,3.57-2.14,5.36-3.39,.18,0,.18-.18,.36-.18,.36,0,.54,.18,.54,.36" style="fill:#fff;"/><path d="M325.36,109.99c-.18,0-.36,0-.36-.18s0-.18,.18-.18c0,0,.18,0,.18-.18,1.79-.71,3.39-1.25,5.18-1.96q.18,0,.36-.18c.18,0,.36,0,.36,.18s0,.36-.18,.36-.18,0-.36,.18c-1.79,.54-3.39,1.25-5.18,1.79,0,0,0,.18-.18,.18" style="fill:#fff;"/><path d="M329.29,112.67c-.36,.36-.54,.71-.89,1.07q-.18,.18-.36,0c-.36-.36-.89-.71-1.25-1.07q-.18-.18,0-.36c.18-.18,.54-.54,.71-.71q.18-.18,.36,0c.36,.36,.89,.71,1.43,1.07" style="fill:#fff;"/><path d="M307.15,113.39c.54,.36,1.07,.54,1.61,.89,.18,0,.18,.18,0,.36-.18,.36-.36,.71-.54,1.07-.36,0-.71-.36-1.07-.54-.71-.36-.71-.18-.36-1.07,0-.18,.18-.36,.36-.71" style="fill:#fff;"/><path d="M309.47,112.85c.54,.36,1.07,.54,1.43,.89q.18,.18,.18,.36c-.18,.36-.36,.54-.36,.89,0,.18-.18,.18-.36,.18-.36-.18-.89-.54-1.25-.71-.18,0-.18-.18-.18-.36,.36-.54,.36-.89,.54-1.25" style="fill:#fff;"/><path d="M267.15,117.32v1.79c0,1.07,.36,1.07,1.25,.71h.18c0,.54-.18,.89-.36,1.25-.36,.36-.71,.36-1.07,0-.36-.36-.36-.89-.36-1.43-.18-.71,0-1.61,.36-2.32-.18,0,0,0,0,0" style="fill:#fff;"/><path d="M292.5,132.32c-.36,.36-.89,.71-1.61,.71-.54,0-.89-.36-.54-.89,0-.18,.18-.36,.18-.54-.18-.18-.54-.18-.54-.36v-.36c0-.36,.18-.36,.71-.36,0,.18,0,.54,.18,.71,.18,.18,.18,.36,0,.54,0,.18-.18,.36-.36,.36-.18,.36-.18,.54,.18,.54s.54,0,.89-.18c.54-.36,.71-.36,.89-.18q0-.18,0,0" style="fill:#fff;"/><path d="M265.36,124.46c.18,.54,.18,1.07,.18,1.61-.18,0-.36-.18-.36-.36-.18-.18-.18-.36-.36-.54-.18-.54-.54-.89-1.07-.89-.18,0-.54-.18-.54-.36-.18-.36-.18-.54,.18-.54,.36-.18,.54,0,.89,.18,.36,.36,.71,.89,.89,1.25,.18,.18,.18-.18,.18-.18-.18,0-.36-.18,0-.18" style="fill:#fff;"/><path d="M292.68,108.92v.71c0,.71,.18,.89,.71,.71h.18c0,.36-.18,.71-.54,.89-.36,.18-.71-.18-.89-.54v-.71c0-.36,.18-.71,.36-1.25,.36,0,.18,.18,.18,.18" style="fill:#fff;"/><path d="M284.11,114.46c0,.18-.18,.54-.18,.71-.18,.54,0,.71,.54,.71h.18v.18c-.18,.54-.54,.71-.89,.54-.36-.18-.54-.54-.36-.89,0-.54,.18-1.07,.71-1.25-.18-.18,0-.18,0,0" style="fill:#fff;"/><path d="M290.36,119.1v1.07c0,.71,.18,.71,.89,.54h.18v.36c-.18,.36-.36,.54-.71,.54-.18,0-.54-.36-.54-.54v-1.07c0-.36,0-.71,.18-.89q0-.18,0,0" style="fill:#fff;"/><path d="M299.29,129.64c0,.36-.18,.54-.18,.89-.18,.54,0,.54,.54,.54h.18c-.18,.54-.54,.71-.89,.54-.36-.18-.36-.54-.36-.89,.18-.54,.36-.89,.71-1.43v.36Z" style="fill:#fff;"/><path d="M277.5,123.21c0,.18-.18,.36-.18,.54q-.18,.54,.36,.71h.18v.18c-.36,.36-.71,.54-.89,.36-.36-.18-.36-.54-.18-1.07,.18-.36,.36-.71,.71-.89v.18Z" style="fill:#fff;"/><path d="M280.72,131.07c0,.18-.18,.18-.18,.36-.18,.36,0,.54,.36,.71h.18c-.18,.36-.71,.54-.89,.36-.36-.18-.36-.54-.18-1.07,.18-.36,.36-.54,.54-.71,0,0,.18,0,.18-.18q.18,0,.18,.18t-.18,.36" style="fill:#fff;"/><path d="M332.86,125.35v.54c0,.36,0,.54,.54,.54h.36s0,.18-.18,.18c-.18,.36-.54,.54-.71,.36-.18-.18-.36-.54-.36-.71,0-.36,.18-.71,.36-1.07v.18Z" style="fill:#fff;"/><path d="M270,131.24v.18q-.18,.54,.36,.71c0,.18-.18,.18-.18,.36-.36,.18-.54,0-.54-.36,0-.18,0-.36,.18-.54-.18-.18-.18-.36,.18-.36q0-.18,0,0" style="fill:#fff;"/><path d="M265.36,123.21h0c-.18,.36,0,.54,0,.71s0,.18-.18,.18v-1.25c.18,0,0-.18,.18-.36l.18-.18h.54l.18,.18s0,.18,.18,.18v.18c-.54,.36-.89,.18-1.07,.36" style="fill:#fff;"/><path d="M277.15,116.78c-.18,.36,0,.36,.36,.54-.18,.18-.36,.36-.54,.18-.18-.18-.18-.36-.18-.54s.18-.18,.36-.18q0-.18,0,0" style="fill:#fff;"/><path d="M265.18,124.28c.18-.18,0-.36,.18-.54,0-.18,0-.36,.18-.54v1.25c-.18,.18,0,.36-.18,.54,0,.18-.18,.18-.18,0,0-.36-.18-.54,0-.71" style="fill:#fff;"/><path d="M325.18,130.53v.36s.18,0,.18,.18c0,0,0,.18-.18,.18s-.18,0-.18-.18,0-.36,.18-.54c0-.18,0,0,0,0" style="fill:#fff;"/><path d="M326.25,120.71s.18,0,.18,.18c0,0,0,.18-.18,.18s-.18,0-.18-.18,0-.18,.18-.18c-.18-.18,0,0,0,0" style="fill:#fff;"/><path d="M303.57,114.46s0,.18,0,0c0,.18-.18,.36-.36,.36s-.18,0-.18-.18c.18,0,.36-.18,.54-.18" style="fill:#fff;"/><path d="M277.5,123.21s0-.18-.18-.18c0-.18,.18-.18,.36-.36v.18s-.18,.18-.18,.36" style="fill:#fff;"/><path d="M292.68,108.92q0-.18-.18-.36,0-.18,.18-.18c.18,.18,.18,.36,0,.54" style="fill:#fff;"/><path d="M265.36,123.21c.18-.18,.54,0,.71-.18-.18,.18-.54,0-.71,.18" style="fill:#fff;"/><path d="M326.25,120.71s-.18,0,0,0c-.18-.18-.18-.36,0-.54v.54Z" style="fill:#fff;"/><path d="M315,131.96q0,.18,0,0c0,.18-.18,.18-.36,.18,0,0,.18-.18,.36-.18" style="fill:#fff;"/><path d="M280.9,130.89c-.18,0-.18-.18,0,0,0-.18,0-.36,.18-.36s.18,0,.18,.18c-.18,0-.36,0-.36,.18" style="fill:#fff;"/><path d="M277.15,116.78q0-.18,0,0,0-.36,.18-.54c0,.18,0,.36-.18,.54" style="fill:#fff;"/><path d="M281.08,130.53h0c0-.18,0-.36,.18-.36,0,.18-.18,.36-.18,.36" style="fill:#fff;"/><path d="M306.79,124.99h0c-.18-.18,0-.36,0-.36,.18,.18,.18,.36,0,.36" style="fill:#fff;"/><path d="M270,131.24c0-.18-.18-.18,0,0,0-.18,0-.36,.18-.36,0,0-.18,.18-.18,.36" style="fill:#fff;"/><path d="M311.97,117.32s0-.18-.18-.18c0,0,0-.18,.18-.18v.36q0-.18,0,0" style="fill:#fff;"/><path d="M278.58,113.21c0,.18,.18,0,.18,.18h-.18s-.18,0,0-.18q-.18,0,0,0" style="fill:#fff;"/><path d="M284.11,114.46q-.18-.18,0,0v0Z" style="fill:#fff;"/><path d="M332.86,125.35s0-.18-.18-.18c0,0,0-.18,.18-.18s.18,0,.18,.18c-.18,0-.18,.18-.18,.18" style="fill:#fff;"/><path d="M332.86,124.99h0c-.18-.18,0-.36,0-.36,.18,.18,.18,.36,0,.36" style="fill:#fff;"/><path d="M325.18,130.53h0v-.18c.18,0,.18,.18,0,.18" style="fill:#fff;"/><path d="M299.29,129.64v-.36c.18,.18,.18,.36,0,.36" style="fill:#fff;"/><path d="M265.9,122.67h-.54c.18-.18,.36-.18,.54,0" style="fill:#fff;"/><path d="M303.04,114.64q.18,.18,0,0,0,.18-.18,.18t-.18-.18q.36,.18,.36,0" style="fill:#fff;"/><path d="M292.5,132.32q0-.18,0,0,0-.18,0,0c0-.36,.18-.36,0,0q.18-.18,0,0" style="fill:#fff;"/><path d="M302.86,114.82s.18,0,0,0c0,.18-.18,.18-.18,.18l.18-.18Z" style="fill:#fff;"/><path d="M267.15,117.32q-.18,0,0,0-.18-.18,0-.18v.18Z" style="fill:#fff;"/><path d="M265.18,122.67q0,.18-.18,.36,0-.18,.18-.36" style="fill:#fff;"/><path d="M266.08,123.03v-.18c.18,0,0,.18,0,.18" style="fill:#fff;"/><path d="M362.5,100.71v-.18c.18,0,.18,.18,0,.18" style="fill:#95baa9;"/><path d="M277.68,122.67h0v-.18c.18,.18,0,.18,0,.18" style="fill:#fff;"/><path d="M266.08,122.85s-.18,0,0,0c0-.18,0,0,0,0" style="fill:#fff;"/><path d="M280.72,130.71q0,.18,0,0c-.18,0,0,0,0,0" style="fill:#dae025;"/><path d="M298.93,30.53c0-2.68-.18-5.54-.18-8.21v-2.14c-.36,.36-.54,.71-.71,1.25-.18,.54-.18,.89-.36,1.43,0,.18-.18,.36-.18,.54-.18,.36-.36,.36-.71,.18-.36-.18-.54-.54-.54-.89-.18-.54-.18-1.07-.18-1.61,0-.18,0-.54-.18-.71-.18,.36-.18,.89-.36,1.25-.18,.36-.18,.71-.54,1.07-.18,.36-.36,.36-.71,0-.54-.54-.54-1.07-.71-1.61v-1.25c0-.18,0,0-.18,0-.18,.18-.36,.54-.54,.71-.36,.18-.54,.18-.71-.18-.18-.36-.18-.71-.18-.89v-1.43c-.18,.18-.36,.36-.54,.54-.18,.18-.54,.36-.71,.36-.36-.18-.36-.54-.36-.71,0-.71,.18-1.25,.54-1.79,.18-.18,.18-.36,.36-.54h-.36c-.54,0-.54-.18-.54-.71,0-.18,.18-.54,.36-.71,.18-.36,.54-.71,.89-1.07q.18-.18,.18-.54c-.18-.36,0-.71,.36-1.07,.36-.36,.89-.54,1.25-.71,.36-.18,.71-.18,.89-.36-.71-.71-.54-.71,.18-1.07,1.25-.71,2.5-.71,3.75-.18,.54,.18,.89,.36,1.43,.71,.36,.18,.54,.18,.71,0,1.07-.71,2.14-1.07,3.57-1.07,.36,0,.89,0,1.25,.18,.36,.18,.71,.54,.71,.89,0,.18,.18,.18,.36,.36,.71,0,1.43,.36,2.14,.71,.71,.36,.89,.89,.18,1.61,.89,.36,1.07,1.07,1.25,1.96-.36-.18-.71-.36-1.07-.18,0,.18,.18,.36,.36,.36,.36,.54,.71,1.07,.89,1.61,.18,.36,.18,.89,0,1.25-.71,0-.89-.71-1.43-.71-.18,.18,0,.36,0,.36,.18,.71,.18,1.61-.18,2.32q-.18,.36-.54,0c-.18-.18-.36-.36-.36-.54-.18-.18-.18-.54-.54-.71,0,.36,.18,.89,.18,1.25,.18,.71,0,1.43-.36,2.14-.18,.36-.54,.36-.71,.18-.18-.18-.36-.36-.36-.71-.18-.36-.18-.71-.36-.89,0-.18-.18-.36-.36-.54,0,.71,.18,1.25,0,1.96,0,.36-.18,.89-.54,1.25-.18,.36-.36,.36-.54,0-.36-.18-.54-.54-.54-.71-.18-.36-.36-.89-.54-1.25-.18-.36-.18-.71-.54-.89v3.39c0,1.07,0,2.32,.18,3.39,0,1.07,0,2.32,.18,3.39,.18,.36,.18,.71,.36,.89-.18,0-.36,.18-.36,.36,0,1.96,.18,4.11,.18,6.07,0,.18,0,.36,.36,.36s.71,0,.89,.36q.18,.18,.36,0c.54,0,.71,0,.89,.54,0,.18,.18,.36,.36,.36,.36,0,.36,.36,.18,.71,0,.18-.18,.36-.36,.36l-.18,.18c-.89,.71-1.96,.89-3.04,.89-1.25-.18-2.32,0-3.57,0-.36,0-.71,0-1.07-.36-.18-.18-.54-.36-.71-.54-.18-.18-.36-.18-.36-.36-.18-.36,0-.71,.36-.71,.18,0,.36-.18,.36-.36s.18-.36,.54-.36,.71,0,.89-.36c.18-.18,.36-.18,.54-.18q.36,0,.36-.36v-2.14c0-1.07,0-2.32-.18-3.39,0-.36,0-.54-.36-.54-.36-.71-.54-1.07-.18-1.43" style="fill:#067d5b;"/><path d="M277.5,41.43h-.36q-.18,0-.18-.18c.36-.89,1.07-1.43,1.96-1.79,1.25-.71,2.5-1.07,3.93-1.25,3.04-.54,5.89-.36,8.93,.54,3.21,1.07,6.07,2.68,8.57,5l.18,.18q.18,.18,.36,0c.18-.18,.36-.36,.54-.54,2.68-2.32,5.71-3.93,9.11-4.82,3.57-1.07,6.96-.89,10.36,.36,.18,0,.36,.18,.54,.18,1.07,.36,1.96,.89,2.68,1.79,0,.18,.36,.54,.18,.71-.36,.18-.54,0-.89-.18-2.14-.71-4.46-1.07-6.61-.89-2.68,.18-5.36,.89-7.86,2.14-1.96,.89-3.75,1.96-5.36,3.21q-.54,.36-.18,.89c.54,.71,1.25,1.43,1.79,2.14,.18-.36,.18-.54,.36-.89,.36-.54,.89-.71,1.43-.36,1.07,.54,1.25,1.61,.54,2.5-.18,.18-.36,.36-.54,.36-.54,.36-.54,.89,0,1.25,.18,.18,.36,0,.54,0,.36-.18,.89-.36,1.25-.18,.89,.18,1.61,.89,1.61,1.96v.89c0,1.07-1.07,1.79-2.14,1.61-.89-.18-1.61-.54-2.14-1.07-.71-.71-1.61-1.61-2.14-2.5-.18-.18-.18-.36-.36-.36-.18,.18-.54,.18-.54,.54,0,.71-.18,1.25-.71,1.43-.54,.18-1.25-.18-1.61-.89-.18-.89-.18-1.25,.71-1.79,.18-.18,.54-.36,.71-.54,.36-.36,.54-.36,0-.71-.54-.54-.89-1.07-1.43-1.61l-.18-.18q-.36-.18-.54,.18c-.18,.54-.54,.71-.89,1.07-.18,.18-.36,.36-.54,.54q-.36,.36,0,.71c.36,.18,.71,.54,1.07,.71,.18,.18,.18,.36,.36,.54v1.07c-.18,.54-.89,.89-1.43,.89s-.89-.36-.89-.89v-.54c0-.36-.18-.54-.54-.54-.18,0-.36,.18-.54,.36-.54,.89-1.25,1.61-2.14,2.32-.54,.54-1.25,.89-1.96,1.07-1.25,.36-2.14-.54-2.32-1.79,0-.54,0-.89,.18-1.43,.36-1.07,1.43-1.61,2.5-1.25q.18,0,.36,.18c.36,.18,.54,0,.71-.36,.18-.36,.18-.54-.18-.71-1.25-.89-1.25-2.14,0-2.86,.71-.36,1.07-.18,1.61,.36,.18,.18,.18,.54,.36,.89,.71-.89,1.43-1.61,1.96-2.5,.18-.18,.18-.36,0-.54-.18-.18-.36-.18-.54-.36-2.86-2.14-6.07-3.75-9.64-4.46-3.39-.71-6.61-.71-9.82,.36h-.18Z" style="fill:#067d5b;"/><path d="M280.9,31.61c.18,.36,.54,.36,.89,.36,.71,0,1.07-.36,1.61-.71,.18-.18,.18-.36,.36-.54,.71,1.25,1.79,.71,2.32-.36q.18,0,.18,.18c.36,.36,.71,.36,1.07,0,.18-.18,.18-.36,.36-.54,.18,.18,.36,.36,.71,.54,.54,.18,.89,0,.89-.54v-.54c-.36-1.25-.54-2.5-.89-3.75,0-.18-.18-.54,0-.71,0-.18,.18-.18,.36-.18s.18,.18,.18,.18c.18,.54,.54,1.07,.71,1.43,.18,.18,.18,.36-.18,.36-.18,0-.18,.18-.18,.36,.36,.89,.36,1.96,.36,2.86v.54c-.18,.71-.89,1.07-1.61,.71-.18-.18-.36,0-.54,.18-.54,.71-.89,.71-1.61,.18-.18,.18-.36,.36-.54,.54-.54,.54-1.07,.54-1.61,0l-.18-.18q-.18,.18-.36,.36c-.71,.71-1.61,.71-2.5,.18-.18,0-.18-.18-.36-.18-.18-.18-.36-.18-.54,0-.36,.36-.71,.71-1.25,.89-.18,0-.18,.18-.18,.36-.18,1.61-1.25,2.5-2.5,3.21-.18,0-.36,.18-.54,.18-.89,.18-1.43-.18-1.61-1.07v-.36c-.18,0-.18,.18-.36,.36-.36,.54-.89,.89-1.43,1.25-.89,.54-1.61,.18-1.96-.89h.18c.89,.36,1.61,.18,2.14-.54,.54-.71,1.25-1.43,1.96-2.14,.18-.18,.36-.36,.36-.54,.18-.54,0-.71-.36-.71-.71-.18-1.43-.36-2.14-.54-.36-.18-.71-.36-1.07-.71-.18-.18-.36-.36-.18-.71,.18-.18,.36-.18,.71-.18s.54,.18,.71,.54c.18,.36,.54,.54,.89,.54s.71,.18,1.07,.18c.71,.18,1.07,.54,1.07,1.25,0,.54-.18,1.07-.54,1.61l-.36,.36c-.18,.18-.36,.54-.18,.89,0,.36,.18,.54,.54,.54,.71,.18,1.25,0,1.79-.36,.54-.36,1.07-.89,1.43-1.61-.36,0-.71,.18-1.07,.18-.54,0-.89-.36-.89-.89s.18-.89,.71-1.07c.36-.18,.71,0,1.07,.18,.36,.18,.71,.18,1.07,.18,.18,0,.36-.18,.36-.18,.18-.18,.36-.36,.18-.54,0-.18-.36-.18-.54-.18h-.89c-.36,0-.54-.18-.36-.54,0-.36,.18-.54,.54-.71,.89-.71,1.96-.89,3.21-.54,.36,0,.71,.18,.71,.54s-.18,.54-.54,.89c-.18-.18-.54,0-.71,.18" style="fill:#1c1c1a;"/><path d="M327.32,31.07c.18-.18,.36-.36,.54-.54,.18-.18,.18-.36-.18-.36-1.43,0-2.86,0-4.29,.71-.18,.18-.54,.18-.71,.54,1.07,.89,1.79,1.96,2.14,3.21,.18,.36,.36,.71,.71,1.07,.18,.18,.36,.36,.54,.36,.54,.18,1.07-.18,1.25-.71,0-.89,0-1.79,.18-2.68,0-.36,0-.71,.54-.89v4.46c0,.71,.36,1.07,1.07,.89,.36,0,.54-.18,.71-.54,.18-.71,1.07-1.25,1.96-1.43v-3.21c0-.18,0-.54,.18-.54s.36,.18,.36,.36c.18,.36,.36,.89,.36,1.43q-.54,.18-.54,.54v1.25c.18,.18,.36,0,.54,0,.36,0,.71,.18,.89,.54,.36,.54,.18,1.07-.36,1.25-.54,.36-1.07,.18-1.43-.36-.18-.18,0-.36-.36-.54h-.71c-.36,.18-.54,.36-.71,.71,.18,.18,.36,0,.54,0,.71,0,.89,.36,1.07,1.07,0,.54-.36,1.07-.89,1.25-.54,.18-1.07-.18-1.25-.71-.18-.18-.18-.36-.54-.36h-.18c-1.07,0-1.43-.18-1.61-1.25-.18,0-.36,.18-.54,.18-.89,.36-1.61,.18-2.14-.71-.18-.36-.36-.71-.54-1.07,0-.18,0-.36-.18-.36,0,.18-.18,.36-.18,.36-.18,.36-.54,.71-.89,.89-.71,.36-1.43,.18-1.79-.54-.18-.18-.18-.54-.36-.71,0-.36-.18-.36-.54-.54-.18,0-.36,.18-.54,.36-.18,.18-.36,.54-.36,.71-.18,.36-.36,.54-.71,.71-.54,.18-1.07,0-1.25-.54-.18-.54-.18-1.07-.18-1.61,.18,.18,.18,.36,.18,.36,0,.36,.18,.54,.36,.71,.36,.54,.71,.54,1.25,.18l.36-.36c.18-.36,.54-.71,.89-1.07,.18-.18,.36-.36,.54-.36,.36,0,.71,0,.71,.36,0,.18,.18,.54,.18,.71,0,.36,.36,.54,.71,.54s.71,0,.89-.18c.18-.18,.18-.36,.36-.54,0-.36,0-.71-.18-1.07-.18-.54-.54-.89-.89-1.25-.36-.54-.36-.89,.18-1.43,.18-.18,.54-.36,.89-.54,1.43-.54,3.04-.89,4.46-.71h.18c.54,0,.54,.36,.36,.89,0,.18-.18,.18-.36,.36,0,.54-.36,.71-.71,.71,0,.18,0,0,0,0" style="fill:#1c1c1a;"/><path d="M308.04,31.78c-.18,.36-.18,.71-.36,1.07v.36c0,.36,.18,.54,.54,.36,.36,0,.71-.18,.89-.54,.89-.89,1.79-1.61,3.04-1.96q-.18-.36-1.07-.36c0-.36,.18-.71,.54-.89,1.07-.71,2.68-.71,3.75,.36,.18,.18,.18,.36,0,.54-.18,.18-.36,.36-.54,.36-.36,.18-.71,.36-1.07,.36,.54,.54,1.43,.54,1.96,.36,.36-.18,.54-.54,.54-1.07,0-.71-.18-1.61-.18-2.32v-1.07c0-.36,0-.71,.36-1.07,.36,.54,.54,1.25,.89,1.79-.71,.18-.54,.71-.54,1.07v1.96c0,.18,0,.36-.18,.54-.36,.71-1.07,1.07-1.79,1.07-.71,.18-1.25-.18-1.61-.71q-.36-.36-.71-.36c-1.25,.36-2.5,1.07-3.39,1.96-.36,.36-.89,.54-1.43,.54s-.71-.18-.71-.71c.18-.54,.54-1.25,1.07-1.61,0-.18,.18-.18,0,0" style="fill:#1c1c1a;"/><path d="M298.93,30.53v.71c0,.18-.18,.36-.36,.36-.71,0-1.43-.18-2.14-.54-.36-.18-.71-.36-.89-.71-.18-.18-.36-.36-.54-.54-.36-.36-.54-.36-.89,0-.18,.18-.36,.36-.54,.71-.18,.36-.18,.54-.36,.89-.18,.71-.54,.89-1.25,.89-.54,0-.89-.36-1.07-.89v-.36c0-.36-.18-.71,.18-1.07,.18,.36,.36,.89,.54,1.25,.36,.54,.89,.36,1.25-.18,.18-.36,.36-.71,.54-1.07,.18-.54,.54-.89,.89-1.25,.54-.54,.89-.54,1.25,.18,.54,.71,1.25,1.25,2.14,1.43,.18,.18,.71,.18,1.25,.18" style="fill:#1e1e1b;"/><path d="M302.5,31.43c-.18,0-.36,0-.36-.18v-.71c1.43-.18,2.86-.71,4.29-1.25,.18,0,.18-.18,.36-.36,0-.18,.18-.18,.36-.18s.18,.18,.18,.36c.18,.54,.54,.71,.89,.71s.54-.18,.54-.54v-.36c0-.18,.18-.36,.36-.36s.36,.18,.36,.36v.54c-.18,.71-.54,1.07-1.25,1.25-.54,.18-1.07,0-1.25-.54,0,0,0-.18-.18-.18-1.25,.54-2.68,1.25-4.29,1.43" style="fill:#1e1e1b;"/><path d="M265.54,35.36c.36,.18,.54,.36,.71,.54,.18,.18,.54,.36,.89,.36s.54-.18,.54-.54v-.71c0-.36,0-.89,.18-1.25,.18-.54,.54-.71,1.07-.36,.54,.36,1.07,.36,1.43,0,.36-.18,.36-.36,.18-.71-.18-.18-.18-.54,0-.71,.18,0,.36,0,.36,.18,.36,.36,.54,1.25,.36,1.61-.18,.54-.54,.71-1.07,.71s-.89,0-1.25-.18c-.36-.18-.54-.18-.71,.36-.18,.36-.18,.89,0,1.25,0,.54,0,.89-.36,1.25-.54,.36-.89,.18-1.43-.18-.54-.36-.71-.71-.89-1.61" style="fill:#1f1e1b;"/><path d="M319.29,26.96c.18,.36,.18,.54,.18,.89,.18,.36,.18,.71,.36,1.07,.18,.36,.18,.54-.36,.54h-.18v3.39c0,.54-.36,.89-.54,1.25v-6.07c-.18-.36,0-.71,.54-1.07" style="fill:#232320;"/><path d="M335.72,40.53v-.89c-.18-1.96-.18-3.75-.36-5.71,0-.54,.18-.89,.54-1.25,.18,.71,.54,1.25,.71,1.96q-.54,0-.36,.54c0,1.07,.18,2.14,.18,3.21,0,.54-.18,1.25-.36,1.79q-.18,.18-.36,.36,.18,0,0,0" style="fill:#1e1e1b;"/><path d="M292.32,30.18c-.18-.54-.18-1.07-.36-1.43-.18-1.07-.54-1.96-.89-3.04-.18-.54-.18-.89-.18-1.61,.36,.36,.71,.71,.89,1.07v.18c-.18,.36,0,.54,.18,.89,.18,.71,.36,1.25,.54,1.96,0,.71,0,1.43-.18,1.96" style="fill:#201f1d;"/><path d="M277.33,28.57c-.36-.36-.54-.71-.36-1.25,0-.18,.18-.36,.36-.36s.36,.18,.36,.36c.18,.18,0,.54,.18,.71,.18,.18,.18,.36,.18,.54h-.18c-.36-.18-.36,0-.54,.18-.18,.36-.54,.71-.71,1.07-.18,.18-.36,.36-.71,.36,.71-.36,1.07-.89,1.43-1.61" style="fill:#242220;"/><path d="M304.47,32.68q.18,0,0,0,.71-.54,1.07,.18c-.18,.18-.36,.36-.54,.54-.36-.18-.36-.54-.54-.54s-.36,.36-.54,.36c-.18-.18-.36-.36-.54-.54v-.18c.18-.18,.36-.54,.54-.54,.36,.36,.36,.71,.54,.71" style="fill:#242220;"/><path d="M285.9,27.14c.18,.36,.18,.54,0,.89-.18,.36-.18,.54-.71,.54q-.18,0-.36,.18c-.18,.18-.36,.36-.71,.18-.18,0-.36-.36-.36-.71v-.18s0-.18,.18-.18,0,.18,0,.18c0,.18,0,.36,.18,.36s.18-.18,.36-.18c.18-.18,.18-.36,.18-.54,.18,0,.18,.18,.18,.36q.18,.18,.36,0c.54-.54,.54-.71,.71-.89" style="fill:#282523;"/><path d="M320.54,32.14c-.18,0-.18-.18-.36-.18-.18-.18-.36-.36-.18-.54,.18-.18,0-.36-.18-.54-.18-.18-.18-.36,0-.54l.18-.18h.18c.18,0,.36,.36,.54,.54,.18,.18,0,.18,0,.36-.18,.18-.18,.36,0,.36,.18,.18,.18,.36,0,.54,0,0,0,.18-.18,.18" style="fill:#242220;"/><path d="M265.9,32.32c.18-.18,.18-.54,.36-.71h.18c.18,0,.36,.18,.54,.18s.18-.18,.36-.36c0-.18,.18-.18,.36,0,.18,0,.18,.18,.36,.18s.18,.18,.18,.36-.18,.36-.18,.36c-.18,0-.36-.18-.71-.18-.18,.18-.18,.36-.36,.54-.71,0-.89-.18-1.07-.36" style="fill:#242421;"/><path d="M293.57,26.61c-.18-.18-.36-.36-.54-.36v-.18c.54-.54,.36-.71,1.07,0-.18,.18-.36,.36-.36,.54s.18,.36,.36,.36v.18q-.18,.18-.36,.36l-.18,.18q-.54-.36,0-1.07" style="fill:#242421;"/><path d="M309.65,25.53c-.18,.18-.36,.54-.36,.71s.18,.18,.36,.18c.18,.18,.18,.54,0,.54-.18,.18-.54,.18-.71,0-.18-.18-.18-.36-.18-.54,0-.36,.36-.71,.89-.89" style="fill:#252523;"/><path d="M283.58,34.64c.71-.71,1.43-1.25,2.5-1.07-.71,.54-1.61,.89-2.5,1.07,0,.18,0,0,0,0" style="fill:#272422;"/><path d="M321.97,29.11c.89-.36,1.79-.54,2.86-.71-.54,.54-1.79,.89-2.86,.71" style="fill:#2b2725;"/><path d="M329.47,33.75c.18-.18,.36-.18,.54-.36,0-.18-.18,0-.18,0-.36,0-.54-.18-.18-.54,.18-.18,.54-.36,.89-.36,.18,0,.18,.18,.18,.18,0,.18,0,.54-.18,.71-.36,.18-.54,.36-1.07,.36,0,.18,0,0,0,0" style="fill:#242421;"/><path d="M313.22,26.25c-.71,.54-1.61,.89-2.5,1.07-.18,0-.36,.18-.54,0,0-.18,.18-.18,.36-.36,1.07-.36,1.79-.71,2.68-.71q0-.18,0,0" style="fill:#2b2726;"/><path d="M314.65,27.68c-.71,.54-1.61,.71-2.32,1.07h-.18c-.18,0-.36,0-.36-.18s.18-.18,.18-.18c.89-.36,1.61-.71,2.5-.89,0,0,.18,0,.18,.18" style="fill:#282623;"/><path d="M308.93,31.61c.18,.18,.36,.36,.54,.54-.18,.18-.36,.36-.71,.71-.18-.18-.36-.36-.54-.71,.18-.18,.36-.36,.71-.54" style="fill:#242220;"/><path d="M269.83,30.18v.71c0,.18-.18,.36-.36,.18q-.18,0-.36,.18t-.36,.18c-.18,0-.18-.18-.18-.36v-.36q.36,.36,.54-.18c.18,0,.18,.36,.36,.18,.18-.18,.18-.54,.36-.54" style="fill:#373635;"/><path d="M268.58,38.03s-.18,0-.18,.18-.18,.36-.18,.54c-.89-.18-.89-.36-.36-1.07,.18,0,.36,.36,.71,.18v.18Z" style="fill:#272725;"/><path d="M333.75,37.68c0,.18-.18,.36-.18,.54s-.18,.36,.18,.54c.18,0,.18,.18,0,.36,0,.18-.18,.18-.36,.18s-.36,0-.36-.18v-.54c.18-.36,.36-.71,.71-.89" style="fill:#2a2826;"/><path d="M268.58,38.03s0-.18-.18-.18c0-.18,.18-.36,.36-.54,.18,0,.54,.18,.71,.36v.18q-.36,.54-.89,.18" style="fill:#262522;"/><path d="M312.86,32.86s0,.18,0,0q0,.89,.54,.71v.18c-.18,.36-.36,.36-.54,.36s-.36-.36-.36-.71c0-.18,0-.36,.18-.54,0,.18,0,0,.18,0q-.18,0,0,0,0-.18,0,0" style="fill:#353433;"/><path d="M280,34.64q.18,.18,.54,.18v.18c-.18,.36-.36,.54-.54,.36-.18,0-.36-.36-.36-.71,0-.18,0-.36,.18-.54,.36,.18,.18,.36,.18,.54" style="fill:#32302f;"/><path d="M281.25,27.5s.18,.18,.36,.18,.18,0,.18,.18c-.18,.18-.36,.36-.54,.36-.18-.18-.36-.36-.36-.54s0-.36,.18-.54c.36-.18,0,.18,.18,.36" style="fill:#282826;"/><path d="M273.75,29.28c0,.18,.18,.18,.18,.18,.18-.18,.18,0,.18,.18-.18,.18-.36,.18-.54,0,.18-.18,0-.18,.18-.36" style="fill:#443c3a;"/><path d="M290.9,30.18c-.18,.18-.18,.36-.18,.54v.54c-.18-.36,0-.89-.18-1.25q.36,0,.36,.18" style="fill:#afa4a3;"/><path d="M280,34.64c-.18-.18,0-.36-.18-.54,0-.18,.18-.18,.18-.36,.18,0,.18,.18,.18,.18,0,.18-.18,.54-.18,.71" style="fill:#544e4d;"/><path d="M281.25,27.5c-.18,0-.18-.18-.18-.36v-.36q0-.18,.18-.36v1.07Z" style="fill:#534e4c;"/><path d="M273.75,29.28s0,.18-.18,.18c-.18-.18-.18-.36,0-.71,.18,.36,.18,.54,.18,.54" style="fill:#635f5d;"/><path d="M293.4,19.46q0-.18,.18-.18v.71c-.18-.18,0-.36-.18-.54" style="fill:#a8d8c1;"/><path d="M314.65,27.68c0-.18-.18,0-.18-.18,0,0,.18,0,.18-.18h.18c0,.18-.18,.36-.18,.36" style="fill:#95807f;"/><path d="M329.47,33.75q.18,0,0,0c0,.18-.18,.18-.36,.18,.18-.18,.36-.18,.36-.18" style="fill:#6a6462;"/><path d="M280.18,33.93s0-.18-.18-.18q0-.18,.18-.18v.36Z" style="fill:#bbb0ad;"/><path d="M312.86,32.86h0q0-.18-.18-.18,0-.18,.18-.18v.36Z" style="fill:#a6a09f;"/><path d="M308.04,31.78q0-.18,0,0v-.18q.18,0,0,.18" style="fill:#877e7c;"/><path d="M281.79,27.68c0-.18-.18-.18-.18-.18,0,0,.18-.18,.36,0l-.18,.18Z" style="fill:#746363;"/><path d="M327.32,31.07h0v.18h-.18s0-.18,.18-.18" style="fill:#4f4846;"/><path d="M309.65,25.36c0-.18,.18-.18,0,0q.18,0,0,0" style="fill:#938e8d;"/><path d="M313.22,26.25q0-.18,0,0c0-.18,.18-.36,0,0,.18-.18,.18,0,0,0" style="fill:#bbb0af;"/><path d="M333.75,37.68h0s0-.18,0,0c.18-.18,.18,0,0,0" style="fill:#847170;"/><path d="M283.58,34.64h0q0,.18,0,0c-.18,.18,0,0,0,0" style="fill:#5b6b6c;"/><path d="M327.14,31.25h0q0,.18,0,0-.18,0,0,0" style="fill:#697575;"/><path d="M301.07,53.03c.18,.36,.54,.71,1.07,.71,.71,.18,1.25-.18,1.25-1.07v-.36c0-.18,0-.36,.18-.36q.71-.54,1.07,.18c.54,.89,1.25,1.79,2.14,2.5,.54,.54,1.25,.89,1.96,1.07,1.07,.18,1.79-.36,1.96-1.43v-1.07c-.18-1.25-1.25-1.79-2.32-1.61-.18,0-.36,.18-.54,.18q-.36,.18-.71-.18s-.18-.18-.18-.36q-.36-.54,.18-.89c.18-.18,.36-.18,.54-.36,.36-.36,.54-.89,.36-1.43-.18-.54-.54-.89-1.25-1.07-.36,0-.71,.18-.89,.54-.18,.36-.36,.71-.54,1.07-.89-1.07-1.61-1.96-2.5-2.86,0-.18,.18-.18,.18-.18,2.86-2.14,6.07-3.93,9.64-4.82,1.96-.54,4.11-.71,6.25-.71,1.79,.18,3.57,.54,5.36,1.07-.71,1.43-1.43,3.04-1.96,4.46-5.18,11.25-10.36,22.68-15.54,33.93q0,.18-.18,.36c-.18,.18-.18,.36,0,.71,.36,1.07,1.07,1.96,1.79,2.86,2.14,2.5,5,4.11,8.04,5.36,2.14,.89,4.46,1.25,6.79,1.43,3.21,.36,6.25-.18,9.11-1.43,2.32-1.07,4.46-2.5,6.43-4.29,1.07-1.07,2.14-2.32,2.86-3.75,.18-.36,.18-.54,0-.71-.36-.89-.71-1.79-1.07-2.68-5-11.61-10-23.21-15-34.82-.18-.18-.18-.36-.18-.71q0-.18,.18-.18c.71,.54,1.43,1.07,2.14,1.43,3.21,1.96,6.79,3.39,10.54,4.11,1.25,.18,2.32,.54,3.57,.71,.36,0,.54,.18,.54,.54,.89,3.75,1.96,7.32,2.86,11.07,3.39,12.68,6.79,25.36,10.18,38.21v.18c.18,.18,0,.36-.18,.36-.89,.18-1.79,.54-2.68,.71-2.14,.36-4.29,.54-6.43,.54-2.68-.18-5.36-.71-7.86-1.43-2.32-.71-4.64-1.61-7.14-2.5-2.32-.71-4.46-1.43-6.96-1.79-2.32-.36-4.82-.54-7.32-.36-5.54,.18-10.71,1.79-15.71,4.64,0,0-.18,0-.18,.18q-.18,0-.18-.18V53.57c.18-.18,0-.54,.36-.54" style="fill:#efc151;"/><path d="M277.5,41.43c1.07-.36,2.14-.71,3.21-.89,4.29-.71,8.39,.18,12.14,2.14,1.79,.89,3.57,1.96,5.18,3.21,.18,0,.18,.18,.36,.36-.89,.89-1.61,1.96-2.5,3.04-.18-.36-.18-.71-.36-.89-.36-.71-.89-.89-1.61-.36-.89,.54-.89,1.61-.18,2.32,.18,.18,.36,.36,.71,.54,.18,0,.18,.18,.18,.36-.18,.36-.18,.54-.54,.89q-.18,.18-.36,0c-.18-.18-.54-.18-.71-.36-.89-.18-1.96,.36-2.14,1.25-.18,.54-.18,1.07,0,1.43,.18,.89,.89,1.43,1.96,1.43,.89-.18,1.43-.54,2.14-1.07,.89-.71,1.61-1.61,2.14-2.5,0-.18,.18-.18,.18-.36l.18-.18c.18,.18,.36,.18,.54,.36,.18,.18,.18,.36,.18,.54,0,.36,0,.89,.36,1.07,.36,.18,.89,.18,1.25,0,.36-.18,.54-.36,.71-.54v45.53c-.36,0-.36-.18-.71-.36-3.04-1.79-6.07-3.21-9.46-4.11-3.04-.71-6.07-.89-9.11-.71-4.82,.36-9.46,1.61-13.93,3.21-.54,.18-1.07,.36-1.43,.54-1.25,.54-2.5,.89-3.75,1.07-2.86,.54-5.89,.71-8.75,.54-2.14,0-4.46-.36-6.61-.71-.54-.18-.54,0-.36-.71,2.32-8.21,4.46-16.25,6.79-24.46,2.14-7.5,4.11-15.18,6.25-22.68,.18-.71,.18-1.43,.36-1.96,0-.54,.18-.54,.54-.54,4.11-.54,7.86-1.43,11.61-3.04,1.61-.71,3.04-1.43,4.46-2.32,.18-.18,.36-.18,.54-.36,0,.18,0,.36-.18,.54-1.96,4.11-3.75,8.21-5.71,12.5-3.75,8.39-7.68,16.61-11.43,25q0,.18-.18,.36c-.18,.18,0,.54,0,.71,.54,1.25,1.25,2.32,2.14,3.21,1.96,2.14,4.46,3.57,7.32,4.64,2.32,.89,4.82,1.43,7.32,1.61,3.75,.36,7.14-.36,10.36-2.14,2.5-1.25,4.64-3.04,6.43-5.18,.54-.71,1.07-1.43,1.43-2.32,.18-.18,.18-.36,.36-.54-.18,0-.36,0-.36-.18-5.41-12.57-10.99-25.62-16.47-38.13-.36-.18-.31-.44-.49-.8" style="fill:#efc151;"/><path d="M260.34,80.35c.35-1.07,1.05-2.14,1.4-3.39,5.38-11.49,10.46-23,15.57-34.64,0-.18,.17-.36,.17-.54,.17,.18,.17,.36,.17,.54,1.36,3.29,15.81,38.02,16.03,38.02-.17,.36-.47,.37-.82,.19-7.7-.18-15.39,0-23.09-.18h-8.92c0,.18-.35,.18-.53,0" style="fill:#efc151;"/><path d="M307.15,80.35c1.07-2.5,2.32-4.82,3.39-7.32,3.75-8.21,7.68-16.61,11.43-24.82,.89-1.79,1.61-3.57,2.5-5.54,0-.18,0-.36,.36-.36,.18,.36,.18,.54,.36,.89,5.36,12.5,10.71,24.82,16.07,37.32v.18c-.18,.36-.36,.18-.54,.18-8.04-.18-15.89,0-23.93-.18h-8.75c-.36-.18-.71,0-.89-.36" style="fill:#efc151;"/><path d="M253.04,54.46c-.36,1.25-.71,2.5-1.07,3.57-3.75,13.57-7.5,27.14-11.25,40.71v.18c0,.36,0,.54,.36,.71,.54,.18,1.25,.36,1.79,.36,1.07,0,2.32,0,3.39-.18,.18,0,.36,0,.36-.18,0-.36,.18-.18,.36-.18,.89,0,1.96,0,2.86-.18,.18,0,.36,0,.36-.18s.18,0,.36,0c1.79,.18,3.39,.18,5.18,.18,2.86,0,5.54-.36,8.21-.89,.36,0,.54-.18,.71-.18,3.21-1.25,6.25-2.32,9.64-3.21,3.21-.71,6.25-1.25,9.64-1.07,5.54,.18,10.54,1.61,15.36,4.64,.36,.18,.71,.36,1.07,.71,.36,.18,.54,.18,.71,0,1.79-1.07,3.75-1.96,5.71-2.86,2.86-1.07,5.71-1.79,8.75-1.96,2.5-.18,5.18-.18,7.68,.18,3.04,.36,6.07,1.25,8.93,2.32,2.32,.89,4.64,1.61,6.96,2.32,3.21,.89,6.43,1.25,9.64,1.07,.89,0,1.61-.18,2.5-.36,.18,0,.36-.18,.36,.18,0,.18,.18,.18,.36,.18,.89,0,1.61,.18,2.5,0,.18,0,.36-.18,.36,.36,0,.18,.18,.18,.18,.18,1.79,0,3.39,.18,5.18-.18h.18c.54-.18,.54-.36,.54-.89-.71-2.5-1.25-5-1.96-7.32l-7.5-28.39c-.71-3.04-1.61-5.89-2.32-8.93,0-.18-.18-.36,0-.54h1.43c.18,0,.18,.18,.18,.36,.18,.89,.54,1.79,.71,2.68,2.5,9.46,4.82,18.93,7.32,28.39,.89,3.75,1.96,7.5,2.86,11.25,.18,.71,.54,1.43,.54,2.14v1.43c-.18,.54-.36,.89-.89,1.25-.36,.18-.54,.36-.89,.18-2.68,0-5.54-.18-8.21-.18-3.57,0-6.96-.18-10.54-.18-4.11,0-8.39-.18-12.5-.18-1.96,0-4.11,0-6.07-.18-4.11,0-8.39-.18-12.5-.18-1.96,0-3.93,0-5.89-.18-.36,0-.54,0-.71,.36-.71,1.07-1.61,1.79-2.86,1.96-1.43,.36-2.5-.18-3.57-.89-.36-.36-.89-.71-1.07-1.25-.18-.36-.54-.36-.89-.36h-22.14c-5.36,0-10.54,0-15.89,.18-5.71,0-11.25,0-16.96,.18-.36,0-.54,0-.89-.18-.89-.36-1.25-1.07-1.07-1.96,.18-1.07,.54-2.14,.89-3.21,3.75-13.57,7.5-27.14,11.25-40.89v-.36c0-.18,.18-.36,.36-.36h1.96Z" style="fill:#efc151;"/><path d="M307.15,80.35c.18,.18,.36,0,.54,0h7.14c7.32,0,14.64,0,21.96,.18h5c.18,0,.36,0,.54,.18,0,.18-.18,.36-.18,.54-.71,1.61-1.79,2.86-3.04,3.93-2.86,2.68-6.07,4.46-9.82,5.36-2.14,.54-4.11,.54-6.25,.36-2.5-.18-4.82-.71-7.14-1.79-2.32-.89-4.46-2.14-6.25-3.75-1.25-1.25-2.32-2.5-3.04-4.11q0-.18-.18-.36-.18-.36,.36-.36c0-.18,.18-.18,.36-.18" style="fill:#067d5b;"/><path d="M259.65,80.35h7.5c7.5,0,14.82,0,22.32,.18h5c.18,.18,.36,0,.54,.18,0,.18-.18,.36-.18,.54-.89,1.79-2.14,3.21-3.75,4.64-2.68,2.32-5.71,3.93-9.28,4.64-1.96,.54-4.11,.54-6.25,.36-2.32-.18-4.64-.71-6.79-1.61-2.68-1.07-5.18-2.5-7.14-4.46-1.07-1.07-1.79-2.14-2.32-3.57,0-.18-.18-.18-.18-.36-.18-.36,0-.36,.36-.36-.18-.18,0-.18,.18-.18" style="fill:#067d5b;"/><path d="M355.89,100.35c.71-.18,1.25-.36,1.96-.54,.54-.18,.54-.36,.36-.89-2.5-9.29-5-18.75-7.5-28.03-1.61-6.07-3.21-12.14-4.82-18.03,0-.18,0-.36-.18-.54,.54,0,1.25,0,1.79,.18q.18,0,.18,.18c.18,.89,.36,1.79,.71,2.5,2.68,10.36,5.54,20.89,8.21,31.25,1.07,4.46,2.32,8.75,3.39,13.21v.18q0,.36-.36,.36c-.54,.18-1.25,.18-1.79,.18-.36,.18-1.25,.18-1.96,0q-.18,0,0,0c-.18,0,0,0,0,0" style="fill:#efc151;"/><path d="M245.18,99.64c-1.25,.18-2.5,.18-3.75-.18q-.54-.18-.36-.54c1.61-6.07,3.39-12.14,5-18.21,2.5-8.75,4.82-17.5,7.32-26.07,.18-.71,.36-1.43,.54-1.96,0-.18,.18-.36,.36-.36,.54,0,1.07,0,1.61-.18,0,.18-.18,.36-.18,.54-3.93,13.93-7.68,27.86-11.61,41.96l-1.07,3.75c-.18,.54,0,.71,.54,.89,.71,0,1.25,.18,1.61,.36,0-.18,.18-.18,0,0" style="fill:#efc151;"/><path d="M248.04,99.1c-1.25,0-2.5,0-3.75-.36-.18,0-.36,0-.36-.18-.18,0-.36-.18-.18-.54,.36-.89,.54-1.96,.89-3.04,3.75-13.39,7.32-26.78,11.07-40.18,.36-1.43,.71-3.04,1.07-4.46q.18-.54,.71-.54c.36,0,.89-.18,1.43,0-.18,.54-.36,1.07-.54,1.61-4.29,15.36-8.39,30.53-12.68,45.89v.18c-.18,.36,0,.54,.36,.71,.89,.18,1.61,.36,2.5,.54-.18,.54-.36,.36-.54,.36" style="fill:#efc151;"/><path d="M352.14,100c1.07-.36,2.14-.54,3.39-.89,.18,0,.36-.18,.54-.36v-.36c-.54-2.14-1.07-4.11-1.61-6.25-2.68-10-5.36-19.82-8.04-29.82-1.07-3.75-2.14-7.68-3.04-11.43v-.36c.54,0,1.07,0,1.61,.18,.18,0,.18,.18,.18,.36s0,.54,.18,.71c0,.36,0,.54,.36,.89,.18,0,.18,.18,.18,.36,1.96,7.32,3.93,14.64,5.71,21.96,2.14,8.04,4.29,15.89,6.25,23.93q.18,.71-.54,.89c-1.43,.54-2.68,.54-4.11,.54-.54-.36-.71-.36-1.07-.36" style="fill:#efc151;"/><path d="M301.07,53.03l-.18,.18v45q0,.18,.18,.18s-.18,.18-.18,0V47.85c.89,.71,1.43,1.43,2.14,2.32-.54,.36-1.07,.71-1.61,1.25-.36,.18-.36,.36-.54,.71,0,.36,.18,.71,.18,.89" style="fill:#efc151;"/><path d="M300.36,51.96c-.54-.54-1.25-1.07-1.96-1.61,.71-.71,1.25-1.43,1.96-2.14v3.75Z" style="fill:#efc151;"/><path d="M248.04,99.1c.18-.18,.36,0,.36-.18,.18,0,.36,0,.54,.18-.18,0-.54,.18-.89,0" style="fill:#b4832c;"/><path d="M245.18,99.64s0-.18,0,0q.18-.18,.36,0h-.36Z" style="fill:#c9b32e;"/><path d="M355.89,100.35h0q-.18,.18-.36,0h.36Z" style="fill:#bd9e2f;"/><path d="M352.14,100s.18,0,0,0c0,.18-.18,.18-.18,0s.18-.18,.18,0" style="fill:#a8842e;"/><path d="M325,41.96h0c.18-.18,.18,0,0,0q.18,.18,0,0" style="fill:#877b30;"/><path d="M325,41.96q.18,0,0,0h.36l-.18,.18q-.18,0-.18-.18" style="fill:#d0a12a;"/><path d="M293.22,126.07c-.18,.54-.54,.89-1.07,.89s-.89-.18-1.07-.71c-.18-.18-.18-.36,.18-.36,.71-.18,1.43,0,1.96,.18" style="fill:#067d5b;"/><path d="M337.86,122.85c-.54,.18-1.07,.36-1.61,.18-.18,0-.36,0-.36-.18s.18-.36,.36-.36c.36-.54,1.25-.36,1.61,.36" style="fill:#067d5b;"/><path d="M308.75,125.17c-.71,0-.71-.18-.71-.71,0-.71,.36-1.43,1.07-1.96,.36-.36,.54-.36,.89,0,.36,.36,.71,.71,.89,1.25v.54c-.18,.36-.36,.54-.71,.54-.54,.18-1.07,.36-1.43,.36" style="fill:#067d5b;"/><path d="M308.57,109.99c-.18,0-.36-.18-.36-.36,0-.36,.18-.54,.36-.54s.36,.18,.36,.54c.18,.18-.18,.36-.36,.36" style="fill:#067d5b;"/><path d="M309.47,109.82c.18,0,.36,.18,.18,.18,0,.18-.18,.18-.36,.18s-.18,0-.18-.18c.18-.18,.18-.36,.36-.18" style="fill:#067d5b;"/><path d="M280.18,30.89c-.18,0-.36,0-.18-.18,0-.18,.18-.18,.36-.18s.36,0,.18,.18c0,.18-.18,.18-.36,.18" style="fill:#e7f1f0;"/><path d="M276.97,33.21c0,.18-.18,.18-.18,.18q-.18,0-.18-.18c0-.18,.18-.18,.36-.18v.18Z" style="fill:#dae9e9;"/><path d="M333.22,35.71c0,.18-.18,.18-.18,.18-.18,0-.36,0-.36-.18s0-.18,.18-.18q.36,0,.36,.18" style="fill:#dfe7e7;"/><path d="M331.25,37.68c0,.18-.18,.18-.18,.18-.18,0-.36,0-.36-.18s.18-.18,.18-.18c.18,0,.36,0,.36,.18" style="fill:#d4dfde;"/><path d="M277.33,27.68c.18,0,.36,.18,.36,.36,0,0,0,.18-.18,0-.18,0-.18-.18-.18-.36" style="fill:#ced3d3;"/><path d="M54.48,63.93c.71,.54,1.07,1.07,1.25,1.43,3.93,5.54,6.25,11.61,6.79,18.39,.18,2.86,.54,5.71,.71,8.39,.36,3.39,2.14,5.18,5.54,5.36,.89,0,1.79,0,2.68-.18,4.11-.71,7.68-2.5,11.07-4.46-1.61-2.68-4.11-3.39-7.86-2.14,0-2.14,.89-3.57,2.5-4.64,1.43-.89,3.21-1.43,4.82-1.61,4.64-.54,9.11,0,13.39,1.43,1.96,.71,1.96,1.61,1.25,3.04-.36,.89-1.07,1.43-1.96,1.96-1.61,.71-3.04,1.43-4.46,2.14-.89,.36-.89,.54-.18,1.25,.54,.71,1.25,1.25,2.14,1.61,2.68,.89,5.36,.71,7.86-.54,1.79-.89,2.5-2.32,2.14-4.46-1.25-9.64-2.5-19.11-3.57-28.75-.54-4.46-1.07-8.75-1.61-13.21-.18-1.79,0-2.86,1.43-4.82,1.61,3.21,3.04,6.25,4.46,9.29-.71,.18-1.25,0-1.79,0-.71,0-.89,.18-.71,.71,.18,1.96,.54,4.11,.71,6.07,.54,4.29,1.07,8.39,1.61,12.68,.36,3.57,.89,7.14,1.25,10.71,.36,3.39,.18,6.79-.71,10-.89,3.39-3.04,5.89-6.61,6.79-2.5,.71-4.82,.18-6.96-1.07-1.43-.89-2.68-1.79-3.57-3.21-.36-.54-.71-.54-1.43-.36-2.86,1.61-5.89,3.21-9.11,4.29-2.32,.89-4.64,1.43-6.96,1.43-1.25,0-2.5-.36-3.75-.89-1.25-.54-1.96-1.43-2.5-2.68-.71-1.43-.89-2.86-1.07-4.46-.18-1.07-.18-1.96-.36-3.04q-.18,0-.36,.18c-3.39,5.89-8.39,10.18-14.29,13.21-.71,.36-1.43,.71-2.14,1.07-1.96,1.07-4.11,1.07-6.25,.54-2.14-.54-3.39-1.79-3.93-3.93-.36-1.43-.36-3.04-.18-4.46,0-.54,.18-.89,.18-1.61-.71,.36-1.25,.89-1.79,1.25-3.21,2.14-6.79,4.11-10.36,5.54-3.39,1.25-6.79,1.96-10.54,1.79C3.23,103.75,.2,97.5,.02,92.32c-.18-3.57,1.07-6.79,2.86-9.82,.36-.54,.71-1.25,1.61-1.61,0,.71-.36,1.25-.54,1.96-.89,2.5-1.79,5.18-1.79,7.86-.18,4.46,1.79,7.14,5.89,8.57,4.11,1.43,8.21,1.07,12.14-.18,3.04-.89,5.71-2.32,8.39-3.93,3.57-2.14,6.79-4.82,9.82-7.5,.54-.54,.71-.89,.71-1.61-.18-3.93-.36-7.86-.71-11.61-.36-3.57-.54-7.14-.89-10.71-.36-4.11-.89-8.39-1.25-12.5-.18-2.5-.54-5-.71-7.5,0-.54,0-1.07,.18-1.61,.18-.54,.89-.89,1.43-.89s.54,.54,.71,.89c.89,2.68,1.96,5.18,2.86,7.86,0,.18,.18,.36,0,.71-.71,0-1.07-.71-1.79-.89-.18,.36,0,.71,0,1.07,.54,7.5,1.25,14.82,1.79,22.32,.18,2.86,.54,5.71,.36,8.57-.18,2.14-.36,4.11-1.07,6.07-.89,2.5-2.14,4.46-4.11,6.07-.54,.36-.71,.71-.71,1.43,0,1.07,0,2.14,.36,3.21,.54,1.43,1.61,2.32,3.21,2.5,1.96,.18,3.93,0,5.89-.89,4.29-2.14,8.21-4.64,11.61-7.86,1.25-1.25,2.5-2.68,3.39-4.11,.36-.71,.54-1.25,.36-1.96-1.07-5.89-2.86-11.79-5.36-17.14-.18-.54-.36-1.07-.36-1.79,.18-.54,.18-1.79,.18-3.39" style="fill:#067d5b;"/><path d="M147.51,104.46c5.18-2.32,10.54-4.46,15.53-6.96,6.79-3.39,13.39-6.96,19.64-11.07,1.43-.89,2.86-1.79,4.29-2.68,1.43-1.07,2.32-2.32,2.5-4.11,.18-.89,0-1.61-.54-2.32-1.79-2.86-3.57-5.71-5-8.75-.54-1.25-.89-2.32-.54-3.57,.18-.36,.18-.71,.36-1.25,1.25,1.07,2.5,2.14,3.57,3.21,.54,.54,.18,1.07-.18,1.43-.54,.36-.36,.71,0,1.25,.89,1.25,1.61,2.68,2.68,3.93,1.07,1.43,1.43,3.21,1.43,5,0,1.43-.36,2.68-.71,4.11-.54,1.96-1.43,3.57-3.21,4.64-1.07,.54-1.96,1.43-3.04,2.14-.36,.36-.71,.71-.71,1.07-.36,1.96-.54,3.93,0,5.71,.71,2.68,2.5,4.29,5.18,4.64,2.14,.18,4.29-.18,6.43-1.07,5.89-2.68,10.89-6.43,15-11.25,.36-.36,.71-.71,.89-1.25,.36-.54,.36-1.25,0-1.79-.36-.71-1.07-.54-1.61-.36-1.79,.36-3.75,.54-5.54,.18-3.04-.36-4.46-2.32-3.57-5.71,.18-.54,.36-.89,.54-1.43,1.96-3.57,5.71-4.11,8.57-1.25,1.79,1.79,2.86,4.11,3.39,6.61,.18,.54,.18,.89,.18,1.43,.36,2.14,0,3.93-1.43,5.54-3.75,4.82-8.04,9.11-13.57,11.96-2.68,1.43-5.36,2.5-8.39,2.5-4.82,0-7.32-2.5-7.68-6.96-.18-1.61-.18-3.39,0-5,0-.54,.18-.89,0-1.43-.54,0-.89,.36-1.25,.71-4.46,3.04-9.11,5.71-13.75,8.21-2.5,1.25-4.82,2.32-7.68,2.68-3.93,.54-7.68,1.43-11.43,2.14-.36-.54-.36-.71-.36-.89" style="fill:#067d5b;"/><path d="M126.08,86.07c-.18,1.43-.36,3.04-.54,4.46-.18,1.79,0,3.75,.54,5.54,.89,3.04,2.86,4.46,5.89,4.46,2.68,0,5-.54,7.32-1.79,3.75-1.96,6.96-4.46,10.18-7.14,.89-.71,1.79-1.61,2.68-2.32,.54-.36,.89-.89,1.25-1.43,1.07-1.43,1.25-3.04,.36-4.64-1.07-1.96-1.96-4.11-3.04-6.07-.71-1.25-1.07-2.5-.71-3.93,.18-.54,.18-1.25,.18-1.96,1.07,.54,1.61,1.25,2.32,1.96,.71,.71,1.43,1.25,2.14,1.96,0,.18-.18,.36-.18,.36-.36,.36-1.07,.54-1.07,1.07s.54,.89,.71,1.43c2.5,4.46,2.14,8.93,0,13.39-.18,.18-.36,.54-.54,.71-3.39,3.39-6.96,6.79-11.25,9.29-2.32,1.43-4.82,2.68-7.68,3.21-1.43,.36-3.04,.36-4.46,0-2.32-.36-3.93-1.79-5-3.75-1.25-2.14-1.61-4.64-1.43-6.96,.18-2.86,.71-5.54,1.79-8.04,.54-.18,.71-.18,.54,.18" style="fill:#067d5b;"/><path d="M113.4,96.07c-.18-3.75-.36-7.32-.71-10.89-.36-5.36-.89-10.71-1.25-16.07-.54-5.54-1.07-10.89-1.79-16.25-.18-1.79-.36-3.57-.71-5.36-.18-1.07,0-2.14,.36-3.21,.18-.54,.54-.89,1.07-.89s.71,.36,.89,.71c1.43,2.68,2.68,5.36,3.21,8.21,0,.18,0,.54,.18,.89-.89-.36-1.43-1.07-2.5-1.07-.18,1.07,.18,2.14,.18,3.21,.54,5.89,1.25,11.79,1.79,17.5,.36,3.75,.89,7.5,1.07,11.43,.36,3.57,0,7.14-1.25,10.54,0,.36,0,.89-.54,1.25" style="fill:#067d5b;"/><path d="M170.19,50.35c-.89-.54-1.43-1.25-2.32-1.25-.18,.18-.18,.54-.18,.71,.54,5.54,1.25,11.07,1.79,16.78,.54,4.64,1.07,9.11,1.43,13.75,.36,3.39,0,6.79-1.25,10.18-.18,.36-.36,.71-.54,1.07,0,0-.18,0-.36,.18-.18-1.79-.18-3.39-.36-5.18-.18-5.54-.71-11.07-1.25-16.61-.71-7.68-1.61-15.54-2.68-23.21-.18-1.43-.71-2.86-.18-4.46,.18-.36,.18-.71,.54-1.07,.54-.54,1.25-.54,1.61,0,1.61,2.86,3.04,5.71,3.75,9.11" style="fill:#067d5b;"/><path d="M139.47,65.35c-.18,.71-.36,1.43-.54,2.14-.36,1.61-1.07,3.04-1.96,4.29-.89,1.07-1.61,2.14-2.5,3.39,.18,.18,.18,.36,.36,.36,2.32,1.61,3.04,3.75,3.04,6.43,0,.89-.18,1.96-.36,2.86-.18,1.61-1.07,2.86-2.5,3.75-1.07,.71-2.32,1.43-3.57,1.79-1.79,.54-3.21-.18-3.75-1.96,0-.18-.18-.54-.18-.89-.18-3.75,.36-7.14,2.86-10.18,.54-.54,.54-.89,0-1.43-1.25-1.43-2.5-3.04-3.75-4.46-.54-.71-.89-1.43-.71-2.32,.18-.71,0-1.43,.18-2.14,1.79,1.07,3.39,1.96,5,3.04q-.89,1.61,.36,2.86c.36,.36,.71,.71,1.25,.89,2.14-2.86,4.11-5.71,6.25-8.57,.71-.36,.71,0,.54,.18" style="fill:#067d5b;"/><path d="M67.51,73.75c0-1.61,.71-2.68,2.14-3.39,3.21-1.79,6.25-3.57,9.46-5.36,4.46-2.68,8.93-5.18,13.57-7.86,.18-.18,.36-.18,.54-.36,.36-.18,.71-.36,1.07,.18,.36,.36,.36,.89,0,1.25-.36,.36-.71,.54-1.07,.71-7.68,4.29-15.36,8.75-23.03,13.04-.36,.18-.71,.36-1.07,.71-.54,.36-.71,.71-.54,1.25,0,.54,.54,.54,.89,.71,.54,.18,.89,.36,1.25,.71,.18,.36,.18,.71,0,1.07-.18,.36-.54,.36-.89,.36-1.61-.18-2.32-1.07-2.32-3.04" style="fill:#067d5b;"/><path d="M51.44,54.46c1.96-1.43,4.11-2.68,5.89-4.64-2.32-.36-4.46-.18-6.61,.54-.36,.18-.89,.54-1.25,.18-.36-.36-.18-.89,0-1.43,.18-.89,.71-1.79,1.43-2.32,2.32-1.61,5-2.14,7.86-1.25,1.07,.36,1.07,.54,1.07,1.61-.54,4.64-2.86,6.79-7.68,7.68-.54,0-.71,.18-.71-.36" style="fill:#067d5b;"/><path d="M117.51,58.03c3.57-2.32,7.32-4.82,10.71-7.68,.89-.71,1.61-1.43,2.5-2.14-.18-.54-.71-.71-1.07-.89-1.07-.71-1.25-1.43-.71-2.5,.18-.36,.18-.71,0-1.07-.18-.54-.36-.89-.18-1.43,.18-.71,.71-1.07,1.43-1.07,2.5,.54,4.46,1.79,5.18,4.46,.36,.89,.36,1.79-.36,2.5-.71,.71-1.61,.71-2.32,.54-.71-.36-1.07,0-1.43,.36-3.57,4.29-8.04,7.32-13.21,9.46-.54,0-.71-.18-.54-.54" style="fill:#067d5b;"/><path d="M75.55,50.71c.18-1.61,.18-3.39,.36-5,0-.71,.18-1.25,.36-1.96,.36-.89,.89-1.25,1.79-1.25,.71,0,1.61,.54,1.79,1.25,.18,.54,0,.71-.54,.89-.54,.18-1.07,.18-1.43,0-.71-.18-.89,.18-1.07,.71-.18,.89-.18,1.96-.18,2.86,0,1.79,.36,3.57,0,5.36,0,.36,.18,.89-.36,1.07-.54,.18-.89-.36-1.07-.89-.36-.71-.71-1.43-1.07-2.14-.36-.71-.71-1.25-1.07-1.96-.36-.54-.71-.89-1.43-1.07-.71-.18-1.61-.36-2.14-.71-1.07-.54-1.61-1.61-1.25-2.32,.36-.71,1.43-.89,2.5-.71,.71,.18,1.25,.71,1.61,1.25,.89,1.25,1.61,2.5,2.5,3.75,.18,.36,.18,.71,.71,.89" style="fill:#067d5b;"/><path d="M152.33,51.78c-.89-.18-1.25-.71-1.61-1.25-.54-.89-1.07-1.79-1.43-2.68-.36-.71-.71-1.07-1.61-1.07-.71,0-1.61,0-2.32-.36-.89-.36-1.25-1.07-1.25-1.79,.18-.71,1.07-1.25,1.96-1.25,.71,0,1.43,.54,1.96,.89,1.07,.89,1.79,2.14,2.5,3.39,.18,.36,.18,.71,.71,.89,.18-1.79,.36-3.39,.36-5.18,0-.71,.18-1.43,.54-2.14,.71-.89,1.96-1.07,2.86-.36,.54,.54,.54,.89-.18,1.25-.36,.18-.71,.18-1.07,.36q-.71,.18-.71,1.43c-.18,2.5-.18,5.18-.71,7.86" style="fill:#067d5b;"/><path d="M196.79,66.78c-.36,0-.71,0-.89-.54,0-.36,.18-.54,.36-.71,.18-.18,.54-.36,.71-.36,4.64-2.68,9.29-5.18,13.75-7.86l1.07-.54c.36-.18,.71,0,.89,.36,.18,.36,.18,.71-.18,1.07-.18,.18-.54,.36-.71,.36-4.64,2.5-9.11,5-13.75,7.5-.36,.36-.89,.54-1.25,.71" style="fill:#067d5b;"/><path d="M159.47,60.35c0,.54-.36,.71-.71,.89-1.79,1.07-3.57,2.14-5.18,3.21-2.86,1.79-5.89,3.57-8.75,5.36-.54,.36-.89,.54-1.43,.71-.36,0-.54,0-.71-.36-.18-.36,0-.54,.36-.71,.18-.18,.54-.36,.71-.54,4.64-2.86,9.29-5.89,14.11-8.75,.36-.18,.71-.54,1.07-.54,.18-.18,.54,.18,.54,.71" style="fill:#067d5b;"/><path d="M175.01,46.07c-.54,0-.89,0-1.07-.54,0-.36,.18-.54,.54-.71,.18,0,.36-.18,.71-.18,4.64-1.61,9.11-3.39,13.75-5,.18-.18,.54-.18,.71-.18,.36,0,.71,0,.89,.36,.18,.36,.18,.89-.36,1.07-.18,.18-.54,.18-.71,.36-4.46,1.61-9.11,3.04-13.57,4.64-.18,.18-.54,.36-.89,.18" style="fill:#067d5b;"/><path d="M185.19,53.21c-.71,1.07-1.61,1.96-2.5,2.86-.36,.36-.71,.18-.89,0-1.07-.89-2.14-1.79-3.39-2.68-.36-.36-.36-.54,0-.89,.71-.71,1.25-1.43,1.96-1.96,.36-.36,.54-.36,.89,0,1.25,.71,2.68,1.61,3.93,2.68" style="fill:#067d5b;"/><path d="M126.8,55.35c1.43,.71,2.68,1.43,4.11,2.32,.36,.18,.36,.54,.18,.71v.18c-.54,.89-.71,1.96-1.43,2.86-1.07-.18-1.96-.89-2.86-1.25-1.96-1.07-1.79-.54-.89-2.68,.18-.71,.54-1.43,.89-2.14" style="fill:#067d5b;"/><path d="M133.23,53.57c1.43,.71,2.68,1.43,3.93,2.14,.54,.18,.54,.54,.36,1.07-.36,.71-.71,1.61-1.07,2.32-.18,.54-.36,.71-.89,.36-1.07-.54-2.14-1.25-3.39-1.79-.54-.18-.54-.54-.36-.89,.54-1.07,1.07-1.96,1.43-3.21" style="fill:#067d5b;"/><path d="M21.27,65.71v4.82c.18,2.68,.89,3.04,3.21,1.79q.18,0,.54-.18c0,1.25-.36,2.14-1.07,3.04-.89,1.07-1.79,1.07-2.68,0-.89-1.07-1.07-2.32-1.07-3.57,0-2.14,.36-4.11,1.07-6.07-.18,0,0,0,0,.18" style="fill:#067d5b;"/><path d="M88.41,105c-1.07,1.07-2.5,1.79-4.11,1.61-1.61-.18-2.14-1.07-1.61-2.5,.18-.36,.36-.71,.71-1.25-.54-.36-1.25-.54-1.43-1.07v-.89c.18-.71,.71-1.07,1.96-1.07,0,.71-.18,1.25,.54,1.79,.54,.36,.36,.89,.18,1.25-.18,.36-.54,.71-.71,1.25-.54,.71-.18,1.25,.71,1.25,.71,0,1.43-.18,2.14-.36,.36-.18,.89-.18,1.25-.36,.36-.18,.54,0,.36,.36" style="fill:#067d5b;"/><path d="M16.62,84.28c.36,1.43,.54,2.86,.36,4.29-.71,0-.89-.36-1.07-.71-.36-.36-.54-.89-.71-1.25-.54-1.25-1.25-2.14-2.86-2.14-.71,0-1.25-.36-1.61-.89-.54-.71-.18-1.43,.54-1.61,.89-.36,1.61,0,2.14,.71,.89,1.07,1.79,2.14,2.5,3.21,.54,.18,.36-.18,.36-.36,0-.54-.54-1.25,.36-1.25" style="fill:#067d5b;"/><path d="M88.76,43.57c0,.71-.18,1.25-.18,1.96-.18,1.79,.36,2.14,2.14,1.79,.18,0,.36,0,.54-.18,0,1.07-.54,1.96-1.43,2.32-1.07,.36-2.14-.36-2.32-1.61-.18-.71,0-1.25,0-1.96,.18-1.07,.54-2.14,1.07-3.21,.54,.18,.18,.71,.18,.89" style="fill:#067d5b;"/><path d="M65.91,57.85c-.18,.71-.36,1.43-.54,1.96-.36,1.61,0,1.96,1.61,1.79h.54v.36c-.54,1.25-1.43,1.79-2.32,1.61-.71-.18-1.25-1.25-1.07-2.5,.18-1.25,.71-2.5,1.43-3.57,.36,0,.54,.18,.36,.36" style="fill:#067d5b;"/><path d="M82.87,70.18v2.68c0,1.79,.54,2.14,2.32,1.43h.36c.18,.36,0,.71-.18,1.07-.36,.89-1.07,1.43-1.79,1.43s-1.43-.89-1.61-1.61c-.18-.89-.18-1.79,0-2.68,.18-.71,.18-1.43,.54-2.14q.18-.36,.36-.18" style="fill:#067d5b;"/><path d="M106.26,98.21c-.18,.71-.54,1.43-.71,2.32-.36,1.25,0,1.61,1.25,1.61h.71v.18c-.54,1.25-1.43,1.79-2.32,1.43-.71-.36-1.25-1.43-.89-2.5,.36-1.43,1.07-2.5,1.96-3.57,.18,.18,.18,.36,0,.54" style="fill:#067d5b;"/><path d="M48.59,80.89c-.18,.54-.54,.89-.71,1.43-.54,1.25-.18,1.61,1.07,1.79,.18,0,.54,0,.54,.18v.18c-.89,1.07-1.79,1.43-2.5,.89-.71-.36-.89-1.61-.36-2.68,.36-.89,.89-1.61,1.61-2.32,.54,0,.54,.18,.36,.54" style="fill:#067d5b;"/><path d="M57.34,101.96c-.18,.36-.36,.71-.36,1.07-.36,1.07-.18,1.43,1.07,1.79h.71v.18c-.71,1.07-1.79,1.61-2.5,1.07-.71-.36-.89-1.61-.54-2.68,.36-.71,.71-1.43,1.43-1.96,.18,0,.18-.18,.36-.36q.36,0,.36,.36,0,.18-.18,.18c-.36,0-.36,.18-.36,.36" style="fill:#067d5b;"/><path d="M194.65,86.78c0,.36-.18,.89-.18,1.25-.18,1.25,.18,1.61,1.25,1.43,.18,0,.36-.18,.71,0,0,.18-.18,.36-.18,.54-.54,.89-1.25,1.25-1.96,1.07-.71-.18-1.07-1.25-.89-2.14,.18-1.07,.54-1.96,1.07-2.86,.36,.18,.18,.54,.18,.71" style="fill:#067d5b;"/><path d="M28.77,102.14c0,.18-.18,.36-.18,.54-.54,1.25-.54,1.43,.89,1.79,0,.54-.36,.54-.71,.71-.89,.54-1.43,.18-1.61-.89,0-.36,0-.89,.18-1.25,.18-.54,.54-.89,.89-1.43,.54,.18,.71,.18,.54,.54" style="fill:#067d5b;"/><path d="M16.62,81.07v.18c-.18,.54,0,1.25-.18,1.79,0,.36,.18,.71-.36,.71-.18-1.07-.18-1.96,0-3.04,.18-.18,0-.54,.18-.89,0,0,.18-.18,.36-.18,0,0,.18-.18,.18,0,.36-.18,.89-.18,1.25,0q.18,.18,.36,.18c0,.18,.18,.18,.36,.36,.18,.18,.18,.36,0,.54-.89,.36-1.61-.18-2.14,.36" style="fill:#067d5b;"/><path d="M47.87,64.1c-.36,.89,.18,1.07,.89,1.25-.36,.54-.89,.89-1.43,.54-.54-.36-.54-.89-.36-1.43,.18-.36,.36-.54,.54-.89,.18,0,.36,.18,.36,.54" style="fill:#067d5b;"/><path d="M16.09,83.75c.36-.36,.18-.89,.18-1.25s-.18-.89,.18-1.25v3.04c-.36,.36-.18,.89-.36,1.25-.18,.36-.36,.36-.54,0,.71-.54,.18-1.25,.54-1.79" style="fill:#067d5b;"/><path d="M174.65,100.53c0,.18-.18,.54,.18,.71,.18,0,.54,0,.36,.36,0,.18-.18,.36-.36,.36s-.54,0-.54-.18c-.36-.54,0-.89,.18-1.43q.18-.18,.18,.18" style="fill:#067d5b;"/><path d="M177.33,74.64c.18,.18,.54,.18,.54,.54,0,.18-.18,.36-.36,.36-.36,0-.54-.18-.54-.36v-.71c0-.18,.18-.18,.36,.18" style="fill:#067d5b;"/><path d="M117.51,58.03l.36,.36c-.36,.36-.71,.36-1.07,.54-.36,.18-.36,0-.36-.36,.18,0,.54-.36,1.07-.54" style="fill:#067d5b;"/><path d="M48.59,80.89c0-.18,0-.54-.36-.54,.18-.36,.54-.71,.89-.89,.18,.18,.18,.36,0,.36,0,.54-.18,.89-.54,1.07" style="fill:#067d5b;"/><path d="M88.76,43.57c-.18-.18,0-.71-.36-.89,0-.36,0-.54,.54-.71,.18,.71,.18,1.25-.18,1.61" style="fill:#067d5b;"/><path d="M16.62,81.07c.54-.71,1.25-.18,1.96-.36-.71,.54-1.43,0-1.96,.36" style="fill:#067d5b;"/><path d="M177.33,74.64c-.18-.18-.36-.18-.54-.36,0-.36,.18-.71,.54-1.25v1.61Z" style="fill:#067d5b;"/><path d="M147.51,104.46l.36,.36c-.36,.36-.71,.36-1.25,.18,.18-.54,.54-.54,.89-.54" style="fill:#067d5b;"/><path d="M57.51,101.42l-.36-.36c.18-.18,.36-.54,.54-.71,.18,0,.36,0,.36,.36-.18,0-.18,.36-.54,.71" style="fill:#067d5b;"/><path d="M47.87,64.1l-.36-.36c.18-.36,.36-.71,.89-.89,0,.54-.36,.89-.54,1.25" style="fill:#067d5b;"/><path d="M58.05,100.53c0-.18-.18-.18-.36-.36,.18-.36,.36-.54,.71-.71,.18,.54,0,.71-.36,1.07" style="fill:#067d5b;"/><path d="M126.08,86.07q-.18-.18-.36-.36c0-.36,.18-.54,.36-.71,.36,.36,.36,.71,0,1.07" style="fill:#067d5b;"/><path d="M28.77,102.14l-.36-.36c.18-.36,.36-.54,.71-.71,.18,.54,0,.71-.36,1.07" style="fill:#067d5b;"/><path d="M139.47,65.35c0-.18,0-.36-.36-.54,0-.18,.18-.54,.36-.36,.18,0,.18,.36,.18,.54,0,0-.18,.18-.18,.36" style="fill:#067d5b;"/><path d="M51.44,54.46c.18,.18,.36,.18,.54,.36-.18,0-.36,.18-.54,.18h-.54c0-.36,.18-.36,.54-.54" style="fill:#067d5b;"/><path d="M65.91,57.85l-.36-.36c.18-.18,.18-.54,.36-.71,.36,.54,.36,.89,0,1.07" style="fill:#067d5b;"/><path d="M194.65,86.78c0-.18,0-.54-.36-.54,0-.18,.18-.36,.18-.54,.18,0,.36,0,.36,.36,0,.18,0,.54-.18,.71" style="fill:#067d5b;"/><path d="M194.83,86.07q-.18-.18-.36-.36c0-.36,.18-.54,.54-.71,.18,.36,.18,.71-.18,1.07" style="fill:#067d5b;"/><path d="M174.65,100.53l-.18-.18c0-.18,.18-.54,.36-.36,.18,0,0,.36-.18,.54" style="fill:#067d5b;"/><path d="M106.26,98.21v-.89q.18,0,.18,.18c.18,.36,0,.54-.18,.71" style="fill:#067d5b;"/><path d="M17.87,79.64h-1.25c.54-.36,.89-.54,1.25,0" style="fill:#067d5b;"/><path d="M116.26,58.75q.18,.18,.36,.36c-.18,.18-.36,.18-.54,.36q-.36,0-.36-.36c.18-.18,.36-.36,.54-.36" style="fill:#067d5b;"/><path d="M88.41,105q-.18-.18-.36-.36v-.18c.18-.18,.54-.36,.71,0,.18,.18-.18,.36-.36,.54" style="fill:#067d5b;"/><path d="M115.73,58.93q.18,.18,.36,.36c-.18,.18-.54,.18-.89,.18,.18-.18,.36-.36,.54-.54" style="fill:#067d5b;"/><path d="M21.27,65.71h-.18c0-.18,0-.54,.18-.54,.18-.18,0,.18,0,.54" style="fill:#067d5b;"/><path d="M16.27,79.82c0,.36,0,.71-.18,.89-.18-.36-.18-.71,.18-.89" style="fill:#067d5b;"/><path d="M82.87,70.18h-.18c0-.18,0-.36,.18-.36v.36Z" style="fill:#067d5b;"/><path d="M18.59,80.71v-.54c.18,.18,.18,.36,0,.54" style="fill:#067d5b;"/><path d="M49.12,80v-.36l.18-.18c.18,.18,0,.36-.18,.54" style="fill:#067d5b;"/><path d="M115.19,59.46s0,.18,0,0q-.18,.18,0,0" style="fill:#067d5b;"/><path d="M48.23,62.85l.18-.18c.18,0,.18,.18-.18,.18" style="fill:#067d5b;"/><path d="M18.59,80.17c-.18,0-.18-.18-.36-.36,.18,0,.36,.18,.36,.36" style="fill:#067d5b;"/><path d="M57.34,101.96c0-.18,.18-.18,.18-.36,0,.18-.18,.18-.18,.36" style="fill:#067d5b;"/><path d="M16.62,79.64c-.18,0-.18,.18-.36,.18,0-.18,.18-.18,.36-.18" style="fill:#067d5b;"/><path d="M18.23,79.82c-.18,0-.18-.18-.36-.18,.18,0,.36,0,.36,.18" style="fill:#067d5b;"/><path d="M57.16,100.89c0,.18-.18,.18-.36,.36l.36-.36Z" style="fill:#067d5b;"/><path d="M90.37,88.57c-.54,1.43-1.43,2.14-2.68,2.14s-2.14-.71-2.86-1.79c-.36-.71-.36-.89,.54-1.07,1.61-.18,3.21,.18,5,.71" style="fill:#fff;"/><path d="M207.86,80.35c-1.43,.71-2.68,.71-4.11,.54-.36,0-1.07-.18-1.07-.71s.36-.71,.71-1.07c1.43-1.07,3.39-.54,4.46,1.25" style="fill:#fff;"/><path d="M131.08,86.25c-1.79,0-2.14-.36-1.96-1.79,.18-2.14,1.07-3.93,2.68-5.36,.89-.71,1.43-.71,2.32,0,1.07,.89,1.79,2.14,2.32,3.21,.18,.54,0,.89-.18,1.25-.36,.71-1.07,1.25-1.79,1.61-1.07,.71-2.32,.89-3.39,1.07" style="fill:#fff;"/><path d="M130.73,46.25c-.71,0-.89-.18-.89-.89s.54-1.43,1.07-1.25c.54,0,1.07,.71,1.07,1.25,0,.36-.54,.89-1.25,.89" style="fill:#fff;"/><path d="M133.23,45.53c.36,0,.71,.36,.71,.71,0,.54-.54,.54-.89,.54s-.71-.18-.54-.54c0-.54,.36-.71,.71-.71" style="fill:#fff;"/><polygon points="1.09 115.89 4.12 115.89 8.41 128.92 12.87 115.89 15.91 115.89 15.91 131.24 13.77 131.24 13.77 122.14 13.77 120.53 13.77 118.21 9.3 131.24 7.34 131.24 3.05 118.21 3.05 118.74 3.05 120.53 3.05 122.32 3.05 131.42 1.09 131.42 1.09 115.89" style="fill:#c2a73f;"/><path d="M21.09,115.89h1.96v2.14h-1.96v-2.14Zm0,4.29h1.96v11.07h-1.96v-11.07Z" style="fill:#c2a73f;"/><path d="M28.41,119.99h1.79v1.61c.54-.71,1.07-1.07,1.61-1.43s1.25-.36,1.96-.36c1.61,0,2.68,.54,3.21,1.61,.36,.54,.54,1.43,.54,2.68v7.14h-1.96v-7.14c0-.71-.18-1.25-.36-1.61-.36-.71-.89-1.07-1.79-1.07-.36,0-.89,0-1.07,.18-.54,.18-.89,.54-1.43,.89-.36,.36-.54,.71-.54,1.07s-.18,.89-.18,1.61v5.89h-1.96v-11.07h.18Z" style="fill:#c2a73f;"/><path d="M42.69,115.89h1.96v2.14h-1.96v-2.14Zm0,4.29h1.96v11.07h-1.96v-11.07Z" style="fill:#c2a73f;"/><path d="M51.09,127.67c0,.71,.18,1.07,.54,1.43,.54,.54,1.25,.89,2.5,.89,.71,0,1.25-.18,1.96-.54,.71-.36,.89-.71,.89-1.43,0-.54-.18-.89-.71-1.07-.36-.18-.89-.36-1.61-.54l-1.61-.18c-.89-.18-1.61-.54-2.14-.71-.89-.54-1.25-1.25-1.25-2.14,0-1.07,.36-1.96,1.25-2.5,.71-.71,1.79-1.07,3.04-1.07,1.79,0,2.86,.54,3.75,1.43,.54,.71,.71,1.25,.71,1.96h-1.79c0-.36-.18-.89-.54-1.07-.54-.54-1.25-.71-2.32-.71-.71,0-1.25,.18-1.61,.36-.36,.36-.54,.71-.54,1.07,0,.54,.18,.89,.71,1.25,.36,.18,.71,.36,1.25,.54l1.25,.36c1.43,.36,2.32,.71,2.86,.89,.71,.54,1.07,1.25,1.07,2.32s-.36,1.79-1.07,2.5c-.71,.71-1.96,1.07-3.57,1.07s-2.86-.36-3.57-1.07c-.71-.71-1.07-1.61-1.07-2.86h1.61v-.18Z" style="fill:#c2a73f;"/><path d="M63.59,116.96h1.96v3.21h1.79v1.61h-1.79v7.32c0,.36,.18,.71,.36,.71s.36,.18,.71,.18h.71v1.43c-.18,0-.36,.18-.71,.18h-.71c-.89,0-1.43-.18-1.79-.71-.36-.54-.54-1.07-.54-1.79v-7.5h-1.61v-1.61h1.43v-3.04h.18Z" style="fill:#c2a73f;"/><path d="M71.62,119.99h1.79v1.96c.18-.36,.54-.89,1.07-1.43s1.25-.89,1.96-.89h.54v1.96h-.71c-.89,0-1.61,.36-2.14,.89-.54,.54-.71,1.25-.71,2.14v6.43h-1.96v-11.07h.18Z" style="fill:#c2a73f;"/><path d="M88.23,119.99h2.14c-.18,.71-.89,2.32-1.79,5-.71,1.96-1.25,3.57-1.79,4.64-1.07,2.86-1.79,4.64-2.32,5.18-.36,.71-1.25,.89-2.32,.89h-.54c-.18,0-.36,0-.54-.18v-1.79c.36,.18,.54,.18,.71,.18h.36c.36,0,.54,0,.71-.18,.18-.18,.36-.18,.36-.36,0,0,.18-.36,.36-.89,.18-.54,.36-.89,.54-1.07l-4.11-11.61h2.14l3.04,9.11,3.04-8.93Z" style="fill:#c2a73f;"/><path d="M110.9,121.24c1.07,.89,1.43,2.32,1.43,4.29,0,1.79-.36,3.21-1.25,4.46-.89,1.25-2.14,1.79-4.11,1.79-1.61,0-2.68-.54-3.57-1.61-.89-1.07-1.43-2.5-1.43-4.29,0-1.96,.54-3.39,1.43-4.46,.89-1.07,2.14-1.61,3.75-1.61,1.61-.18,2.86,.36,3.75,1.43m-1.07,7.32c.54-.89,.71-1.96,.71-3.21,0-1.07-.18-1.96-.54-2.5-.54-1.07-1.43-1.61-2.68-1.61-1.07,0-1.96,.36-2.5,1.25-.54,.89-.71,1.96-.71,3.21s.18,2.14,.71,3.04c.54,.71,1.25,1.25,2.5,1.25,1.07,0,1.96-.54,2.5-1.43Z" style="fill:#c2a73f;"/><path d="M118.05,116.6c.36-.71,1.25-.89,2.5-.89h.71v1.79h-.54c-.54,0-.89,.18-1.07,.36-.18,.18-.18,1.07-.18,2.32h1.96v1.43h-1.96v9.64h-1.79v-9.64h-1.61v-1.43h1.61v-1.79c0-.89,.18-1.43,.36-1.79" style="fill:#c2a73f;"/><path d="M141.8,126.6c0,1.25-.18,2.32-.54,3.04-.71,1.25-2.14,1.96-4.11,1.96-1.07,0-2.14-.36-3.04-.89-.89-.54-1.25-1.79-1.25-3.39v-1.07h1.96v1.07c0,.89,.18,1.43,.54,1.96,.36,.54,.89,.71,1.79,.71,1.07,0,1.79-.36,2.14-1.07,.18-.54,.36-1.43,.36-2.68v-10.18h2.14v10.54Z" style="fill:#c2a73f;"/><path d="M149.12,119.99v7.5c0,.54,0,1.07,.18,1.43,.36,.71,.89,1.07,1.79,1.07,1.25,0,2.14-.54,2.68-1.79,.18-.71,.36-1.43,.36-2.5v-5.54h1.96v11.25h-1.79v-1.61c-.18,.36-.54,.71-.89,1.07-.71,.54-1.61,.89-2.5,.89-1.61,0-2.68-.54-3.21-1.61-.36-.54-.54-1.25-.54-2.32v-7.68h1.96v-.18Z" style="fill:#c2a73f;"/><path d="M162.69,127.67c0,.71,.18,1.07,.54,1.43,.54,.54,1.25,.89,2.5,.89,.71,0,1.25-.18,1.96-.54,.71-.36,.89-.71,.89-1.43,0-.54-.18-.89-.71-1.07-.36-.18-.89-.36-1.61-.54l-1.61-.36c-.89-.18-1.61-.54-2.14-.71-.89-.54-1.25-1.25-1.25-2.14,0-1.07,.36-1.96,1.25-2.5,.71-.71,1.79-1.07,3.04-1.07,1.79,0,2.86,.54,3.75,1.43,.54,.71,.71,1.25,.71,1.96h-1.79c0-.36-.18-.89-.54-1.07-.36-.54-1.25-.71-2.32-.71-.71,0-1.25,.18-1.61,.36-.36,.36-.54,.71-.54,1.07,0,.54,.18,.89,.71,1.25,.36,.18,.71,.36,1.25,.54l1.25,.36c1.43,.36,2.32,.71,2.86,.89,.71,.54,1.07,1.25,1.07,2.32s-.36,1.79-1.07,2.5c-.71,.71-1.96,1.07-3.57,1.07s-2.86-.36-3.57-1.07c-.71-.71-1.07-1.61-1.07-2.86h1.61Z" style="fill:#c2a73f;"/><path d="M175.19,116.96h1.96v3.21h1.79v1.61h-1.79v7.32c0,.36,.18,.71,.36,.71s.36,.18,.71,.18h.71v1.43c-.18,0-.36,.18-.71,.18h-.71c-.89,0-1.43-.18-1.79-.71-.36-.54-.54-1.07-.54-1.79v-7.5h-1.43v-1.61h1.43v-3.04Z" style="fill:#c2a73f;"/><path d="M183.22,115.89h1.96v2.14h-1.96v-2.14Zm0,4.29h1.96v11.07h-1.96v-11.07Z" style="fill:#c2a73f;"/><path d="M197.86,120.71c.71,.54,1.25,1.61,1.43,3.21h-1.79c-.18-.71-.36-1.25-.71-1.79-.36-.54-1.07-.71-1.96-.71-1.25,0-2.14,.54-2.5,1.79-.36,.71-.54,1.79-.54,2.86s.18,2.14,.71,2.86c.54,.71,1.25,1.07,2.32,1.07,.71,0,1.43-.18,1.79-.71,.36-.54,.71-1.07,.89-1.96h1.79c-.18,1.43-.71,2.5-1.61,3.21-.89,.71-1.96,1.07-3.21,1.07-1.43,0-2.68-.54-3.57-1.61-.89-1.07-1.25-2.32-1.25-3.93,0-1.96,.54-3.57,1.43-4.64,.89-1.07,2.14-1.61,3.57-1.61,1.25-.18,2.32,.18,3.21,.89" style="fill:#c2a73f;"/><path d="M210.54,120.35c.71,.36,1.25,.89,1.61,1.43,.36,.54,.54,1.25,.71,1.96,.18,.54,.18,1.43,.18,2.5h-8.21c0,1.07,.36,2.14,.71,2.68,.54,.71,1.25,1.07,2.32,1.07,.89,0,1.79-.36,2.32-.89,.36-.36,.54-.89,.71-1.25h1.79c0,.36-.18,.89-.54,1.43-.36,.54-.54,.89-.89,1.25-.54,.54-1.25,.89-2.14,1.07-.54,.18-.89,.18-1.61,.18-1.43,0-2.5-.54-3.57-1.61-.89-1.07-1.43-2.5-1.43-4.29s.54-3.21,1.43-4.46c.89-1.07,2.32-1.61,3.75-1.61,1.25,0,2.14,.18,2.86,.54m.54,4.46c0-.89-.18-1.43-.54-1.96-.54-.89-1.43-1.43-2.5-1.43-.89,0-1.61,.36-2.14,.89-.54,.54-.89,1.43-.89,2.32h6.07v.18Z" style="fill:#c2a73f;"/><path d="M362.5,100.71c-.18,.71-.71,1.25-1.25,1.43-.18,.18-.54,.18-.71,.18-3.57,0-7.14-.18-10.71-.18-3.04,0-6.07-.18-9.11-.18-4.11,0-8.21-.18-12.32-.18s-8.21-.18-12.32-.18c-3.75,0-7.32-.18-11.07-.18-.36,0-.54,0-.71,.36-1.07,1.43-2.32,2.14-4.11,2.14-1.61,0-2.86-.89-3.75-2.14-.36-.36-.54-.54-1.07-.54-5.89,0-11.96,0-17.86,.18-5,0-10.18,0-15.18,.18-6.61,0-13.39,0-20,.18h-1.43c-1.61,0-2.5-1.07-2.32-2.68,.18-.89,.36-1.61,.71-2.32,3.75-13.39,7.5-26.96,11.25-40.36,.18-.54,.36-1.07,.54-1.61,0-.36,.18-.36,.54-.36,.54,0,.89,0,1.43-.18,.36,0,.36-.18,.54-.36,.18-.54,.36-1.07,.36-1.61,0-.18,.18-.36,.36-.36,.54,0,1.07-.18,1.79-.18,.18,0,.36-.18,.36-.36,0-.36,.18-.71,.18-1.07s.18-.36,.54-.36c.54,0,1.07-.18,1.61-.18,.18,0,.36,0,.36-.36s.18-.89,.18-1.25q0-.54,.54-.54c4.46-.54,8.75-1.61,12.68-3.39,1.61-.71,3.04-1.61,4.46-2.5,0,0,.18,0,.18-.18,.18,.18,.54,0,.71,.18,1.25,2.68,2.32,5.36,3.57,8.21,2.68,6.25,5.36,12.5,8.04,18.75,1.61,3.93,3.39,7.86,5,11.61,0,.18,.18,.36,0,.54-.18,.18-.36,.18-.54,0-.36-.54-.54-1.07-.89-1.79-3.75-8.75-7.5-17.68-11.25-26.43-1.43-3.21-2.86-6.43-4.11-9.82,0-.18-.18-.18-.18-.36-.71,1.61-1.43,3.21-2.32,4.82-1.07,2.32-1.91,4.78-2.98,6.92-3.77,8.62-7.91,17.14-11.73,25.75,0,.18-.18,.36-.36,.54h-1c-.18-.18,0-.36,.18-.54,2.5-5.54,5.18-11.25,7.68-16.78,2.32-5.18,4.82-10.36,7.14-15.53,.71-1.43,1.25-3.04,1.96-4.46,0-.18,.18-.36,.18-.54-.71,.36-1.25,.71-1.96,1.07-2.86,1.61-5.89,2.68-8.93,3.39-1.61,.36-3.39,.71-5.18,.89-.36,0-.54,.18-.54,.54-.54,3.21-1.61,6.25-2.32,9.46-1.61,6.07-3.39,12.14-5,18.39-1.43,5.18-2.86,10.54-4.29,15.71-.54,1.79-1.07,3.57-1.43,5.36-.18,.54,0,.54,.36,.71,1.61,.36,3.39,.54,5.18,.71,1.07,0,2.14,.18,3.04,0,2.86-.18,5.89-.36,8.75-1.07,.36,0,.89-.36,1.25-.36,4.11-1.61,8.39-3.04,12.86-3.75,6.96-1.07,13.57-.18,19.82,3.21,.71,.36,1.43,.71,2.14,1.25q.36,.18,.36-.18V48.39c.18-.54,.36-.54,.71-.18,.18,.36,0,.71,0,1.07v48.39c0,.18-.18,.54,.18,.71,.36,0,.54-.18,.71-.36,3.75-2.14,7.86-3.39,12.14-4.11,1.43-.18,3.04-.36,4.64-.36,3.57,0,6.96,.54,10.36,1.61,2.32,.71,4.64,1.61,6.96,2.5,3.04,1.07,6.25,1.96,9.46,2.14,3.21,.18,6.25-.18,9.46-1.07,.36-.18,.54-.36,.36-.71-2.32-8.75-4.64-17.5-6.96-26.25-1.79-6.61-3.57-13.39-5.36-20-.18-.71-.36-1.43-.54-2.14-.18-1.07-.36-1.07-1.25-1.25-3.04-.54-6.07-1.25-9.11-2.5-2.32-.89-4.64-2.14-6.61-3.75l-.18-.18,.18,.18c2.32,5.18,4.46,10.36,6.79,15.71,2.5,5.89,5,11.79,7.5,17.5,.54,1.43,1.25,2.86,1.79,4.29,.18,.18,.39,.71,.21,.89h-.71c-.06-.06-4.72-11.22-5.1-12.12-2.5-5.89-4.93-11.81-7.61-17.7-1.07-2.68-2.32-5.36-3.39-7.86,0-.18-.18-.36-.18-.54-.36,.89-.89,1.79-1.25,2.5-1.07,2.32-2.14,4.64-3.21,7.14l-3.75,8.04c-1.07,2.32-2.14,4.64-3.21,6.96-1.07,2.32-2.14,4.64-3.21,6.79-.89,1.96-1.79,3.93-2.68,5.89,0,.18-.18,.36-.18,.54-.18,.18-.36,.18-.54,.18-.18-.18,0-.36,0-.71,.89-1.96,1.79-3.93,2.68-5.89,1.43-3.21,2.86-6.43,4.29-9.46l3.75-8.04c1.25-2.68,2.5-5.54,3.75-8.21,.89-1.79,1.61-3.57,2.5-5.54,.18-.36,.36-.71,.54-1.07,0-.18-.18-.54,0-.71,.36,0,.54,.18,.71,.36,3.93,3.04,8.21,5,13.03,6.07,1.43,.36,2.68,.54,4.11,.71,.36,0,.54,.18,.71,.54,0,.36,.18,.54,.18,.89s.18,.36,.54,.36c.54,0,1.07,0,1.61,.18q.36,0,.54,.54c0,.36,.18,.71,.18,.89s.18,.36,.36,.36h1.79c.36,0,.36,.18,.54,.36,.18,.54,.18,1.07,.36,1.43,0,.18,.18,.36,.36,.36h1.43q.54,0,.54,.36c.89,3.39,1.79,6.79,2.68,10.18,2.86,10.71,5.54,21.43,8.39,32.14,.18,.54,.36,1.25,.54,1.79v.36c.18,.54,.18,1.07,0,1.61-.18,.36-.18,.54-.36,.54" style="fill:#1c1c1a;"/></svg>