<?xml version="1.0" encoding="UTF-8"?>
<svg id="Layer_1" xmlns="http://www.w3.org/2000/svg" viewBox="0 0 699 252.04"><polygon points="0 196.37 8.3 196.37 20.16 214.31 20.49 215.2 20.73 214.31 32.64 196.37 37.15 196.37 37.15 230.53 32.3 230.53 32.3 203.77 31.92 205.05 21.86 219.71 19.02 219.71 9.06 205.05 8.68 203.96 8.68 230.53 3.84 230.53 3.84 199.84 0 198.79 0 196.37" style="fill:#005c50;"/><path d="M51.14,199.32l-3.94,2.42-2.37-4.03,4.03-2.37,2.28,3.99Zm-.76,7.49v23.72h-4.55v-20.83l-2.89-.8v-2.09h7.45Z" style="fill:#005c50;"/><path d="M80.36,214.45v16.08h-4.55v-14.89c0-3.47-1.52-5.27-4.6-5.41-2.32-.14-5.03,1.19-8.21,3.99v16.32h-4.55v-20.78l-2.89-.85v-2.09h6.97l.38,4.03c3.32-3.13,6.64-4.69,9.92-4.69,4.41,0,7.54,2.94,7.54,8.3" style="fill:#005c50;"/><path d="M93.46,199.32l-3.94,2.42-2.37-4.03,4.03-2.37,2.28,3.99Zm-.76,7.49v23.72h-4.55v-20.83l-2.89-.8v-2.09h7.44Z" style="fill:#005c50;"/><path d="M109.31,230.96c-3.65,.52-7.87-.1-11.48-1.57l.9-3.41c5.65,2.04,12.57,2.66,12.72-1.76,0-.99-.38-1.7-1.76-2.46-.71-.38-1.28-.67-1.75-.9-.52-.19-1.37-.52-2.61-1-4.79-1.75-7.3-3.46-7.16-7.12,.14-7.35,10.63-7.73,16.65-5.03l-.85,3.42c-4.7-2.04-11.53-1.94-11.44,1.56,0,1.24,.71,1.9,1.99,2.57,.95,.52,1.33,.61,2.7,1.09,.67,.24,1.14,.43,1.47,.57,4.69,1.71,7.26,3.51,7.12,7.3-.14,3.85-2.85,6.22-6.5,6.74" style="fill:#005c50;"/><path d="M133.69,230.24c-3.89,1.33-6.83,1.29-8.77-.14-1.95-1.37-2.94-3.51-2.94-6.36v-13.42h-3.98v-2.14l3.98-1.66v-5.36h4.6v5.65h4.98v3.51h-4.98v12.85c0,3.56,1.56,5.08,6.26,3.61l.85,3.46Z" style="fill:#005c50;"/><path d="M143.14,210.75c3.37-3.56,5.79-5.27,9.39-4.36l-.43,3.99c-3.22-.61-5.45,1-8.82,4.55v15.61h-4.6v-20.77l-2.89-.86v-2.09h6.97l.38,3.94Z" style="fill:#005c50;"/><polygon points="174.21 206.81 178.91 206.81 165.48 240.96 160.74 240.96 165.77 228.72 163.92 228.72 154.66 206.81 159.31 206.81 167.05 225.31 174.21 206.81" style="fill:#005c50;"/><path d="M205.35,227.4c2.18,0,3.94-.81,5.31-2.37,1.38-1.57,2.04-3.75,2.04-6.45s-.66-4.84-1.99-6.4c-1.38-1.56-3.13-2.33-5.36-2.33s-3.99,.76-5.32,2.33c-1.38,1.56-2.03,3.7-2.03,6.4s.66,4.88,2.03,6.45c1.38,1.56,3.13,2.37,5.32,2.37m0,3.7c-3.56,0-6.4-1.19-8.63-3.51-2.23-2.33-3.37-5.36-3.37-9.01s1.14-6.64,3.37-8.97c2.23-2.32,5.08-3.46,8.63-3.46s6.45,1.14,8.68,3.46c2.23,2.33,3.37,5.31,3.37,8.97s-1.14,6.69-3.37,9.01c-2.23,2.32-5.12,3.51-8.68,3.51" style="fill:#005c50;"/><path d="M236.05,197.18c-5.74-1.47-7.59,.14-7.59,3.7v5.93h5.98v3.51h-5.98v20.21h-4.55v-20.21h-3.65v-3.51h3.65v-5.83c0-3.08,1-5.41,3.03-6.93,2.04-1.47,5.36-1.61,10.01-.38l-.9,3.51Z" style="fill:#005c50;"/><polygon points="275.19 200.31 259.39 200.31 259.39 212.79 272.25 212.79 272.25 216.77 259.39 216.77 259.39 230.53 254.55 230.53 254.55 199.93 250.66 198.79 250.66 196.37 275.19 196.37 275.19 200.31" style="fill:#005c50;"/><path d="M287.05,199.32l-3.93,2.42-2.38-4.03,4.03-2.37,2.28,3.99Zm-.76,7.49v23.72h-4.55v-20.83l-2.89-.8v-2.09h7.45Z" style="fill:#005c50;"/><path d="M316.27,214.45v16.08h-4.55v-14.89c0-3.47-1.52-5.27-4.6-5.41-2.32-.14-5.03,1.19-8.21,3.99v16.32h-4.55v-20.78l-2.89-.85v-2.09h6.97l.38,4.03c3.32-3.13,6.64-4.69,9.91-4.69,4.41,0,7.54,2.94,7.54,8.3" style="fill:#005c50;"/><path d="M336.64,224.12l.04-4.84c-6.2-.33-8.86-.14-10.19,1.71-1.47,1.71-1.24,6.16,2.61,6.6,2.13,.23,4.64-.95,7.53-3.47m-13.93,4.46c-1.19-1.61-1.7-3.37-1.56-5.22s.66-3.32,1.66-4.41c1.19-1.42,2.8-2.28,4.88-2.61,2.09-.28,5.12-.33,9.1-.14v-2.71c0-3.8-3.88-4.55-11.61-2.33l-.9-3.41c3.84-1.29,7.53-1.76,11.09-1.38,3.55,.38,5.88,2.62,5.88,6.46l-.05,14.85,2.94,.76v2.08h-6.97l-.28-3.6c-3.08,2.85-5.5,4.46-8.86,4.27-2.37-.14-4.12-1-5.31-2.61" style="fill:#005c50;"/><path d="M371.69,214.45v16.08h-4.55v-14.89c0-3.47-1.52-5.27-4.6-5.41-2.33-.14-5.03,1.19-8.21,3.99v16.32h-4.55v-20.78l-2.89-.85v-2.09h6.98l.38,4.03c3.32-3.13,6.64-4.69,9.91-4.69,4.41,0,7.54,2.94,7.54,8.3" style="fill:#005c50;"/><path d="M380.18,227.78c-2.09-2.33-3.13-5.36-3.13-9.16s1.05-6.74,3.08-9.06c2.04-2.28,4.74-3.41,8.11-3.41,2.85,0,5.55,.8,8.16,2.42l-.8,3.27c-2.61-1.47-4.89-2.14-6.83-2.04-4.36,.05-7.07,3.51-7.07,8.82s2.7,8.68,7.26,8.87c2.23,.09,4.65-.57,7.26-1.95l.81,3.27c-2.7,1.52-5.55,2.33-8.54,2.37-3.46,.05-6.21-1.09-8.3-3.41" style="fill:#005c50;"/><path d="M417.52,216.39c.33-3.75-1.14-6.5-5.55-6.54-3.8,0-6.31,2.56-6.69,6.54h12.24Zm-13.95,11.2c-2.04-2.33-3.03-5.32-3.03-8.97s1.04-6.73,3.17-9.06c2.14-2.33,4.88-3.46,8.3-3.41,8.73,0,10.72,6.97,9.44,13.38h-16.36c.05,5.07,2.89,7.82,7.97,7.87,2.47,0,4.93-.66,7.35-1.95l.76,3.13c-2.37,1.76-5.32,2.61-8.78,2.61-3.84-.05-6.78-1.23-8.82-3.6" style="fill:#005c50;"/><polygon points="359.52 104.36 359.52 107.38 355.33 108.55 355.33 157.96 348.73 157.96 348.73 104.36 359.52 104.36" style="fill:#005c50;"/><polygon points="380.27 112.53 374.21 116.21 370.61 110.08 376.81 106.4 380.27 112.53" style="fill:#005c50;"/><path d="M371.46,123.6v38.21c0,4.53-.28,7.9-7.49,6.46l-1.31,5.09c13.27,3.03,15.39-4.26,15.47-11.68v-33.88l4.12-1.17v-3.02h-10.79Z" style="fill:#005c50;"/><path d="M327.03,123.6v38.21c0,4.53-.28,7.9-7.49,6.46l-1.31,5.09c13.27,3.03,15.39-4.26,15.47-11.68v-33.88l4.12-1.17v-3.02h-10.79Z" style="fill:#005c50;"/><polygon points="310.04 112.53 303.98 116.21 300.37 110.08 306.57 106.4 310.04 112.53" style="fill:#005c50;"/><polygon points="299.05 112.53 292.99 116.21 289.38 110.08 295.58 106.4 299.05 112.53" style="fill:#005c50;"/><path d="M295.45,152.46c-3.54,0-8.73-1.98-8.73-11.09,0-12.06,10.61-12.41,14.6-12.41h3.63v23.5h-9.5Zm5.86-28.86c-6.19,0-21.34,1.13-21.34,17.77,0,15.34,11.39,16.58,15.48,16.58h16.16v-30.1l4.26-1.24v-3.02h-14.56Z" style="fill:#005c50;"/><path d="M415.15,152.46h-7.58c-6.25,0-10.65-5.05-10.65-10.86,0-3.92,.96-7.01,2.95-9.28,1.93-2.27,4.47-3.37,7.7-3.37h7.58v23.5Zm6.66-28.86h-14.24c-5.15,0-9.28,1.65-12.51,5.01-3.23,3.37-4.88,7.7-4.88,12.99,0,12.03,10.59,16.35,17.39,16.35h7.72c0,11.34-7.42,12.37-19.58,8.8l-1.31,5.15c8.66,2.62,15.39,2.62,20.21-.06,4.81-2.68,7.21-6.87,7.21-13.88v-34.36Z" style="fill:#005c50;"/><polygon points="100.45 168.07 104.05 174.2 110.12 170.52 106.65 164.39 100.45 168.07" style="fill:#005c50;"/><polygon points="89.46 168.07 93.07 174.2 99.13 170.52 95.66 164.39 89.46 168.07" style="fill:#005c50;"/><polygon points="34.71 111.46 31.24 105.33 25.04 109 28.65 115.14 34.71 111.46" style="fill:#005c50;"/><polygon points="23.72 111.46 20.25 105.33 14.05 109 17.66 115.14 23.72 111.46" style="fill:#005c50;"/><polygon points="251.73 104.36 251.73 157.96 258.33 157.96 258.33 108.55 262.52 107.38 262.52 104.36 251.73 104.36" style="fill:#005c50;"/><path d="M209.93,152.46h-9.5c-3.54,0-8.73-1.98-8.73-11.08,0-12.06,5.14-12.42,9.12-12.42s9.11,.36,9.11,12.42v11.08Zm22.97-48.1v48.1h-16.23v-11.08c0-16.64-9.67-17.78-15.85-17.78s-15.85,1.14-15.85,17.78v2.02c0,9.09-5.19,9.06-8.73,9.06h-25.85v-48.1h-6.6v53.6h32.44c2.81,0,9.09,.37,12.72-4.42,3.69,3.94,8.96,4.42,11.48,4.42h39.06v-49.41l4.19-1.17v-3.02h-10.79Z" style="fill:#005c50;"/><path d="M27.44,148.83h-4.29c-3.54,0-12.57-.5-12.57-10.2,0-12.06,9.25-12.42,13.23-12.42h3.63v22.62Zm97.52-44.47v48.1h-12c-3.4,0-8.43,0-8.81-8.1v-20.76h-6.66v19.8c0,9.09-5.3,9.06-8.84,9.06H34.77c-.37,0-.66-.3-.66-.66v-26.69l4.26-1.24v-3.03h-14.56c-6.19,0-19.97,1.14-19.97,17.78,0,15.34,15.22,15.7,19.31,15.7h4.29v.89c0,1.52,1.23,2.74,2.75,2.74h58.46c2.68,0,8.47,.3,12.16-3.78,3.69,4.08,9.48,3.78,12.16,3.78h18.6v-49.41l4.19-1.17v-3.02h-10.79Z" style="fill:#005c50;"/><path d="M537.12,225.14c6.58,0,14.49,2.96,18.83,7.3l14.42,14.42c2.16,2.16,5.04,3.35,8.11,3.35s5.96-1.19,8.11-3.35l14.42-14.42c5.01-5.01,14.79-8.18,21.78-7.08l20.15,3.19c6.25,.99,12.14-3.29,13.13-9.54l3.19-20.15c1.11-7,7.15-15.31,13.46-18.53l18.18-9.26c5.64-2.87,7.89-9.79,5.01-15.43l-9.26-18.17c-3.22-6.32-3.22-16.59,0-22.91l9.26-18.18c1.38-2.72,1.63-5.83,.68-8.75-.95-2.93-2.97-5.3-5.69-6.69l-18.18-9.26c-6.31-3.22-12.35-11.53-13.46-18.53l-3.19-20.15c-.48-3.01-2.11-5.67-4.6-7.48-2.48-1.81-5.51-2.54-8.53-2.06l-20.15,3.19c-6.99,1.11-16.77-2.07-21.78-7.08l-14.42-14.42c-2.16-2.16-5.04-3.35-8.11-3.35s-5.96,1.19-8.11,3.35l-14.42,14.42c-5.01,5.01-14.79,8.19-21.79,7.08l-20.15-3.19c-6.25-.99-12.14,3.29-13.13,9.54l-3.19,20.15c-1.11,7-7.15,15.31-13.46,18.53l-18.17,9.26c-2.72,1.39-4.74,3.76-5.69,6.69-.95,2.92-.71,6.03,.68,8.75l9.26,18.18c3.22,6.31,3.22,16.59,0,22.91l-9.26,18.17c-1.38,2.72-1.62,5.83-.68,8.75,.95,2.92,2.97,5.3,5.69,6.68l18.17,9.26c6.32,3.22,12.35,11.53,13.46,18.54l3.19,20.15c.99,6.25,6.88,10.53,13.13,9.54l20.15-3.19c.94-.15,1.93-.22,2.96-.22m41.36,26.9c-3.57,0-6.9-1.38-9.41-3.88l-14.42-14.42c-4.65-4.65-13.72-7.59-20.21-6.57l-20.15,3.19c-7.25,1.15-14.07-3.81-15.22-11.06l-3.19-20.15c-1.03-6.49-6.63-14.2-12.49-17.19l-18.17-9.26c-3.16-1.61-5.5-4.36-6.6-7.75-1.1-3.39-.82-6.99,.79-10.15l9.26-18.17c2.99-5.86,2.99-15.39,0-21.25l-9.26-18.18c-1.61-3.15-1.89-6.76-.79-10.15,1.1-3.39,3.44-6.14,6.6-7.75l18.17-9.26c5.86-2.99,11.46-10.7,12.49-17.19l3.19-20.15c1.15-7.25,7.98-12.21,15.22-11.06l20.15,3.19c6.5,1.03,15.56-1.92,20.21-6.57l14.42-14.42c2.5-2.5,5.84-3.88,9.41-3.88s6.9,1.38,9.41,3.88l14.42,14.42c4.65,4.65,13.72,7.59,20.21,6.57l20.15-3.19c3.5-.55,7.01,.29,9.89,2.39,2.88,2.09,4.77,5.17,5.33,8.67l3.19,20.15c1.03,6.49,6.63,14.2,12.49,17.19l18.17,9.26c3.16,1.61,5.5,4.36,6.6,7.75,1.1,3.39,.83,6.99-.78,10.15l-9.26,18.18c-2.98,5.86-2.98,15.39,0,21.25l9.26,18.17c3.33,6.54,.72,14.56-5.81,17.89l-18.17,9.26c-5.86,2.99-11.46,10.7-12.49,17.19l-3.19,20.15c-1.15,7.25-7.98,12.21-15.22,11.06l-20.15-3.19c-6.5-1.04-15.56,1.92-20.21,6.57l-14.42,14.42c-2.5,2.5-5.84,3.88-9.41,3.88" style="fill:#005c50;"/><path d="M542.82,220.41c7.6,0,16.49,3.04,21.61,7.73l9.09,8.32c5.68,5.19,14.51,4.8,19.71-.88l8.32-9.09c5.71-6.24,17.18-10.54,25.58-9.59l12.25,1.38c3.67,.42,7.33-.64,10.25-2.96,2.92-2.33,4.76-5.64,5.18-9.33l1.38-12.25c.95-8.4,7.71-18.63,15.06-22.79l10.72-6.08c3.23-1.83,5.56-4.82,6.55-8.43,1-3.6,.54-7.36-1.29-10.59l-6.08-10.72c-4.17-7.35-4.71-19.6-1.21-27.29l5.1-11.21c3.19-7.01,.08-15.29-6.92-18.48l-11.22-5.1c-7.7-3.5-15.34-13.08-17.03-21.36l-2.47-12.08c-1.54-7.54-8.91-12.42-16.46-10.88l-12.08,2.47c-8.28,1.69-20.1-1.57-26.33-7.28l-9.09-8.32c-5.68-5.19-14.52-4.8-19.71,.88l-8.32,9.09c-5.7,6.24-17.18,10.54-25.58,9.59l-12.25-1.38c-3.69-.42-7.32,.64-10.25,2.96-2.92,2.33-4.76,5.64-5.18,9.33l-1.38,12.25c-.95,8.4-7.71,18.63-15.06,22.79l-10.72,6.08c-3.23,1.83-5.55,4.82-6.55,8.43-1,3.6-.54,7.36,1.29,10.59l6.08,10.72c4.17,7.35,4.71,19.6,1.21,27.29l-5.1,11.21c-3.19,7.01-.08,15.29,6.92,18.48l11.22,5.1c7.7,3.5,15.33,13.09,17.02,21.36l2.47,12.08c.74,3.64,2.87,6.77,5.99,8.83,3.12,2.06,6.84,2.79,10.47,2.05l12.08-2.47c1.48-.31,3.08-.45,4.73-.45m40.11,21.53c-3.81,0-7.63-1.37-10.65-4.13l-9.09-8.32c-5.86-5.36-16.95-8.42-24.74-6.84l-12.08,2.47c-4.11,.84-8.32,.02-11.85-2.31-3.53-2.33-5.93-5.88-6.77-9.99l-2.47-12.08c-1.59-7.78-8.76-16.78-15.99-20.07l-11.22-5.1c-3.82-1.74-6.74-4.87-8.22-8.83-1.48-3.95-1.34-8.24,.4-12.06l5.1-11.22c3.29-7.23,2.78-18.73-1.14-25.63l-6.07-10.72c-2.07-3.65-2.59-7.91-1.47-11.99,1.12-4.07,3.76-7.45,7.41-9.52l10.73-6.08c6.9-3.91,13.25-13.51,14.14-21.4l1.39-12.25c.47-4.17,2.55-7.92,5.86-10.56,3.31-2.63,7.42-3.82,11.59-3.35l12.25,1.39c7.9,.89,18.67-3.15,24.03-9l8.32-9.09c5.88-6.42,15.88-6.86,22.29-.99l9.1,8.32c5.86,5.36,16.96,8.42,24.73,6.84l12.08-2.46c8.52-1.74,16.88,3.77,18.62,12.3l2.47,12.08c1.59,7.78,8.76,16.78,15.99,20.07l11.22,5.1c7.92,3.6,11.43,12.98,7.83,20.9l-5.1,11.22c-3.29,7.23-2.78,18.73,1.14,25.63h0s6.08,10.73,6.08,10.73c2.07,3.65,2.59,7.9,1.46,11.98-1.12,4.07-3.76,7.45-7.41,9.53l-10.72,6.08c-6.9,3.91-13.25,13.51-14.15,21.4l-1.39,12.25c-.47,4.17-2.55,7.92-5.85,10.55-3.31,2.63-7.43,3.82-11.6,3.35l-12.25-1.39c-7.89-.89-18.67,3.15-24.03,9l-8.32,9.09c-3.11,3.4-7.37,5.12-11.65,5.12" style="fill:#026455;"/><path d="M549.36,215.83c8.41,0,17.94,2.93,23.74,7.72l3.35,2.76c6.99,5.76,17.36,4.77,23.13-2.22l2.76-3.35c6.25-7.58,19.28-13.25,29.11-12.65l4.34,.27c4.36,.27,8.58-1.19,11.88-4.11,3.3-2.91,5.26-6.92,5.52-11.28l.27-4.34c.6-9.8,7.82-22.07,16.11-27.34l3.67-2.34c7.64-4.87,9.9-15.04,5.04-22.68l-2.34-3.67c-5.28-8.28-6.64-22.45-3.04-31.59l1.59-4.04c3.32-8.43-.83-17.99-9.26-21.31l-4.05-1.59c-9.14-3.6-18.57-14.27-21.03-23.77l-1.09-4.21c-2.27-8.77-11.24-14.06-20.02-11.79l-4.21,1.09c-9.51,2.46-23.4-.62-30.98-6.87l-3.35-2.76c-3.38-2.78-7.65-4.08-12.03-3.66-4.38,.42-8.33,2.51-11.11,5.88l-2.76,3.35c-6.25,7.58-19.29,13.25-29.11,12.65l-4.34-.27c-4.35-.28-8.58,1.19-11.87,4.11-3.3,2.91-5.26,6.92-5.53,11.28l-.27,4.34c-.6,9.8-7.83,22.07-16.11,27.34l-3.67,2.34c-3.68,2.35-6.24,6.01-7.19,10.31-.96,4.3-.18,8.69,2.16,12.38l2.34,3.67c5.28,8.28,6.64,22.46,3.04,31.59l-1.59,4.04c-1.61,4.07-1.52,8.53,.23,12.56s4.96,7.14,9.02,8.74l4.05,1.59c9.14,3.6,18.56,14.27,21.02,23.78l1.09,4.21c2.27,8.77,11.25,14.06,20.02,11.8l4.21-1.09c2.22-.58,4.68-.85,7.24-.85m37.53,16.06c-4.09,0-8.2-1.36-11.6-4.16l-3.35-2.76c-7.17-5.92-20.35-8.84-29.36-6.52l-4.21,1.09c-9.75,2.52-19.72-3.36-22.24-13.11l-1.09-4.21c-2.33-9.01-11.27-19.11-19.93-22.53l-4.04-1.6c-4.52-1.78-8.08-5.23-10.03-9.71-1.95-4.49-2.04-9.45-.26-13.96l1.6-4.04c3.41-8.66,2.11-22.09-2.88-29.94l-2.34-3.67c-2.61-4.09-3.46-8.98-2.4-13.76,1.06-4.77,3.9-8.84,7.99-11.45l3.67-2.34c7.85-5,14.7-16.63,15.27-25.91l.27-4.34c.29-4.85,2.48-9.3,6.14-12.54,3.66-3.24,8.34-4.86,13.19-4.57l4.34,.27c9.3,.59,21.66-4.81,27.58-11.99l2.76-3.35c3.09-3.75,7.47-6.07,12.34-6.54,4.87-.47,9.61,.97,13.36,4.07l3.35,2.76c7.18,5.92,20.35,8.85,29.36,6.51l4.21-1.09c9.75-2.52,19.73,3.36,22.25,13.11l1.09,4.21c2.33,9,11.26,19.11,19.93,22.52l4.04,1.6c9.37,3.69,13.98,14.31,10.29,23.68l-1.6,4.04c-3.41,8.66-2.12,22.09,2.88,29.94l2.34,3.67c5.41,8.49,2.89,19.8-5.6,25.21l-3.67,2.34c-7.85,5-14.7,16.63-15.27,25.91l-.27,4.34c-.3,4.85-2.48,9.3-6.14,12.54-3.66,3.24-8.36,4.85-13.2,4.56l-4.34-.27c-9.28-.59-21.66,4.81-27.58,11.99l-2.76,3.35c-3.61,4.37-8.84,6.63-14.1,6.63" style="fill:#006c5a;"/><path d="M557.8,210.95c8.14,0,17.01,2.41,22.78,6.61,3.68,2.68,8.22,3.77,12.76,3.06,4.54-.71,8.52-3.13,11.21-6.82,6.01-8.25,19.2-14.95,29.42-14.95h.05c9.45,0,17.14-7.68,17.15-17.13,.01-10.22,6.75-23.41,15.03-29.4,7.66-5.55,9.37-16.3,3.82-23.95-6-8.27-8.29-22.91-5.12-32.62,2.94-8.99-1.99-18.69-10.98-21.63-9.72-3.17-20.18-13.66-23.32-23.38-2.91-9-12.61-13.95-21.6-11.04-9.72,3.14-24.35,.81-32.61-5.21-3.68-2.69-8.22-3.77-12.76-3.06-4.54,.72-8.52,3.14-11.21,6.83-6.01,8.25-19.2,14.95-29.41,14.95h-.05c-9.45,0-17.14,7.68-17.15,17.13-.01,10.22-6.75,23.41-15.03,29.41-3.69,2.67-6.13,6.65-6.85,11.19-.73,4.54,.35,9.07,3.03,12.77,6,8.27,8.3,22.91,5.12,32.62-1.42,4.33-1.05,8.98,1.03,13.08s5.61,7.13,9.95,8.55c9.72,3.17,20.18,13.66,23.32,23.38,2.91,9,12.6,13.96,21.6,11.04,2.94-.95,6.31-1.4,9.83-1.4m32.81,11.71c-3.99,0-7.85-1.25-11.11-3.63-7.84-5.71-21.74-7.93-30.97-4.95-9.97,3.22-20.68-2.26-23.9-12.22-2.98-9.23-12.92-19.2-22.15-22.21-4.8-1.56-8.71-4.92-11.01-9.46-2.3-4.54-2.71-9.67-1.14-14.47,3.01-9.23,.83-23.13-4.87-30.98-2.96-4.09-4.15-9.11-3.35-14.13,.8-5.02,3.49-9.42,7.58-12.38,7.86-5.69,14.26-18.22,14.28-27.92,.01-10.46,8.53-18.96,18.98-18.96h.05c9.7,0,22.23-6.37,27.94-14.2,2.97-4.08,7.37-6.76,12.4-7.55,5.02-.79,10.04,.41,14.12,3.39,7.85,5.72,21.74,7.94,30.97,4.95,9.96-3.21,20.68,2.26,23.9,12.22,2.98,9.23,12.92,19.2,22.15,22.21,9.95,3.25,15.4,13.98,12.16,23.93-3.01,9.22-.83,23.12,4.86,30.98,6.14,8.47,4.24,20.36-4.23,26.5-7.86,5.7-14.26,18.22-14.27,27.93-.02,10.46-8.53,18.95-18.98,18.95h-.05c-9.7,0-22.23,6.37-27.93,14.2-2.98,4.08-7.38,6.76-12.4,7.55-1.01,.16-2.01,.24-3.01,.24" style="fill:#04745f;"/><path d="M567.69,205.47c6.73,0,13.77,1.65,18.68,4.73,3.56,2.23,7.78,2.93,11.9,1.98,4.12-.95,7.61-3.42,9.84-6.98,5.02-8.02,16.78-15.07,26.22-15.71,4.19-.29,8.02-2.2,10.8-5.39,2.78-3.19,4.14-7.25,3.86-11.44-.65-9.44,4.72-22.06,11.98-28.13,6.67-5.58,7.55-15.55,1.97-22.23-6.08-7.25-9.14-20.62-6.84-29.8,2.11-8.44-3.03-17.02-11.47-19.14-9.18-2.3-19.52-11.31-23.05-20.08-1.57-3.89-4.57-6.95-8.46-8.6-3.89-1.65-8.17-1.7-12.07-.14-8.77,3.54-22.44,2.32-30.45-2.7-7.38-4.62-17.13-2.38-21.75,5-5.02,8.02-16.79,15.07-26.23,15.72-8.68,.6-15.25,8.14-14.66,16.82,.65,9.44-4.72,22.06-11.98,28.13-6.67,5.58-7.55,15.55-1.97,22.23,6.08,7.25,9.15,20.62,6.85,29.8-1.02,4.07-.39,8.31,1.79,11.94,2.17,3.62,5.61,6.18,9.68,7.2,9.18,2.3,19.52,11.31,23.05,20.08,1.57,3.89,4.58,6.95,8.46,8.6s8.17,1.7,12.07,.14c3.4-1.37,7.53-2.03,11.78-2.03m26.99,8.95c-3.26,0-6.46-.91-9.28-2.67-7.58-4.75-20.51-5.9-28.8-2.55-4.35,1.75-9.13,1.69-13.46-.15-4.34-1.84-7.7-5.26-9.44-9.6-3.35-8.3-13.13-16.82-21.8-18.99-4.55-1.14-8.38-3.99-10.8-8.04-2.43-4.04-3.13-8.77-2-13.32,2.18-8.68-.73-21.32-6.47-28.18-6.23-7.44-5.24-18.57,2.2-24.8,6.86-5.74,11.94-17.68,11.33-26.6-.67-9.69,6.67-18.11,16.35-18.78,8.92-.61,20.05-7.28,24.8-14.86,5.15-8.23,16.04-10.73,24.27-5.57,7.58,4.75,20.5,5.89,28.8,2.55,4.34-1.75,9.12-1.7,13.46,.15,4.34,1.85,7.69,5.26,9.44,9.6,3.34,8.3,13.12,16.82,21.8,18.99,9.42,2.36,15.16,11.94,12.8,21.36-2.17,8.68,.73,21.32,6.47,28.18,6.23,7.44,5.24,18.57-2.2,24.8-6.86,5.74-11.94,17.67-11.33,26.6,.32,4.67-1.21,9.2-4.31,12.76-3.09,3.55-7.37,5.69-12.05,6.01-8.92,.61-20.05,7.28-24.8,14.87-2.48,3.97-6.38,6.74-10.98,7.79-1.33,.3-2.67,.46-4,.46" style="fill:#077d63;"/><path d="M577.77,199.75c5.21,0,10.43,1.03,14.37,3.07,7.1,3.67,15.87,.89,19.54-6.21,4.02-7.77,14.33-15.17,22.99-16.49,7.9-1.2,13.36-8.61,12.16-16.51-1.32-8.65,2.68-20.7,8.91-26.85,5.69-5.62,5.75-14.81,.13-20.5-6.15-6.23-10-18.33-8.58-26.96,.63-3.8-.27-7.64-2.54-10.79-2.26-3.16-5.6-5.24-9.41-5.87-8.64-1.42-18.86-8.95-22.78-16.77-1.73-3.44-4.71-6.02-8.4-7.24-3.69-1.23-7.62-.95-11.07,.78-7.82,3.92-20.51,3.85-28.29-.18-3.42-1.78-7.35-2.1-11.05-.92-3.7,1.18-6.72,3.71-8.49,7.13-4.03,7.78-14.34,15.17-23,16.49-7.9,1.2-13.36,8.61-12.15,16.51,1.31,8.65-2.68,20.7-8.91,26.85-5.69,5.62-5.74,14.81-.13,20.5,6.15,6.23,10,18.33,8.58,26.96-.63,3.81,.27,7.63,2.53,10.79,2.26,3.16,5.6,5.24,9.41,5.87,8.64,1.42,18.86,8.95,22.78,16.77,1.73,3.44,4.71,6.02,8.4,7.24,3.68,1.22,7.61,.95,11.06-.78,3.85-1.93,8.88-2.89,13.92-2.89m21.01,6.52c-2.53,0-5.08-.59-7.48-1.82-7.32-3.79-19.27-3.86-26.64-.17-3.88,1.94-8.31,2.26-12.45,.88-4.15-1.38-7.51-4.27-9.46-8.16-3.7-7.37-13.32-14.45-21.45-15.79-4.29-.71-8.05-3.05-10.6-6.61-2.55-3.55-3.56-7.87-2.86-12.16,1.34-8.13-2.28-19.52-8.07-25.38-6.32-6.4-6.26-16.76,.14-23.09,5.87-5.79,9.63-17.13,8.39-25.28-1.36-8.9,4.78-17.24,13.69-18.59,8.15-1.24,17.86-8.2,21.65-15.52,1.99-3.86,5.39-6.71,9.55-8.04,4.17-1.33,8.59-.96,12.45,1.04,7.32,3.79,19.27,3.86,26.64,.17,3.88-1.95,8.31-2.26,12.45-.88,4.15,1.38,7.51,4.27,9.46,8.16,3.69,7.37,13.32,14.45,21.45,15.79,4.28,.71,8.05,3.05,10.6,6.61,2.55,3.55,3.56,7.87,2.85,12.16-1.34,8.13,2.28,19.52,8.08,25.38,6.32,6.41,6.26,16.76-.15,23.09-5.86,5.79-9.63,17.13-8.39,25.28,1.35,8.9-4.79,17.24-13.69,18.6-8.15,1.24-17.86,8.2-21.64,15.52-2.9,5.6-8.62,8.82-14.53,8.82" style="fill:#058869;"/><path d="M554.1,55.63c-5.29,0-10.31,3.17-12.4,8.37-3.02,7.53-11.89,15.28-19.75,17.27-7.13,1.8-11.47,9.06-9.68,16.2,1.99,7.87-.63,19.34-5.83,25.58-2.27,2.72-3.35,6.19-3.03,9.74,.32,3.56,1.99,6.77,4.72,9.05,6.23,5.2,10.86,16.02,10.31,24.12-.49,7.34,5.08,13.71,12.41,14.2,8.1,.55,18.2,6.58,22.53,13.45,1.88,3.01,4.84,5.1,8.33,5.89,3.49,.8,7.06,.19,10.06-1.69,6.87-4.32,18.59-5.37,26.13-2.36,3.29,1.32,6.92,1.28,10.2-.13s5.82-3.99,7.14-7.29c3.02-7.53,11.88-15.28,19.75-17.27,7.13-1.8,11.47-9.06,9.67-16.2-1.98-7.87,.63-19.34,5.83-25.58,2.27-2.72,3.35-6.18,3.03-9.74-.32-3.56-2-6.77-4.72-9.05-6.23-5.2-10.86-16.02-10.32-24.12,.5-7.34-5.07-13.71-12.41-14.21-8.1-.55-18.2-6.58-22.52-13.45-3.91-6.23-12.17-8.11-18.39-4.19-6.87,4.32-18.59,5.37-26.13,2.35-1.62-.65-3.3-.96-4.95-.96m10.64,146.04c-1.14,0-2.29-.13-3.43-.39-3.96-.91-7.33-3.28-9.47-6.7-4.05-6.43-13.51-12.09-21.1-12.6-8.35-.56-14.68-7.81-14.11-16.16,.51-7.58-3.83-17.72-9.66-22.59-3.1-2.59-5.01-6.24-5.37-10.29-.37-4.04,.86-7.98,3.44-11.08,4.87-5.83,7.32-16.58,5.46-23.96-2.04-8.11,2.89-16.37,11-18.42,7.37-1.86,15.67-9.12,18.5-16.17,3.12-7.76,11.96-11.54,19.73-8.43,7.06,2.83,18.04,1.84,24.47-2.21,3.42-2.15,7.48-2.83,11.44-1.93,3.96,.91,7.33,3.29,9.47,6.71,4.04,6.43,13.51,12.08,21.1,12.6,8.34,.56,14.68,7.81,14.11,16.15-.51,7.58,3.82,17.72,9.66,22.59,3.1,2.59,5.01,6.24,5.37,10.29,.37,4.04-.86,7.98-3.44,11.08-4.87,5.84-7.32,16.58-5.47,23.96,2.05,8.11-2.89,16.37-11,18.42-7.37,1.86-15.67,9.11-18.51,16.17-1.5,3.75-4.38,6.69-8.12,8.29-3.73,1.6-7.85,1.65-11.6,.14-7.06-2.83-18.04-1.84-24.48,2.21-2.43,1.53-5.19,2.32-8.01,2.32" style="fill:#088f6f;"/><path d="M540.92,180.9c7.44,0,16.9,4.42,21.45,10.13,2.05,2.57,4.98,4.18,8.27,4.55,3.28,.37,6.51-.55,9.07-2.6,5.92-4.72,16.66-6.91,23.95-4.9,3.16,.87,6.49,.46,9.36-1.18,2.88-1.63,4.94-4.27,5.81-7.44,2.02-7.29,9.42-15.38,16.49-18.04,6.38-2.39,9.61-9.51,7.22-15.89-2.66-7.08-1.43-17.98,2.74-24.29,3.75-5.68,2.18-13.35-3.5-17.1-6.31-4.17-11.72-13.7-12.06-21.26-.3-6.8-6.1-12.08-12.88-11.77-7.55,.32-17.54-4.2-22.26-10.11-2.05-2.57-4.98-4.18-8.27-4.55-3.3-.37-6.51,.55-9.07,2.59-5.92,4.72-16.66,6.91-23.95,4.9-3.16-.87-6.48-.46-9.36,1.18s-4.94,4.27-5.82,7.44c-2.01,7.29-9.42,15.39-16.49,18.04-3.07,1.15-5.51,3.44-6.88,6.45-1.37,3.01-1.49,6.36-.33,9.43,2.66,7.08,1.42,17.98-2.75,24.29-1.8,2.74-2.43,6.03-1.77,9.27s2.53,6.02,5.28,7.82c6.31,4.17,11.72,13.71,12.06,21.27,.3,6.79,6.07,12.08,12.88,11.77,.27,0,.53-.01,.81-.01m31.14,16.59c-.54,0-1.08-.03-1.63-.09-3.77-.43-7.14-2.29-9.49-5.23-4.4-5.51-13.73-9.74-20.75-9.42-7.85,.36-14.44-5.72-14.79-13.52-.31-7.05-5.36-15.94-11.24-19.82-3.14-2.07-5.29-5.27-6.06-8.99-.76-3.72-.04-7.49,2.04-10.64,3.88-5.88,5.03-16.04,2.55-22.64-1.33-3.53-1.19-7.38,.38-10.83,1.56-3.45,4.37-6.09,7.9-7.41,6.6-2.48,13.5-10.02,15.38-16.82,1-3.63,3.37-6.66,6.67-8.54,3.3-1.88,7.12-2.35,10.75-1.35,6.8,1.88,16.81-.17,22.32-4.56,2.94-2.35,6.66-3.41,10.42-2.99,3.77,.42,7.14,2.28,9.49,5.23,4.4,5.51,13.76,9.74,20.75,9.43,7.85-.36,14.44,5.71,14.79,13.52,.32,7.04,5.36,15.94,11.25,19.82,6.52,4.31,8.32,13.11,4.01,19.63-3.88,5.88-5.03,16.04-2.55,22.64,2.75,7.31-.97,15.49-8.29,18.24-6.6,2.48-13.5,10.02-15.38,16.82-1,3.63-3.37,6.66-6.67,8.54-3.3,1.87-7.12,2.35-10.75,1.35-6.8-1.88-16.81,.17-22.32,4.57-2.52,2.01-5.6,3.08-8.79,3.08" style="fill:#1f9a74;"/><path d="M552.8,181.13c6.51,0,14.25,2.81,18.57,7,4.54,4.4,11.81,4.28,16.21-.26,4.93-5.09,14.63-8.42,21.66-7.42,3.01,.43,6.03-.35,8.49-2.2,2.46-1.84,4.04-4.52,4.47-7.54,1-7.01,6.9-15.41,13.16-18.73,2.7-1.42,4.68-3.83,5.58-6.77,.9-2.94,.61-6.04-.81-8.73-3.32-6.26-3.48-16.53-.37-22.89,2.78-5.68,.42-12.56-5.26-15.34-6.36-3.11-12.53-11.32-13.75-18.3-.52-3-2.2-5.63-4.71-7.39-2.51-1.77-5.56-2.45-8.55-1.93-6.97,1.22-16.8-1.79-21.88-6.72-4.54-4.4-11.81-4.28-16.21,.26-4.93,5.09-14.65,8.41-21.66,7.42-3.01-.43-6.03,.35-8.49,2.2-2.46,1.84-4.04,4.53-4.48,7.54-1,7.01-6.89,15.42-13.15,18.73-2.7,1.43-4.68,3.83-5.58,6.77-.9,2.94-.61,6.04,.82,8.73,3.32,6.26,3.48,16.53,.37,22.88-2.78,5.68-.42,12.56,5.26,15.34,6.36,3.11,12.53,11.32,13.75,18.3,.52,3,2.2,5.63,4.71,7.39,2.51,1.77,5.56,2.45,8.55,1.93,1.05-.18,2.16-.27,3.31-.27m26.55,12.05c-3.33,0-6.67-1.24-9.24-3.74-4.72-4.57-13.82-7.37-20.3-6.24-3.49,.61-7.01-.18-9.92-2.23-2.91-2.04-4.86-5.09-5.46-8.58-1.13-6.47-6.85-14.09-12.75-16.97-6.58-3.22-9.32-11.2-6.1-17.78,2.89-5.9,2.74-15.42-.34-21.23-1.65-3.12-1.99-6.72-.95-10.12,1.05-3.4,3.35-6.19,6.47-7.85,5.8-3.08,11.28-10.87,12.2-17.37,.5-3.5,2.34-6.61,5.19-8.75,2.85-2.14,6.33-3.04,9.85-2.55,6.49,.93,15.51-2.16,20.08-6.88,5.1-5.27,13.53-5.4,18.79-.3,4.72,4.57,13.83,7.37,20.3,6.24,3.48-.61,7.01,.18,9.92,2.23s4.85,5.09,5.46,8.58c1.14,6.47,6.85,14.08,12.76,16.97,6.58,3.22,9.32,11.2,6.09,17.78-2.89,5.9-2.73,15.42,.34,21.23,1.65,3.12,1.99,6.72,.95,10.12-1.05,3.4-3.35,6.19-6.47,7.85-5.8,3.08-11.28,10.87-12.2,17.37-.5,3.5-2.34,6.61-5.19,8.75-2.85,2.14-6.34,3.04-9.84,2.55-6.5-.93-15.52,2.16-20.08,6.88-2.61,2.69-6.08,4.04-9.55,4.04" style="fill:#2ba379;"/><path d="M565.6,179.82c5.23,0,10.92,1.53,14.63,4.21,4.73,3.42,11.36,2.35,14.79-2.38,3.86-5.35,12.38-9.71,18.98-9.73,2.81,0,5.47-1.12,7.47-3.13,2-2.01,3.1-4.67,3.09-7.49-.02-6.6,4.31-15.13,9.64-19.03,4.71-3.44,5.74-10.08,2.3-14.79-3.89-5.33-5.41-14.78-3.39-21.06,.86-2.68,.62-5.55-.67-8.07-1.29-2.53-3.48-4.39-6.16-5.26-6.29-2.02-13.06-8.77-15.12-15.05-.88-2.67-2.75-4.85-5.28-6.13-2.53-1.29-5.4-1.51-8.08-.63-6.27,2.06-15.73,.58-21.08-3.29-2.28-1.65-5.08-2.31-7.88-1.86-2.8,.45-5.26,1.96-6.91,4.24-3.86,5.35-12.38,9.71-18.97,9.73-5.84,.01-10.58,4.78-10.57,10.61,.02,6.6-4.31,15.14-9.64,19.03-2.27,1.66-3.77,4.12-4.2,6.92-.44,2.8,.23,5.6,1.9,7.87,3.89,5.33,5.41,14.78,3.39,21.06-.87,2.68-.63,5.55,.67,8.08,1.29,2.53,3.48,4.39,6.16,5.25,6.28,2.02,13.06,8.77,15.11,15.05,1.82,5.55,7.81,8.59,13.36,6.77,1.92-.63,4.14-.93,6.45-.93m20.81,8.04c-2.52,0-5.06-.76-7.26-2.35-4.85-3.51-13.74-4.89-19.43-3.03-6.5,2.13-13.54-1.43-15.67-7.94-1.86-5.69-8.24-12.04-13.94-13.87-3.14-1.01-5.71-3.2-7.23-6.16-1.52-2.96-1.79-6.32-.78-9.47,1.84-5.69,.4-14.59-3.12-19.42-1.95-2.66-2.74-5.94-2.23-9.23,.51-3.29,2.26-6.17,4.93-8.12,4.83-3.53,8.9-11.57,8.89-17.55-.02-6.84,5.54-12.43,12.39-12.45,5.98-.01,14-4.13,17.5-8.97,1.94-2.67,4.81-4.44,8.09-4.97,3.28-.52,6.57,.25,9.24,2.18,4.85,3.51,13.75,4.9,19.43,3.03,3.14-1.03,6.5-.77,9.47,.73,2.97,1.5,5.17,4.06,6.2,7.2,1.86,5.68,8.24,12.03,13.94,13.87,3.15,1.01,5.71,3.2,7.23,6.16,1.52,2.96,1.79,6.32,.78,9.46-1.83,5.7-.4,14.59,3.13,19.42,1.94,2.67,2.74,5.95,2.23,9.23-.51,3.28-2.27,6.17-4.93,8.12-4.83,3.53-8.91,11.57-8.89,17.54,0,3.31-1.28,6.42-3.63,8.78-2.34,2.36-5.46,3.66-8.76,3.67-5.98,.01-14,4.12-17.5,8.97-2.42,3.35-6.23,5.14-10.08,5.14" style="fill:#38ab7e;"/><path d="M578.48,176.7c3.59,0,7.18,.69,9.91,2.09,2.31,1.18,4.95,1.38,7.43,.57,2.48-.81,4.5-2.52,5.67-4.83,2.78-5.46,9.97-10.69,16.03-11.64,5.3-.84,8.93-5.84,8.1-11.14-.96-6.06,1.78-14.51,6.12-18.84,1.83-1.83,2.84-4.27,2.84-6.89s-1.01-5.05-2.84-6.89c-4.34-4.34-7.08-12.79-6.12-18.84,.83-5.3-2.8-10.3-8.1-11.14-6.06-.96-13.24-6.19-16.03-11.65-1.18-2.3-3.19-4.02-5.67-4.83-2.48-.81-5.12-.6-7.43,.57-5.46,2.78-14.35,2.78-19.81,0-2.31-1.17-4.94-1.38-7.42-.57-2.48,.81-4.5,2.53-5.67,4.83-2.79,5.46-9.97,10.69-16.03,11.65-2.56,.4-4.81,1.79-6.34,3.9-1.53,2.11-2.16,4.68-1.75,7.24,.96,6.06-1.79,14.51-6.12,18.84-1.83,1.83-2.84,4.27-2.84,6.89s1.01,5.05,2.84,6.89c4.34,4.33,7.08,12.79,6.12,18.84-.41,2.56,.22,5.13,1.75,7.24,1.53,2.11,3.79,3.5,6.34,3.9,6.06,.96,13.24,6.18,16.03,11.64,1.17,2.31,3.19,4.02,5.67,4.83,2.48,.81,5.11,.6,7.42-.57,2.73-1.39,6.32-2.09,9.91-2.09m14.29,4.98c-1.79,0-3.58-.42-5.22-1.26-4.92-2.51-13.23-2.51-18.15,0-2.74,1.4-5.87,1.64-8.82,.68-2.94-.96-5.33-2.99-6.73-5.74-2.51-4.92-9.23-9.81-14.69-10.67-3.04-.48-5.72-2.13-7.54-4.63-1.82-2.51-2.56-5.56-2.07-8.6,.86-5.45-1.71-13.36-5.61-17.27-2.18-2.18-3.38-5.08-3.38-8.18s1.2-6,3.38-8.18c3.91-3.9,6.47-11.81,5.61-17.27-.49-3.04,.25-6.09,2.07-8.6,1.82-2.5,4.5-4.15,7.54-4.63,5.45-.87,12.18-5.75,14.69-10.67,1.4-2.75,3.79-4.78,6.73-5.74,2.95-.96,6.08-.71,8.82,.68,4.92,2.51,13.23,2.51,18.15,0,2.75-1.39,5.88-1.64,8.82-.68,2.94,.96,5.34,2.99,6.73,5.74,2.51,4.92,9.23,9.8,14.69,10.67,6.3,1,10.61,6.94,9.61,13.23-.86,5.46,1.7,13.36,5.61,17.27,2.18,2.18,3.38,5.08,3.38,8.18s-1.2,6-3.38,8.18c-3.9,3.9-6.47,11.81-5.61,17.27,1,6.3-3.31,12.24-9.61,13.23-5.46,.87-12.18,5.75-14.69,10.67-1.39,2.74-3.79,4.78-6.73,5.74-1.19,.38-2.4,.58-3.61,.58" style="fill:#43ba82;"/><path d="M615.28,136.42l-1.61-.51c-2.41-.77-5.27-1.14-8.42-1.11-7.85,.06-16.8,2.58-24.02,6.77-2.05-12.41-1.1-26.76-.8-30.44,3,1.7,6.63,4.87,8.99,13.6l.3,1.13,.21-1.15c1.75-9.74-4.88-16.08-5.13-16.3,.27-.02,2.04,.03,4.56,1.19,2.33,1.08,5.83,3.41,9.27,8.42l.73,1.07-.26-1.27c-2.56-12.49-12.78-15.03-13.37-15.17,.16-.12,3.45-2.45,13.14,.74l.89,.29-.61-.71c-5.95-6.97-14.96-5.1-15.94-4.87v-.03c.39-.81,1.83-2.72,4.82-4.79l.91-.63-1.1,.15c-4.89,.69-7.58,3-8.19,3.82-.06-1.08-.27-3.05-.92-4.54l-.24-.55-.24,.55c-.65,1.48-.86,3.46-.92,4.54-.61-.81-3.29-3.12-8.19-3.82l-1.1-.15,.91,.63c2.95,2.05,4.4,3.94,4.81,4.82-.92-.21-10.01-2.07-15.94,4.87l-.61,.71,.89-.29c9.73-3.2,12.99-.86,13.14-.74-.61,.14-10.81,2.69-13.37,15.16l-.26,1.28,.74-1.07c3.44-5.01,6.93-7.35,9.27-8.42,2.43-1.13,4.17-1.19,4.54-1.19h.02c-.27,.25-6.88,6.59-5.13,16.3l.2,1.15,.31-1.13c2.35-8.74,5.99-11.9,8.98-13.61,.3,3.69,1.25,18.05-.79,30.45-7.23-4.19-16.18-6.71-24.03-6.77-.11,0-.23,0-.35,0-3.04,0-5.76,.37-8.07,1.11l-1.6,.51h1.68c13.7,0,21.99,3.38,31.53,9.22-.22,.15-.46,.33-.73,.52-3.91,2.81-13.09,9.41-17.62,9.41-.81,0-1.52-.09-2.17-.28l-.85-.25,.66,.78c.55,.64,1.81,2.14,4.15,2.14,5.62,0,13.31-5.34,17.9-8.54,.87-.6,1.63-1.13,2.23-1.52,.6,.39,1.36,.92,2.23,1.52,4.59,3.19,12.28,8.54,17.9,8.54,2.34,0,3.61-1.5,4.15-2.14l.66-.78-.85,.25c-.65,.19-1.37,.28-2.17,.28-4.53,0-13.7-6.6-17.62-9.41-.27-.19-.51-.37-.73-.52,9.55-5.84,17.83-9.22,31.53-9.22h1.69Z" style="fill:#005c50;"/></svg>