<?xml version="1.0" encoding="UTF-8"?>
<svg id="Layer_1" xmlns="http://www.w3.org/2000/svg" xmlns:xlink="http://www.w3.org/1999/xlink" viewBox="0 0 651.98 197.05"><defs><clipPath id="clippath"><rect width="651.98" height="197.05" style="fill:none;"/></clipPath><clipPath id="clippath-1"><path d="M607.96,23.85v17.6h-21.63s-22.97-2.6-22.97,22.97v20.44h-20.99s-22.19-3.06-22.19,22.46v25.52c0,8.64,7.9,64.21,67.12,64.21s64.67-58.8,64.67-65.32v-45.66h-23.54s-19.62,.56-19.62,22.98v22.42s1.4,22.98-21.02,22.98-23.82-19.9-23.82-19.9v-48.49h22.42s21.58-1.12,21.58-22.42v-20.46h23.83s20.18-2.53,20.18-24.94V.02h-24.94s-.26-.02-.72-.02c-3.47,0-18.34,1.31-18.34,23.85" style="fill:none;"/></clipPath><linearGradient id="linear-gradient" x1="25.32" y1="520.62" x2="31.51" y2="520.62" gradientTransform="translate(1483.48 -16388.78) rotate(-180) scale(31.67 -31.67)" gradientUnits="userSpaceOnUse"><stop offset="0" stop-color="#84c55c"/><stop offset=".1" stop-color="#5ac07a"/><stop offset=".22" stop-color="#33bc97"/><stop offset=".33" stop-color="#17b9ab"/><stop offset=".42" stop-color="#06b7b8"/><stop offset=".49" stop-color="#00b7bd"/><stop offset=".82" stop-color="#0484b3"/><stop offset="1" stop-color="#0484b3"/></linearGradient></defs><g style="clip-path:url(#clippath);"><path d="M31.54,120.64h-5.99c-4.31,0-7.82-2.96-8.96-7.42-1.73,2.51-3.86,3.76-6.34,3.76-6.34,0-10.25-4.82-10.25-11.78,0-7.53,3.91-12.19,10.25-12.19h12.23v15.89c0,3.91,1.83,6.02,5.55,6.02h3.52v5.72Zm-14.8-15.99v-7.27h-5c-3.86,0-6.24,3.11-6.24,7.77,0,3.86,2.13,7.17,5.45,7.17,3.61,0,5.79-3.41,5.79-7.67m-4.06-15.7H7.23v-5.61h5.45v5.61Zm9.36,0h-5.45v-5.61h5.45v5.61Z" style="fill:#909295;"/><path d="M35.21,131.62h-5.45v-5.61h5.45v5.61Zm17.63-10.98H30.01v-5.72h5.3c1.63,0,2.77-.55,3.37-1.7,.4-.75,.59-2.05,.59-3.81v-11.53h5.5v11.23c0,2.96-.4,4.86-1.24,5.81h9.31v5.72Zm-8.27,10.98h-5.45v-5.61h5.45v5.61Z" style="fill:#909295;"/><path d="M79.23,120.64h-27.44v-5.72h7.19c-.74-1.65-1.09-3.41-1.09-5.26,0-3.36,1.03-6.22,3.17-8.58,2.13-2.35,4.9-3.51,8.22-3.51,4.36,0,8.07,2.41,9.7,6.47l-4.75,2.31c-.84-2.56-2.57-3.86-5.2-3.86-1.83,0-3.22,.76-4.21,2.21-.9,1.3-1.34,2.91-1.34,4.86,0,2.25,.59,4.01,1.78,5.36h13.96v5.72Z" style="fill:#909295;"/><path d="M98.94,120.64h-6.49c-2.67,0-4.7-.85-6.14-2.61-1.34-1.61-1.98-3.76-1.98-6.52v-23.21h5.5v20.96c0,2.46,.54,4.06,1.58,4.82,.74,.55,2.18,.85,4.26,.85h3.27v5.72Z" style="fill:#909295;"/><path d="M129.55,120.64h-7.08c-2.13,2.91-5.1,4.36-8.96,4.36s-6.73-1.45-8.86-4.36h-7.58v-5.71h5.35c-.05-.55-.05-1.1-.05-1.65,0-3.36,1.04-6.12,3.07-8.28,2.08-2.15,4.75-3.26,8.07-3.26s5.99,1.11,8.02,3.36c2.03,2.26,3.07,5.01,3.07,8.37v1.45h4.95v5.71Zm-10.65-7.22c0-1.76-.45-3.31-1.34-4.56-1.04-1.36-2.48-2.05-4.21-2.05s-3.02,.65-4.01,2.01c-.84,1.15-1.29,2.66-1.29,4.41,0,3.61,2.18,6.57,5.6,6.57,1.68,0,3.02-.66,3.96-1.91,.84-1.15,1.29-2.66,1.29-4.46" style="fill:#909295;"/><path d="M133.06,93.21h-5.45v-5.56h5.45v5.56Zm17.73,27.43h-22.88v-5.72h5.15c1.63,0,2.72-.55,3.32-1.7,.4-.75,.59-2.05,.59-3.81v-11.53h5.5v11.23c0,2.96-.4,4.86-1.19,5.81h9.51v5.72Zm-8.32-27.43h-5.45v-5.56h5.45v5.56Z" style="fill:#909295;"/><path d="M183.88,117.13v3.51h-34.86v-5.72h28.87c0-3.11-.84-5.76-2.57-7.97-2.03-2.56-4.9-3.81-8.52-3.81-1.24,0-2.62,.3-4.16,.95-1.78,.75-3.27,1.8-4.46,3.16-.54-1.05-1.44-2.51-2.67-4.41,1.53-1.45,3.27-2.66,5.3-3.56,2.18-.95,4.36-1.4,6.54-1.4,3.66,0,6.83,.9,9.51,2.76,4.7,3.16,7.03,8.62,7.03,16.49m-13.92,14.54h-5.45v-5.61h5.45v5.61Z" style="fill:#909295;"/><path d="M212.5,88.3v24.47c0,4.77-3.37,7.87-8.71,7.87h-14.81v-5.71h7.58l-6.24-23.07h5.85l6.19,23.07c1.53,0,2.62-.35,3.37-1.1,.94-.95,1.39-2.56,1.39-4.82v-20.71h5.4Z" style="fill:#909295;"/><rect x="217.7" y="88.25" width="5.5" height="32.39" style="fill:#909295;"/><path d="M269.8,120.64h-5.99c-4.31,0-7.82-2.96-8.96-7.42-1.73,2.51-3.87,3.76-6.34,3.76-6.34,0-10.25-4.82-10.25-11.78,0-7.53,3.91-12.19,10.25-12.19h12.24v15.89c0,3.91,1.83,6.02,5.55,6.02h3.52v5.72Zm-14.8-15.99v-7.27h-5c-3.86,0-6.24,3.11-6.24,7.77,0,3.86,2.13,7.17,5.45,7.17,3.61,0,5.79-3.41,5.79-7.67m-4.06-15.7h-5.45v-5.61h5.45v5.61Zm9.36,0h-5.45v-5.61h5.45v5.61Z" style="fill:#909295;"/><path d="M273.46,131.62h-5.45v-5.61h5.45v5.61Zm17.63-10.98h-22.83v-5.72h5.3c1.63,0,2.77-.55,3.37-1.7,.4-.75,.59-2.05,.59-3.81v-11.53h5.5v11.23c0,2.96-.4,4.86-1.24,5.81h9.31v5.72Zm-8.28,10.98h-5.45v-5.61h5.45v5.61Z" style="fill:#909295;"/><path d="M322.14,120.64h-7.08c-2.13,2.91-5.1,4.36-8.96,4.36s-6.73-1.45-8.86-4.36h-7.58v-5.71h5.35c-.05-.55-.05-1.1-.05-1.65,0-3.36,1.04-6.12,3.07-8.28,2.08-2.15,4.75-3.26,8.07-3.26s5.99,1.11,8.02,3.36c2.03,2.26,3.07,5.01,3.07,8.37v1.45h4.95v5.71Zm-10.65-7.22c0-1.76-.45-3.31-1.34-4.56-1.04-1.36-2.48-2.05-4.21-2.05s-3.02,.65-4.01,2.01c-.84,1.15-1.29,2.66-1.29,4.41,0,3.61,2.18,6.57,5.6,6.57,1.68,0,3.02-.66,3.96-1.91,.84-1.15,1.29-2.66,1.29-4.46" style="fill:#909295;"/><path d="M343.39,120.64h-22.88v-5.72h5.16c1.63,0,2.72-.55,3.32-1.7,.4-.75,.59-2.05,.59-3.81v-11.53h5.5v11.23c0,2.96-.4,4.86-1.19,5.81h9.51v5.72Zm-8.32-27.38h-5.45v-5.56h5.45v5.56Z" style="fill:#909295;"/><path d="M347,93.21h-5.45v-5.56h5.45v5.56Zm17.73,27.43h-22.88v-5.72h5.15c1.63,0,2.72-.55,3.32-1.7,.4-.75,.59-2.05,.59-3.81v-11.53h5.5v11.23c0,2.96-.4,4.86-1.19,5.81h9.51v5.72Zm-8.32-27.43h-5.45v-5.56h5.45v5.56Z" style="fill:#909295;"/><path d="M377.26,111.57c0,6.07-2.77,9.07-8.32,9.07h-5.84v-5.71h4.7c1.83,0,2.97-.56,3.52-1.65,.25-.61,.4-1.81,.4-3.61v-21.36h5.55v23.27Z" style="fill:#909295;"/><rect x="382.36" y="88.25" width="5.5" height="32.39" style="fill:#909295;"/><path d="M452.93,120.64h-34.27c-10.5,0-15.75-4.71-15.75-14.19v-8.58h5.5v8.58c0,3.26,.93,5.56,2.82,6.87,1.48,1.05,3.76,1.6,6.78,1.6h16.83c1.63,0,2.77-.55,3.32-1.71,.4-.75,.59-2.05,.59-3.81v-21.11h5.55v20.81c0,2.96-.4,4.86-1.24,5.82h9.86v5.71Zm-22.93-19.5h-12.33v-3.36h2.67c-.35-.75-.54-1.6-.54-2.46,0-3.16,2.23-5.66,5.35-5.66,2.18,0,3.71,1,4.56,3.01l-2.33,1.6c-.35-1.05-1.04-1.6-2.08-1.6-1.49,0-2.23,.95-2.23,2.86,0,.95,.25,1.7,.69,2.25h6.24v3.36Z" style="fill:#909295;"/><path d="M473.93,120.64h-22.88v-5.72h5.15c1.63,0,2.72-.55,3.32-1.7,.4-.75,.59-2.05,.59-3.81v-11.53h5.5v11.23c0,2.96-.4,4.86-1.19,5.81h9.51v5.72Zm-8.32-27.38h-5.45v-5.56h5.45v5.56Z" style="fill:#909295;"/><path d="M486.41,111.57c0,6.07-2.77,9.07-8.27,9.07h-5.35v-5.72h4.21c1.83,0,2.97-.55,3.52-1.65,.25-.6,.4-1.81,.4-3.61v-11.78h5.5v13.69Zm-.05,20.05h-5.4v-5.61h5.4v5.61Z" style="fill:#909295;"/><path d="M13.6,156.12c0-.53-.15-.96-.45-1.29-.3-.32-.7-.59-1.21-.8-.51-.21-1.08-.38-1.71-.51-.64-.13-1.31-.25-2.01-.38-.93-.18-1.81-.39-2.66-.63-.84-.25-1.58-.58-2.23-1.02-.64-.43-1.15-.98-1.53-1.64-.38-.66-.57-1.5-.57-2.49,0-1.1,.22-2.05,.66-2.87,.44-.81,1.04-1.49,1.79-2.02,.76-.53,1.64-.93,2.66-1.2,1.02-.26,2.16-.4,3.43-.4s2.55,.11,3.83,.33c1.28,.22,2.39,.5,3.31,.84v3.27c-1.23-.42-2.42-.74-3.55-.92-1.13-.19-2.2-.29-3.2-.29-1.44,0-2.54,.23-3.32,.69-.78,.45-1.17,1.14-1.17,2.05,0,.53,.13,.97,.38,1.31,.26,.34,.6,.63,1.05,.85,.44,.22,.94,.4,1.51,.54,.57,.14,1.18,.26,1.82,.37,1.01,.19,1.97,.4,2.9,.65,.92,.24,1.73,.58,2.44,1.02,.71,.44,1.27,1.01,1.7,1.71,.41,.7,.62,1.6,.62,2.69s-.24,2.09-.71,2.91c-.48,.82-1.15,1.5-2.02,2.04-.88,.53-1.94,.93-3.18,1.19-1.25,.26-2.61,.39-4.1,.39-1.29,0-2.57-.11-3.82-.33-1.26-.22-2.3-.54-3.13-.94v-3.22c1.18,.45,2.32,.77,3.44,.97,1.11,.2,2.27,.3,3.45,.3,.69,0,1.37-.05,2.03-.15,.67-.1,1.26-.27,1.79-.5,.53-.24,.95-.56,1.27-.98,.32-.41,.48-.92,.48-1.52" style="fill:#909295;"/><path d="M45.09,151.68c0,1.59-.26,3.05-.77,4.37-.52,1.32-1.27,2.46-2.26,3.42-1,.95-2.21,1.7-3.66,2.23-1.44,.53-3.08,.79-4.92,.79s-3.48-.27-4.93-.79c-1.44-.53-2.66-1.27-3.65-2.23-.99-.95-1.75-2.09-2.27-3.42-.51-1.32-.77-2.78-.77-4.37s.26-3.04,.77-4.37c.52-1.32,1.28-2.46,2.27-3.42,.99-.95,2.21-1.7,3.65-2.23,1.44-.53,3.08-.79,4.93-.79s3.48,.27,4.92,.79c1.45,.53,2.66,1.27,3.66,2.23,.99,.95,1.74,2.09,2.26,3.42,.51,1.32,.77,2.78,.77,4.37m-4.51,0c0-1.27-.18-2.38-.53-3.32-.36-.95-.85-1.74-1.48-2.38-.63-.63-1.38-1.1-2.25-1.42-.87-.31-1.81-.46-2.85-.46s-1.99,.15-2.85,.46c-.87,.32-1.62,.79-2.24,1.42-.63,.64-1.13,1.42-1.48,2.38-.36,.95-.54,2.05-.54,3.32s.18,2.38,.54,3.32c.35,.95,.85,1.74,1.48,2.37,.63,.63,1.37,1.1,2.24,1.41,.87,.32,1.82,.48,2.85,.48s1.98-.16,2.85-.48c.87-.32,1.62-.79,2.25-1.41,.63-.63,1.12-1.42,1.48-2.37,.35-.95,.53-2.05,.53-3.32" style="fill:#909295;"/><path d="M61.32,144.1c-1.19,0-2.28,.17-3.29,.51-1,.34-1.86,.84-2.58,1.5-.72,.65-1.28,1.46-1.68,2.42-.41,.96-.61,2.05-.61,3.29s.19,2.3,.55,3.23c.37,.93,.9,1.7,1.58,2.33,.69,.63,1.53,1.09,2.52,1.41,1,.32,2.12,.47,3.38,.47,.9,0,1.82-.06,2.76-.19,.94-.12,1.81-.3,2.64-.54v3.29c-.84,.2-1.73,.37-2.69,.49-.96,.12-1.96,.18-2.99,.18-2.02,0-3.79-.25-5.33-.75-1.53-.5-2.81-1.21-3.84-2.14-1.03-.92-1.8-2.02-2.31-3.3-.52-1.28-.77-2.7-.77-4.25s.27-3.06,.83-4.42c.55-1.36,1.34-2.54,2.38-3.53,1.04-1,2.34-1.78,3.9-2.35,1.57-.57,3.33-.86,5.3-.87,1.01,0,1.96,.06,2.87,.18,.9,.12,1.71,.29,2.44,.51v3.24c-.95-.26-1.83-.44-2.65-.54-.82-.11-1.62-.15-2.41-.15" style="fill:#909295;"/><rect x="71.05" y="141.26" width="4.36" height="20.83" style="fill:#909295;"/><path d="M94.75,156.79h-8.97l-2.33,5.31h-4.65l9.46-20.83h3.99l9.46,20.83h-4.61l-2.33-5.31Zm-4.52-10.51c-.84,2.18-1.58,4-2.23,5.47l-.82,1.85h6.16l-.81-1.85c-.65-1.48-1.39-3.3-2.23-5.47h-.07Z" style="fill:#909295;"/><polygon points="109.45 141.26 109.45 158.9 120.6 158.9 120.6 162.09 105.08 162.09 105.08 141.26 109.45 141.26" style="fill:#909295;"/><path d="M132.21,162.1v-20.83h6.31c.56,0,1.13,.01,1.7,.04,.58,.03,1.14,.08,1.68,.14,.54,.06,1.07,.14,1.58,.22,.51,.09,.98,.2,1.4,.32,1.27,.35,2.4,.83,3.37,1.43,.98,.61,1.79,1.32,2.45,2.14,.66,.82,1.16,1.73,1.5,2.75,.33,1.02,.51,2.11,.51,3.29,0,1.12-.14,2.17-.43,3.16-.28,.98-.72,1.88-1.3,2.69-.58,.8-1.32,1.52-2.2,2.14-.89,.61-1.93,1.12-3.14,1.52-1.01,.33-2.15,.58-3.43,.74-1.28,.17-2.73,.25-4.33,.25h-5.66Zm6.16-3.19c2.55,0,4.55-.3,5.98-.92,1.27-.55,2.23-1.35,2.88-2.4,.66-1.05,.98-2.39,.98-4.02,0-.85-.11-1.62-.32-2.3-.22-.69-.53-1.29-.93-1.83-.4-.53-.89-.99-1.47-1.37-.58-.39-1.23-.71-1.95-.95-.68-.23-1.44-.39-2.27-.5s-1.76-.16-2.8-.16h-1.92v14.45h1.8Z" style="fill:#909295;"/><polygon points="161.71 158.9 173.43 158.9 173.43 162.1 157.35 162.1 157.35 141.26 172.79 141.26 172.79 144.45 161.71 144.45 161.71 149.84 171.22 149.84 171.22 153.03 161.71 153.03 161.71 158.9" style="fill:#909295;"/><path d="M186.9,157c.44-1.13,.75-1.94,.95-2.42,.2-.48,.61-1.47,1.24-2.97l4.42-10.35h4.61l-9.31,20.83h-3.92l-9.31-20.83h4.65l4.41,10.35c.63,1.5,1.05,2.49,1.24,2.97,.2,.48,.51,1.29,.96,2.42h.07Z" style="fill:#909295;"/><polygon points="205.69 158.9 217.41 158.9 217.41 162.1 201.33 162.1 201.33 141.26 216.77 141.26 216.77 144.45 205.69 144.45 205.69 149.84 215.2 149.84 215.2 153.03 205.69 153.03 205.69 158.9" style="fill:#909295;"/><polygon points="226.41 141.26 226.41 158.9 237.56 158.9 237.56 162.09 222.04 162.09 222.04 141.26 226.41 141.26" style="fill:#909295;"/><path d="M262.39,151.68c0,1.59-.26,3.05-.77,4.37-.52,1.32-1.27,2.46-2.26,3.42-1,.95-2.21,1.7-3.66,2.23-1.44,.53-3.08,.79-4.92,.79s-3.48-.27-4.93-.79c-1.44-.53-2.66-1.27-3.65-2.23-.99-.95-1.75-2.09-2.27-3.42-.51-1.32-.77-2.78-.77-4.37s.26-3.04,.77-4.37c.52-1.32,1.28-2.46,2.27-3.42,.99-.95,2.21-1.7,3.65-2.23,1.44-.53,3.08-.79,4.93-.79s3.48,.27,4.92,.79c1.45,.53,2.66,1.27,3.66,2.23,.99,.95,1.74,2.09,2.26,3.42,.51,1.32,.77,2.78,.77,4.37m-4.51,0c0-1.27-.18-2.38-.53-3.32-.36-.95-.85-1.74-1.48-2.38-.63-.63-1.38-1.1-2.25-1.42-.87-.31-1.81-.46-2.85-.46s-1.99,.15-2.85,.46c-.87,.32-1.62,.79-2.24,1.42-.63,.64-1.13,1.42-1.48,2.38-.36,.95-.54,2.05-.54,3.32s.18,2.38,.54,3.32c.35,.95,.85,1.74,1.48,2.37,.63,.63,1.37,1.1,2.24,1.41,.87,.32,1.82,.48,2.85,.48s1.98-.16,2.85-.48c.87-.32,1.62-.79,2.25-1.41,.63-.63,1.12-1.42,1.48-2.37,.35-.95,.53-2.05,.53-3.32" style="fill:#909295;"/><path d="M273.61,154.03c-.39,0-.78,0-1.16-.02-.38,0-.74-.03-1.07-.06v8.15h-4.36v-20.83h6.88c1.15,0,2.15,.04,3.02,.13,.86,.09,1.63,.22,2.3,.4,1.63,.44,2.88,1.13,3.76,2.09,.89,.95,1.32,2.17,1.32,3.64,0,1.01-.24,1.91-.72,2.72-.47,.8-1.17,1.49-2.08,2.05-.92,.56-2.03,.99-3.35,1.29-1.32,.3-2.83,.45-4.54,.45m-2.23-3.29c.25,.03,.57,.06,.95,.07,.38,.02,.79,.02,1.2,.02,1.18,0,2.16-.08,2.96-.25,.8-.17,1.44-.4,1.92-.69,.48-.3,.84-.66,1.05-1.08,.21-.42,.32-.88,.32-1.37,0-.61-.16-1.14-.48-1.59-.32-.45-.88-.79-1.68-1.05-.41-.12-.93-.21-1.54-.27-.61-.06-1.36-.09-2.25-.09h-2.46v6.29Z" style="fill:#909295;"/><path d="M301.18,156.5c.53-1.64,1.17-3.4,1.94-5.28l4.12-9.96h6.13v20.83h-4.37v-10.55c0-1.55,.07-3.34,.22-5.39h-.16c-.2,.59-.44,1.26-.71,1.99s-.56,1.47-.85,2.18l-4.93,11.77h-2.82l-4.93-11.77c-.3-.71-.58-1.44-.85-2.18-.28-.74-.51-1.4-.72-1.99h-.16c.15,1.92,.22,3.71,.22,5.37v10.57h-4.36v-20.83h6.09l4.12,9.92c.69,1.65,1.34,3.42,1.94,5.32h.11Z" style="fill:#909295;"/><polygon points="323.43 158.9 335.15 158.9 335.15 162.1 319.07 162.1 319.07 141.26 334.51 141.26 334.51 144.45 323.43 144.45 323.43 149.84 332.94 149.84 332.94 153.03 323.43 153.03 323.43 158.9" style="fill:#909295;"/><path d="M352.2,150.95c1.71,2.13,3.1,4.02,4.17,5.67h.11c-.14-2.71-.22-4.69-.22-5.92v-9.44h4.36v20.83h-4.57l-7.77-9.59c-1.37-1.66-2.78-3.58-4.24-5.77h-.11c.14,2.56,.21,4.53,.21,5.94v9.43h-4.36v-20.83h4.58l7.84,9.69Z" style="fill:#909295;"/><polygon points="376.07 162.09 371.7 162.09 371.7 144.46 364.01 144.46 364.01 141.26 383.74 141.26 383.74 144.46 376.07 144.46 376.07 162.09" style="fill:#909295;"/><path d="M411.9,146.81c0,.9-.23,1.73-.69,2.48-.46,.76-1.23,1.38-2.3,1.88v.06c.59,.18,1.14,.4,1.63,.68,.5,.27,.92,.6,1.27,.98,.35,.38,.63,.81,.82,1.29,.2,.48,.3,1.01,.3,1.6,0,.51-.09,1.05-.28,1.63-.19,.58-.51,1.15-.97,1.69-.46,.54-1.08,1.05-1.85,1.5-.77,.45-1.75,.82-2.92,1.09-.3,.06-.62,.12-.97,.17-.35,.05-.74,.09-1.16,.13-.43,.04-.9,.06-1.43,.07-.52,.02-1.11,.02-1.76,.02h-6.93v-20.83h8.28c1.77,0,3.19,.15,4.28,.47,.8,.23,1.5,.53,2.1,.89,.59,.37,1.09,.78,1.47,1.23,.38,.45,.67,.93,.85,1.44,.19,.5,.27,1.01,.27,1.52m-8.96,3.04c1.19,0,2.07-.11,2.66-.32,.65-.24,1.12-.57,1.4-.99s.41-.89,.41-1.42-.16-1.04-.48-1.47c-.32-.43-.87-.75-1.64-.95-.32-.08-.69-.14-1.13-.18-.43-.04-.95-.06-1.58-.06h-3.58v5.39h3.94Zm-3.94,3.19v5.87h2.85c.76,0,1.42-.02,1.96-.06,.54-.04,1.02-.1,1.41-.18,.61-.12,1.11-.27,1.52-.46,.4-.19,.73-.41,.98-.65,.25-.24,.43-.51,.53-.81,.11-.3,.17-.61,.17-.94,0-.58-.19-1.09-.56-1.53-.37-.43-.94-.76-1.73-.98-.34-.09-.75-.16-1.21-.2-.46-.04-1.05-.06-1.78-.06h-4.13Z" style="fill:#909295;"/><path d="M431.02,156.79h-8.97l-2.34,5.31h-4.65l9.46-20.83h3.99l9.46,20.83h-4.61l-2.33-5.31Zm-4.52-10.51c-.84,2.18-1.58,4-2.23,5.47l-.82,1.85h6.16l-.81-1.85c-.64-1.48-1.39-3.3-2.23-5.47h-.07Z" style="fill:#909295;"/><path d="M453.77,150.95c1.71,2.13,3.1,4.02,4.17,5.67h.11c-.14-2.71-.22-4.69-.22-5.92v-9.44h4.36v20.83h-4.57l-7.77-9.59c-1.37-1.66-2.78-3.58-4.24-5.77h-.11c.14,2.56,.21,4.53,.21,5.94v9.43h-4.36v-20.83h4.58l7.84,9.69Z" style="fill:#909295;"/><polygon points="467.89 162.09 467.89 141.26 472.25 141.26 472.25 150.74 472.33 150.74 481.32 141.26 486.74 141.26 476.8 151.59 487.55 162.09 481.96 162.09 472.33 152.69 472.25 152.69 472.25 162.09 467.89 162.09" style="fill:#909295;"/></g><g style="clip-path:url(#clippath-1);"><rect x="467.76" y="-8.05" width="236.62" height="213.15" transform="translate(205.57 555.04) rotate(-59.73)" style="fill:url(#linear-gradient);"/></g></svg>