<?xml version="1.0" encoding="UTF-8"?>
<svg id="svg83" xmlns="http://www.w3.org/2000/svg" viewBox="0 0 513.07 451.76"><g id="Layer1000"><path id="path2" d="M55.7,200.14l.28,10.18c.77,9.3,1.83,19.28,3.63,28.25,1.19,5.97,2.58,11.53,4.18,16.99,.8,2.74,1.56,5.27,2.48,7.97,5.14,15.08,12.05,29.51,20.51,43l13.39,18.76-5.95,5.81c-2.6-1.8-11.64-12.87-13.73-15.66l-4.56-6.42c-4.25-5.87-8.92-14.35-12.23-20.96-4.14-8.27-8.14-16.67-11.57-25.29-.52-1.31-1.39-4.39-2.43-5.15,0,1.32-.31,1.94-.55,3.11-1.2,5.95-9.61,43.22-9.65,45.23-1.63,0-3.23-.37-4.92-.57-1.41-.17-3.46-.46-4.83-.66-5.31-.77-25.97-3.12-29.73-4,4.85,9.16,10.76,19.31,16.63,28.06,6.92,10.31,10.76,16.26,18.45,26.51l11.32,14.3c4.37,5.59,10.17,11.61,15.13,16.76l12.81,12.81c2.57,2.37,15.92,14.54,17.72,14.69,.42-1.59,7.42-9.82,8.89-12.02l15.51,9.85c1.38,.83,2.52,1.57,3.93,2.34,1.51,.82,2.65,1.58,4.18,2.35,1.42,.72,2.63,1.49,4.01,2.26,9.64,5.39,25.29,12.19,35.49,15.75,1.65,.58,3.2,1.1,4.83,1.71,9.64,3.61,19.8,5.87,29.8,8.37,3.31,.83,6.98,1.49,10.66,2.15,3.77,.68,7.07,1.26,10.98,1.83,8.96,1.32,26.28,3.28,35.16,3.28,2.39,0,3.77-.28,6.02-.26,2.98,.03,14.66-1.08,17.86-1.49,16.55-2.13,27.76-3.79,43.49-7.76,3.5-.88,6.85-1.73,10.08-2.73,11.94-3.69,26.21-8.65,37.37-14.14l6.34-3.07c.61-.31,.51-.32,1-.57l5.39-2.71c8.93-4.46,19.68-11.55,28.07-17.16,2.45,1.64,8.07,10.42,10.46,12.02,2.5-1.67,11.61-9.39,13.8-11.56,.58-.58,.96-1.04,1.59-1.55l3.24-3.03c.71-.66,1.11-.83,1.84-1.56l9.54-9.54c1.18-1.17,1.93-2.2,3.14-3.4,1.16-1.16,1.86-2.14,3.01-3.27,.64-.63,.99-.96,1.5-1.63,.58-.77,1-1.05,1.63-1.77l2.88-3.4c1.12-1.13,1.94-2.33,3.01-3.53,1.02-1.14,1.86-2.22,2.86-3.41,1.05-1.24,1.87-2.38,2.9-3.64,4.79-5.85,9.3-12.06,13.66-18.23l5.23-7.58c6.02-9.03,11.83-18.31,17.25-27.71,.78-1.35,1.51-2.59,2.28-4,.74-1.36,2.05-2.78,2.18-4.35-3.17,.74-6.47,.9-9.63,1.35l-19.61,2.61c-1.5,.22-3.17,.38-4.87,.62-1.55,.23-3.66,.64-5.11,.64,0-2.09-1.98-9.98-2.46-12.17l-7.15-33.1c-.23-1.09-.57-2.02-.59-3.07-.99,.72-1.86,3.88-2.31,5l-6.76,15.45c-2.48,5.8-5.55,11.46-8.62,16.99-.5,.89-.92,1.67-1.4,2.52-.87,1.52-1.79,2.97-2.75,4.57-2.76,4.58-5.74,9.04-8.93,13.29-1.08,1.45-2.15,2.74-3.22,4.1-.49,.63-1.07,1.41-1.64,2.02-.69,.74-1.03,1.28-1.7,1.96-2.28,2.34-4.75,5.75-7.39,7.51l-6.08-6.21c1.2-1.76,2.57-3.21,3.77-4.97l7.32-10.45c2.4-3.58,4.47-7.4,6.7-11.08,1.15-1.9,2-3.88,3.14-5.75,5.12-8.41,12.52-28.08,15.22-37.84,3.32-11.99,5.7-24.56,7.02-37.14l.57-8.31c.02-1.47-.01-2.98-.02-4.46,0-1.78,.27-2.39,.28-4.17,0-1.82-.28-2.5-.28-4.17,0-1.48,0-2.97,.02-4.46,.02-4.1-.86-12.27-1.43-16.34-2.03-14.69-5.49-29.21-10.25-42.8-6.65-19-18.56-41.09-31.56-57.04-1.39-1.7-2.64-3.16-3.99-4.9-.47-.61-.45-.59-.96-1.13-.55-.58-.57-.72-1.06-1.29l-23.38-22.89-16.66-12.35c-1.86-1.21-3.29-2.23-5.24-3.39-3.75-2.24-7.38-4.52-11.31-6.47-20.9-10.41-35.5-15.74-59.38-20.36-12.71-2.46-25.57-3.07-38.77-3.07-8.05,0-15.68,.73-22.97,1.61-12.18,1.47-28.91,5.1-40.21,9.47l-19.64,8.08-8.28,4.26c-8.84,4.47-20.6,12.25-28.09,18.44-.64,.53-1.11,.82-1.78,1.35l-3.44,2.83c-.68,.63-1.05,.87-1.7,1.44l-3.15,2.86c-.74,.62-.99,.73-1.69,1.45-.58,.58-.97,1.04-1.59,1.54-2.02,1.61-7.53,6.97-9.38,9.18l-2.99,3.28c-4.6,5.76-9.7,11.12-13.87,17.23-.88,1.29-1.75,2.36-2.62,3.65l-9.57,15.26c-4.75,7.87-8.64,16.56-12.04,25.07-2.44,6.11-4.38,12.2-6.35,18.48-3.69,11.8-6.69,29.96-7.02,42.63l-.53,12.01Z" style="fill-rule:evenodd;"/><path id="path4" d="M256.19,5.22c107.75,0,195.1,87.24,195.1,194.87s-87.35,194.87-195.1,194.87S61.09,307.71,61.09,200.09c0-107.62,87.35-194.87,195.1-194.87h0Z" style="fill:#94d4f6; fill-rule:evenodd;"/><path id="path6" d="M246.59,34.48c-.33-.66-.63-1.34-.86-2.15-.67-2.39-.33-4.66,.77-6.87,.84-1.69,1.92-3.15,3.52-4.19,1.06-.69,2.11-1.04,3.26-1.5,.03-.77,.07-1.67,.01-1.86-.06-.22-.72-.9-.87-1.07-.98-1.05-1.89-2.18-2.94-3.16l-.93-.87,.63-1.11c.55-.96,1.73-2.16,2.5-2.98,.7-.74,1.42-1.47,2.11-2.23,.46-.51,1.06-1.32,1.67-1.62,.36-.18,.73-.22,1.11-.32l.96-.26,7.42,8.29-1.01,1.08c-.43,.46-3.6,3.58-3.77,4.06-.09,.25-.07,1.17-.05,2,3.05,.88,5.45,2.99,6.83,5.93,1,2.14,1.31,4.31,.69,6.6-.22,.82-.53,1.54-.88,2.24,10.59,1.31,27.05,4.06,34.79,9.82,.94,.7,1.85,1.41,2.73,2.19,.03,.03,.09,.08,.14,.11,.39-.03,1.36-.32,1.76-.39,3.73-.63,7.42-.66,10.65,1.55,1.5,1.02,2.71,2.37,3.9,3.72,7.75,8.8,9.79,16.04,10.3,27.63,.13,2.9,.44,6.87-.88,9.54-.98,1.98-2.94,3.6-4.57,5.04-2.22,1.94-4.54,3.48-7.2,4.76-1.08,.52-2.51,1.06-3.65,1.69,.07,.84,.18,1.67,.37,2.5,.17,.76,.4,1.51,.36,2.3-.07,1.45-1.09,2.68-1.98,3.75l-4.72,5.7c-.74,.91-1.34,1.9-2.06,2.8-1.01,1.25-2.24,2.06-3.63,2.84-2.37,1.32-5.29,2.32-7.91,3.06-5.84,1.64-11.98,2.65-18.01,3.32-6.82,.76-13.72,1.09-20.58,1.08-6.88,0-13.79-.35-20.63-1.12-6.03-.68-12.18-1.69-18.03-3.33-2.64-.74-5.7-1.68-8.09-3.06-1.48-.86-2.53-1.8-3.5-3.2-.64-.93-1.16-1.85-1.9-2.71-1.53-1.79-3.16-3.58-4.6-5.43-.79-1.01-1.55-2.08-1.7-3.38-.11-.88,.07-1.73,.24-2.58,.16-.84,.31-1.65,.42-2.48-1.76-.79-3.53-1.49-5.22-2.49-1.99-1.18-3.81-2.46-5.56-3.98-1.59-1.37-3.47-2.9-4.48-4.77-1.46-2.73-1.16-6.85-1.03-9.86,.23-5.35,.85-11.05,2.87-16.05,1.34-3.3,3.07-6.4,5.27-9.2,1.8-2.29,3.73-4.72,6.25-6.24,3.25-1.96,6.84-2.02,10.49-1.38,.49,.09,1.17,.31,1.66,.39,.11-.08,.23-.2,.3-.27,7.97-7.48,25.67-10.46,37.24-11.86h0Z" style="fill-rule:evenodd;"/><path id="path8" d="M294.75,121.54c-20.76,5.84-55.68,5.74-76.38-.06-11.07-3.1-9.79-5.05-12.71-8.47-7.97-9.33-5.9-6.13-5.13-13.8-2.12-1.02-4.11-1.71-6.13-2.91-2.06-1.22-3.67-2.38-5.33-3.81-4.79-4.13-5.32-4.67-4.95-13.34,.24-5.44,.88-10.88,2.76-15.51,1.3-3.22,2.96-6.16,5.04-8.81,4.06-5.15,6.99-8.47,15.2-7.03,2.1,.37,2.09,.88,3.34-.29,8.15-7.65,27.63-10.47,38.6-11.7-.97-2.17-3.36-5.07-1.11-9.64,2.09-4.22,4.66-4.18,6.9-5.35,0-3.42,.54-3.17-1.25-5.09-1.06-1.13-1.93-2.22-3.01-3.24,.58-1.01,3.31-3.72,4.4-4.92,1.44-1.58,.83-1.15,2.01-1.47l5.77,6.44c-5,5.33-4.22,3.4-4.22,8.45,3.45,.57,5.74,2.75,6.94,5.32,2.05,4.39-.07,7.1-1.19,9.48,10.26,1.18,28.4,3.91,36.29,9.79,1,.75,1.77,1.35,2.62,2.1,1.04,.93,1.51,.4,3.24,.11,7.51-1.27,9.9,1.15,13.07,4.75,7.27,8.25,9.38,14.95,9.9,26.63,.37,8.42,.02,8.99-4.9,13.29-5.23,4.57-9.18,5.2-11.44,6.8,.22,5.88,2.09,4.88-.82,8.39l-4.73,5.71c-2.12,2.61-1.84,3.35-5.22,5.24-2.09,1.17-5.01,2.2-7.55,2.91h0Z" style="fill:#fe8a3e; fill-rule:evenodd;"/><path id="path10" d="M239.72,362.92c.74-.53,.72-.74,1.34-1.62,.41-.58,.77-1.05,1.13-1.77-.51-1.52-1.23-1.45-1.34-3.91-.08-1.63-.14-3.43,.36-4.92l.14-.31-.14,.31c-3.81-.29-20.4-3.84-23.41-5.54-.79-8.94,.95-14.19-2.07-24.28-1.59-5.29-5.88-12.68-9.26-16.88-1.35,6.62-2.56,15.8-1.39,22.57,1.53,8.88,5.41,11.8,7.88,17.27-3.67-.74-10.93-3.56-14.32-5.11-.38-3.71,.25-9.24,.03-13.45-.21-4.04-.76-7.8-2.2-11.3-1.44-3.51-8.01-14.23-10.28-17.14-.92,1.65-1.84,8.82-2.05,11.2-1.36,15.69,7.96,20.24,10.76,29.06-2.91-.83-11.43-5.25-13.58-6.84-.18-3.82,.23-8.02,.07-12.03-.26-6.74-1.28-13.83-4.13-19.83-1.06-2.23-3.85-6.1-5.2-6.88-1.75,3.21-3.06,16.11-1.81,20.93,1.56,5.98,6.29,10.71,7.62,15.98-3.36-1.19-9.33-6.19-12.63-8.34-1.36-.89-2.58-2-3.84-2.92,1.25-3.19,2.5-5.54,3.4-9.3,1.74-7.31,2.47-15.49,.77-22.89-.94-4.08-1.9-5.93-3.9-8.75-.53,3.34-.76,6.22-1.5,9.48-2.55,11.17-5,15.01-3.37,27.53-1.66-1.14-6.47-5.25-7.4-6.76,2.97-4.93,5.17-11.47,6.19-18.27,.55-3.68,.69-7.69,.1-11.36-.29-1.8-.7-3.44-1.3-4.99l-1.58-3.12c-.19-.28-.19-.25-.36-.44l-.28-.27c-6.88,8.19-6.33,22.93-5.97,35.15-1.83-.97-9.31-10.21-9.7-11.07,4.28-7.23,9.89-17.56,10.07-26.65,.06-2.66-.36-5.22-1.54-7.51l-1.24-1.74c-2.74,3.26-6.02,9.08-7.76,14.03-3.13,8.89-1.06,11.69-1.65,19.21-1.85-2.04-6.02-7.46-6.79-9.72,1.18-1.23,3.71-6.08,4.77-7.92,3.22-5.58,6.16-11.82,7.09-18.47,.75-5.3-.12-6.97-1.27-11.29l-.95,.95c-.29,.39-.44,.64-.63,.91l-3.5,5.38c-8.9,14.57-4.34,24.67-6.84,28.66-2.51-3.81-5.74-9.35-7.4-13.71,1.08-.41,4.57-5.54,5.52-6.69,4.56-5.57,12.49-20.17,7.53-26.97-6.43,8.56-13.44,17.91-14.88,29.29l-1.01-1.46c-.2-.48-.36-.92-.59-1.48l-3.23-8.47c.87-1.28,2.25-2.11,3.3-3.18,7.15-7.28,15.36-18.78,13.35-29.8-1.24,.55-2.15,1.67-3.24,2.55-3.1,2.49-5.8,5.54-8.34,8.64-4.56,5.58-4.68,9.25-7.04,15.45-.72-1.62-1.37-4.49-1.84-6.34-1.8-7.01-2.27-5.45,.35-8.48,2.39-2.75,5.17-5.42,7.22-8.47,2.8-4.17,4.92-5.85,7.53-11.54,1.68-3.66,2.29-5.8,1.61-10.16-.84,.36-1.08,.7-1.74,1.41l-6.82,6.78c-.97,.91-1.72,1.62-2.63,2.59-7.57,8.15-6.02,9.52-8.3,13.45-.83-1.68-.87-5.24-1.11-7.34-.39-3.49-1.13-3.99,1.08-6.06l8.14-8.06c1.33-1.43,2.57-2.98,3.86-4.52,3.72-4.41,8.78-9.48,7.46-15.98-.86,.4-.35,.08-1.05,.72-4.81,4.4-5.65,5.09-11.05,9.07-3.87,2.85-7.25,6.21-9.31,12.16-.23-2.33-.07-5.47,0-7.85,.13-4.22,.28-3.14,2.79-5.33,5.77-5.02,11.73-9.72,16.9-15.51,1.5-1.68,6.21-7.06,4.31-10.79-3.27,2.23-1.14,2.39-11.93,8.66-5.28,3.07-7.13,4.22-11.03,9.44,.22-2.08,.54-4.21,.87-6.26,.56-3.59,0-2.87,2.53-4.54,5.63-3.71,11.87-7.55,17.05-11.72,2.79-2.24,5.21-5.42,4.21-9.23-.65,.26-1.49,1.05-2.25,1.53-4.06,2.55-9.35,3.11-13.57,5.25-1.66,.84-3.07,2.1-4.56,3.03,.67-6.02,2.06-5.29,6.19-7.39,3.06-1.56,5.96-3.14,8.68-4.93,3.51-2.31,13.82-8.79,11.39-14.77-1.46,.92-2.88,2.39-4.8,3.59-3.4,2.12-7.53,3.34-11.19,5.01-.91,.42-1.98,.98-2.73,1.45l-2.43,1.4c1.09-1.91,1.96-5.17,3.19-7.44,5.21-.94,9.09-2.62,13.32-4.72,1.98-.99,3.83-2.26,5.5-3.4,1.07-.74,4.25-3.24,3.84-4.59-1.2-.26-3.45,2.44-9.97,2.31-6.96-.14-8.92,3.57-9.02,3.34-.02-.04-.09,.18-.2,.17l-.15-.36c1.35-1.82,2.02-4.53,3.62-6.36,5.01-.12,9.11-.38,13.3-2.23,3.12-1.37,7.24-3.87,8.35-7.11-3.57,.37-6.07,.79-9.9,.91-4.68,.15-4.72,.69-8.11,2.18l3.69-5.55c6.38-.21,20.07-.64,22.2-8.63-3.29,.49-5.34,.79-8.88,.76-4.07-.03-4.74,0-8.35,.99,.55-.94,1.68-2.32,2.33-3.12,.98-1.19,1.17-2.31,3-2.23,6.05,.26,12.7-.03,17.72-3.46,1.75-1.2,4.41-3.34,5.39-5.22-6.41-.08-10.08-1.7-16.27-.27,.68-1.24,2.31-2.7,3.34-3.58,4.78,1.74,10.44,2.07,15.61,.94,1.2-.26,3.93-.41,4.32-1.6-.47-.78-2.45-1.22-3.39-1.73-3.78-2.06-6.86-3.31-11.41-2.52,.47-.77,2.75-2.75,3.65-3.25,7.17,3.76,17.39,2.88,21.71-4.26l-1.9-.71c-6.21-1.61-7.4-1.67-13.94-.09,1.4-1.7,3.6-2.95,5.29-4.27,.68-.53,1-1.12,1.78-1.01,2.18,.29,4.89,1.45,7.75,1.53,2.02,.06,2.16-.05,2.35,.13,.39-1.68,.89-3.33,1.53-4.91,.38-.94,.79-1.86,1.24-2.77-2.67,.15-4.3,.67-6.43,1.08,1.69-1.43,5.27-3.64,7.43-5.06,.81-.53,1.54-1.13,2.09-1.2,.3-.42,.62-.84,.94-1.25,.77-.98,1.56-1.98,2.42-2.93l-2.34,1.07c1.31-5.03,8.84-10.74,11.04-13.68,2.49-3.32,4.34-6.68,2.62-11.03-2.3,3.96-7.65,7.55-10.79,10.96-2.69,2.91-7.69,8.62-4.9,14.81l-13.05,7.61c1.29-4.23,5.57-7.7,8.04-11.17,4.18-5.88,3.99-7.82,2.78-14.56-.16,.23-.09,.1-.3,.56-.13,.28-.11,.28-.22,.59-1.73,4.88-5.94,7.74-9.52,11.13-8.44,8-3.79,11.95-2.92,15.33-3.53,1.22-9.38,6.95-12.95,8.98-.12-4.43,4.79-10.81,6.59-13.72,2.83-4.59,5.38-9.21,3.06-15.7-.78,1.43-.78,2.5-1.88,4.07-4.2,5.99-11.53,9.16-11.77,17.59-.12,4.12,1.15,6.16,2.13,9.4-3.77,2.85-11.54,10.45-12.68,11.21,.89-3.98,4.46-9.59,6.24-13.25,2.12-4.36,3.15-11.24,.3-15.68-1.37,6.72-5.49,10.92-8.52,15.56-3.41,5.24-6.77,11.06-1.78,16.98-.55,1.24-6.97,7.88-8.05,9.17-.67-11.02,11.12-23.7-1.13-24.38-.1,8.1-6.45,14.15-5.04,22.24,.56,3.24,1.75,3.89,2.83,6.37-.55,1.15-2.06,2.93-2.93,3.97l-2.83,3.8c-1.36-10.89,4.77-23.25-4.88-24.69-.13,8.05-1.1,8.85-1.85,15.74-.78,7.16,.84,8.47,3.79,13.72-.49,.91-3.41,6.13-4.3,6.85-.14-6.35,.64-13.19-3.76-18.14-.95-1.07-2.47-2.81-4.17-3.43-1.07,8.42-2.79,13.93,1.01,21.75,2.59,5.33,4.52,4.77,2.95,7.99-.9,1.86-3.17,7.64-4.06,8.82-.44-4.91,.63-10.1-1.25-14.46-1.26-2.91-4.55-7.01-7.35-8.38l-.16,.4c-.86,2.65-.88,7.99-.73,10.56,.21,3.4,1.16,6.5,2.61,9.07,5.18,9.15,5.76,5.56,3.78,11.64-.41,1.28-.76,2.76-1.39,3.93l-.26,.39c-1.59-15.2-6.84-10.84-9.51-19.05-.74-2.27,.01-2.35-1.44-2.44-.7,2-.27,9.7,.13,12.14,.86,5.25,3.12,9.12,5.83,13.21,.75,1.13,2.19,2.61,2.7,3.59,.6,1.16-.33,3.61-.64,5.1-.17,.79-.36,1.74-.52,2.57-.16,.81-.3,1.93-.71,2.6-1-5.17-2.25-9.73-4.73-13.61-2.16-3.39-5.69-7.54-8.42-9.35,.01,7.89,1.62,18.41,4.57,24.7,3.94,8.4,7.43,7.65,7.06,11.47-.32,3.34-.33,6.91-.77,10.24-.86-1.31-2.03-5.84-2.76-7.73-.98-2.52-2.01-4.94-3.26-7.19-1.93-3.46-6.09-9.72-9.8-11.16,.35,9.69,1.67,18.14,5.81,25.59,1.85,3.33,4.62,6.82,6.93,8.76,2.39,2.01,3.18,1.66,3.24,4.49,.05,2.47,.3,4.93,.33,7.38-.69-.76-1.65-2.64-2.35-3.68l-3.9-5.25c-4.07-4.75-8.43-9.07-13.67-12.73-1.19-.83-2.08-1.78-3.33-2.36,.26,1.14,1.6,3.78,2.13,5.13,2.48,6.28,5.16,13.73,9.75,18.48,7.18,7.43,7.94,5.77,12.29,8.78l1.6,10.53c-.48-1.01-1.9-2.21-2.64-3.11-2.68-3.26-5.84-5.94-9.07-8.72-3.2-2.75-8.94-6.5-11.72-9.21-.81-.79-.67-.83-1.55-1.32,.47,2.68,2.56,8.11,3.69,10.41,1.78,3.62,3.05,5.86,5.49,8.62,2.6,2.94,2.77,2.91,5.53,5.19,3.5,2.9,7.17,4.1,11.81,5.71l3.31,11.61c-1.58-.97-4.31-4.25-6.24-5.82-.76-.61-.84-.7-1.63-1.5-.57-.57-.99-.8-1.58-1.31-2.15-1.82-4.14-3.7-6.47-5.28-2.86-1.95-7.54-5.7-10.96-6.39,1.2,7.14,5.06,13.11,9.93,17.62,5.06,4.7,10.33,6.87,18.89,8.56l4.02,9.78c-1.56-.73-4.55-3.42-6.32-4.6-2.14-1.43-4.33-2.66-6.81-3.91-4.26-2.16-10.81-4.64-15.96-5.71,.61,3.02,3.07,7.11,4.55,9.02,1.92,2.47,4.31,4.56,6.9,6.43,5.31,3.83,13.08,5.59,21.03,5.68l7.02,12.18c-5.21-2.6-5.69-4.34-14.35-7.51-5.39-1.97-11.88-3.48-18.06-4.07,.38,.86-.05,.07,.55,.94l3.4,4.17c7.76,8.22,15.45,15.16,27.75,15.96,3.82,.25,6.82-.87,7.84,.46l3.81,5c-2.38-.35-4.64-.99-7.2-1.29-2.54-.3-5.09-.51-7.68-.72-5.03-.41-10.13-1.03-15.06-1.36,1.34,1.7,7.22,5.82,9.88,7.31,9.24,5.16,17.58,6.45,28.22,5.56,1.39-.12,1.74,.7,2.61,1.52l6,5.52s.1,.11,.14,.15l.4,.51c-10.58-2.6-21.67-4.85-33.87-2.25,1.84,1.13,4.44,2.15,6.35,3.19,10.29,5.61,18.06,8.88,30.45,7.18,4.22-.58,5.47-1.82,7.72-.12,1.24,.94,10.72,7.41,11.48,7.51-2.78,.21-14.81-3.11-29.32-1.3-1.57,.2-3.16,.48-4.7,.79-1.22,.25-3.08,.43-4.04,1.25,1.84,.83,3.81,2.29,5.74,3.15,11.75,5.25,26.13,5.5,38.76,3.87,2.52-.33,5.43-1.37,7.57-.24,1.71,.9,3.52,1.44,5.16,2.42,.76,.45,.32,.14,.66,.52-10.95,1.87-20.09,4.07-30.57,7.04-1.1,.31-3.26,.5-3.78,1.49,.39,.85-.56,.22,.93,.71,.14,.04,1.07,.21,1.31,.25,13.3,2.59,26.41,3.73,38.66-2.99,4.91-2.7,2.44-2.9,8.26-.79,6.11,2.21,12.41,4.19,18.74,5.85,2.67,.7,7.51,1.63,9.76,2.55-3.51,1.07-7.37,1.76-10.91,2.79-3.53,1.03-6.84,2.08-10.29,3.31-2.55,.91-16.03,6.03-18.44,8.03-.58,.48,0-.16-.48,.52,1.45,.46,3.44,1.84,5.27,2.62,13.01,5.57,18.33-1.59,27.74-7.29,1.27-.77,9.06-4.9,10.49-4.34h0Z" style="fill:#037433; fill-rule:evenodd;"/><path id="path12" d="M323.94,55.48c.07-.07-.05,.06,.39,.14,.85,.16,8.26,5.42,8.61,5.75-2.08-.35-3.7-1.1-6.02-1.03,1.24,2.43,2.12,4.9,2.75,7.55,.18,0,.44,0,.85-.07,.13-.02,1.27,0,1.55-.01,5.68-.23,6.6-2.85,9.4-.32,1.61,1.45,3.57,2.58,5.03,4.12-2.94-.53-4.76-1.55-8.24-1.23-2.62,.24-5.15,1.27-7.69,1.77,1.4,2.79,4.75,5.52,9.01,6.35,5.14,1,8.81-.51,12.94-1.83l3.52,3.15c-3.85-.07-4.5-.72-8.24,.92-1.2,.53-2.1,1.07-3.26,1.7-.62,.34-1.08,.57-1.79,.83-.11,.04-.96,.35-.97,.35-.77,.42-.13-.27-.61,.52,.35,1.01-.56,.25,.86,.81,2.31,.89,6.53,1.43,8.9,1.54,4.82,.22,6.26-.89,10.21-1.64,1.23,.87,2.65,3.04,3.52,3.6-3.49-.51-3.61-1.14-7.88-.52-3.16,.46-5.44,.5-8.61,.76,2.16,2.75,5.08,5.62,9.32,7.21,5.2,1.95,9.25,1.35,14.9,1.43,.78,.29,3.57,4.37,4.21,5.34-3.58-1.12-4.69-1.01-8.66-.99-3.48,.02-5.38-.38-8.57-.75,2.69,7.3,12.83,8.34,22.21,8.62,.67,.77,3.26,4.58,3.59,5.57-6.93-3.66-9.72-1.42-17.93-3.17,.47,1.41,2.56,3.33,3.47,4.17,4.8,4.44,11.72,5.16,18.31,5.22,.98,1.94,2.79,4.54,3.49,6.66-1.28-.87-1.89-1.69-3.68-2.55-3.25-1.56-7.65-.41-11.11-1.43-1.91-.57-2.79-1.37-4.21-1.89l-.51,.5c1.97,3.55,8.46,7.36,13.57,9.54,3.65,1.55,6.21,1.75,8.79,2.71,1.2,.45,3.3,6.38,3.67,7.79-.78-.44-1.55-1.16-2.45-1.68-1-.58-1.66-1-2.71-1.46-1.88-.83-3.82-1.56-5.76-2.35-2.04-.82-3.91-1.72-5.63-2.74-1.72-1.02-3.6-2.96-4.61-3.53-1.11,4.29,1.72,7.14,3.82,9.02,4.85,4.33,10.59,7.77,16.55,10.89,1.05,.55,3.97,1.52,4.51,2.29,.3,.44,1.39,4.46,1.43,5.11-1.56-2.52-7.06-4.33-9.94-5.23-9.7-3.03-6.61-2.98-10.47-4.72-1.17,3.86,1.71,7.1,4.37,9.24,.71,.57,1.26,1.13,1.96,1.7,.81,.67,1.25,.78,2.15,1.51,4.01,3.24,8.57,5.71,12.89,8.55,2.42,1.59,1.92,1.28,2.45,4.58,.32,2,.7,4.17,.83,6.16-4.91-7.46-10.59-8.4-17.35-13.39-2.07-1.52-3.31-3.04-4.91-4.25-.68-.51-.02-.12-.82-.48-.87,4.03,1.45,6.93,3.23,9.32,3.34,4.47,9.41,9.45,13.6,13.08l3.66,3.13c1.19,1.16,2.36,1.93,3.59,3.07l.11,10.81c-.71-1.07-1.13-2.61-1.78-3.77-.69-1.24-1.41-2.31-2.18-3.3-3.81-4.91-15.1-10.94-17.3-14.82-3.21,5.94,10.41,19.89,14.29,23.84,2.16,2.2,4.33,4.14,6.58,6.33l-1.53,12.16c-3.68-9.63-7.26-12.97-13.98-19.23-1.97-1.84-3.61-3.53-5.44-5.4-2.15,5.99,3.89,14.98,6.35,18.35,.98,1.35,1.98,2.38,2.86,3.66,.77,1.12,1.82,2.49,2.83,3.46,1.43,1.37,4.91,5.19,6.04,6.86-.48,2.45-2.48,11.17-3.41,12.74-1.99-6.52-3.48-11.19-7.02-15.49-2.19-2.66-8.78-9.88-11.38-11.09-4.68,7.94,10.91,29.75,16.5,32.6-.29,1.44-3.38,10.37-4.78,11.9-1.96-10.09-4.98-15.31-10.4-23.11-.84-1.21-1.57-2.14-2.3-3.18-.47-.66-.79-1.06-1.19-1.68l-1.13-1.39c-.03-.11-.12-.1-.19-.14-.98,4.36-1.78,5.66-.61,10.75,.77,3.33,2.11,6.01,3.53,8.77,1.84,3.59,4.9,8.08,7.56,11,.95,1.04,2.08,2.2,2.78,3.34-.89,2.21-6.33,12.47-7.43,13.49-1.09-2.02-.86-8.34-.98-10.98-.18-3.79-.82-6.69-2.01-9.96-1.79-4.9-5.94-11.69-8.7-14.94-2.04,5.18-2.2,8.68-.8,14.52,1.56,6.5,4.57,12.26,7.85,17.75,.63,1.05,2.9,4.48,3.15,5.23,.35,1.02-.65,1.9-1.26,2.79-1.56,2.29-3.42,5.34-5.34,7.24-.15-11.27,1.19-16.25-5.09-26.84-.73-1.23-1.31-2.27-2.06-3.43l-2.27-3.05c-4.31,4.78-2.67,13.71-.51,19.69,2.09,5.8,5.21,10.82,7.87,16.21-.58,1.44-8.33,10.42-9.7,11.12,.31-9.51,.93-19.56-2.37-28.61-.75-2.05-1.73-4.39-3.1-6.05l-.55-.53c-1.67,1.63-3.05,6.09-3.5,9.09-1.27,8.63,.92,17.79,4.36,25.62,.61,1.39,1.65,2.83,2.01,4.02-1.9,1.29-5.46,5.54-7.39,6.41,.85-8.17,.92-11.58-1.22-19.26-.77-2.75-1.62-5.6-2.24-8.47-.59-2.73-.83-6.78-1.5-9.17-6.13,7.3-5.56,22.22-3.04,31.73,1.09,4.11,2.91,7.56,3.38,9.25-2.7,1.7-5.28,3.96-7.98,5.8-2.21,1.5-6.09,4.37-8.5,5.4,1.74-5.99,6.1-10.08,7.67-16.18,.91-3.54,.61-7.58,.13-11.24-.22-1.66-1.39-8.63-1.97-9.64-3.99,3.85-6.66,8.62-8.15,16.12-1.81,9.13-.74,14.23-1.1,22.72-1.44,1.19-11.47,6.27-13.58,6.86,.99-2.82,3.41-6.39,4.87-8.81,4.42-7.32,6.67-11.05,5.88-20.29-.21-2.49-.83-8.25-1.87-10.71-.16-.38-.18-.37-.32-.57-1.28,2.67-3.67,5.99-5.28,8.56-9.06,14.45-6.46,16.49-6.98,33.31-1.24,.99-12.13,4.72-14.36,5.24,1.32-2.69,3.25-5.17,4.6-7.99,1.52-3.2,2.58-5.35,3.28-9.26,1.07-5.92,.07-16.89-1.42-22.63-.7,1.23-1.79,2.63-2.62,3.95-5.46,8.73-7.81,13.81-8.53,24.69-.14,2.17-.18,4.35-.18,6.53,0,1.71,.24,4.57,.03,6.1-5.99,2.04-17.2,4.95-23.42,5.47,.47,1.31,.52,4.05,.32,5.67-.29,2.33-1.48,2.66-2.05,3.74,.62,.97,.75,1.81,1.55,2.52,.24-.13,.11-.31,1.48,.05,15.28,4.08,19.88,15.39,32.5,13.54,3.48-.51,9.28-2.81,11.2-4.65-11.62-6.04-25.76-11.27-40.15-14.29,1.95-.88,7.19-1.88,9.75-2.58,3.17-.87,6.4-1.79,9.51-2.77,3.14-.99,6.08-2,9.22-3.07,6.15-2.1,3.11-1.92,8.27,.77,13.17,6.88,24.93,5.53,38.87,2.97,.92-.17,1.7-.19,2.08-.93-.55-.89-.65-.61-2.01-.97l-6.1-1.75c-2.74-.82-5.61-1.51-8.45-2.26-2.87-.75-5.72-1.41-8.67-2.06-2.91-.65-6.47-.89-9.13-1.53,.75-.73,4.68-2.35,5.97-2.96,2.13-1.02,5.1,.02,7.62,.33,12.79,1.57,26.8,1.11,38.72-3.95,1.86-.79,3.79-2.27,5.6-3.04-.58-.56-1.38-.7-2.2-.89-13.25-3-22.41-1.48-35.78,.16,3.97-2.46,7.89-5.1,11.52-7.66,1.71-1.2,1.46-.92,3.71-.48,9.94,1.98,19.15,1.21,28.18-3.21,2.11-1.03,4.28-2.2,6.3-3.36,1.63-.94,5-2.26,6.21-3.17-5.89-1.06-11.71-1.29-17.79-.8-7.62,.62-10.06,2.03-16.1,3.11l1.28-1.23c2.06-1.55,3.72-3.42,5.55-5.16,.92-.88,1-1.45,2.54-1.29,5.84,.59,10.2,.48,15.79-.78,6.85-1.54,12.13-4.6,17.58-8.29,1.37-.93,3.86-3.03,4.52-3.84-7.06,1.02-15.61,1.22-22.97,2.11-2.5,.3-4.7,.94-6.97,1.28l4.42-5.66c1.46-.19,4.96,.34,7.17,.2,2.37-.15,4.38-.54,6.53-1.12,3.89-1.05,7.24-2.9,10.17-4.73,3.77-2.36,12.89-11.02,15.07-15.21-6.13,.55-12.79,2.15-18.12,4.07-2.69,.97-5.25,2.11-7.58,3.41-1.84,1.02-5.17,3.42-6.65,4.04l6.93-12.11c8.88-.21,15.01-1.68,21.15-5.78,4.48-2.99,10.43-9.68,11.36-15.39-5.17,1.15-11.5,3.5-15.83,5.68-3.71,1.87-6.87,3.96-10.17,6.3l-2.97,2.32c-.18-.73,3.41-8.46,3.96-9.75,1.11-.44,4.24-.94,5.64-1.35,4.99-1.43,9.76-4.21,13.29-7.36,2.24-2,4.5-4.44,6.21-7.65,1.51-2.83,3.2-6.32,3.58-9.95-5.05,1.77-11.02,6.49-14.5,9.22-1.17,.92-2.05,1.75-3.23,2.78-2.11,1.84-4.09,3.48-6.11,5.66-.72,.77-2.21,2.26-3.05,2.75l3.39-11.59c8-3.26,11.39-4.42,17.31-10.89,1.82-1.99,4.06-5.6,5.46-8.65,1.1-2.39,3.22-7.67,3.67-10.43l-12.89,10.35c-1.04,.89-2.21,1.64-3.33,2.7-2.13,2.01-3.93,3.57-5.74,5.76-1.12,1.36-1.84,1.54-2.55,3.24-.35-.5-.13,.05-.26-.68-.06-.33-.04-.36,0-.68l.67-3.8c.27-1.71,.48-3.3,.71-5.05,.16-.31,9.67-3.82,15.43-13.04,3.55-5.7,6.03-12.99,8.88-19.45-.86,.41-2.63,1.76-3.47,2.38-3.45,2.56-6.69,5.51-9.58,8.45-2.54,2.59-9.01,9.85-10.28,13.26l.46-9.48c.84-.62,1.32-.81,2-1.41l4.84-5.09c6.84-8.45,8.56-19.13,9.02-30.35-2.06,1-4.23,3.52-5.61,5.02-3.36,3.67-5.63,8.69-7.49,13.42-.52,1.31-.93,2.57-1.37,3.85l-1.31,3.76s-.07,.13-.06,.19l-.85-11.9s6.5-6.68,8.91-14.37c1.36-4.35,3.04-15.46,2.76-20.27-5.17,4.95-8.87,8.35-11.33,15.63l-1.41,5.4c-.05,.28-.11,.59-.18,.87-.02,.07-.04,.15-.06,.21l-.24,.61c-.72-1.43-.86-3.74-1.22-5.39-.42-1.92-1.21-3.51-.33-4.88,.79-1.22,1.82-2.38,2.77-3.77,2.86-4.16,4.9-8.08,5.66-13.46,.27-1.93,.76-10.13-.08-11.45-.98,.08-.61-.19-.97,1.02-1.62,5.49-1.79,4.31-5.73,8.4-3.51,3.66-2.98,6.65-4.21,11.94-.2-.27-.06-.01-.33-.53l-.62-1.76c-.55-1.74-2.4-4.93-1.5-6.34,3.38-5.31,6.91-9.67,7.26-16.48,.13-2.64-.12-8.44-.82-10.84-9.98,8.09-8.23,10.62-8.69,23.08l-4.85-10.91c.48-.97,1.23-1.72,1.83-2.67,5.06-8.01,5.09-15.78,2.83-25.17-8.2,4.35-7.97,13.09-7.82,21.49-.96-.67-1.7-2.34-2.38-3.46-.6-.98-1.7-2.56-1.99-3.57,7.61-7.32,1.52-19.74,2.02-29.13-10.39,1.46-2.89,14.4-4.97,24.67-1.52-2.57-4.37-5.17-5.72-7.76,.28-.76-.13,.03,.46-.89,1.09-1.69,2.02-3.34,2.36-5.43,1.35-8.11-4.95-14.19-5.03-22.28-11.45,.58-1.75,11.46-1.07,24.3-1.26-.74-3.28-3.52-4.21-4.62-1.15-1.36-2.87-2.81-3.9-4.38,.83-1.25,1.56-1.82,2.17-3.79,1.44-4.67-1.69-9.8-3.98-13.3-4.16-6.36-5.86-7.39-8.54-15.52-2.86,4.85-1.74,10.89,.34,15.61,1.53,3.48,5.68,9.68,6.23,13.28l-12.65-11.28c5.62-14.05-.85-17.04-7.23-23.89-3.75-4.03-2.34-4.01-4.36-7.15-3.73,14.17,8.56,17.96,9.8,29.48-2.37-1.11-9.66-7.51-13.04-9.02,.36-1.26,1.2-2.22,1.68-3.9,2.84-10.08-12.11-14.21-14.42-23.67-.97,1.54-1.33,5.59-.63,8.3,.84,3.25,2.39,5.51,4.39,7.88,2.02,2.4,6.35,6.76,6.84,9.65-2.05-1.16-4.17-2.6-6.39-3.83-1.79-.99-4.99-3.08-6.68-3.59,.76-3.74,1.75-4.83-.36-8.98-1.9-3.75-4.6-6.1-7.43-8.77-.52-.49-.86-.96-1.41-1.45l-6.48-6.83c-4.25,10.19,11.21,16.08,13.67,24.73-.84-.3-1.51-.64-2.09-1.01l.42,.47c1.2,1.36,2.26,2.68,3.2,3.99h0Z" style="fill:#037433; fill-rule:evenodd;"/><path id="path14" d="M248.31,130.72c-15.29,1.12-28.24,7.14-38.78,16.96-4.8,4.47-7.11,7.12-10.93,13.12-6.94,10.91-10.42,24.84-9.41,38.38,.93,12.54,5.89,25.44,13.37,34.51,3.13,3.79,3.64,4.58,7.71,8.25,10.69,9.64,27,17.7,47.32,16.25,13.32-.95,24.73-5.78,34.62-13.27,3.41-2.58,5.51-4.97,8.28-7.66,1.14-1.11,2.36-2.9,3.52-4.33,1.3-1.6,2.2-2.98,3.33-4.76,6.94-10.94,10.46-24.84,9.45-38.41-1.02-13.8-5.79-24.23-13.26-34.48-1.68-2.31-5.53-6.57-7.66-8.28-1.43-1.15-2.79-2.35-4.33-3.52-12.13-9.22-27.41-13.92-43.23-12.76h0Zm-.49,12.57c15.03-1.78,32.11,4.47,42.28,15.48,16.13,17.44,19.06,41.31,7.17,61.96-2.42,4.21-3.17,4.39-5.41,7.39-6.87,9.14-21.21,16.36-33.76,17.52-29.85,2.76-53.69-19.27-56.33-45.96-1.15-11.54,1.43-22.08,6.9-31.42,1.91-3.26,5.73-8.23,8.51-10.83,.64-.6,1.02-.92,1.7-1.45,.65-.52,.99-.94,1.68-1.46,8.54-6.44,14.94-9.76,27.27-11.22h0Z" style="fill:#037433; fill-rule:evenodd;"/><path id="path16" d="M247.82,143.29c15.03-1.78,32.11,4.47,42.28,15.48,16.13,17.44,19.06,41.31,7.17,61.96-2.42,4.21-3.17,4.39-5.41,7.39-6.87,9.14-21.21,16.36-33.76,17.52-29.85,2.76-53.69-19.27-56.33-45.96-1.15-11.54,1.43-22.08,6.9-31.42,1.91-3.26,5.73-8.23,8.51-10.83,.64-.6,1.02-.92,1.7-1.45,.65-.52,.99-.94,1.68-1.46,8.54-6.44,14.94-9.76,27.27-11.22h0Z" style="fill:#fefefe; fill-rule:evenodd;"/><g id="Layer1001"><path id="path18" d="M194.42,166.85c-.88-1.69-1.29-4.2-1.92-6.18-4.24-13.24-12.39-14.62-15.53-24.73-2.32-7.46-3.07-20.94-.23-28.31,2.67-6.93-2.92-8.67-5.69-4.91-1.82,2.47-3.93,7.82-4.84,11.36-1.29,4.95-1.59,8.92-1.67,14.22-9.91-3.13-7.51,10.86-7.44,16.15-3.66-2.28-7.25,.45-7.43,4.25-.17,3.73,1.07,7.78,1.78,11.2-3.3-.76-5.39,.76-6.11,3.35-.78,2.79,.84,5.6,1.1,8.11-4.33-.11-7.1,3.76-6.46,8.38,.5,3.67,3.15,7.5,4.51,10.33-2.32,.94-2.87,1.05-3.98,2.85-2.78,4.53,1.44,11.1,4.67,13.95-.39,.35,.02,.02-.53,.36l-1.3,.81c-1.71,1.47-2.4,3.76-1.99,6.11,.67,3.8,2.72,4.75,4.61,6.5l-.65,.58c-3.17,2.41-3.08,7.33-.6,10.16,2.94,3.33,6.82,4.33,9,6.39-2.89,2-2.79,5.99-.21,8.6,2.41,2.45,4.72,2.52,8.5,3.8-2.09,1.95-1.29,5.61,.37,7.46,1.65,1.84,4.15,2.39,7.45,2.77-.67,2.83-1.89,4.46,1.63,7.5,2.66,2.3,5.24,1.32,8.87,1.76-1.16,3.51,.27,5.92,2.82,7.19,3.26,1.62,5.8,.37,9.26,.02-.32,2.91,.97,4.97,3.15,5.88,3.87,1.62,4.96-.3,7.77-.5-.17,2.84,1.54,4.77,3.71,5.5,3.23,1.08,4.64-.25,7.25-.96,.2,2.57,2.05,4.5,4.57,4.87,3.42,.5,4.86-1.2,7.12-2.13,.05,2.54,1.48,4.31,4.13,4.3,2.15,0,4.05-1.53,5.49-2.77l.31,.49c2.19,4.01,5.4,3.25,8.51,.49,8.1-7.2,12.11-19.21,13.05-30.65-.19,1.93,1.58,9.98,2.2,12.15,1.06,3.66,2.72,7.31,4.42,10.22,1.89,3.23,7.2,10.75,11.23,10.63,2.24-.06,3.49-1.38,3.84-3.36,1.06,.48,1.65,1.17,2.75,1.83,.85,.51,1.88,1,3.1,.97,2.4-.05,4.06-1.81,3.99-4.34,2.43,1.01,3.74,2.83,7.5,2.1,3.32-.64,3.32-2.54,4.4-4.85,2.39,.98,4.25,1.98,7.18,.98,2.29-.78,3.76-2.59,3.61-5.56,2.74,.7,4.43,1.94,7.64,.6,2.28-.95,3.57-2.9,3.28-5.95,3.22,.51,6.4,1.48,9.3-.04,2.58-1.36,3.77-3.67,2.77-7.22,3.84,.06,6.25,.26,8.97-1.69,4.06-2.91,1.36-6.41,1.76-7.49,3.65-.59,5.43-.82,7.35-3.01,2.29-2.61,1.62-4.73,.25-7.29,3.29-.74,7.18-1.92,8.73-3.85,2.13-2.67,2.54-6.49-.45-8.36,.57-.73,1.7-1.14,2.51-1.61,2.05-1.21,5.34-3.19,6.58-4.91,2.54-3.54,2.59-7.98-1.35-10.53,1.76-1.8,3.96-2.81,4.63-6.6,.34-1.93,.06-3.45-.89-4.83-1-1.45-1.28-1.5-2.93-2.36,1.87-1.87,4.85-5.95,5.4-8.47,.42-1.92,.22-4.33-.8-5.74-.45-.63-1.05-1.3-1.65-1.75l-2.24-1.19c1.22-1.66,4.3-7.98,4.54-10.47,.46-4.74-2.18-7.85-6.54-8.13,.57-2.21,1.89-5.98,1.05-8.36-.9-2.54-2.87-3.54-6.04-3.08,.74-3.06,2-7.76,1.8-11.19-.23-3.96-3.77-6.26-7.37-4.28-.25-4.29,2.01-12.7-2.54-15.91-1.78-1.26-3.14-.73-4.98-.18,.11-5.43-.53-10.45-1.96-15.36-4.54-15.64-10.47-13.04-10.96-9.19-.32,2.47,3.63,9.15,2.2,23.34-1.27,12.52-3.54,13.8-9.71,20.59-.86,.95-1.13,1.45-1.84,2.35-6.74,8.68-5.02,12.22-7.98,17.88-1.11,2.12-2.76,2.83-4.4,4.29,.08,1.4,.54,3.11,.83,4.48,.32,1.55,1.14,3.12,.05,3.84-.74-.21-.36,.47-.78-1.05-.82-2.96-1.62-5.91-2.74-8.75-4.71-12-12.85-22.01-23.21-29.32-2.43-1.72-5.35-3.45-8.24-4.84-20.26-9.77-44.47-8.8-62.6,2.75-2.7,1.72-5.41,3.45-7.8,5.54-2.5,2.18-4.33,4.11-6.6,6.45-4.21,4.32-7.51,10.06-10.33,15.57h0Zm149.97-61.01c4.62,9.06,5.77,19.38,4.26,29.59-.98,6.6-2.85,12.59-5.22,18.27-3.51,8.43-7,12.73-8.17,15.37-1.62-1.15-4.38-3.22-7-1.27-2.18,1.63-2.43,4.24-2.3,7.56l-7.52,3.98-1.31-6.74c5.74-2.72,5.23-9.18,8.13-15.63,1.63-3.63,4.83-7.48,7.37-10.39,.97-1.11,1.88-1.82,2.85-2.9,3.48-3.85,5.15-11.53,5.62-18.11,1.01-14.11-2.19-18.5-2.35-20.85-.16-2.31,2.34-5.34,5.62,1.1Zm-164.56,63.21c-1.39-2.39-2.94-4.76-4.46-7.47-9.5-16.99-13.54-38.54-4.31-56.49,.55-1.06,1.76-2.87,3.12-3,4.06-.38,.89,6.56,.54,8.21-1.07,5.02-1.16,11.79-.67,16.82,.7,7.14,2.46,13.52,6.29,17.46,1,1.03,1.94,1.84,3.01,2.99,7.32,7.9,6.99,12.28,9.85,19.71,.91,2.37-1.39,4.59-2.31,9.01l-1.85-.9c.21-3.32-.12-6.32-2.28-7.69-2.9-1.84-5.17,.43-6.93,1.35h0Zm-4.5,8.25c-2.29-3.88-7.73-7.35-13.34-20.13-1.67-3.81-3.04-8.5-3.64-13.09-.5-3.77-.98-12.56,1.51-14.4,1.87-1.38,4.62-1.08,4.88,1.74,.23,2.55,.5,4.93,1,7.37,.96,4.68,2.19,8.75,3.77,12.95,1.46,3.89,3.45,8.12,5.31,11.41,1.03,1.82,2.08,3.64,3.13,5.23,2.3,3.49,.1,.66,.28,6.41-.5,.47-.91,.76-1.31,1.19-.69,.74-.62,.98-1.59,1.31h0Zm161.49-2.5c.11-5.61-1.91-3.12,.3-6.48,3.07-4.65,6.46-11.34,8.44-16.65,2.67-7.17,4.02-12.59,4.74-20.25,.34-3.55,3.69-2.59,4.88-1.64,2.66,2.12,2.01,10.75,1.45,14.69-.7,4.9-1.97,8.77-3.73,12.96-1.52,3.63-4.01,8.06-6,10.74-3.51,4.74-4.45,5.45-7.48,9.21-.47-.47-.77-.98-1.18-1.42-.55-.58-.8-.55-1.44-1.17h0Zm-166.8,10.4c-1.69-1.36-7.24-7.38-8.54-8.97-1.4-1.71-2.28-3.25-3.51-5.12-2.14-3.23-4.16-7.74-5.44-12.07-1.03-3.51-3.18-11.39,.28-13.69,2.68-1.78,4.21,.53,4.77,2.9,.47,2.01,1.41,4.43,2.15,6.47,2.32,6.45,7.03,14.3,11.4,19.45,.68,.8,1.3,1.64,1.92,2.26,3.57,3.58,1.26,1.37,1.69,5.91,.11,1.18,.94,2.4,.83,3.31-.1,.91-.51,2.15-.65,3.46-1.08-.57-3.71-2.95-4.89-3.91h0Zm170.05,3.88c-.03-1.33-.62-3.12-.57-3.79,.08-1.02,.84-1.88,.85-3.69,.02-4.25-1.87-1.32,2.15-5.82,6.77-7.57,12.61-17.84,15.09-28.06,1.18-4.89,10.1-5.74,4.72,12.04-1.3,4.29-3.35,8.43-5.48,11.77-2.76,4.33-4.46,6.22-7.59,9.67-1.46,1.62-2.8,2.6-4.41,4.21-.72,.72-1.5,1.17-2.44,2-.89,.79-1.3,1.16-2.31,1.66h0Zm-1.71,13.15c-.43-1.07,.09-1.57,.44-2.44,1.7-4.22-.9-4.99,.38-7.46,1.47-2.85,4.91-4.33,7.08-6.53,1.76-1.79,3.04-2.83,4.56-4.58,4.56-5.23,8.25-9.73,10.99-16.46,.85-2.1,1.72-5.15,5.02-3.48,3.82,1.93,.44,10.49-.97,13.81-2.52,5.93-6.83,12.13-11.15,16.3l-4.87,4.28c-2.68,2.4-7.78,5.75-10.94,7.41l-.55-.84Zm-178.16-10.87c-1.58-1.54-2.7-3.14-4.23-4.91-3.93-4.55-13.56-21.96-7.68-25.21,3.36-1.86,4.21,1.79,5.07,3.77,2.8,6.51,6.53,11.43,11,16.46,1.57,1.77,3.08,2.88,4.66,4.49,.98,.99,1.57,1.29,2.56,2.14,.63,.54,1.7,1.5,2.44,2,3.44,2.34,1.89,4.54,1.74,5.88-.55,4.86,2.28,4.05,.5,7.08-2.42-.82-9.33-5.9-11.14-7.44-1.78-1.51-3.35-2.73-4.9-4.25h0Zm28.75-6.74c-3.31-1.62-2.8-1.74-4.75-3.11-8.28-5.85-4.2-14.04,.85-13.14,3.11,.56,2.77,4.4,2.74,7.69l2.66,1.33-1.5,7.24Zm138.33-8.45c-.02-2.23-.42-4.48,.69-6.28,2.89-4.67,10.8,1.43,6.2,8.28-2.58,3.85-10.67,8.44-16.69,10.48l-.52-6.98,10.32-5.5Zm11.72,28.26c8.07-4.24,15.04-10.22,19.94-15.89,2.92-3.37,4.82-6.42,7.12-10.92,1.85-3.62,1.45-5.36,3.58-5.03,.94,.15,2.48,1.22,2.84,1.59,3.87,3.99-1.51,12.94-3.5,16.03-2.67,4.16-5.02,6.6-8.35,9.43-5.34,4.54-16.66,11.02-23.54,12.01-.37-2.66,.03-1.29,1.05-3.4,.71-1.46,.52-2.27,.86-3.84h0Zm-161.18,7.18c-4.83-.57-14.18-5.38-18.58-8.3-5.29-3.5-10.11-8.11-13.44-13.49-1.61-2.62-5.42-9.09-4.47-13.04,.49-2.03,2.51-4.48,4.78-4.21,1.47,.18,1.48,2.5,3.17,5.66,2.85,5.34,5.39,8.86,9.21,13.01,1.92,2.09,2.84,2.58,4.61,4.27,4.47,4.26,9.39,6.42,13.08,9.07,.1,5.39,2.91,4.64,1.64,7.02h0Zm139.76-21.76c4.52-.98,17.12-7.45,18.79-13.57,1.1,.32,1.03,.28,1.6,1.29,3,5.25,.18,8.53-4.69,10.97-3.66,1.83-11,4.47-15.35,5.36l-.35-4.05Zm-129.24,1.29c-3.36-.78-8.1-3.16-10.26-4.84-3.38-2.62-2.46-7.59,.35-10.09,2.05,2.7,1.07,3.81,7.14,7.84,.87,.58,2.35,1.34,3.16,1.94l-.39,5.14Zm129.45,4.12c3.83-1.12,7.44-2.21,11.11-3.53,7.61-2.74,8.14-4.36,9.48-4.97,2.62,5.02-3.75,8.5-7.14,9.92-3.39,1.42-9.85,3.82-13.54,4.51-.22-1.66-.13-4.2,.09-5.92Zm-129.44,3.09c-2.23-.46-6.81-2.6-8.44-3.69-2.47-1.66-4.57-3.54-3.33-8.04,3.89,2.99,6.75,4.26,11.65,5.85l.12,5.88Zm148.84,14.72c1.82-.81,4.11-1.31,6.05-2.05,9.83-3.74,17.52-8.53,24.08-16.44,.72-.87,1.17-1.62,1.78-2.4,1.82-2.33,5.51,.89,5.09,5.35-.32,3.45-4.69,8.01-6.31,9.89-2.5,2.89-5.57,5.07-8.82,7.13-5.6,3.53-17.99,7.98-24.22,7.7,1.34-2.2,.18-3.82,.55-4.97,.29-.88,1.37-1.13,1.8-4.21h0Zm-19.87-10.45c10.15-3.1,11.85-3.12,20.3-8.13,1.24,2.22,.11,5.57-1.2,6.83-1.24,1.19-3.86,2.47-5.9,3.25-4.14,1.57-9.56,3.03-14.23,3.9l1.03-5.85Zm-137.14,19.69c-10.13-.81-21.15-5.03-27.41-9.93-4.65-3.64-5.96-4.99-9.22-9.33-5.5-7.32-1.52-11.89,1.97-11.57,1.7,3.04,4.11,5.13,6.2,7.32,5.65,5.96,17.8,12.32,26.14,14.13,.27,2.8,1.63,3.59,1.86,4.54,.27,1.12-.52,2.06,.46,4.83h0Zm9.07-16.24c-2.25-.37-6.98-2.3-8.71-3.41-2.86-1.83-4.23-3.73-3.19-8.25,.81,.35,.5,.31,1.19,.83,3.12,2.34,7.96,3.41,9.88,4.6l.83,6.23Zm59.26-72.71c15.16-1.12,29.81,3.39,41.44,12.23,1.47,1.12,2.78,2.27,4.15,3.37,2.04,1.64,5.73,5.73,7.34,7.94,7.15,9.82,11.73,19.83,12.71,33.05,.96,13.01-2.41,26.33-9.06,36.82-1.08,1.71-1.94,3.03-3.19,4.56-1.11,1.37-2.28,3.09-3.37,4.15-2.66,2.58-4.67,4.87-7.94,7.34-9.48,7.18-20.41,11.82-33.18,12.72-19.48,1.38-35.11-6.34-45.36-15.58-3.9-3.52-4.39-4.27-7.39-7.9-7.17-8.69-11.92-21.05-12.81-33.07-.97-12.99,2.37-26.33,9.02-36.79,3.66-5.76,5.88-8.3,10.48-12.58,10.1-9.41,22.52-15.18,37.17-16.26h0Zm66.74,82.13c-.06-1.7-.21-2.44,.21-4.05,.5-1.91,.49-1.61,2.42-2.01,4.13-.86,9.7-2.43,13.58-3.95,1.15-.45,1.95-.83,3.04-1.4,.97-.51,1.74-1.27,2.59-1.63,1.36,2.18,.13,5.74-1.2,6.93-3.72,3.34-18.65,6.44-20.64,6.09h0Zm-124.03-1.5c-5.24-.74-16.71-3.9-13.27-11.64,1.95,1.87,8.02,4.31,11.57,5.14l1.7,6.5Zm122.67,2.34c.4,.96-.51,1.03,2.43,.42,8.85-1.86,10.87-1.44,19.43-5.61,1.06,5.52-3.34,7-8.14,8.02-4.7,1-9.62,1.59-14.5,2.06-.28-2.56,.13-2.83,.78-4.9Zm18.08,13.7c.32-.78,.98-1.25,1.33-2.56,.26-.95-.03-3.24,.07-3.42,.34-.6,5.46-1.01,6.55-1.2,8.76-1.56,18.07-5.11,24.63-10.66,2.91-2.46,4.52-5.26,6.71-2.83,3.62,4-.58,8.53-2.82,10.37-10.4,8.55-22.16,11.42-36.48,10.3h0Zm-138.44-9.8c-5.68-.71-15.73-1.84-14.24-8.97,.59,.07,2.87,1.35,3.95,1.76,8.72,3.35,8.22-.01,10.29,7.2h0Zm-10.42,9.8c-12.12,.93-22.38-.96-31.92-6.92-2.31-1.44-7.16-5.13-8.13-7.56-.91-2.27-.72-4.46,.62-6.15,1.92-2.42,3.41-.14,4.63,.91,8.73,7.55,18.25,11.56,30.09,13.04,5.44,.68,2.46,.4,3.32,4,.36,1.48,.94,1.63,1.39,2.68Zm-2.16-11.57c.31-.33,1.06,.23,1.79,.55,1.78,.77,4.65,1.43,6.59,1.79,4.5,.86,5.2-.26,6.64,4.51-3.5-.1-7.03-.27-10.36-1.08-5.46-1.33-5.25-5.15-4.67-5.78h0Zm130.64,3.47c.48,.89-.14,.53,.81,.61l11.02-1.35c7.07-1.07,5.67-1.34,10.74-2.98,.98,5.3-4.18,6.19-8.62,6.7-4.78,.54-9.96,.53-14.82,.53,.05-1.82,.21-2.04,.86-3.5h0Zm-2.42,4.6c2.37,.46,9.73,.05,12.49-.09,4.18-.21,6.73-.63,10.47-1.73,.85,5.33-4.09,6.08-8.89,6.24-5.07,.16-10.02-.47-15.01-.79,.12-1.33,.53-2.63,.94-3.63h0Zm28.7,4.96c9.49,0,19.39-2.56,26.7-7.29,1.18-.77,2.69-2.77,4.5-1.95,1.08,.49,2.15,2.83,1.91,4.7-.49,3.79-3.53,5.45-6.31,7.29-7.97,5.26-17.04,7.39-26.8,7.07-1.55-.05-9.59-.7-11.22-1.47-.59-.28-.07,.08-.42-.34l.25-2.14c2.55-1.06,3.9-2.76,3.77-6.2l7.62,.34Zm-140.61-4.27c.42,.67,1.76,2.85,2.03,3.55-3.79,.13-10.12,.6-13.52-.68-1.78-.67-3.61-2.71-2.79-5.19,.74-.17,3.18,.74,4.43,.95,1.73,.28,3.23,.42,5.04,.53,3.01,.19,4.1-.28,4.81,.84h0Zm-8.34,12.63c-9.59,1.23-15.74,2.69-26.15-.11-5.21-1.4-16.02-5.97-18.12-10.9-.93-2.16-.77-4.06,.48-5.73,2.37-3.17,3.46,1.42,14.26,5.38,8.72,3.2,15.71,3.13,25.35,2.63,.36,3.4,1.01,5.16,3.81,6.14l.37,2.6Zm4.08-7.67c2.51,0,4.95-.24,7.41-.24,.42,.95,1.57,2.28,2.16,3.1-2.72,.78-7.17,1.44-10.1,1.48-3.85,.04-6.47-1.1-6.45-4.96,2.34,.14,4.28,.61,6.97,.62Zm111.84,1.25c.54-1.49,1-1.42,1.68-2.75,.53,.8,.04,.53,1.37,.69l5.4,.42c8.34,.61,7.8,.71,15.73-.29,.33,9.5-18.6,2.79-24.19,1.93h0Zm-1.63,1.88c.34-.44,.27-.44,.7-.87l1.19,.35c-.77,.52-1.03,1.09-1.9,.52Zm1.35,1.74c.34-.57,.03-.11,.41-.52,1.53-1.7,2.04-1.41,3.31-1.09,5.39,1.36,11.31,2.57,16.94,2.19-.61,10.2-16.99,.32-20.66-.57h0Zm-114.7,.56c3.27,.31,6.32-.09,9.45-.61,4.8-.8,3.91-1.53,6.53,1.8l-.99,.61c-4.42,1.97-14.56,5.87-14.99-1.8h0Zm110.09,1.71c2.04-2,3.09-1.69,4.48-1.08,4.88,2.13,10.26,4.71,15.63,5.28-2.36,9.73-20.11-4.19-20.12-4.19Zm-127.61,10.8c-5.24,0-11.16-1.16-15.49-2.9-1.75-.7-4.03-2.72-4.03-5.03,0-3.49,1.85-4,4.62-2.88,9.37,3.78,21.49,3.97,31.89,1.67,1.08,.73,1.26,1.78,4.38,2.51l.59,2.08c-3.4,1.07-6.16,2.25-9.94,3.17-3.85,.94-7.89,1.39-12.03,1.39h0Zm22.67-6.64c4.82-.28,7.97-2.39,11.85-3.55l2.9,2.78c-1.5,1.4-13.23,8.52-14.75,.77h0Zm130.54-2.52c11.36,1.58,20.73,3.09,32.53-1.84,4.33-1.81,5.17,3.34,3.04,5.91-1.1,1.32-1.74,1.77-3.76,2.51-4.98,1.83-10.68,2.68-16.07,2.57-3.84-.08-7.53-.63-11.11-1.52-3.49-.87-6.28-2.13-9.4-2.99l.55-2.19c2.59-.38,2.98-1.24,4.24-2.46h0Zm-29.36,2.44c1.12-.33,3.95-2.09,4.87-1.78,.54,.18,3.34,2.12,4.18,2.61,5.29,3.12,8.73,3.78,9.54,4.24-1.48,4.36-6.44,3-9.92,1.12-1.56-.85-3.14-1.85-4.5-2.83-.84-.6-1.39-1.02-2.14-1.52-.86-.57-1.5-1-2.02-1.83h0Zm-1.79,.64c1.83,.55,6.81,6.2,14.67,8.52-.58,1.67-2.16,2.86-4.6,2.59-4.49-.51-9.34-6.72-11.91-9.41l1.84-1.7Zm-94.09,4.43c.83-.41,2.03-.57,2.99-.94,3.41-1.31,4.69-2.42,7.65-3.92,.54,.46,1.19,.99,1.85,1.53,.74,.62,1.32,.92,1.83,1.5-3.24,3.09-12.81,7.91-14.32,1.83Zm99.46,5.93c.73,.47,1.35,.86,2.16,1.24,.82,.39,1.85,.57,2.52,.92-.55,1.78-2.24,3.18-4.73,2.83-1.74-.24-3.88-1.85-4.7-2.61-1.08-1.01-5.57-6.64-6.28-8.32,4.25-4.35,3.49,1.02,11.03,5.93h0Zm-93.71-1.75c1.71-.87,3.41-1.23,5.31-2.29,1.7-.94,3.1-2.14,4.69-2.91,.75,.58,2.2,1.44,2.81,2.06-1.78,3.14-11,9.06-12.81,3.14h0Zm-5.22-1.04c-3.42,2.92-13.81,6.45-18.93,7.25-3.43,.54-14.31,1.23-17.34-1.06-3.47-2.63-3.81-7.79,.75-7.02,9.27,1.57,19.42-.1,27.99-3.56,3-1.21,1.63,.05,4.5,.9,1.73,.51,.81,.1,1.71,1.67l1.32,1.82Zm86.91-2.41c.48,1.18,3.72,5.47,4.54,6.41,3.72,4.22,5.21,4.09,5.96,4.89-5.24,7.38-12.88-5.59-14.31-9.26l3.81-2.04Zm26.46,2.41c.43-.46,.83-.83,1.21-1.53,2.08-3.87,1.84-.74,4.28-3.51,.9,.17,7.23,2.52,10.69,3.36,7.5,1.82,12.56,1.69,19.89,.76,2.82-.36,3.39,2.9,2.32,4.92-3.39,6.38-20.66,3.52-27.1,1.31-2.76-.95-9.48-3.67-11.28-5.31h0Zm-103.61,4.96c.74-.46,2.1-.66,2.98-1.12,3.98-2.09,5.37-4.51,6.63-5.23l3.56,1.97c-1.4,2.24-3.58,4.47-5.61,6.01-2.23,1.69-6.15,2.23-7.57-1.63h0Zm72.09-4.61c.85,.83,3.16,5.17,4.1,6.53,2.26,3.26,3.95,3.75,5.48,5.14-1.24,1.15-2.33,2.28-4.9,1.33-3.48-1.29-6.85-8.07-7.99-11.43l3.31-1.57Zm-65.88,8.53c.65-.6,1.62-.88,2.37-1.53,2.2-1.88,4.14-3.65,5.58-6.24l4.45,1.95c-1.59,2.75-2.82,4.41-4.86,6.33-2.46,2.32-6.2,2.32-7.54-.51h0Zm-42.13,.21c5.64,0,11.5-1.23,16.33-2.98,3.19-1.15,7.02-2.97,9.93-4.71,1.55-.93,1.67-.68,3.71-.26,1.17,2.6,1.92,2.64,3.8,3.53,.58,.27,.24,.08,.54,.31-1.64,.81-5.73,4.86-13.19,8-3.7,1.56-21.63,7.41-25,.81-.53-1.03-.72-2.92-.06-3.9,.74-1.11,2.38-.81,3.95-.82h0Zm103.65-6.63c.73,2.83,3.46,7.29,5.29,9.66,.87,1.13,1.73,1.24,2.45,2.26-3.41,2.54-6.01,1.45-8.09-1.59-1.29-1.9-3.21-6.24-3.79-8.85l4.14-1.48Zm32.08-1.4c3.72-.27,1.94-.49,4.91,1.07,4.72,2.48,7.95,3.99,13.4,5.43,3.47,.92,7.21,1.45,10.96,1.53,2.18,.05,4.4-.67,4.92,1.43,.55,2.25-.5,3.63-1.55,4.6-4.01,3.69-16.17,.67-20.9-.99-9.54-3.34-13.19-7.66-16.08-9.03,.06-.05,.15-.11,.2-.15,.05-.03,.13-.1,.2-.14l1.14-.56c1.35-.68,2.21-1.73,2.81-3.18Zm-87.63,10.95c.7-.65,1.81-1.18,2.49-1.7,1.75-1.35,3.86-5.02,5.28-6.79,1.13,.4,2.91,.76,3.75,1.44-.78,2.13-3.02,5.54-4.2,6.79-1.94,2.06-5.32,2.88-7.33,.26h0Zm50.24-7.61c.63,2.52,1.72,4.88,2.81,7.13,1.37,2.83,2.36,3.34,4.42,5.1-6.41,3.42-9.44-6.31-11.07-11.11l3.84-1.12Zm-44.04,10.11c.45-.87-.02-.13,.54-.73,.06-.06,.48-.4,.58-.48,2.29-1.85,4.5-5.49,5.42-8.14l4.56,1.03c-1.15,4.58-4.92,12.59-11.11,8.33Zm5.8,1.9c3.2-1.37,5.66-6.57,6.52-9.93l4.01,.55c-.69,3.04-3.85,10.94-8.66,10.3l-1.57-.65s-.13-.05-.15-.14c-.03-.09-.1-.09-.15-.14h0Zm33.18-10.6c.8,2.34,1.61,4.76,2.63,6.79,1.8,3.6,2.35,3.22,4,5.16-2.77,3.12-6.53-.39-7.8-2.42-1.32-2.11-2.97-5.91-3.6-8.63l4.77-.9Zm-27.51,11.95c1.67-1.62,2.41-2.11,3.74-4.76,.81-1.63,1.96-3.92,2.34-5.78l5.06,.28c-.54,2.57-2.36,6.37-3.62,8.23-1.84,2.72-4.8,4.31-7.23,2.33l-.29-.3Zm28.09,8.64c2.26,3.95,5.26,8.2,8.52,11.08,1.4,1.24,.82,3.32-.83,3.89-4.58,1.57-11.31-9.9-12.78-13.01-2.89-6.09-4.49-13.4-4.79-21.08l3.09-.31c2.03,3.16,2.03,11.1,6.79,19.43Zm-58.6-19.84c3.75,4.39,5.78,1.16,5.82,3.34,.01,.76-.87,1.29-1.41,1.78-7.11,6.39-16.28,12.21-26.92,13.09-5.81,.48-7.46-4.86-5.68-6.46,.23-.21,8.22-1.89,10.63-2.7,3.43-1.16,6.32-2.55,9.18-4.15,3.03-1.7,5.3-3.26,7.82-5.44l.56,.56Zm95.43-.51c1.39,.76,2.44,1.86,3.96,2.84,1.35,.87,2.76,1.7,4.21,2.59,2.6,1.6,6.02,3.03,9.19,4.14,2.92,1.02,10.02,2.26,10.56,2.77,1.63,1.55,.36,6.82-5.61,6.38-11.16-.82-19.58-6.44-26.99-13.26-4.42-4.07,1.69-.4,4.68-5.47Zm-49.01,1.38c-.25,7.68-1.86,15.1-4.95,21.15-1.53,2.99-2.99,5.59-5.01,7.81-1.24,1.36-4.52,5.92-7.5,5.01-1.93-.59-2.46-2.61-.92-4.02,7.31-6.65,11.29-15.05,13.58-24.84,.42-1.79,.93-3.36,1.32-5l3.48-.11Zm-38.88,12.61c-4.14,3.97-15.95,12.77-21.88,9.74-.98-.5-2.24-1.9-2.06-3.61,.18-1.66,1.83-1.73,3.26-2.22,2.71-.92,5.18-2.08,7.55-3.43,1.16-.66,2.53-1.42,3.45-2.05,4.6-3.14,5.69-4.74,8.96-7.47,2.03,.83,1.48,1.33,4.7,1.29,.52,1.31,.74,.81,1.36,1.92l-5.35,5.82Zm76.08-7.78c2.02,.09,3.39-.27,4.54-1.25l5,4.36c3.25,2.65,7.63,5.51,11.63,7.19,1.71,.72,5.75,1.84,6.58,2.78,.89,4.25-3.41,5.86-7.03,4.74-9.05-2.81-16.98-8.89-22.09-16.17,.65-.61,.93-.79,1.37-1.64Zm-20.33,7.85c1.41,3.41,6.12,9.72,8.62,12.06,1.04,.98,4.87,4.09,5.5,4.98,1.65,2.32-1.42,5.08-4.54,3.22-2.29-1.37-6.77-5.34-8.33-7.35-3.54-4.56-7.38-10.59-8.72-16.84,1.92,2.67,2.87,3.79,7.47,3.93Zm-31.43-.07c4.6,.38,5.31-1.66,7.4-3.67-.72,4.29-4.69,11.27-6.65,14.09-.76,1.08-1.61,1.94-2.34,2.88-2.08,2.69-2.75,2.9-5.17,5.03-6.23,5.48-9.24,.89-7.09-1.59,.53-.61,2.07-1.85,2.81-2.44,3.29-2.62,9.55-10.15,11.05-14.3h0Zm40.47-2.93c5.19-.34,3.02-2.41,6.17-2.26,.75,.04,2.25-.24,2.57-.17,.61,.14,1.83,2.2,2.79,3.2,3.75,3.9,4.14,4.59,9.25,8.27,2.47,1.78,7.01,3.7,7.28,4.19,1.01,4.32-3.62,5.83-7.4,4.31-4.34-1.75-8.63-4.39-12.06-7.3-2.25-1.91-7.55-7.97-8.6-10.24Zm-49.56-.04c-.47,1.21-1.42,2.2-2.14,3.25-.86,1.24-1.58,1.95-2.47,3.03-1.67,2.03-3.3,3.47-5.49,5.22-16.41,13.12-20.99,2.73-16.29,.71,5.97-2.57,14.62-9.78,17.48-14.69,5.04,.48,3.4-.28,4.65,.91,1.12,1.07,2.18,1.55,4.26,1.57h0Zm41.63,2.46c2.07-1.13,.36-1.13,3.09-.94,1.6,.11,2.52-.57,3.82-.96,1,2.48,6.07,8.29,7.77,9.72,5.38,4.54,4.61,3.72,10.37,7.1,.27,2.02-.92,3.46-2.25,4.07-1.52,.7-3.55,.41-4.91-.26-2.88-1.42-5.11-3.22-7.3-4.99-2.55-2.07-9.23-9.61-10.61-13.73h0Zm-58.72,14.81c3.77-1.37,7.53-4.7,10.37-7.09,4.08-3.43,6.69-8.17,8.04-9.55,5.54,2.3,3.67-.64,6.59,1.9-.47,1.76-3.78,6.39-4.72,7.61-2.04,2.65-3.74,4.1-6.05,6.23-1.6,1.48-4.99,3.87-7.37,4.93-3.58,1.6-7.32-.4-6.85-4.04h0Z" style="fill-rule:evenodd;"/><path id="path20" d="M215.64,285.95c3.77-1.37,7.53-4.7,10.37-7.09,4.08-3.43,6.69-8.17,8.04-9.55,5.54,2.3,3.67-.64,6.59,1.9-.47,1.76-3.78,6.39-4.72,7.61-2.04,2.65-3.74,4.1-6.05,6.23-1.6,1.48-4.99,3.87-7.37,4.93-3.58,1.6-7.32-.4-6.85-4.04h0Zm58.72-14.81c2.07-1.13,.36-1.13,3.09-.94,1.6,.11,2.52-.57,3.82-.96,1,2.48,6.07,8.29,7.77,9.72,5.38,4.54,4.61,3.72,10.37,7.1,.27,2.02-.92,3.46-2.25,4.07-1.52,.7-3.55,.41-4.91-.26-2.88-1.42-5.11-3.22-7.3-4.99-2.55-2.07-9.23-9.61-10.61-13.73h0Zm-41.63-2.46c-.47,1.21-1.42,2.2-2.14,3.25-.86,1.24-1.58,1.95-2.47,3.03-1.67,2.03-3.3,3.47-5.49,5.22-16.41,13.12-20.99,2.73-16.29,.71,5.97-2.57,14.62-9.78,17.48-14.69,5.04,.48,3.4-.28,4.65,.91,1.12,1.07,2.18,1.55,4.26,1.57h0Zm49.56,.04c5.19-.34,3.02-2.41,6.17-2.26,.75,.04,2.25-.24,2.57-.17,.61,.14,1.83,2.2,2.79,3.2,3.75,3.9,4.14,4.59,9.25,8.27,2.47,1.78,7.01,3.7,7.28,4.19,1.01,4.32-3.62,5.83-7.4,4.31-4.34-1.75-8.63-4.39-12.06-7.3-2.25-1.91-7.55-7.97-8.6-10.24Zm-40.47,2.93c4.6,.38,5.31-1.66,7.4-3.67-.72,4.29-4.69,11.27-6.65,14.09-.76,1.08-1.61,1.94-2.34,2.88-2.08,2.69-2.75,2.9-5.17,5.03-6.23,5.48-9.24,.89-7.09-1.59,.53-.61,2.07-1.85,2.81-2.44,3.29-2.62,9.55-10.15,11.05-14.3h0Zm31.43,.07c1.41,3.41,6.12,9.72,8.62,12.06,1.04,.98,4.87,4.09,5.5,4.98,1.65,2.32-1.42,5.08-4.54,3.22-2.29-1.37-6.77-5.34-8.33-7.35-3.54-4.56-7.38-10.59-8.72-16.84,1.92,2.67,2.87,3.79,7.47,3.93Zm20.33-7.85c2.02,.09,3.39-.27,4.54-1.25l5,4.36c3.25,2.65,7.63,5.51,11.63,7.19,1.71,.72,5.75,1.84,6.58,2.78,.89,4.25-3.41,5.86-7.03,4.74-9.05-2.81-16.98-8.89-22.09-16.17,.65-.61,.93-.79,1.37-1.64Zm-76.08,7.78c-4.14,3.97-15.95,12.77-21.88,9.74-.98-.5-2.24-1.9-2.06-3.61,.18-1.66,1.83-1.73,3.26-2.22,2.71-.92,5.18-2.08,7.55-3.43,1.16-.66,2.53-1.42,3.45-2.05,4.6-3.14,5.69-4.74,8.96-7.47,2.03,.83,1.48,1.33,4.7,1.29,.52,1.31,.74,.81,1.36,1.92l-5.35,5.82Zm38.88-12.61c-.25,7.68-1.86,15.1-4.95,21.15-1.53,2.99-2.99,5.59-5.01,7.81-1.24,1.36-4.52,5.92-7.5,5.01-1.93-.59-2.46-2.61-.92-4.02,7.31-6.65,11.29-15.05,13.58-24.84,.42-1.79,.93-3.36,1.32-5l3.48-.11Zm49.01-1.38c1.39,.76,2.44,1.86,3.96,2.84,1.35,.87,2.76,1.7,4.21,2.59,2.6,1.6,6.02,3.03,9.19,4.14,2.92,1.02,10.02,2.26,10.56,2.77,1.63,1.55,.36,6.82-5.61,6.38-11.16-.82-19.58-6.44-26.99-13.26-4.42-4.07,1.69-.4,4.68-5.47Zm-95.43,.51c3.75,4.39,5.78,1.16,5.82,3.34,.01,.76-.87,1.29-1.41,1.78-7.11,6.39-16.28,12.21-26.92,13.09-5.81,.48-7.46-4.86-5.68-6.46,.23-.21,8.22-1.89,10.63-2.7,3.43-1.16,6.32-2.55,9.18-4.15,3.03-1.7,5.3-3.26,7.82-5.44l.56,.56Zm58.6,19.84c2.26,3.95,5.26,8.2,8.52,11.08,1.4,1.24,.82,3.32-.83,3.89-4.58,1.57-11.31-9.9-12.78-13.01-2.89-6.09-4.49-13.4-4.79-21.08l3.09-.31c2.03,3.16,2.03,11.1,6.79,19.43Zm-28.09-8.64c1.67-1.62,2.41-2.11,3.74-4.76,.81-1.63,1.96-3.92,2.34-5.78l5.06,.28c-.54,2.57-2.36,6.37-3.62,8.23-1.84,2.72-4.8,4.31-7.23,2.33l-.29-.3Zm27.51-11.95c.8,2.34,1.61,4.76,2.63,6.79,1.8,3.6,2.35,3.22,4,5.16-2.77,3.12-6.53-.39-7.8-2.42-1.32-2.11-2.97-5.91-3.6-8.63l4.77-.9Zm-33.18,10.6c3.2-1.37,5.66-6.57,6.52-9.93l4.01,.55c-.69,3.04-3.85,10.94-8.66,10.3l-1.57-.65s-.13-.05-.15-.14c-.03-.09-.1-.09-.15-.14h0Zm-5.8-1.9c.45-.87-.02-.13,.54-.73,.06-.06,.48-.4,.58-.48,2.29-1.85,4.5-5.49,5.42-8.14l4.56,1.03c-1.15,4.58-4.92,12.59-11.11,8.33Zm44.04-10.11c.63,2.52,1.72,4.88,2.81,7.13,1.37,2.83,2.36,3.34,4.42,5.1-6.41,3.42-9.44-6.31-11.07-11.11l3.84-1.12Zm-50.24,7.61c.7-.65,1.81-1.18,2.49-1.7,1.75-1.35,3.86-5.02,5.28-6.79,1.13,.4,2.91,.76,3.75,1.44-.78,2.13-3.02,5.54-4.2,6.79-1.94,2.06-5.32,2.88-7.33,.26h0Zm87.63-10.95c3.72-.27,1.94-.49,4.91,1.07,4.72,2.48,7.95,3.99,13.4,5.43,3.47,.92,7.21,1.45,10.96,1.53,2.18,.05,4.4-.67,4.92,1.43,.55,2.25-.5,3.63-1.55,4.6-4.01,3.69-16.17,.67-20.9-.99-9.54-3.34-13.19-7.66-16.08-9.03,.06-.05,.15-.11,.2-.15,.05-.03,.13-.1,.2-.14l1.14-.56c1.35-.68,2.21-1.73,2.81-3.18Zm-32.08,1.4c.73,2.83,3.46,7.29,5.29,9.66,.87,1.13,1.73,1.24,2.45,2.26-3.41,2.54-6.01,1.45-8.09-1.59-1.29-1.9-3.21-6.24-3.79-8.85l4.14-1.48Zm-103.65,6.63c5.64,0,11.5-1.23,16.33-2.98,3.19-1.15,7.02-2.97,9.93-4.71,1.55-.93,1.67-.68,3.71-.26,1.17,2.6,1.92,2.64,3.8,3.53,.58,.27,.24,.08,.54,.31-1.64,.81-5.73,4.86-13.19,8-3.7,1.56-21.63,7.41-25,.81-.53-1.03-.72-2.92-.06-3.9,.74-1.11,2.38-.81,3.95-.82h0Zm42.13-.21c.65-.6,1.62-.88,2.37-1.53,2.2-1.88,4.14-3.65,5.58-6.24l4.45,1.95c-1.59,2.75-2.82,4.41-4.86,6.33-2.46,2.32-6.2,2.32-7.54-.51h0Zm65.88-8.53c.85,.83,3.16,5.17,4.1,6.53,2.26,3.26,3.95,3.75,5.48,5.14-1.24,1.15-2.33,2.28-4.9,1.33-3.48-1.29-6.85-8.07-7.99-11.43l3.31-1.57Zm-72.09,4.61c.74-.46,2.1-.66,2.98-1.12,3.98-2.09,5.37-4.51,6.63-5.23l3.56,1.97c-1.4,2.24-3.58,4.47-5.61,6.01-2.23,1.69-6.15,2.23-7.57-1.63Zm103.61-4.96c.43-.46,.83-.83,1.21-1.53,2.08-3.87,1.84-.74,4.28-3.51,.9,.17,7.23,2.52,10.69,3.36,7.5,1.82,12.56,1.69,19.89,.76,2.82-.36,3.39,2.9,2.32,4.92-3.39,6.38-20.66,3.52-27.1,1.31-2.76-.95-9.48-3.67-11.28-5.31h0Zm-26.46-2.41c.48,1.18,3.72,5.47,4.54,6.41,3.72,4.22,5.21,4.09,5.96,4.89-5.24,7.38-12.88-5.59-14.31-9.26l3.81-2.04Zm-86.91,2.41c-3.42,2.92-13.81,6.45-18.93,7.25-3.43,.54-14.31,1.23-17.34-1.06-3.47-2.63-3.81-7.79,.75-7.02,9.27,1.57,19.42-.1,27.99-3.56,3-1.21,1.63,.05,4.5,.9,1.73,.51,.81,.1,1.71,1.67l1.32,1.82Zm5.22,1.04c1.71-.87,3.41-1.23,5.31-2.29,1.7-.94,3.1-2.14,4.69-2.91,.75,.58,2.2,1.44,2.81,2.06-1.78,3.14-11,9.06-12.81,3.14h0Zm93.71,1.75c.73,.47,1.35,.86,2.16,1.24,.82,.39,1.85,.57,2.52,.92-.55,1.78-2.24,3.18-4.73,2.83-1.74-.24-3.88-1.85-4.7-2.61-1.08-1.01-5.57-6.64-6.28-8.32,4.25-4.35,3.49,1.02,11.03,5.93h0Zm-99.46-5.93c.83-.41,2.03-.57,2.99-.94,3.41-1.31,4.69-2.42,7.65-3.92,.54,.46,1.19,.99,1.85,1.53,.74,.62,1.32,.92,1.83,1.5-3.24,3.09-12.81,7.91-14.32,1.83Zm94.09-4.43c1.83,.55,6.81,6.2,14.67,8.52-.58,1.67-2.16,2.86-4.6,2.59-4.49-.51-9.34-6.72-11.91-9.41l1.84-1.7Zm1.79-.64c1.12-.33,3.95-2.09,4.87-1.78,.54,.18,3.34,2.12,4.18,2.61,5.29,3.12,8.73,3.78,9.54,4.24-1.48,4.36-6.44,3-9.92,1.12-1.56-.85-3.14-1.85-4.5-2.83-.84-.6-1.39-1.02-2.14-1.52-.86-.57-1.5-1-2.02-1.83h0Zm29.36-2.44c11.36,1.58,20.73,3.09,32.53-1.84,4.33-1.81,5.17,3.34,3.04,5.91-1.1,1.32-1.74,1.77-3.76,2.51-4.98,1.83-10.68,2.68-16.07,2.57-3.84-.08-7.53-.63-11.11-1.52-3.49-.87-6.28-2.13-9.4-2.99l.55-2.19c2.59-.38,2.98-1.24,4.24-2.46h0Zm-130.54,2.52c4.82-.28,7.97-2.39,11.85-3.55l2.9,2.78c-1.5,1.4-13.23,8.52-14.75,.77h0Zm-22.67,6.64c-5.24,0-11.16-1.16-15.49-2.9-1.75-.7-4.03-2.72-4.03-5.03,0-3.49,1.85-4,4.62-2.88,9.37,3.78,21.49,3.97,31.89,1.67,1.08,.73,1.26,1.78,4.38,2.51l.59,2.08c-3.4,1.07-6.16,2.25-9.94,3.17-3.85,.94-7.89,1.39-12.03,1.39h0Zm127.61-10.8c2.04-2,3.09-1.69,4.48-1.08,4.88,2.13,10.26,4.71,15.63,5.28-2.36,9.73-20.11-4.19-20.12-4.19Zm-110.09-1.71c3.27,.31,6.32-.09,9.45-.61,4.8-.8,3.91-1.53,6.53,1.8l-.99,.61c-4.42,1.97-14.56,5.87-14.99-1.8h0Zm114.7-.56c.34-.57,.03-.11,.41-.52,1.53-1.7,2.04-1.41,3.31-1.09,5.39,1.36,11.31,2.57,16.94,2.19-.61,10.2-16.99,.32-20.66-.57h0Zm-1.35-1.74c.34-.44,.27-.44,.7-.87l1.19,.35c-.77,.52-1.03,1.09-1.9,.52Zm1.63-1.88c.54-1.49,1-1.42,1.68-2.75,.53,.8,.04,.53,1.37,.69l5.4,.42c8.34,.61,7.8,.71,15.73-.29,.33,9.5-18.6,2.79-24.19,1.93h0Zm-111.84-1.25c2.51,0,4.95-.24,7.41-.24,.42,.95,1.57,2.28,2.16,3.1-2.72,.78-7.17,1.44-10.1,1.48-3.85,.04-6.47-1.1-6.45-4.96,2.34,.14,4.28,.61,6.97,.62Zm-4.08,7.67c-9.59,1.23-15.74,2.69-26.15-.11-5.21-1.4-16.02-5.97-18.12-10.9-.93-2.16-.77-4.06,.48-5.73,2.37-3.17,3.46,1.42,14.26,5.38,8.72,3.2,15.71,3.13,25.35,2.63,.36,3.4,1.01,5.16,3.81,6.14l.37,2.6Zm8.34-12.63c.42,.67,1.76,2.85,2.03,3.55-3.79,.13-10.12,.6-13.52-.68-1.78-.67-3.61-2.71-2.79-5.19,.74-.17,3.18,.74,4.43,.95,1.73,.28,3.23,.42,5.04,.53,3.01,.19,4.1-.28,4.81,.84h0Zm140.61,4.27c9.49,0,19.39-2.56,26.7-7.29,1.18-.77,2.69-2.77,4.5-1.95,1.08,.49,2.15,2.83,1.91,4.7-.49,3.79-3.53,5.45-6.31,7.29-7.97,5.26-17.04,7.39-26.8,7.07-1.55-.05-9.59-.7-11.22-1.47-.59-.28-.07,.08-.42-.34l.25-2.14c2.55-1.06,3.9-2.76,3.77-6.2l7.62,.34Zm-28.7-4.96c2.37,.46,9.73,.05,12.49-.09,4.18-.21,6.73-.63,10.47-1.73,.85,5.33-4.09,6.08-8.89,6.24-5.07,.16-10.02-.47-15.01-.79,.12-1.33,.53-2.63,.94-3.63h0Zm2.42-4.6c.48,.89-.14,.53,.81,.61l11.02-1.35c7.07-1.07,5.67-1.34,10.74-2.98,.98,5.3-4.18,6.19-8.62,6.7-4.78,.54-9.96,.53-14.82,.53,.05-1.82,.21-2.04,.86-3.5h0Zm-130.64-3.47c.31-.33,1.06,.23,1.79,.55,1.78,.77,4.65,1.43,6.59,1.79,4.5,.86,5.2-.26,6.64,4.51-3.5-.1-7.03-.27-10.36-1.08-5.46-1.33-5.25-5.15-4.67-5.78h0Zm2.16,11.57c-12.12,.93-22.38-.96-31.92-6.92-2.31-1.44-7.16-5.13-8.13-7.56-.91-2.27-.72-4.46,.62-6.15,1.92-2.42,3.41-.14,4.63,.91,8.73,7.55,18.25,11.56,30.09,13.04,5.44,.68,2.46,.4,3.32,4,.36,1.48,.94,1.63,1.39,2.68Zm10.42-9.8c-5.68-.71-15.73-1.84-14.24-8.97,.59,.07,2.87,1.35,3.95,1.76,8.72,3.35,8.22-.01,10.29,7.2h0Zm138.44,9.8c.32-.78,.98-1.25,1.33-2.56,.26-.95-.03-3.24,.07-3.42,.34-.6,5.46-1.01,6.55-1.2,8.76-1.56,18.07-5.11,24.63-10.66,2.91-2.46,4.52-5.26,6.71-2.83,3.62,4-.58,8.53-2.82,10.37-10.4,8.55-22.16,11.42-36.48,10.3Zm-18.08-13.7c.4,.96-.51,1.03,2.43,.42,8.85-1.86,10.87-1.44,19.43-5.61,1.06,5.52-3.34,7-8.14,8.02-4.7,1-9.62,1.59-14.5,2.06-.28-2.56,.13-2.83,.78-4.9Zm-122.67-2.34c-5.24-.74-16.71-3.9-13.27-11.64,1.95,1.87,8.02,4.31,11.57,5.14l1.7,6.5Zm124.03,1.5c-.06-1.7-.21-2.44,.21-4.05,.5-1.91,.49-1.61,2.42-2.01,4.13-.86,9.7-2.43,13.58-3.95,1.15-.45,1.95-.83,3.04-1.4,.97-.51,1.74-1.27,2.59-1.63,1.36,2.18,.13,5.74-1.2,6.93-3.72,3.34-18.65,6.44-20.64,6.09h0Zm-126-9.42c-2.25-.37-6.98-2.3-8.71-3.41-2.86-1.83-4.23-3.73-3.19-8.25,.81,.35,.5,.31,1.19,.83,3.12,2.34,7.96,3.41,9.88,4.6l.83,6.23Zm-9.07,16.24c-10.13-.81-21.15-5.03-27.41-9.93-4.65-3.64-5.96-4.99-9.22-9.33-5.5-7.32-1.52-11.89,1.97-11.57,1.7,3.04,4.11,5.13,6.2,7.32,5.65,5.96,17.8,12.32,26.14,14.13,.27,2.8,1.63,3.59,1.86,4.54,.27,1.12-.52,2.06,.46,4.83h0Zm137.14-19.69c10.15-3.1,11.85-3.12,20.3-8.13,1.24,2.22,.11,5.57-1.2,6.83-1.24,1.19-3.86,2.47-5.9,3.25-4.14,1.57-9.56,3.03-14.23,3.9l1.03-5.85Zm19.87,10.45c1.82-.81,4.11-1.31,6.05-2.05,9.83-3.74,17.52-8.53,24.08-16.44,.72-.87,1.17-1.62,1.78-2.4,1.82-2.33,5.51,.89,5.09,5.35-.32,3.45-4.69,8.01-6.31,9.89-2.5,2.89-5.57,5.07-8.82,7.13-5.6,3.53-17.99,7.98-24.22,7.7,1.34-2.2,.18-3.82,.55-4.97,.29-.88,1.37-1.13,1.8-4.21h0Zm-148.84-14.72c-2.23-.46-6.81-2.6-8.44-3.69-2.47-1.66-4.57-3.54-3.33-8.04,3.89,2.99,6.75,4.26,11.65,5.85l.12,5.88Zm129.44-3.09c3.83-1.12,7.44-2.21,11.11-3.53,7.61-2.74,8.14-4.36,9.48-4.97,2.62,5.02-3.75,8.5-7.14,9.92-3.39,1.42-9.85,3.82-13.54,4.51-.22-1.66-.13-4.2,.09-5.92h0Zm-129.45-4.12c-3.36-.78-8.1-3.16-10.26-4.84-3.38-2.62-2.46-7.59,.35-10.09,2.05,2.7,1.07,3.81,7.14,7.84,.87,.58,2.35,1.34,3.16,1.94l-.39,5.14Zm129.24-1.29c4.52-.98,17.12-7.45,18.79-13.57,1.1,.32,1.03,.28,1.6,1.29,3,5.25,.18,8.53-4.69,10.97-3.66,1.83-11,4.47-15.35,5.36l-.35-4.05Zm-139.76,21.76c-4.83-.57-14.18-5.38-18.58-8.3-5.29-3.5-10.11-8.11-13.44-13.49-1.61-2.62-5.42-9.09-4.47-13.04,.49-2.03,2.51-4.48,4.78-4.21,1.47,.18,1.48,2.5,3.17,5.66,2.85,5.34,5.39,8.86,9.21,13.01,1.92,2.09,2.84,2.58,4.61,4.27,4.47,4.26,9.39,6.42,13.08,9.07,.1,5.39,2.91,4.64,1.64,7.02h0Zm161.18-7.18c8.07-4.24,15.04-10.22,19.94-15.89,2.92-3.37,4.82-6.42,7.12-10.92,1.85-3.62,1.45-5.36,3.58-5.03,.94,.15,2.48,1.22,2.84,1.59,3.87,3.99-1.51,12.94-3.5,16.03-2.67,4.16-5.02,6.6-8.35,9.43-5.34,4.54-16.66,11.02-23.54,12.01-.37-2.66,.03-1.29,1.05-3.4,.71-1.46,.52-2.27,.86-3.84h0Zm-11.72-28.26c-.02-2.23-.42-4.48,.69-6.28,2.89-4.67,10.8,1.43,6.2,8.28-2.58,3.85-10.67,8.44-16.69,10.48l-.52-6.98,10.32-5.5Zm-138.33,8.45c-3.31-1.62-2.8-1.74-4.75-3.11-8.28-5.85-4.2-14.04,.85-13.14,3.11,.56,2.77,4.4,2.74,7.69l2.66,1.33-1.5,7.24Zm-28.75,6.74c-1.58-1.54-2.7-3.14-4.23-4.91-3.93-4.55-13.56-21.96-7.68-25.21,3.36-1.86,4.21,1.79,5.07,3.77,2.8,6.51,6.53,11.43,11,16.46,1.57,1.77,3.08,2.88,4.66,4.49,.98,.99,1.57,1.29,2.56,2.14,.63,.54,1.7,1.5,2.44,2,3.44,2.34,1.89,4.54,1.74,5.88-.55,4.86,2.28,4.05,.5,7.08-2.42-.82-9.33-5.9-11.14-7.44-1.78-1.51-3.35-2.73-4.9-4.25h0Zm178.16,10.87c-.43-1.07,.09-1.57,.44-2.44,1.7-4.22-.9-4.99,.38-7.46,1.47-2.85,4.91-4.33,7.08-6.53,1.76-1.79,3.04-2.83,4.56-4.58,4.56-5.23,8.25-9.73,10.99-16.46,.85-2.1,1.72-5.15,5.02-3.48,3.82,1.93,.44,10.49-.97,13.81-2.52,5.93-6.83,12.13-11.15,16.3l-4.87,4.28c-2.68,2.4-7.78,5.75-10.94,7.41l-.55-.84Zm1.71-13.15c-.03-1.33-.62-3.12-.57-3.79,.08-1.02,.84-1.88,.85-3.69,.02-4.25-1.87-1.32,2.15-5.82,6.77-7.57,12.61-17.84,15.09-28.06,1.18-4.89,10.1-5.74,4.72,12.04-1.3,4.29-3.35,8.43-5.48,11.77-2.76,4.33-4.46,6.22-7.59,9.67-1.46,1.62-2.8,2.6-4.41,4.21-.72,.72-1.5,1.17-2.44,2-.89,.79-1.3,1.16-2.31,1.66h0Zm-170.05-3.88c-1.69-1.36-7.24-7.38-8.54-8.97-1.4-1.71-2.28-3.25-3.51-5.12-2.14-3.23-4.16-7.74-5.44-12.07-1.03-3.51-3.18-11.39,.28-13.69,2.68-1.78,4.21,.53,4.77,2.9,.47,2.01,1.41,4.43,2.15,6.47,2.32,6.45,7.03,14.3,11.4,19.45,.68,.8,1.3,1.64,1.92,2.26,3.57,3.58,1.26,1.37,1.69,5.91,.11,1.18,.94,2.4,.83,3.31-.1,.91-.51,2.15-.65,3.46-1.08-.57-3.71-2.95-4.89-3.91h0Zm166.8-10.4c.11-5.61-1.91-3.12,.3-6.48,3.07-4.65,6.46-11.34,8.44-16.65,2.67-7.17,4.02-12.59,4.74-20.25,.34-3.55,3.69-2.59,4.88-1.64,2.66,2.12,2.01,10.75,1.45,14.69-.7,4.9-1.97,8.77-3.73,12.96-1.52,3.63-4.01,8.06-6,10.74-3.51,4.74-4.45,5.45-7.48,9.21-.47-.47-.77-.98-1.18-1.42-.55-.58-.8-.55-1.44-1.17h0Zm-161.49,2.5c-2.29-3.88-7.73-7.35-13.34-20.13-1.67-3.81-3.04-8.5-3.64-13.09-.5-3.77-.98-12.56,1.51-14.4,1.87-1.38,4.62-1.08,4.88,1.74,.23,2.55,.5,4.93,1,7.37,.96,4.68,2.19,8.75,3.77,12.95,1.46,3.89,3.45,8.12,5.31,11.41,1.03,1.82,2.08,3.64,3.13,5.23,2.3,3.49,.1,.66,.28,6.41-.5,.47-.91,.76-1.31,1.19-.69,.74-.62,.98-1.59,1.31h0Zm4.5-8.25c-1.39-2.39-2.94-4.76-4.46-7.47-9.5-16.99-13.54-38.54-4.31-56.49,.55-1.06,1.76-2.87,3.12-3,4.06-.38,.89,6.56,.54,8.21-1.07,5.02-1.16,11.79-.67,16.82,.7,7.14,2.46,13.52,6.29,17.46,1,1.03,1.94,1.84,3.01,2.99,7.32,7.9,6.99,12.28,9.85,19.71,.91,2.37-1.39,4.59-2.31,9.01l-1.85-.9c.21-3.32-.12-6.32-2.28-7.69-2.9-1.84-5.17,.43-6.93,1.35h0Zm164.56-63.21c4.62,9.06,5.77,19.38,4.26,29.59-.98,6.6-2.85,12.59-5.22,18.27-3.51,8.43-7,12.73-8.17,15.37-1.62-1.15-4.38-3.22-7-1.27-2.18,1.63-2.43,4.24-2.3,7.56l-7.52,3.98-1.31-6.74c5.74-2.72,5.23-9.18,8.13-15.63,1.63-3.63,4.83-7.48,7.37-10.39,.97-1.11,1.88-1.82,2.85-2.9,3.48-3.85,5.15-11.53,5.62-18.11,1.01-14.11-2.19-18.5-2.35-20.85-.16-2.31,2.34-5.34,5.62,1.1Z" style="fill:#989898; fill-rule:evenodd;"/></g><g id="Layer1002"><path id="path23" d="M241.34,350.38l-.14,.31c-.5,1.49-.44,3.29-.36,4.92,.12,2.45,.83,2.39,1.34,3.91-.36,.72-.72,1.19-1.13,1.77-.62,.88-.6,1.08-1.34,1.62-2.22,2.59-7.89,7.27-10.84,9.21l-10.4,7.37c-.24,.16-1.2,.65-1.14,1.19,.59,1.08,.91,.63,2.28,.22,3.54-1.08,17.65-5.25,19.22-5.42l2.27,9.28c1.21-.02,1.01-.02,1.36-1.13,1.32-4.15,9.36-15.43,12.17-19.74,.58-.89,1.21-2.11,1.9-2.8,1.03,1.01,6.55,9.71,7.88,11.72,1.38,2.1,2.57,3.94,3.9,6.03,2.65,4.13,2.08,4.45,3.12,6.43l1.08,.08,1.76-9.92,21.81,6.23c2.89,.86,2.06,.57,2.51-.2-.28-.85-2.03-1.52-3.43-2.29l-10.86-6.4c-4.58-2.9-9.17-5.96-12.59-10.15-.79-.71-.93-1.55-1.55-2.52,.56-1.08,1.76-1.41,2.05-3.74,.2-1.62,.15-4.37-.32-5.67-.22-.86-.65-1.49-1.2-1.95-.77-.66-1.37-.6-1.88-1.08,1.57-1.73,5.63-11.1,6.72-14.1,3.33-9.18,7.49-25.5-1.7-32.11-3.02-2.17-3.76-2.16-7.87-2.61-3.16-.35-6.46-.57-9.7-.56-5.57,.02-13.21,.05-17.44,3.56-8.61,7.13-3.78,23.34-.09,32.34,2.64,6.44,4.54,8.92,6.75,13.77-2.3,.16-3.48,.58-4.15,2.42h0Z" style="fill-rule:evenodd;"/><path id="path25" d="M253.69,304.55c-2.76,.12-5.53,.35-8.15,.9-1.81,.38-2.31,.2-2.3,2.07,.03,7.81,4.6,25.35,7.67,32.56,.84,1.97,1.98,4.35,3.05,5.84,1.86,2.6,3.1,3.15,5.17,.27,4.66-6.47,12.45-27.99,12.08-37.1-.08-1.87-.23-2.21-1.55-2.91-3.5-1.83-11.67-1.81-15.96-1.63h0Z" style="fill:#94d4f6; fill-rule:evenodd;"/><path id="path27" d="M253.99,348.01h-7.06c-4.97-9.14-17.88-32.84-8.35-44.32,.62-.74,2.22-1.82,3.35-2.4,1.84-.93,2.61-.9,4.84-1.15,8.26-.92,13.36-.41,21.09,.19,4.64,.36,8.03,3.97,9.41,8.17,1.56,4.75,1.01,10.41-.04,15.25-1,4.61-2.54,8.93-4.28,12.99-.84,1.96-4.62,10.65-5.96,11.28h-7.65c.9-1.71,2.35-3.26,3.43-5.49,3.64-7.51,11.31-28.23,9.43-35.25-1-3.76-9.84-3.97-14.11-4.02-3.1-.04-14.68,.05-15.82,2.33-1.78,3.54,4.01,25.27,5.67,30.11,.78,2.28,1.6,4.43,2.6,6.54,1.83,3.86,2.46,3.96,3.43,5.78h0Z" style="fill:#a90000; fill-rule:evenodd;"/><path id="path29" d="M242.02,356.65c-.72-2.8-.39-6.94,2.25-7.26l19.32-.02c3.4,0,6.75-.88,7.5,2.14,.66,2.69,.46,6.93-2.27,7.25l-24.08,.02c-1.78-.08-2.36-.67-2.73-2.13h0Z" style="fill:#a90000; fill-rule:evenodd;"/><path id="path31" d="M241.68,381.95l-1.93-8.04-18.38,5.21,14.45-10.77c2.42-1.83,6.22-5.48,7.43-8.28l12.21,.07c-.47,1.34-2.53,4.02-3.4,5.36-1.18,1.8-2.35,3.58-3.53,5.36-1.23,1.85-2.31,3.52-3.51,5.38-1.14,1.76-2.17,3.94-3.35,5.7h0Z" style="fill:#a90000; fill-rule:evenodd;"/><path id="path33" d="M257.65,360.14h11.18c1.37,1.91,1.7,4.1,5.86,7.37,3.35,2.63,7.47,5.48,11.15,7.68,1.9,1.14,5.35,2.93,6.88,4.14l-19.38-5.49-1.52,8.5-13.39-20.81c-.45-.65-.45-.92-.78-1.4h0Z" style="fill:#a90000; fill-rule:evenodd;"/></g><path id="path36" d="M7.85,306.35l34.51,4.51,8.63-39.38c10.74,24.65,23.73,45.79,39.75,62.19l-31.64,34.23,27.41,34.82c-30.4-28.66-58.93-60.03-78.66-96.37Z" style="fill:#94d4f6; fill-rule:evenodd;"/><path id="path38" d="M505.05,305.7l-34.51,4.51-8.63-39.38c-10.74,24.65-23.73,45.79-39.75,62.19l31.64,34.23-27.34,35.11c32.25-27.67,58.86-60.32,78.59-96.65h0Z" style="fill:#94d4f6; fill-rule:evenodd;"/><path id="path40" d="M102.25,328.72c93.29,97.91,218.96,94.91,308.57,.24l36.9,38.64c-113.2,101.09-258.44,109.86-381.32-.34l35.85-38.54Z" style="fill:#94d4f6; fill-rule:evenodd;"/><path id="path42" d="M248.46,157.72c14.8-2.46,30.13,6.49,36.77,18.45,7.72,13.91,5.84,30.98-3.84,42.02-3.14,3.58-5.63,5.95-10.11,8.45-9.09,5.07-20,6.34-30.07,2.93-8.64-2.94-15.98-8.93-20.4-16.71-7.86-13.85-5.85-31.13,3.7-42.08,5.59-6.41,12.01-11.07,23.94-13.05h0Zm12.72,17.46s.04-.06,.05-.04c.39,.33-.07,.05-.08,.06,0,0,.02,0,.02-.02Zm-18.48-2.41s-.08-.09-.09-.1l.09,.1Zm20.41-3.76c2.39,.01,4.33,.71,5.68,1.65-1.01-2.13-3.24-3.34-5.76-3.55-3.78-.31-2.18,.27-2.9-.57,1.53-1.25,4.12-1.12,5.97,.05-1.48-3.15-8.59-3.81-11.37-1.21,.26-1.69,1.11-1.94,2.3-2.52-1.07,.22-2.33,.44-3.32,1.01-.41,.24-.05,.03-.55,.36l-.4,.28c-.66-1.14-2.49-1.37-3.82-1.65,1.19,.62,1.91,.89,2.29,2.5-3.92-3.05-10.27-1.32-11.36,1.22,1.47-.78,5.29-1.77,5.93,.5-7.47-.17-8.64,3.19-8.64,3.19l.31,.38s.1-.11,.13-.14l.89-.67c1.3-.67,2.86-.89,4.35-.82-1.96,2.25-6.39,3.22-6.44,9.22,1.54-2.48,2.87-4.48,6.02-5.55-.65,1.21-1.7,2.18-2.43,3.61-.33,.64-.6,1.59-.67,2.46-.03,.37-.01,1.04,.06,1.35l.5,1.05c.61-2.65,3.13-5.12,5-5.99-.64,1.1-1.35,2.39-1.97,3.55-1.07,2.02-.18,4.73-.12,4.58,.01-.04,.07,.12,.11,.17,1.34-1.92,3.35-6.41,4.88-7.07l-.76,3.73c.66-.64,1-1.58,1.55-2.3,.57-.75,1.22-1.15,2.26-1.58l.14,19.41c-2.06-.88-4.32-2.28-6.47-3.15-7.11-2.87-15.11-3.54-22.76-2.56l-1.35,.26c-.07,.02-.16,.06-.22,.08l-.44,.2c5.8,.22,11.68,.51,16.94,2.02,4.13,1.18,10.33,3.93,12.44,6.32-1.76,1.72-6.38,5.12-8.74,7.14-.96,.82-1.86,1.78-3.05,2.39-.5-2.22-2.84-7.6-5.83-5.25-.84,.66-1.81,2.98-.66,4.38,1.27,1.55,3.44,.2,4.78,.96,1.14,1.22-.43,2.1-1.33,2.68-2.88,1.84-3.34-1.3-6.75-.97-4.41,.42-2.39,6.23,4.12,5.45,2.66-.32,4.61-2.1,6.24-3.11,.88,1.38,4.3,6.08,7.27,4.01,1.19-.83,1.75-3.06,.2-3.93-1.78-1-3.16,.05-4.67-.03-2.37-3.08,8.91-9.8,10.39-10.43-.25,4.39-.4,8.5-1.08,12.7-.78,4.79-1.66,6.59-2.68,10.74h11.3c-2.57-8.51-3.24-13.61-3.8-23.41,1.68,.61,5.22,3.33,6.57,4.35,1.4,1.07,5.01,3.6,4.15,6.01-1.57,.25-3.17-.91-4.97,.04-1.62,.85-.98,3.21,.2,3.98,3.19,2.1,6.06-2.82,7.28-4.02,1.64,1.08,3.73,2.9,6.5,3.12,2.62,.21,6.1-.82,6.16-3.23,.07-3.04-3.97-2.45-5.91-1.31-1.44,.85-1.62,1.08-3.13,.04-1.01-.7-1.93-1.28-1.63-2.73,1.7-.56,4.05,.48,5.16-1.1,2.28-3.25-4.02-8.99-6.62,1.05-.83-.39-2.52-1.91-3.14-2.49-1.05-.97-1.71-1.3-2.82-2.41-1.7-1.71-3.86-3.11-5.81-4.62,1.96-2.36,8.42-5.18,12.46-6.33,5.31-1.51,11.13-1.76,16.92-2.01-.07-.04-.16-.08-.21-.1l-.43-.17c-.19-.06-.25-.08-.44-.12-2.45-.57-5.17-.6-7.67-.6-2.97,0-5.99,.32-8.73,.85-6.12,1.2-8.6,3.01-13.78,5.3l.16-19.21c1.75-.04,2.76,2.37,3.75,3.82,.09-1.51-.47-2.55-.71-3.88,1.93,1.12,3.4,4.77,4.69,6.77,.02,.04,.1,.2,.12,.16,.02-.04,.08,.11,.12,.16,1.97-3.25-1.13-5.82-1.87-8.21,3.2,1.88,3.4,3.28,5,5.85,1.8-3.25-1.81-7.01-2.93-8.64,2.7,1.25,5.16,2.88,6.22,5.93,.41-5.75-4.77-7.34-6.39-9.4h0Z" style="fill:#037433; fill-rule:evenodd;"/><path id="path44" d="M250.05,425.89c.25-1,.55-1.3,1.26-1.83l.93,1.68c.22,.66,.36,1.21,.45,1.94-1.25-.3-2.04-1.04-2.64-1.79Zm-41.85-6.5c.52-.97,1.42-1.59,2.94-1.94-.05,1.26,.16,1.81-.86,2.22-.78,.31-1.53-.03-2.09-.28Zm32.21,8.42l-4.07-.27c-1.38-7.18-6.93-12.14-7.27-13.93,1.92-1.61,4.81-2.05,6.84-2.83,.33-.13,.29-.1,.56-.26,.83-.51,.73-2.21,.99-4.26-1.8,.48-5.61,2.08-7.08,2.92-2.99,1.71-5.71,6.29-3.09,9.89,.42,.58,.87,1.28,1.33,1.43,.97,.32,.14-.51,1.25,.4,1.28,1.04,3.39,4.2,4.02,6.36l-9.56-1.04c.38-5.16,.65-5.45-1.03-9.99-.61,.62-1.96,3.28-1.68,4.27,.2,.72,.7,1.3,.9,2.29,.23,1.11,.15,2.12,.1,3.24l-9.3-.98c-.74-5.11,.7-10.69,.29-15.52-1.47,1.6-2.15,1.94-2.26,4.97-1.7,.48-12,6.48-4.18,8.45,1.98,.5,2.44-.2,3.65-.75,.02,1.79-.02,3.83,.54,5.45,.59,1.71,2.26,1.74,4.35,1.93,3.79,.34,7.62,.7,11.38,1.13,3.93,.45,7.45,.9,11.37,1.18,4.78,.34,7.44,1.29,9.99-1.98,2.68,2.13,4.31,2.61,8.05,2.59,6.15-.03,6.27,1.11,5.72-5.03-.28-3.19-.71-6.42-1.06-9.62-.15-1.4-.76-3.67-.31-4.83,.16-.4,.09,.18,.46-.87l.34-3.71c-3.31-2.08-1.41-.72-2.63-2.58-.35-.54,.14-.09-.43-.48-.11,.19-.11,.13-.29,.6l-.45,1.92c-.67,4.29,.47,1.99,.75,5.21l1.52,15.14-4.92,.04c-.42-1.21-.62-2.89-1.08-4.18-.47-1.3-1.07-2.45-1.52-3.74-4.87,1.1-4.79,9.05-10.05,7.46-.06-1.94-.86-13.93-.36-15.16,.6-1.47,1.04-1.73,1.07-4.55-3.31-2.73-.95-.19-2.63-3.42-.6,.58-.76,1.36-.98,2.25-1.15,4.65,.14,2.7,.28,5.08l.46,15.78Zm26.84,6.15c3.83-1.73,.55-25.32,.27-25.9-.96,.35-.49,.16-1.31,2.4-.49,1.33-.55,1.41-.39,3.02,.45,4.71,1.15,12.5,1.16,17.11,0,1.39-.33,2.52,.28,3.37h0Zm-48.04,.76l-2.1-1.52-1.57,3.35c.97,.84,1.58,1.74,2.86,2.26,.27-1.01,.86-2.33,1.54-2.99l1.82,1.43,1.74-3.19c-.92-.99-1.66-1.63-2.72-2.35l-1.55,3.01Zm-7.59-30.02l-1.81-1.66-2.03,3.19,2.41,2.44,1.89-2.87c.87,.56,.9,1.06,1.83,1.61,.8-.92,1.31-1.91,1.98-3-.78-.88-1.55-1.95-2.58-2.56l-1.69,2.85Zm-55.38,1.71c-1.74-.33-2.27-1.68-.9-2.87,1.11,.53,1.04,1.46,.9,2.87Zm32.81,12.99l-4.34-.86c1.06-3.09,1.62-3.76,1.43-7.54-.68,.34-.84,.6-1.41,1.15-.62,.61-.84,.58-.84,1.64,0,1.69,.59,3.56-1.18,3.96-1.6-1.21-.17-4.79,.1-6.79-2.39,1.22-1.67,3.08-3.14,4.96-5.2,.79-3.67-4.01-3.43-7.53-2.79,1.7-1.3,2.52-3.07,4.95-1.45,.18-6.27-1.24-7.24-3.14,.98-.89,2.57-1.07,3.31-2.83,1.56-3.7-4.01-6.25-6.13-5.09-.85,.47-2.44,2.83-2.1,3.83,.93,.25,2.38-.62,1.75,1.83-2.37,.41-2.95-.03-4.87-.65,0-1.98,.92-4.01,.36-6.02-1.06-3.78-5.65-.18-6.09,5-.23,2.72,1.16,3.26,2.81,4.19-6.69,8.22-9.82,3.71-11.94,3.09-.22,.51-.3,.62-.51,1.16,1.58,1.16,4.9,4.62,8.23,3.19,2.61-1.13,4.58-3.83,5.84-6.63,3.14,.74,2.82,1.06,6.32,.18,.35,2.81,1.46,3.45,3.72,4.43,2.63,1.14,3.44,1.67,6.51,1.27,.9,2.17,3.5,3.12,6.56,2.56,1.21,3.41,10.13,4.15,10.44,3.9,.04-.06,.09-.23,.1-.19,.01,.04,.08-.14,.1-.19,1.23-3.07,2-17.71,2.3-18.52,.24-.66,.48,.25,1.15-1.55,.31-.84,.65-1.95,.74-2.89-2.69-2.46-1.4-1.86-2.13-3.63-1.07,.46-1.92,3.23-2.11,4.59-.19,1.4,.56,.43,.39,2.69l-1.64,15.46Zm-61.57-38.38c-1.77,.16-2.08-.22-2.73-1.38,.47-.4,2.54-.24,3.39-.04l-.66,1.42Zm2.5-3.88c-3.82-.22-7.71-.36-9.58,2.25-.03,.11,.81,4.25,5.07,4.13-1.36,3.87-4.34,4.6-.49,8.19,2.13,1.98,4.53,3.73,6.65,5.62,2.4-2.27,7.58-8.32,7.39-12.05-1,.74-3.29,1.36-3.68,2.83-.84,3.11-.53,2.66-2.07,4.92-.9-.39-.34-.14-1.07-.69l-5.86-4.98c.42-2.48,6.79-10.61,8.27-13.12-.92,.1-1.87,.46-2.62,.9-1.16,.68-1.13,1.12-2.01,2.02h0Zm13.6,21.39c-1.83-.71-3.36-2.09-5.13-2.76-.15-.9,.4-3.8-1.68-.97-.81,1.11-1.73,2.34-.73,3.89,.47,.73,5.61,3.91,6.76,4.04,.49-.13,2.12-3.2,2.39-3.69,1.82-3.27,5.31-10.69,2.32-13.83-.7,.79-1.3,1.84-1.92,2.76-1.19,1.75,.04,1.08,.33,3.22,.32,2.31-1.18,6.09-2.34,7.35h0Zm51.62,28.32c.91-.36,2.24-3.55,2.56-4.82,.6-2.35,2.4-19.36,1.78-20.75-.7,.31-.39,.06-.96,.95-.86,1.37-1.45,2.49-1.57,4.23-.16,2.29-.35,4.66-.55,6.96-.2,2.3-.42,4.59-.68,6.87-.19,1.69-1.23,5.55-.59,6.56Zm-73.8-29.1l.76,3.44,3.11-1.57,.75,2.24,3.26-1.55c-.13-1.05-.56-2.72-.96-3.54l-2.95,1.61-.78-2.33-3.2,1.71Zm9.93-29.4l.73,3.42,3.12-1.51,.62,2.38,3.36-1.52-.7-3.48-3.26,1.5-.54-2.49-3.32,1.71Zm173.21,52.97c-.3-.31-.66-1.26-.17-1.74,.83-.81,1.95,1.29,2.21,2.11-.86,.05-1.53,.15-2.03-.37Zm24.4-3.78c-.66,.59-1.73,.97-2.67,1.2-2.67,.65-3.15-.55-5.21-2.42-.75-.68-1.43-1.14-2.16-1.77-3.52-3.05-7.84-4.19-8.54,2.46,2.02-.4,3.19-.74,5.18,.13,.84,.37,3.37,2.01,3.64,2.6l-10.84,1.53c-.94-1.72-.94-3.12-2.17-4.7-1.29-1.66-3.23-1.49-3.8,.77-.49,1.93-.1,4.4,.62,6.05,.88,1.99,1.74,2.58,4.6,2.28-.48,3.84-2.13,8.53-6.57,8.58-.87,.01-1.51-.13-2.18,.27,0,1-.69,1.39,4,1.57,6.02,.23,6.95-5.3,6.51-10.77,3.81-.35,8.05-1.14,11.88-1.68,3.87-.55,8.19-.71,10.9-2.7,.11-2.29-3.45-9.32-4.42-11.53-.79-1.81-1.64-3.54-2.47-5.38-1.29-2.86,.71,.51-.56-4.39-.66-2.54-1.45-1.16-2.89-2.08-1-.64,0-.76-1.48-1.4-.04,1.15,.09,2.34,.3,3.39,.59,2.93,.56,2.03,1.15,2.49,1.16,.92,1.94,3.62,2.57,5.01,.84,1.84,1.52,3.45,2.35,5.22,.61,1.31,1.93,3.98,2.26,5.27h0Zm-50.6,4.34c.14-1.09,1.36-2.11,2.49-2.47,.3,2.34,.03,2.92-2.49,2.47Zm2.08-5.34c-1.98,.88-5.98,4.65-5.66,8.19,3.06,1.22,4.7,1.27,6.62-.67,.35,2.2,.71,6.25,3.42,6.45,2.9,.21,6.78-.01,9.81-.01,.77-3.55,.15-11.74-1.98-13.88-2.96,4.65,.25,4.02,.39,9.7l-8.78-.03c-.83-2.99-1.84-13.88-2.52-15.2-1.38,2.42-1.39,2.24-1.31,5.47h0Zm54.04,4.57c1.46-3.97-.44-9.48-1.53-13.25-.6-2.08-1.25-4.17-1.88-6.22-.32-1.05-1.26-5.41-2.32-5.85-1.76,3.41,.9,9.34,1.94,12.77,.62,2.03,1.21,4.16,1.8,6.29,.81,2.96,.85,5.8,2,6.25h0Zm-43.9,14.23c-.9-.46-1.34-.84-2.11-1.27-.63,.71-1.09,2.26-1.34,3.33,.83,.83,1.84,1.44,2.91,2.09l1.21-3.2c1.02,.46,1.26,.98,2.17,1.34l1.34-3.53c-.96-.67-1.97-1.37-2.88-1.89-.63,.76-.98,2.09-1.29,3.13Zm-11.78-28.57c-.76-.41-1.24-.82-2.11-1.28l-1.2,3.41c.83,.82,1.83,1.41,2.78,2l1.35-3.12c.76,.26,1.44,.83,2.05,1.27,.57-.61,1.23-2.6,1.43-3.62-1.25-.49-1.75-1.22-3.02-1.8-.28,1.03-.65,2.44-1.29,3.14h0Zm36.33,23.34l3.17,1.56,.89-3.78-3.21-1.54-.85,3.77Zm58.96-35.98c1.29-.38,2.18,.69,2.58,1.75-1.65,.37-2.91-.04-2.58-1.75Zm4.53-7.26c1.22-.28,2.46,1.2,2.91,1.93-1.64,1.12-3.7-.03-2.91-1.93Zm10.16,2.19l-3.45,2c-1.75-2.16-4.5-9.88-8.28-8.11-1.87,.94-.92,4.97-.07,6.78,1.7,3.6,4.05,2.69,5.76,2.61-1.11,.39-2.97,1.93-4.68,2.49-2.05-5.07-6.48-6.48-6.37-1.88,.05,1.91,.85,3.97,1.8,5.22,1.44,1.88,2.28,1.99,5.02,1.39,.2,3.45-.26,8.29-3.87,9.5-.69,.23-1.05,.21-1.72,.35-1.55,.33-1.23-.15-1.03,1.34,1.02,.51,6.7,.39,8.23-2.49,1.88-3.53,.46-6.35,.05-9.81,1.32-.43,11.3-5.78,12.27-6.56,.14-2.02-6.34-10.56-7.87-12.89-.61-.93-1.05-1.61-1.73-2.46-1.5-1.89,.03-.68-.75-2.88-.29-.84-.98-2.18-1.36-2.79-3.95,0-2.04-.69-4.1-1.29,.02,1.21,1.07,4.34,1.63,5.02,.99,1.21,.48-.77,2.49,2.47,2.38,3.82,6,8.28,8.01,12h0Zm-33.64,11.33c1.88,.65,3.41,2.79,4.15,4.87-.8,.75-9.68,4.57-11.41,5.27-4.19,1.68-6.89-.3-7.43-4.2-.25-1.78,.34-2.51-1.41-2.61,.09,3.63,.28,5.73,1.91,8.41,1.22,2.01,3.54,3.82,7.12,2.78,1.37-.4,13.81-5.93,14.56-6.53-.4-1.52-2.22-5.25-3.02-6.79-1.31-2.53-2.57-4.36-4.79-5.45l.32,4.25Zm42.12-11.03c1.22-3.58-6.67-13.4-9.27-17.17-.55-.8-3.16-4.71-4.07-5.04-.47,.8,.08,2.52,.33,3.54,.31,1.28,1.11,1.91,1.7,2.75,2.61,3.69,8.09,11,10.03,14.82,.51,1.02,.3,.96,1.28,1.11h0Zm-31.9,18.18c1.31-2.82-3.15-10.5-4.37-12.55l-5.65-9.77c-.69-1.17-.25-.98-1.28-1.13,.11,3.79,.31,4.21,1.86,6.83,1.09,1.84,2.13,3.65,3.14,5.48,1.06,1.9,1.99,3.65,3.06,5.57,.56,1.02,1.01,1.88,1.51,2.93,1.23,2.63,.49,2.39,1.74,2.63h0Zm-20.11-10.7l-2.46-.45,.18,3.68,3.49,.79-.18-3.55,2.51,.43-.16-3.78-3.56-.64,.16,3.52Zm27.63-19.65l-2.39-.51,.13,3.57,3.02,.72-.25-3.24,2.57,.54-.17-3.58-3.02-.74,.12,3.24Z" style="fill-rule:evenodd;"/><path id="path46" d="M232.06,39.67c3.37-.97,4.38,4.11,1.6,5.17-3.57,1.36-5.39-4.08-1.6-5.17Zm72.88,37.33c3.56-1.18,4.65,4.22,1.67,5.18-3.25,1.05-5.26-3.99-1.67-5.18Zm5.8-27.94c3.3-.85,4.54,4.41,1.43,5.26-3.67,1-5.07-4.32-1.43-5.26Zm-55.48,4.17c3.34-1.49,5.11,3.89,2.08,5.05-3.27,1.25-5.55-3.51-2.08-5.05Zm-49.45,16.71c3.57-1.51,5.12,4.07,1.9,5.12-3.39,1.1-5.16-3.73-1.9-5.12Zm5.19-20.38c3.16-1.67,5.5,3.34,2.26,4.94-2.97,1.47-5.56-3.2-2.26-4.94Zm-22.48,17.49c3.54-1.28,4.64,4.1,1.71,5.19-3.28,1.22-5.29-3.89-1.71-5.19Zm58.45-29.42c3.49-1.84,5.21,3.33,2.55,4.74-3.24,1.72-5.89-2.99-2.55-4.74Zm-23.7,44.28c3.39-.91,4.74,4.59,1.3,5.33-3.42,.74-4.84-4.38-1.3-5.33Zm32.11-15.03c3.53-1.37,4.66,3.7,1.99,5.01-1.55,.77-3.2-.27-3.63-1.46-.57-1.6,0-2.91,1.64-3.55Zm-38.36-22.58c3.28-1.26,4.98,4.05,1.72,5.19-3.21,1.13-5.21-3.85-1.72-5.19Zm-30.18,37.18c2.98-.88,4.12,3.9,1.25,4.75-3,.89-4.75-3.71-1.25-4.75Zm19.52-4.48c3.56-1.2,4.79,4.19,1.67,5.18-3.56,1.13-5.08-4.02-1.67-5.18Zm73.29-37.34c3.51-.99,4.32,4.41,1.4,5.24-3.61,1.03-4.98-4.23-1.4-5.24Zm-70.43,45.16c3.62-.91,4.55,4.47,1.48,5.26-3.87,1-4.86-4.41-1.48-5.26Zm46.11-4.38c3.19-1.42,5.14,3.83,2.04,5.04-3.22,1.27-5.65-3.43-2.04-5.04Zm49.84-10.51c3.67-1.48,4.99,4.07,1.9,5.12-3.4,1.16-5.15-3.81-1.9-5.12Zm-81.02-28.44c3.21-1.75,5.45,3.39,2.22,4.93-3.01,1.44-5.61-3.08-2.22-4.93Zm78.73,14.87c3.34-.81,4.52,4.39,1.43,5.25-3.63,1.02-5.1-4.36-1.43-5.25h0Zm-115.3,17.78c3.44-.88,4.33,4.33,1.42,5.25-3.43,1.09-5.2-4.28-1.42-5.25Zm98.98-32.7c3.48-1.59,5.37,3.83,2.1,5.03-3.45,1.27-5.19-3.62-2.1-5.03Zm-31.18,5.07c3.5-1.4,4.65,3.69,1.99,5.01-3.06,1.51-5.79-3.49-1.99-5.01h0Zm13.46,.32c.6,.88,1.1,2.26,1.85,3.11-.04-2-.5-1.89-.84-3.19-.37-1.38,.69-.74,1.22,.4,1.08,2.29,.18,4.57,.91,6.41,1.2-1.96,.17-4.04,.45-4.9,.99,.05,1,.02,1.1,1.52,.05,.79,0,1.43-.16,2.2-.28,1.4-.94,2.32-.78,3.77,.67-.39,1.26-1.29,1.59-1.95,.65-1.26,.12-1.8,1.2-2.34,.26,.4,.15,.02,.24,.68l-.33,1.45c-1.19,2.48-2.55,2.24-2.12,5.46,.53-.49,1.02-1.11,1.47-1.93,.69-1.28,.16-1.97,1.26-2.33,.39,.46,.1-.24,.23,.54,.36,2.04-2.11,3.46-2.7,5.04-.57,1.54,.18,1.77,.47,2.06,.47-.9,1.01-1.39,1.55-2.4,.72-1.33,.16-2,1.23-2.39,.33,.35,.51-.24,.27,1.21-.15,.96-.94,2.09-1.49,2.76-.88,1.09-2.06,1.91-2.03,3.55,1.97-.86,3.02-4.2,4.03-4.43,.38,.62,.34,.88-.5,2.12-2.37,3.49-3.57,2.11-3.78,5.6,1.65-.9,2.77-2.16,3.53-3.76,.55-1.16,.02-.88,1.01-1.1l-.02,1.28c-.13,.33-.35,.67-.57,1.03-1.55,2.51-4.45,3.09-4.22,5.39,.58-.65,1.71-1.06,2.38-1.75,.96-.99,.75-2.22,2.06-1.68-.61,1.54-1.44,2.2-2.54,3.04-1.75,1.33-2.2,.83-2.55,3.25,.66-.25,2.25-1.34,2.62-1.63,1.26-.99,.73-2.01,2.27-1.81-.49,1.59-1.53,2.18-2.62,3.03-1.3,1.03-2.53,.93-2.83,2.73,1.14-.31,1.95-.76,2.83-1.42,1.29-.96,1.07-1.71,2.19-1.34,.11,.57-.64,1.16-1,1.48-.97,.85-2.11,1.42-3.33,1.9-1.13,.44-.99,.16-1.27,1.4,1.8-.5,3.56-1.33,4.8-2.6,.77-.79,.21-.78,1.27-.48-.57,1.39-2.64,2.62-4.42,3.36-2.49,1.03-2.39,1.02-3.33,4.5l-1.47-.33,.96-2.87c-.47-.82-1.98-2.5-2.55-3.03-1.7-1.57-2.73-1.19-2.7-2.47,1.58-.78,4.13,2.45,5.09,3.5,.65,.72,.05,.18,.61,.52,.56-1.31-2.45-3.93-3.61-4.6-.16-.09-.84-.44-.86-.45-.54-.44-.4,.05-.43-.79,.52-.32,.51-.44,1.7,.3,1.51,.93,2.62,2.49,3.92,3.58,.25-1.6-1.08-2.66-2.07-3.59-.54-.51-2.79-1.77-2.98-2.3,.58-.6-.18-.4,.85-.3,1.89,.19,3.63,2.9,4.78,3.89,.42-2.08-1.07-2.82-2.46-4.11-2.29-2.13-4.05-1.88-3.65-2.8,.41-.51-.17-.52,.89-.22,2.01,.57,3.41,2.49,4.9,3.76l.71,.5c.03-.06,.14,.08,.21,.12,.17-2.11-1.19-2.73-2.71-3.78-1.54-1.07-3.59-1.54-3.57-2.67,1.81-.62,5.5,3.19,6.61,3.83,.2-1.57-.21-1.37-1.09-2.07-1.35-1.07-2.48-1.95-4.12-2.67-1.05-.46-1.59-.24-1.91-1.18,.41-.37,.05-.73,2.14,.18,1.79,.78,3.6,2.41,5.19,3.19,.24-2.78-6.36-4.21-7.82-5.43,.4-1.03,.78-.65,1.94-.22,.78,.29,1.5,.58,2.2,.96,1.45,.8,2.57,1.76,3.82,2.42,0-1.47-.19-1.48-1.25-2.13l-4.66-2.14c-2.69-.8-2.04,.03-2.36-1.1,.77-.57-1.09,.03,.53-.18,2.63-.34,5.46,2.25,7.67,2.84-.39-1.64-4.67-3.12-6.24-3.52-1.25-.32-1.85,.01-2.39-.86,.41-.34,.7-.4,1.4-.34,2.45,.22,4.91,1.86,7.05,2.72-.25-1.37-2.03-1.92-3.32-2.44-1.86-.74-3.64-.47-3.88-1.51,1.59-1.13,5.45,1.45,6.84,1.71-.13-1.28-.09-1-1.13-1.51-3.72-1.84-5.45-1.38-5.71-2.29,1.32-1.22,5.23,.99,6.34,1.47-.34-1.8-3.49-2.71-5.13-3.02-.87-.17-1.57-.05-1.86-.8,.43-.35,1.11-.34,1.79-.21,1.54,.29,2.99,1.15,4.42,1.53-.69-1.89-3.66-2.23-5.37-2.93-.71-.29-.31,.13-.66-.49,.43-.35,.94-.42,1.65-.3,1.23,.21,2.33,.97,3.43,1.43-.5-1.37-2.34-1.67-3.45-2.08-1.24-.46-.64,.61-.81-.97,1.28,.01,1.76,.04,2.75,.5,.27-.75-.45-.64,1.25-1.14h0Zm-13.29-7.44c3.49-1.06,4.49,4.16,1.65,5.19-3.65,1.32-5.14-4.13-1.65-5.19Zm-54.55,9.73c3.35-1.12,4.5,4.22,1.6,5.18-1.83,.61-3.24-.49-3.56-1.84-.49-2.11,.58-2.88,1.96-3.34Zm121.79,17.99c3.41-1.32,4.87,4.04,1.85,5.11-3.47,1.23-5.39-3.74-1.85-5.11Zm-75.05,13.33c3.51-1.51,4.92,3.87,2.04,5.04-3.24,1.32-5.67-3.48-2.04-5.04Zm-17.86,.76c3.1-1.76,5.58,3.4,2.25,4.94-2.91,1.35-5.6-3.03-2.25-4.94Zm90.01-20.88c3.09-1.85,5.59,3.44,2.22,4.93-2.82,1.24-5.6-2.91-2.22-4.93h0Zm-112.87,2.91c3.47-1.38,4.79,3.62,1.98,5-2.21,1.08-4.69-1.28-3.51-3.76,.42-.88,.78-.94,1.53-1.24h0Zm89.09,19.8c3.26-1.43,5.16,3.83,2.05,5.03-3.23,1.25-5.6-3.48-2.05-5.03Zm-24.34-44.7c3.38-1.22,4.69,4.06,1.66,5.18-3.38,1.25-5.31-3.86-1.66-5.18Zm-16.48,35.28c3.32-1.48,5.12,3.86,2.07,5.04-3.25,1.26-5.53-3.5-2.07-5.04Zm-14.15-19.97c.34-1.3-.13-7.06,1.66-7.52,1.16-.3-.34,2.45-.45,3.67,.81-.85,1.18-2.03,1.93-2.9,1.17,.29,1.29,.9,1.29,.88l2.65-.3c-.13,1.45,.45,.64-.98,1.01-1.21,.31-2.5,.73-3.27,2.02,.98-.42,1.53-.84,2.6-1.17,2.29-.71,2.14-.42,2.47,.06-.32,.64-.07,.3-.82,.55-.01,0-.74,.14-.88,.17-1.52,.36-3.76,1.39-4.35,2.77,1.44-.46,4.86-2.6,6.22-1.4-.31,.92,.34,.33-.91,.64l-3.09,.82c-1.33,.54-2.77,.86-2.96,2.37,.88-.4,1.81-.87,2.81-1.22,.49-.17,1.16-.37,1.64-.46,1.41-.26,1.38-.13,1.86,.2-.62,1.35-.93,.05-4.09,1.51-1.41,.65-2.64,.73-2.77,2.37,1.14-.39,1.95-.97,3.21-1.41,2.23-.79,3-.72,3.65-.38-.43,1.04,.52,.33-.99,.74-1.99,.53-3.13,.75-5,1.76-.97,.52-1.04,.44-1.21,1.45,2.06-.66,4.16-2.03,6.38-2.56,.15-.03,1.16-.23,1.28-.22,.73,.05,.43-.16,.78,.4-.43,.79-1.46,.61-2.54,.92-1.83,.51-5.66,1.52-6.1,3.52,1.36-.54,2.63-1.4,4.2-2.02,1.04-.42,3.6-1.72,4.02-.32-.24,.18-3.97,1.31-4.92,1.77-1.93,.93-3.38,1.13-3.35,3.25,1.68-.84,3.64-2.45,5.66-3.29,.22-.09,1.04-.39,1.2-.41,1.37-.13,.5-.17,1.04,.25-.28,.79,.3,.31-1.07,.81-.43,.16-.71,.21-1.17,.4-1.6,.65-5.56,2.65-5.58,4.54,2.01-1.1,3.64-2.69,5.9-3.48,1.26-.44,1.15-.52,1.51,.35-.43,.36-3.36,1.59-4.26,2.17-1.91,1.21-3.11,1.87-2.86,3.49,.8-.66,5.42-5.03,6.65-3.57-.36,1.04-2.64,1.06-5.56,4.07-.69,.71-.94,.71-.79,2.04,.68-.33,.14-.03,.59-.36l1.26-1.14c.55-.5,.97-.89,1.55-1.32,.93-.69,2.52-2.18,3.45-1.18-.66,1.21-7.46,3.7-6.22,6.69,.67-.53,4.21-4.5,5.16-3.82,1.11,.79-.28,1.03-.91,1.36-1.49,.78-4.05,3.09-3.69,4.88,1.42-1.34,2.4-2.76,4.11-3.7,1.07-.59,.93-.58,1.48-.09-.03,.91,.32,.17-.57,.76-1.52,1.01-2.62,1.85-3.82,3.25-.55,.64-.99,.99-.45,1.86,1.44-1.63,2.08-2.59,4.03-3.8,1.11-.7,1.08-.69,1.61-.26,0,.89-1.13,1.05-2,1.72-.85,.66-1.17,1.01-1.83,1.85-2.21,2.81-1.35,1.19-.51,4.7l-1.31,.22c-1.88-2.8,.3-2.81-3.43-4.37-1.8-.75-3.96-1.91-4.46-3.4,2.11-.31,1.12,1.71,6.07,3.12-.34-1.35-.23-.96-1.42-1.48-1.44-.62-3.09-1.24-3.97-2.58l-.2-.77c1.56-.34,.64,1.51,5.01,2.77-.22-1.3-.15-1.08-1.21-1.66-1.5-.83-3.36-1.77-3.97-3.36-.4-1.04-.17-.45,0-.77,.72-.11,1.46,1.2,2.13,1.8,.82,.73,1.49,1.22,2.45,1.74-.1-2.13-1.11-2.21-2.5-3.25-1.05-.78-2.11-1.56-2.55-3.16,2.02-.34,1.11,2.03,4.5,3.38-.18-2.47-2.32-2.42-4.35-5.41-1.39-2.04-.56-2.03-.46-2.18,.76,.22,.66,.59,1.04,1.34,.23,.46,.67,1.06,.94,1.41,.76,.99,1.43,1.49,2.43,2.15,.2-3.26-1.96-2.98-3.71-5.57-1.45-2.14-.52-2.08-.44-2.19,.82,.24,1.28,1.79,1.74,2.46,.62,.93,1.21,1.59,2.26,2.03-.04-2.2-2.48-3.58-3.31-5.7-.71-1.79-.37-1.64,.1-1.87,.83,.36,.34,.09,.72,1.35,.41,1.37,1.51,2.56,2.39,3.5,.58-3.02-1.38-3.46-2.31-5.69-.82-1.95-.22-1.8-.01-2.01,.82,.3,.29-.24,.71,1.08,.38,1.2,.95,2.41,1.98,3.13,.28-2.65-.11-2.4-1.33-4.07-.43-.58-2.03-2.97-.84-3.47,.35-.01,1.48,3.14,2.17,3.79,.59,.57-.41-.1,.62,.43,.17-2.05-1.39-4.18-.93-6.43,.18-.9,.17-1.1,1.13-.91-.04,1.81-.75,3.03,.41,4.89h0Zm62.23,31.17c3.47-.96,4.43,4.46,1.5,5.28-3.52,.98-5.18-4.26-1.5-5.28Zm-9.12-40.47c3.41-1.2,4.97,3.91,1.87,5.11-3.48,1.35-5.36-3.88-1.87-5.11Zm15.46,43.92c3.5-1.68,5.12,3.96,2.06,5.03-3.44,1.2-5.3-3.47-2.06-5.03Zm-10.08-38.74c3.54-1.61,5.34,3.73,2.32,4.98-3.57,1.48-5.33-3.61-2.32-4.98Zm-97.47,38.7c3.35-1.35,5.22,3.72,2.09,5.04-3.25,1.37-5.46-3.68-2.09-5.04Zm72.68-7.05c3.51-1.83,5.5,3.94,2.11,5.03-3.51,1.13-4.91-3.58-2.11-5.03Zm-84.06-20.82c3.52-1.67,5.12,3.47,2.38,4.85-1.45,.73-3.11-.03-3.6-1.1-.76-1.7-.3-3.03,1.21-3.74h0Zm46.85,20.36c3.4-.99,4.38,4.39,1.38,5.25-3.6,1.03-5.02-4.19-1.38-5.25Zm-42.78-26.71c3.61-1.76,5.21,3.96,2.09,5.03-3.39,1.16-5.19-3.52-2.09-5.03Zm60.52,6.06c3.46-1.59,4.97,3.93,2.05,5.04-3.29,1.26-5.64-3.39-2.05-5.04Zm-15.54-21.76c3.41-1.06,4.72,4.45,1.51,5.27-3.78,.97-4.91-4.22-1.51-5.27Zm23.8-.75c3.11-1.75,5.56,3.39,2.25,4.94-2.92,1.36-5.62-3.05-2.25-4.94Zm-47.76,45.5c3.3-1.56,5.11,3.91,2.04,5.04-3.47,1.28-5.42-3.45-2.04-5.04Zm88.51-19.95c3.51-1.06,4.74,4.46,1.54,5.28-3.75,.96-4.85-4.28-1.54-5.28Zm-41.49,17.3c3.6-1.37,4.87,4.04,1.86,5.11-3.37,1.2-5.3-3.8-1.86-5.11Zm-54.02-23.98c3.36-1.13,4.65,4.19,1.6,5.19-1.81,.59-3.23-.52-3.54-1.84-.49-2.06,.59-2.89,1.94-3.34Zm116.24,25.08c2.98-.9,4,3.77,1.45,4.72-1.71,.63-3.01-.42-3.28-1.65-.44-1.97,.51-2.67,1.83-3.07Zm-.94-7.32c3.37-1.03,4.47,4.2,1.61,5.19-1.82,.63-3.26-.45-3.57-1.81-.47-2.07,.56-2.95,1.96-3.38Zm-8.23-20.16c3.37-1.72,5.42,3.66,2.06,5.02-3.01,1.22-5.34-3.34-2.06-5.02Zm-26.68,27.94c3.55-.99,4.69,4.47,1.49,5.26-3.78,.93-4.81-4.33-1.49-5.26Zm-7.6-.77c3.11-1.72,5.55,3.38,2.26,4.94-2.95,1.4-5.58-3.09-2.26-4.94Z" style="fill-rule:evenodd;"/><path id="path50" d="M277.98,79.93c.63-10.04,3.69-19.61-1.94-30.18-.57-1.07-1.3-2.02-1.73-2.96,10.88-.95,18.74,.83,23.05,7.79,4.44,7.16,4.19,17.98,2.97,27.07-3.54,.15-8.48-2.56-22.35-1.72Z" style="fill:#037433; fill-rule:evenodd;"/><path id="path52" d="M212.6,81.74c-1.44-9.02-1.36-20.1,2.9-27.12,4.97-8.2,14.23-8.35,23.1-7.85-1.11,2.33-2.34,3.67-3.36,6.67-3.38,9.86-.88,17.4-.32,26.49-4.23-.21-7.54-.38-11.8,.08-3.61,.39-7.09,1.31-10.51,1.73h0Z" style="fill:#037433; fill-rule:evenodd;"/><path id="path54" d="M196.39,93.48c-.71-.51-1.23-1.26-1.88-1.99-3.1-3.54-3.43-1.72-3.37-7.88,.05-4.51,.72-8.94,1.92-12.99,1.71-5.76,7.34-16.33,13.68-16.21-2.06,7.4-4.81,14.64-4.68,22.67,.05,3.3,.64,5.02,1.21,7.94-2.27,.37-3.38,1.85-4.35,3.46-.77,1.28-1.75,3.97-2.52,5h0Z" style="fill:#037433; fill-rule:evenodd;"/><path id="path56" d="M316.39,93.59c-.93-3.16-3.16-7.84-6.75-8.6,1.36-6.08,1.65-9.78,.42-16.16-1.01-5.21-2.76-9.62-3.89-14.51,6.84,1.04,11.56,9.53,13.72,16.43,1.26,4.04,1.86,8.59,1.89,13.12,.02,3.7,.28,4.08-1.66,6.03l-3.71,3.68Z" style="fill:#037433; fill-rule:evenodd;"/><path id="path58" d="M210.09,113.14c.25,2.49,6.11,4.4,8.82,5.19,16.82,4.9,47.52,4.89,64.73,2.29,28.84-4.36,24.36-12.1-.76-15.48-15.93-2.14-36.94-2.3-52.84,.11-4.92,.75-20.4,3.4-19.94,7.9Zm38.84-10.33c14.53-.44,39.73,.21,51.49,5.92,4.34,2.11,5.7,4.94,1.11,7.81-14.24,8.92-73.14,8.4-88.42,.52-1.53-.79-3.33-1.88-3.72-3.58-1.99-8.71,35.64-10.56,39.54-10.68h0Z" style="fill-rule:evenodd;"/><path id="path60" d="M256.19,86.5c1.48,.57,1.42,1.28,2.44,2.16,3.98-.79,5.87-1.44,10.46-1.44,9.54-.01,16.99,2.29,24.38,5.9l1.6-1.19,.65,1.36c8.31,.22,11.82,1.44,15.84,6.39l-4.09,9.25c-5.2-1.41-11.64-4.99-18.32-6.13-6.4-1.09-12.82-2.12-19.28-2.77-4.8-.48-9.61-.76-14.36-.68-11.54,.18-28.51,1.42-39.17,5.76-2.17,.88-7.37,3.6-8.75,5.39-.93-1.94-5.37-10.71-5.55-11.3,3.85-4.36,6.8-6.18,15.04-6.14l.81-1.66,1.31,1.02c5.32-3.17,15.96-5.1,23.24-5.1,5.4,0,6.75,.25,11.79,1.5l1.98-2.32Z" style="fill-rule:evenodd;"/><path id="path62" d="M220.13,93.51c1.16-.35,2.23-.99,3.53-1.47,3.97-1.44,7.96-2.23,12.18-2.74,3.07-.38,6.3-.54,9.45-.4,2.35,.1,6.58,.09,8.06,1.51l-.34,.66-4.12-1.41c.04,1.78,.47,3.44,1.22,4.8,.42,.77,.84,1.24,1.35,1.79l1.55,1.59c-7.16,.15-16.18,.88-23.25,2.12-1.46,.26-5.82,1.31-6.8,1.25,1.43-1.3,1.33-5.33,1.13-7.76-1.3,.64-1.71,1.54-2.9,1.89l-1.06-1.84Z" style="fill:#fe8a3e; fill-rule:evenodd;"/><path id="path64" d="M259.72,89.89c-.11-.16,.63-.44,1.14-.55,9.57-2.17,23.74,.37,31.67,5.06l-.87,1.41c-.46-.37-2.31-1.62-2.83-1.88-.44,3.09-.23,4.78,.8,7.34-4.4-.4-9.46-1.55-14.13-2.08-2.56-.29-5.06-.57-7.63-.81-2.03-.19-6.63-.16-7.59-1,2.3-.9,3.29-4.13,3.29-7.56-.87,.19-1.4,.41-2.21,.73-.44,.17-.81,.58-.94,.39l-.7-1.04Z" style="fill:#fe8a3e; fill-rule:evenodd;"/><path id="path66" d="M253.97,92.52c.42-1.96,1.4-3.6,2.64-4.43,1.54,1.35,1.44,2.78,2.56,4.4l3.16-1.11c-.86,8.96-11.05,7.61-12.04-.19l3.69,1.33Z" style="fill:#f60; fill-rule:evenodd;"/><path id="path68" d="M296.65,96.82l-.33-1.94c2.98-.05,6.13,.12,8.75,1.12,2.1,.8,4.45,2.5,5.12,4.16-1.32,2.24-2.13,4.31-3.7,6.74-6.36-3.21-6.83-3.08-9.37-3.99,.58-.98,.87-1.73,1.49-3.13,.49-1.09,.82-2.34,1.01-3.66l-2.97,.7Z" style="fill:#fe8a3e; fill-rule:evenodd;"/><path id="path70" d="M216.28,96.42l-2.97-.73c.55,4.32,1.85,5.31,3.99,7.44-6.26,1.97-7.5,3.69-9.12,4.98-.57-.55-4.1-7.59-4.31-8.79,3.13-2.3,4.74-5.16,12.65-4.99l-.23,2.09Z" style="fill:#fe8a3e; fill-rule:evenodd;"/><path id="path72" d="M289.54,95.67c1.05,.6,1.5,1.04,2.36,1.7,.48-.59,1.39-2.82,2.81-3.84,.91,1.14,.88,2.93,1.14,4.63l2.51-.68c-1.17,7.15-9.13,7.84-8.82-1.8h0Z" style="fill:#f60; fill-rule:evenodd;"/><path id="path74" d="M214.51,97.14l2.59,.61c.1-1.85,.34-3.28,.95-4.71,1.53,.98,1.81,2.45,2.91,3.84,.97-.63,1.13-1.02,2.4-1.64,.02,9.33-7.17,9.34-8.86,1.9h0Z" style="fill:#f60; fill-rule:evenodd;"/><path id="path76" d="M256.04,92.16c-3.32,.86-1.78,5.53,1.67,4.66,3.12-.78,1.62-5.51-1.67-4.66Zm-.16,.96c3.06-1.66,3.6,4.48,0,2.68-1-.5-.81-2.23,0-2.68Z" style="fill-rule:evenodd;"/><path id="path78" d="M294.19,98.23c1.48,1.15,.72,3.42-.7,3.07-1.18-.3-1.64-3.07,.7-3.07Zm-.71-.82c-2.79,.87-1.85,5.48,.87,4.68,2.15-.64,1.64-5.46-.87-4.68Z" style="fill-rule:evenodd;"/><path id="path80" d="M218.18,100.45c-.58-.86-.66-1.48-.01-2.28,.36-.44,.88-.45,1.41-.2,1.35,.64,1.2,2.7-.62,2.89-.39,.04-.57-.1-.78-.41Zm.97-3.48c-3.39,.17-2.07,4.23-.48,4.7,2.17,.65,3.55-2.21,1.61-4.36-.29-.32-.69-.36-1.13-.34Z" style="fill-rule:evenodd;"/></g></svg>